<?xml version="1.0" encoding="UTF-8" standalone="no"?>
<!-- Created with Inkscape (http://www.inkscape.org/) -->

<svg
   xmlns:dc="http://purl.org/dc/elements/1.1/"
   xmlns:cc="http://creativecommons.org/ns#"
   xmlns:rdf="http://www.w3.org/1999/02/22-rdf-syntax-ns#"
   xmlns:svg="http://www.w3.org/2000/svg"
   xmlns="http://www.w3.org/2000/svg"
   xmlns:sodipodi="http://sodipodi.sourceforge.net/DTD/sodipodi-0.dtd"
   xmlns:inkscape="http://www.inkscape.org/namespaces/inkscape"
   id="svg2"
   version="1.1"
   inkscape:version="0.48.4 r9939"
   width="407.1125"
   height="238.05"
   xml:space="preserve"
   sodipodi:docname="master.eps"><metadata
     id="metadata8"><rdf:RDF><cc:Work
         rdf:about=""><dc:format>image/svg+xml</dc:format><dc:type
           rdf:resource="http://purl.org/dc/dcmitype/StillImage" /><dc:title></dc:title></cc:Work></rdf:RDF></metadata><defs
     id="defs6"><clipPath
       clipPathUnits="userSpaceOnUse"
       id="clipPath18"><path
         d="m 0,0 3256.86,0 0,1904 L 0,1904 0,0 z"
         id="path20" /></clipPath></defs><sodipodi:namedview
     pagecolor="#ffffff"
     bordercolor="#666666"
     borderopacity="1"
     objecttolerance="10"
     gridtolerance="10"
     guidetolerance="10"
     inkscape:pageopacity="0"
     inkscape:pageshadow="2"
     inkscape:window-width="1617"
     inkscape:window-height="1028"
     id="namedview4"
     showgrid="false"
     inkscape:zoom="0.90883972"
     inkscape:cx="203.55624"
     inkscape:cy="119.025"
     inkscape:window-x="55"
     inkscape:window-y="-8"
     inkscape:window-maximized="1"
     inkscape:current-layer="g10" /><g
     id="g10"
     inkscape:groupmode="layer"
     inkscape:label="ink_ext_XXXXXX"
     transform="matrix(1.25,0,0,-1.25,0,238.05)"><g
       id="g12"
       transform="scale(0.1,0.1)"><g
         id="g14"><g
           id="g16"
           clip-path="url(#clipPath18)"><path
             d="m 47.5,879.281 3178.23,0 c 17.2,0 31.13,-13.851 31.13,-30.871 0,-17.058 -13.93,-30.871 -31.13,-30.871 l -3178.23,0 c -17.207,0 -31.1719,13.813 -31.1719,30.871 0,17.02 13.9649,30.871 31.1719,30.871 l 0,0"
             style="fill:#00a9a0;fill-opacity:1;fill-rule:nonzero;stroke:none"
             id="path22" /><path
             d="m 47.5,1904.4 3178.23,0 c 17.2,0 31.13,-13.82 31.13,-30.85 0,-17.06 -13.93,-30.88 -31.13,-30.88 l -3178.23,0 c -17.207,0 -31.1719,13.82 -31.1719,30.88 0,17.03 13.9649,30.85 31.1719,30.85 l 0,0"
             style="fill:#00a9a0;fill-opacity:1;fill-rule:nonzero;stroke:none"
             id="path24" /><path
             d="m 3237.39,1669.89 c -69.46,48.47 -143.5,66.47 -220.41,65.13 -217.44,-3.79 -372.97,-174.63 -375,-373.81 -2.05,-201.94 150.27,-362.858 374.76,-373.171 76.84,-3.516 166.84,17.911 235.86,69.961 l -53.26,85.65 c -69.04,-59.11 -126.8,-74.4 -186.68,-61.29 -119.08,26.04 -200.53,149.44 -195.98,278.85 1.9,53 9.57,104.31 30.14,147.95 37.42,79.26 89.73,120.33 163.5,131.89 64.18,10.06 117.97,0.92 175.7,-51.11 l 51.37,79.95 z m -945.43,-50.52 c -15.8,0.92 84.18,1.7 84.18,-101.97 0,-108.79 -85.74,-109.23 -85.74,-109.23 l -126.57,0 0,211.31 128.13,-0.11 z m -300.52,101.7 0,-718.66 172.28,0 0,298.53 209.25,-302.745 220.36,0 L 2355,1319.98 c 0,0 180.92,7.8 192.39,172.66 11.4,164.88 -108.52,228.3 -259.12,228.3 l -296.83,0.13 z m -149.91,-47.95 c -15.86,9.05 -134.8,60.14 -226.61,60.14 -171.18,0 -284.65,-90.05 -281.39,-221.11 5.99,-242.13 395.4,-205.77 375.93,-358.4 -13.83,-108.46 -279.56,-84.5 -370.61,5.5 l -24.5,-105.96 c 148.58,-96.298 517.77,-105.673 541.54,138.46 24.06,246.73 -382.33,248.15 -382.33,369.52 0,58.6 54.27,85.03 146.46,82.57 120.34,-3.2 159.22,-54.86 184.24,-68.7 l 37.27,97.98 z m -858.581,-53.45 c 91.001,-7.86 87.771,-107.76 87.771,-107.76 -3.9,-99.92 -83.13,-104.2 -83.13,-104.2 l -129.192,0 0,211.96 124.551,0 z m -297.019,101.08 0,-718.59 172.261,0 0,313.72 131.731,0 c 6.141,0 257.168,-10.81 253.028,197.89 0,0 18.83,202.77 -254.345,206.98 l -302.675,0 z M 28.4766,1641.5 c 13.9843,79.28 84.2894,79.28 84.2894,79.28 l 418.015,0 0,-101.21 -328.984,0 0,-212.19 304.426,0 0,-91.69 -304.426,0 0,-212.18 328.984,0 0,-101.19 c 0,0 -324.492,0 -410.09,0 -85.6441,0 -92.3316,82.68 -92.3316,82.68 l 0.1172,556.5"
             style="fill:#7d2460;fill-opacity:1;fill-rule:nonzero;stroke:none"
             id="path26" /><path
             d="m 123.59,666.301 -80.3947,0 0,-125.602 80.3947,0 c 39.191,0 66.797,20 66.797,62.813 0,42.789 -27.606,62.789 -66.797,62.789 z m 2.394,-144.801 -82.7887,0 0,-120.789 -21.5976,0 0,284.789 104.3863,0 c 49.204,0 85.996,-30.012 85.996,-81.988 0,-52.012 -36.792,-82.012 -85.996,-82.012"
             style="fill:#7d2460;fill-opacity:1;fill-rule:nonzero;stroke:none"
             id="path28" /><path
             d="m 254.773,400.711 0,192.809 20.403,0 0,-192.809 -20.403,0 z m -2.394,259.578 0,25.211 25.195,0 0,-25.211 -25.195,0"
             style="fill:#7d2460;fill-opacity:1;fill-rule:nonzero;stroke:none"
             id="path30" /><path
             d="m 445.156,561.5 c -10.394,10.398 -24.394,16.398 -39.996,16.398 -15.594,0 -29.597,-6 -39.992,-16.398 -15.996,-15.988 -17.199,-42 -17.199,-64.398 0,-22.372 1.203,-48.383 17.199,-64.383 10.395,-10.399 24.398,-16.391 39.992,-16.391 15.602,0 29.602,5.992 39.996,16.391 16,16 17.203,42.011 17.203,64.383 0,22.398 -1.203,48.41 -17.203,64.398 z m 13.606,-141.988 c -13.606,-13.602 -32.004,-21.203 -53.602,-21.203 -21.597,0 -39.992,7.601 -53.594,21.203 -20.398,20.41 -24,50 -24,77.59 0,27.617 3.602,57.199 24,77.609 13.602,13.578 31.997,21.199 53.594,21.199 21.598,0 39.996,-7.621 53.602,-21.199 20.394,-20.41 23.996,-49.992 23.996,-77.609 0,-27.59 -3.602,-57.18 -23.996,-77.59"
             style="fill:#7d2460;fill-opacity:1;fill-rule:nonzero;stroke:none"
             id="path32" /><path
             d="m 663.129,400.711 0,119.598 c 0,37.203 -18.797,57.589 -53.191,57.589 -34.403,0 -54.395,-21.199 -54.395,-57.589 l 0,-119.598 -20.402,0 0,192.809 20.402,0 0,-22.821 c 14.398,16.801 33.594,25.211 56.797,25.211 21.598,0 38.793,-6.422 51.191,-18.41 12.801,-12.391 20,-30.801 20,-53.59 l 0,-123.199 -20.402,0"
             style="fill:#7d2460;fill-opacity:1;fill-rule:nonzero;stroke:none"
             id="path34" /><path
             d="m 860.715,545.512 c -8.402,19.988 -28,32.386 -49.996,32.386 -22.004,0 -41.602,-12.398 -49.996,-32.386 -4.805,-11.992 -6,-18 -6.801,-36.41 l 113.594,0 c -0.801,18.41 -2.004,24.418 -6.801,36.41 z M 753.922,492.719 c 0,-48.797 21.996,-76 62.793,-76 22.801,0 36.801,6.812 53.195,23.203 l 15.203,-12.012 c -19.601,-19.601 -37.597,-29.601 -69.593,-29.601 -53.196,0 -82,34.41 -82,98.793 0,62 28.804,98.808 77.199,98.808 47.992,0 77.191,-35.211 77.191,-94.012 l 0,-9.179 -133.988,0"
             style="fill:#7d2460;fill-opacity:1;fill-rule:nonzero;stroke:none"
             id="path36" /><path
             d="m 1055.89,545.512 c -8.4,19.988 -28,32.386 -50,32.386 -21.995,0 -41.593,-12.398 -49.992,-32.386 -4.8,-11.992 -6,-18 -6.796,-36.41 l 113.588,0 c -0.8,18.41 -2,24.418 -6.8,36.41 z M 949.102,492.719 c 0,-48.797 21.992,-76 62.788,-76 22.8,0 36.8,6.812 53.2,23.203 l 15.2,-12.012 c -19.6,-19.601 -37.59,-29.601 -69.6,-29.601 -53.19,0 -81.995,34.41 -81.995,98.793 0,62 28.805,98.808 77.195,98.808 48,0 77.2,-35.211 77.2,-94.012 l 0,-9.179 -133.988,0"
             style="fill:#7d2460;fill-opacity:1;fill-rule:nonzero;stroke:none"
             id="path38" /><path
             d="m 1243.48,562.711 c -11.61,11.59 -20.4,15.187 -36.4,15.187 -33.2,0 -51.6,-27.199 -51.6,-58.398 l 0,-118.789 -20.4,0 0,192.809 20.4,0 0,-25.622 c 11.2,18.024 33.6,28.012 56.4,28.012 18.39,0 32.79,-4.801 46.39,-18.41 l -14.79,-14.789"
             style="fill:#7d2460;fill-opacity:1;fill-rule:nonzero;stroke:none"
             id="path40" /><path
             d="m 1284.66,400.711 0,192.809 20.4,0 0,-192.809 -20.4,0 z m -2.39,259.578 0,25.211 25.19,0 0,-25.211 -25.19,0"
             style="fill:#7d2460;fill-opacity:1;fill-rule:nonzero;stroke:none"
             id="path42" /><path
             d="m 1496.65,400.711 0,119.598 c 0,37.203 -18.8,57.589 -53.2,57.589 -34.39,0 -54.39,-21.199 -54.39,-57.589 l 0,-119.598 -20.4,0 0,192.809 20.4,0 0,-22.821 c 14.39,16.801 33.59,25.211 56.79,25.211 21.6,0 38.8,-6.422 51.2,-18.41 12.8,-12.391 20,-30.801 20,-53.59 l 0,-123.199 -20.4,0"
             style="fill:#7d2460;fill-opacity:1;fill-rule:nonzero;stroke:none"
             id="path44" /><path
             d="m 1641.83,577.898 c -47.2,0 -54.4,-40.796 -54.4,-80.796 0,-39.993 7.2,-80.774 54.4,-80.774 47.19,0 54.39,40.781 54.39,80.774 0,40 -7.2,80.796 -54.39,80.796 z m -4,-271.57 c -28.8,0 -43.2,7.602 -63.6,25.582 l 13.6,13.621 c 15.2,-13.621 25.6,-21.211 50,-21.211 40.4,0 58.39,28.809 58.39,66.809 l 0,34.383 c -16.8,-22.391 -35.59,-27.203 -57.19,-27.203 -20,0 -37.2,6.812 -47.2,16.812 -19.6,19.59 -24.8,51.59 -24.8,81.981 0,30.41 5.2,62.386 24.8,82 10,10 27.2,16.808 47.2,16.808 21.6,0 40.39,-4.801 57.19,-27.199 l 0,24.809 20.41,0 0,-203.598 c 0,-48.402 -28.81,-83.594 -78.8,-83.594"
             style="fill:#7d2460;fill-opacity:1;fill-rule:nonzero;stroke:none"
             id="path46" /><path
             d="m 1976.59,562.711 c -11.6,11.59 -20.4,15.187 -36.39,15.187 -33.2,0 -51.6,-27.199 -51.6,-58.398 l 0,-118.789 -20.4,0 0,192.809 20.4,0 0,-25.622 c 11.2,18.024 33.59,28.012 56.39,28.012 18.4,0 32.8,-4.801 46.4,-18.41 l -14.8,-14.789"
             style="fill:#7d2460;fill-opacity:1;fill-rule:nonzero;stroke:none"
             id="path48" /><path
             d="m 2119.72,545.512 c -8.4,19.988 -28,32.386 -50,32.386 -22,0 -41.6,-12.398 -49.99,-32.386 -4.8,-11.992 -6,-18 -6.81,-36.41 l 113.6,0 c -0.8,18.41 -2,24.418 -6.8,36.41 z m -106.8,-52.793 c 0,-48.797 22,-76 62.8,-76 22.8,0 36.8,6.812 53.2,23.203 l 15.2,-12.012 c -19.6,-19.601 -37.6,-29.601 -69.6,-29.601 -53.19,0 -82,34.41 -82,98.793 0,62 28.81,98.808 77.2,98.808 47.99,0 77.19,-35.211 77.19,-94.012 l 0,-9.179 -133.99,0"
             style="fill:#7d2460;fill-opacity:1;fill-rule:nonzero;stroke:none"
             id="path50" /><path
             d="m 2258.1,398.309 c -33.6,0 -58.4,8.8 -78,27.601 l 14,14.012 c 15.2,-15.992 35.59,-23.594 63.2,-23.594 37.6,0 58,13.184 58,39.184 0,20 -11.6,30 -36.8,32.398 l -32,2.789 c -38.8,3.211 -58,20.41 -58,50.41 0,33.192 27.21,54.801 69.2,54.801 26.41,0 50.8,-7.621 67.6,-20.41 l -13.61,-13.602 c -14.79,10.813 -32.8,16.403 -53.99,16.403 -31.59,0 -49.19,-13.59 -49.19,-37.192 0,-20 11.99,-30 39.19,-32.398 l 31.19,-2.813 c 32.01,-2.789 56.41,-12.789 56.41,-50.386 0,-35.203 -30,-57.203 -77.2,-57.203"
             style="fill:#7d2460;fill-opacity:1;fill-rule:nonzero;stroke:none"
             id="path52" /><path
             d="m 2498.48,545.512 c -8.41,19.988 -28,32.386 -50,32.386 -21.99,0 -41.6,-12.398 -49.99,-32.386 -4.8,-11.992 -6,-18 -6.81,-36.41 l 113.6,0 c -0.79,18.41 -1.99,24.418 -6.8,36.41 z m -106.8,-52.793 c 0,-48.797 22.01,-76 62.8,-76 22.8,0 36.79,6.812 53.2,23.203 l 15.2,-12.012 c -19.59,-19.601 -37.6,-29.601 -69.59,-29.601 -53.21,0 -82.01,34.41 -82.01,98.793 0,62 28.8,98.808 77.2,98.808 48,0 77.19,-35.211 77.19,-94.012 l 0,-9.179 -133.99,0"
             style="fill:#7d2460;fill-opacity:1;fill-rule:nonzero;stroke:none"
             id="path54" /><path
             d="m 2690.85,492.719 -59.99,0 c -33.2,0 -49.19,-13.219 -49.19,-38.797 0,-25.613 15.6,-37.594 50.39,-37.594 17.59,0 34.4,1.582 47.99,14.793 7.21,6.789 10.8,18.801 10.8,36.789 l 0,24.809 z m 0,-92.008 0,19.211 c -16.39,-16.41 -31.59,-21.613 -58.79,-21.613 -28.39,0 -44.4,4.812 -56.79,17.601 -8.8,9.211 -14,23.211 -14,37.61 0,35.191 25.19,55.582 67.19,55.582 l 62.39,0 0,21.597 c 0,30.801 -15.19,47.199 -54.39,47.199 -27.2,0 -41.2,-6.789 -53.19,-24.378 l -14.81,12.789 c 16.41,22.793 36.8,29.601 68,29.601 50.8,0 74.79,-22.808 74.79,-63.191 l 0,-132.008 -20.4,0"
             style="fill:#7d2460;fill-opacity:1;fill-rule:nonzero;stroke:none"
             id="path56" /><path
             d="m 2881.64,562.711 c -11.62,11.59 -20.4,15.187 -36.41,15.187 -33.19,0 -51.59,-27.199 -51.59,-58.398 l 0,-118.789 -20.4,0 0,192.809 20.4,0 0,-25.622 c 11.2,18.024 33.6,28.012 56.39,28.012 18.4,0 32.81,-4.801 46.39,-18.41 l -14.78,-14.789"
             style="fill:#7d2460;fill-opacity:1;fill-rule:nonzero;stroke:none"
             id="path58" /><path
             d="m 2982.36,398.309 c -52.39,0 -84.8,37.601 -84.8,98.793 0,61.199 32.41,98.808 84.8,98.808 26.39,0 42.8,-6.808 63.59,-29.601 l -14,-12.789 c -16.4,18.378 -29.19,24.378 -49.59,24.378 -21.6,0 -39.59,-8.796 -51.19,-25.578 -9.6,-14.019 -13.21,-29.211 -13.21,-55.218 0,-25.993 3.61,-41.204 13.21,-55.192 11.6,-16.789 29.59,-25.582 51.19,-25.582 20.4,0 33.19,5.992 49.59,24.371 l 14,-12.789 c -20.79,-22.789 -37.2,-29.601 -63.59,-29.601"
             style="fill:#7d2460;fill-opacity:1;fill-rule:nonzero;stroke:none"
             id="path60" /><path
             d="m 3219.94,400.711 0,119.598 c 0,37.203 -18.8,57.589 -53.2,57.589 -34.39,0 -54.39,-21.199 -54.39,-57.589 l 0,-119.598 -20.4,0 0,284.789 20.4,0 0,-114.801 c 14.39,16.801 33.59,25.211 56.8,25.211 43.98,0 71.19,-27.609 71.19,-72 l 0,-123.199 -20.4,0"
             style="fill:#7d2460;fill-opacity:1;fill-rule:nonzero;stroke:none"
             id="path62" /><path
             d="m 129.59,94.3984 -59.9962,0 c -33.1954,0 -49.1993,-13.1992 -49.1993,-38.789 0,-25.6094 15.6016,-37.5899 50.4024,-37.5899 17.5976,0 34.3941,1.5899 47.9921,14.7891 7.195,6.8008 10.801,18.8008 10.801,36.793 l 0,24.7968 z m 0,-91.99996 0,19.22266 C 113.188,5.21094 97.9922,0 70.7969,0 42.3984,0 26.3984,4.80859 14,17.6016 5.19531,26.8203 0,40.8086 0,55.2188 0,90.4102 25.1953,110.801 67.1914,110.801 l 62.3986,0 0,21.59 c 0,30.808 -15.199,47.199 -54.3947,47.199 C 47.9922,179.59 34,172.801 21.9961,155.211 L 7.19922,168 C 23.5938,190.789 44,197.602 75.1953,197.602 c 50.7887,0 74.7887,-22.813 74.7887,-63.204 l 0,-131.99956 -20.394,0"
             style="fill:#7d2460;fill-opacity:1;fill-rule:nonzero;stroke:none"
             id="path64" /><path
             d="m 339.961,2.39844 0,119.60156 c 0,37.199 -18.793,57.59 -53.191,57.59 -34.399,0 -54.399,-21.192 -54.399,-57.59 l 0,-119.60156 -20.398,0 0,192.80056 20.398,0 0,-22.82 c 14.402,16.82 33.598,25.223 56.801,25.223 21.594,0 38.793,-6.411 51.195,-18.403 12.797,-12.398 19.992,-30.801 19.992,-53.59 l 0,-123.21056 -20.398,0"
             style="fill:#7d2460;fill-opacity:1;fill-rule:nonzero;stroke:none"
             id="path66" /><path
             d="m 485.152,179.59 c -47.199,0 -54.394,-40.801 -54.394,-80.8009 0,-39.9883 7.195,-80.7696 54.394,-80.7696 47.192,0 54.395,40.7813 54.395,80.7696 0,39.9999 -7.203,80.8009 -54.395,80.8009 z m 54.395,-177.19156 0,24.81246 C 522.742,4.80859 503.945,0 482.348,0 c -19.993,0 -37.196,6.82031 -47.192,16.8203 -19.597,19.5781 -24.804,51.5781 -24.804,81.9688 0,30.4099 5.207,62.4019 24.804,81.9999 9.996,10 27.199,16.813 47.192,16.813 21.597,0 40.394,-4.801 57.199,-27.204 l 0,116.793 20.398,0 0,-284.79256 -20.398,0"
             style="fill:#7d2460;fill-opacity:1;fill-rule:nonzero;stroke:none"
             id="path68" /><path
             d="m 770.719,0 c -33.602,0 -58.395,8.80078 -77.992,27.6016 l 13.996,14.0078 c 15.203,-15.9883 35.597,-23.5899 63.195,-23.5899 37.598,0 57.992,13.1797 57.992,39.1914 0,19.9883 -11.597,29.9883 -36.797,32.3907 l -31.996,2.789 c -38.801,3.2188 -57.996,20.4184 -57.996,50.4104 0,33.199 27.199,54.801 69.195,54.801 26.399,0 50.793,-7.622 67.594,-20.411 L 824.313,163.59 c -14.801,10.808 -32.793,16.39 -53.997,16.39 -31.601,0 -49.199,-13.57 -49.199,-37.179 0,-19.992 11.996,-29.992 39.199,-32.391 l 31.204,-2.82 C 823.512,104.801 847.91,94.8008 847.91,57.2109 847.91,22.0117 817.91,0 770.719,0"
             style="fill:#7d2460;fill-opacity:1;fill-rule:nonzero;stroke:none"
             id="path70" /><path
             d="M 1025.88,2.39844 959.492,108.398 915.496,57.6016 l 0,-55.20316 -20.402,0 0,284.79256 20.402,0 0,-200.7691 95.594,108.7771 25.99,0 -63.596,-72 77.596,-120.80056 -25.2,0"
             style="fill:#7d2460;fill-opacity:1;fill-rule:nonzero;stroke:none"
             id="path72" /><path
             d="m 1091.88,2.39844 0,192.80056 20.4,0 0,-192.80056 -20.4,0 z m -2.4,259.58956 0,25.203 25.19,0 0,-25.203 -25.19,0"
             style="fill:#7d2460;fill-opacity:1;fill-rule:nonzero;stroke:none"
             id="path74" /><path
             d="m 1221.46,2.39844 c -31.19,0 -46.39,19.99996 -46.39,49.99996 l 0,234.7926 20.4,0 0,-234.3824 c 0,-21.6094 6.8,-32.3867 29.6,-32.3867 l 14,0 0,-18.02346 -17.61,0"
             style="fill:#7d2460;fill-opacity:1;fill-rule:nonzero;stroke:none"
             id="path76" /><path
             d="m 1322.25,2.39844 c -31.2,0 -46.4,19.99996 -46.4,49.99996 l 0,234.7926 20.4,0 0,-234.3824 c 0,-21.6094 6.8,-32.3867 29.6,-32.3867 l 14,0 0,-18.02346 -17.6,0"
             style="fill:#7d2460;fill-opacity:1;fill-rule:nonzero;stroke:none"
             id="path78" /><path
             d="m 1436.64,0 c -33.6,0 -58.4,8.80078 -78,27.6016 l 14,14.0078 c 15.2,-15.9883 35.6,-23.5899 63.19,-23.5899 37.6,0 58,13.1797 58,39.1914 0,19.9883 -11.6,29.9883 -36.8,32.3907 l -31.99,2.789 c -38.8,3.2188 -58,20.4184 -58,50.4104 0,33.199 27.2,54.801 69.2,54.801 26.39,0 50.79,-7.622 67.59,-20.411 l -13.6,-13.601 c -14.8,10.808 -32.79,16.39 -53.99,16.39 -31.61,0 -49.2,-13.57 -49.2,-37.179 0,-19.992 12,-29.992 39.2,-32.391 l 31.2,-2.82 c 31.99,-2.789 56.39,-12.7892 56.39,-50.3791 C 1513.83,22.0117 1483.83,0 1436.64,0"
             style="fill:#7d2460;fill-opacity:1;fill-rule:nonzero;stroke:none"
             id="path80" /></g></g></g></g></svg>