<?xml version="1.0" encoding="UTF-8" standalone="no"?>
<!-- Created with Inkscape (http://www.inkscape.org/) -->

<svg
   xmlns:dc="http://purl.org/dc/elements/1.1/"
   xmlns:cc="http://creativecommons.org/ns#"
   xmlns:rdf="http://www.w3.org/1999/02/22-rdf-syntax-ns#"
   xmlns:svg="http://www.w3.org/2000/svg"
   xmlns="http://www.w3.org/2000/svg"
   xmlns:sodipodi="http://sodipodi.sourceforge.net/DTD/sodipodi-0.dtd"
   xmlns:inkscape="http://www.inkscape.org/namespaces/inkscape"
   id="svg3004"
   version="1.1"
   inkscape:version="0.48.4 r9939"
   width="264.34875"
   height="81.338753"
   xml:space="preserve"
   sodipodi:docname="logo_oxford.svg"><metadata
     id="metadata3010"><rdf:RDF><cc:Work
         rdf:about=""><dc:format>image/svg+xml</dc:format><dc:type
           rdf:resource="http://purl.org/dc/dcmitype/StillImage" /><dc:title /></cc:Work></rdf:RDF></metadata><defs
     id="defs3008"><linearGradient
       x1="0"
       y1="0"
       x2="1"
       y2="0"
       gradientUnits="userSpaceOnUse"
       gradientTransform="matrix(0,-626.0246,-626.0246,0,858.89771,609.01021)"
       spreadMethod="pad"
       id="linearGradient3026"><stop
         style="stop-opacity:1;stop-color:#ebeced"
         offset="0"
         id="stop3028" /><stop
         style="stop-opacity:1;stop-color:#ffffff"
         offset="1"
         id="stop3030" /></linearGradient><linearGradient
       x1="0"
       y1="0"
       x2="1"
       y2="0"
       gradientUnits="userSpaceOnUse"
       gradientTransform="matrix(-639.37555,0,0,-639.37555,679.77423,527.52917)"
       spreadMethod="pad"
       id="linearGradient3046"><stop
         style="stop-opacity:1;stop-color:#242d52"
         offset="0"
         id="stop3048" /><stop
         style="stop-opacity:1;stop-color:#232846"
         offset="0.989166"
         id="stop3050" /><stop
         style="stop-opacity:1;stop-color:#232846"
         offset="0.989166"
         id="stop3052" /><stop
         style="stop-opacity:1;stop-color:#232846"
         offset="1"
         id="stop3054" /></linearGradient><clipPath
       clipPathUnits="userSpaceOnUse"
       id="clipPath3062"><path
         d="m 0,0 841.887,0 0,595.275 L 0,595.275 0,0 z"
         id="path3064"
         inkscape:connector-curvature="0" /></clipPath><clipPath
       clipPathUnits="userSpaceOnUse"
       id="clipPath3128"><path
         d="m 151.938,595.278 -50.364,0 0,-12.132 50.292,0 0,0.162 0.072,0 0,11.97 m 0,-68.661 -0.009,0 0,-0.162 -50.355,0 0,-9.495 50.364,0 0,9.657 z"
         id="path3130"
         inkscape:connector-curvature="0" /></clipPath><clipPath
       clipPathUnits="userSpaceOnUse"
       id="clipPath3142"><path
         d="m 151.938,595.278 -50.364,0 0,-12.132 50.292,0 0,0.162 0.072,0 0,11.97 m 0,-68.661 -0.009,0 0,-0.162 -50.355,0 0,-9.495 50.364,0 0,9.657 z"
         id="path3144"
         inkscape:connector-curvature="0" /></clipPath><clipPath
       clipPathUnits="userSpaceOnUse"
       id="clipPath3156"><path
         d="m 841.887,525.258 -130.392,0 0,-0.108 130.392,0 0,0.108 z"
         id="path3158"
         inkscape:connector-curvature="0" /></clipPath><clipPath
       clipPathUnits="userSpaceOnUse"
       id="clipPath3172"><path
         d="m 841.887,584.784 -131.337,0 0,-0.135 0.117,0 0,-59.391 131.22,0 0,59.526 z"
         id="path3174"
         inkscape:connector-curvature="0" /></clipPath><clipPath
       clipPathUnits="userSpaceOnUse"
       id="clipPath3184"><path
         d="m 841.887,584.784 -131.337,0 0,-0.135 0.117,0 0,-59.391 131.22,0 0,59.526 z"
         id="path3186"
         inkscape:connector-curvature="0" /></clipPath><clipPath
       clipPathUnits="userSpaceOnUse"
       id="clipPath3198"><path
         d="m 101.295,583.146 0,-56.595 0.014,-0.096 0.265,0 50.355,0 0,0.162 -0.063,0 0,56.529 -50.571,0 z"
         id="path3200"
         inkscape:connector-curvature="0" /></clipPath><clipPath
       clipPathUnits="userSpaceOnUse"
       id="clipPath3218"><path
         d="m 101.295,583.182 -0.189,0 0,-56.691 0.189,0 0,0.058 0,56.597 0,0.036 z"
         id="path3220"
         inkscape:connector-curvature="0" /></clipPath><clipPath
       clipPathUnits="userSpaceOnUse"
       id="clipPath3230"><path
         d="m 151.938,583.308 0,0 -0.072,0 0,-0.162 0,-56.529 0.063,0 0.009,0 0,56.691 z"
         id="path3232"
         inkscape:connector-curvature="0" /></clipPath><clipPath
       clipPathUnits="userSpaceOnUse"
       id="clipPath3242"><path
         d="m 710.55,584.649 -558.612,0 0,-1.341 50.661,0 0,-56.691 -50.661,0 0,-1.503 558.729,0 0,0.144 -0.117,0 0,1.197 -51.696,0 -50.58,0 0,56.691 50.553,0 51.723,0 0,1.503 m -254.403,-1.341 0,0 50.742,0 0,-0.162 50.517,0 50.742,0 0,-56.691 -50.616,0 -50.733,0 0,0.162 -50.652,0 0,56.691 m -50.868,0 50.742,0 0,-56.691 -50.742,0 -50.679,0 -50.589,0 -50.742,0 -50.67,0 0,56.691 50.742,0 50.517,0 50.679,0 50.742,0 z"
         id="path3244"
         inkscape:connector-curvature="0" /></clipPath><clipPath
       clipPathUnits="userSpaceOnUse"
       id="clipPath3254"><path
         d="m 710.667,584.649 -0.117,0 0,-1.503 0.081,0 0,-56.691 -0.081,0 0,-1.197 0.117,0 0,59.391 z"
         id="path3256"
         inkscape:connector-curvature="0" /></clipPath><clipPath
       clipPathUnits="userSpaceOnUse"
       id="clipPath3266"><path
         d="m 710.667,584.649 -0.117,0 0,-1.503 0.081,0 0,-56.691 -0.081,0 0,-1.197 0.117,0 0,59.391 z"
         id="path3268"
         inkscape:connector-curvature="0" /></clipPath><clipPath
       clipPathUnits="userSpaceOnUse"
       id="clipPath3280"><path
         d="m 303.858,583.308 -50.517,0 0,-56.691 -0.072,0 50.742,0 -0.153,0 0,56.691 z"
         id="path3282"
         inkscape:connector-curvature="0" /></clipPath><clipPath
       clipPathUnits="userSpaceOnUse"
       id="clipPath3292"><path
         d="m 354.537,583.308 -50.679,0 0,-56.691 50.742,0 -0.063,0 0,56.691 z"
         id="path3294"
         inkscape:connector-curvature="0" /></clipPath><clipPath
       clipPathUnits="userSpaceOnUse"
       id="clipPath3304"><path
         d="m 456.021,583.308 -50.742,0 0,-56.691 50.742,0 0,56.691 z"
         id="path3306"
         inkscape:connector-curvature="0" /></clipPath><clipPath
       clipPathUnits="userSpaceOnUse"
       id="clipPath3316"><path
         d="m 658.827,583.146 -50.553,0 0,-56.691 50.58,0 -0.027,0 0,56.691 z"
         id="path3318"
         inkscape:connector-curvature="0" /></clipPath><clipPath
       clipPathUnits="userSpaceOnUse"
       id="clipPath3328"><path
         d="m 710.631,583.146 -0.081,0 -51.723,0 0,-56.691 0.027,0 51.696,0 0.081,0 0,56.691 z"
         id="path3330"
         inkscape:connector-curvature="0" /></clipPath><clipPath
       clipPathUnits="userSpaceOnUse"
       id="clipPath3340"><path
         d="m 506.889,583.308 -50.742,0 0,-56.691 50.652,0 0,56.529 0.09,0 0,0.162 z"
         id="path3342"
         inkscape:connector-curvature="0" /></clipPath><clipPath
       clipPathUnits="userSpaceOnUse"
       id="clipPath3352"><path
         d="m 557.406,583.146 -50.517,0 -0.09,0 0,-56.691 50.733,0 -0.126,0 0,56.691 z"
         id="path3354"
         inkscape:connector-curvature="0" /></clipPath><clipPath
       clipPathUnits="userSpaceOnUse"
       id="clipPath3364"><path
         d="m 608.148,583.146 -50.742,0 0,-56.691 50.742,0 0,56.691 z"
         id="path3366"
         inkscape:connector-curvature="0" /></clipPath><clipPath
       clipPathUnits="userSpaceOnUse"
       id="clipPath3376"><path
         d="m 405.279,583.308 -50.742,0 0,-56.691 0.063,0 50.679,0 0,56.691 z"
         id="path3378"
         inkscape:connector-curvature="0" /></clipPath><clipPath
       clipPathUnits="userSpaceOnUse"
       id="clipPath3388"><path
         d="m 202.599,583.308 -50.661,0 0,-56.691 50.661,0 0,56.691 z"
         id="path3390"
         inkscape:connector-curvature="0" /></clipPath><clipPath
       clipPathUnits="userSpaceOnUse"
       id="clipPath3400"><path
         d="m 253.341,583.308 -50.742,0 0,-56.691 50.67,0 0.072,0 0,56.691 z"
         id="path3402"
         inkscape:connector-curvature="0" /></clipPath><clipPath
       clipPathUnits="userSpaceOnUse"
       id="clipPath3412"><path
         d="m 0,584.649 0,-59.535 101.106,0 0,1.377 -50.553,0 0,56.691 50.553,0 0,1.467 -101.106,0 z"
         id="path3414"
         inkscape:connector-curvature="0" /></clipPath><clipPath
       clipPathUnits="userSpaceOnUse"
       id="clipPath3424"><path
         d="m 101.106,583.182 -50.553,0 0,-56.691 50.553,0 0,56.691 z"
         id="path3426"
         inkscape:connector-curvature="0" /></clipPath><clipPath
       clipPathUnits="userSpaceOnUse"
       id="clipPath3436"><path
         d="m 0,0 841.887,0 0,595.275 L 0,595.275 0,0 z"
         id="path3438"
         inkscape:connector-curvature="0" /></clipPath><clipPath
       clipPathUnits="userSpaceOnUse"
       id="clipPath3508"><path
         d="m 373.248,280.521 161.811,0 0,179.982 -161.811,0 0,-179.982 z"
         id="path3510"
         inkscape:connector-curvature="0" /></clipPath><clipPath
       clipPathUnits="userSpaceOnUse"
       id="clipPath3818"><path
         d="m 375.426,123.012 234.027,0 0,97.902 -234.027,0 0,-97.902 z"
         id="path3820"
         inkscape:connector-curvature="0" /></clipPath><linearGradient
       x1="0"
       y1="0"
       x2="1"
       y2="0"
       gradientUnits="userSpaceOnUse"
       gradientTransform="matrix(616.96454,0,0,-616.96454,51.090546,460.94876)"
       spreadMethod="pad"
       id="linearGradient4130"><stop
         style="stop-opacity:1;stop-color:#273e73"
         offset="0"
         id="stop4132" /><stop
         style="stop-opacity:1;stop-color:#ffffff"
         offset="1"
         id="stop4134" /></linearGradient><clipPath
       clipPathUnits="userSpaceOnUse"
       id="clipPath4142"><path
         d="m 0,0 841.887,0 0,595.275 L 0,595.275 0,0 z"
         id="path4144"
         inkscape:connector-curvature="0" /></clipPath><clipPath
       clipPathUnits="userSpaceOnUse"
       id="clipPath4162"><path
         d="m 0,0 841.887,0 0,595.275 L 0,595.275 0,0 z"
         id="path4164"
         inkscape:connector-curvature="0" /></clipPath><clipPath
       clipPathUnits="userSpaceOnUse"
       id="clipPath4198"><path
         d="m 0,0 841.887,0 0,595.275 L 0,595.275 0,0 z"
         id="path4200"
         inkscape:connector-curvature="0" /></clipPath></defs><sodipodi:namedview
     pagecolor="#ffffff"
     bordercolor="#666666"
     borderopacity="1"
     objecttolerance="10"
     gridtolerance="10"
     guidetolerance="10"
     inkscape:pageopacity="0"
     inkscape:pageshadow="2"
     inkscape:window-width="1920"
     inkscape:window-height="1072"
     id="namedview3006"
     showgrid="false"
     fit-margin-top="0"
     fit-margin-left="0"
     fit-margin-right="0"
     fit-margin-bottom="0"
     inkscape:zoom="44.720097"
     inkscape:cx="42.307135"
     inkscape:cy="50.810566"
     inkscape:window-x="-4"
     inkscape:window-y="52"
     inkscape:window-maximized="1"
     inkscape:current-layer="g3012"
     showguides="false" /><g
     id="g3012"
     inkscape:groupmode="layer"
     inkscape:label="Branding_guidelines_second_edition"
     transform="matrix(1.25,0,0,-1.25,-472.6475,268.16875)"><path
       d="m 589.597,149.464 -211.479,0 0,65.071 211.479,0 0,-65.071 z"
       style="fill:none;fill-opacity:1;fill-rule:nonzero;stroke:none"
       id="path3812"
       inkscape:connector-curvature="0"
       inkscape:export-xdpi="1080"
       inkscape:export-ydpi="1080" /><g
       id="g3822"
       transform="translate(460.95329,173.84891)"><path
         d="m 0,0 c 0,5.484 -2.658,9.31 -7.143,9.31 -4.876,0 -7.15,-4.595 -7.15,-9.31 0,-5.481 2.661,-9.304 7.15,-9.304 C -2.269,-9.304 0,-4.71 0,0 m 3.327,0.109 c 0,-6.031 -4.654,-10.41 -10.47,-10.41 -5.929,0 -10.473,4.428 -10.473,10.194 0,6.035 4.654,10.414 10.473,10.414 5.928,0 10.47,-4.434 10.47,-10.198"
         style="fill:#ffffff;fill-opacity:1;fill-rule:nonzero;stroke:none"
         id="path3824"
         inkscape:connector-curvature="0" /></g><g
       id="g3826"
       transform="translate(524.89011,173.84891)"><path
         d="m 0,0 c 0,5.484 -2.661,9.31 -7.146,9.31 -4.876,0 -7.147,-4.595 -7.147,-9.31 0,-5.481 2.659,-9.304 7.147,-9.304 C -2.273,-9.304 0,-4.71 0,0 m 3.324,0.109 c 0,-6.031 -4.655,-10.41 -10.47,-10.41 -5.93,0 -10.473,4.428 -10.473,10.194 0,6.035 4.655,10.414 10.473,10.414 5.927,0 10.47,-4.434 10.47,-10.198"
         style="fill:#ffffff;fill-opacity:1;fill-rule:nonzero;stroke:none"
         id="path3828"
         inkscape:connector-curvature="0" /></g><g
       id="g3830"
       transform="translate(540.9016,170.53059)"><path
         d="m 0,0 c -1.165,1.662 -1.609,2.268 -3.048,2.268 l -1.552,0 0,-6.759 c 0,-0.555 0.222,-0.827 0.833,-0.94 l 2.27,-0.498 0,-0.724 -8.92,0 0,0.724 2.051,0.498 c 0.608,0.163 0.83,0.385 0.83,0.94 l 0,15.623 c 0,0.556 -0.222,0.776 -0.83,0.941 l -2.051,0.499 0,0.723 8.698,0 c 1.831,0 3.104,-0.168 4.156,-0.553 C 4.598,11.908 5.816,9.855 5.816,7.921 5.816,5.48 3.988,3.427 0.941,2.715 l 0,-0.111 C 1.551,2.322 1.883,1.936 4.044,-0.894 l 2.714,-3.597 c 0.388,-0.555 0.887,-0.884 1.497,-0.998 l 1.994,-0.44 0,-0.724 -4.764,0 c -0.554,0 -0.831,0.169 -1.33,0.836 L 0,0 z m -4.6,3.212 2.494,0 c 3.768,0 4.6,2.377 4.6,4.652 0,1.718 -0.777,3.325 -2.55,4.099 -0.941,0.389 -1.829,0.389 -3.047,0.389 l -1.497,0 0,-9.14 z"
         style="fill:#ffffff;fill-opacity:1;fill-rule:nonzero;stroke:none"
         id="path3832"
         inkscape:connector-curvature="0" /></g><g
       id="g3834"
       transform="translate(501.84241,177.0101)"><path
         d="m 0,0 0.832,0 0,-6.65 -0.832,0 -0.499,1.993 c -0.167,0.724 -0.609,0.999 -1.274,0.999 l -4.821,0 0,-7.313 c 0,-0.554 0.222,-0.827 0.832,-0.94 l 2.271,-0.498 0,-0.724 -8.919,0 0,0.724 2.05,0.498 c 0.609,0.163 0.832,0.386 0.832,0.94 l 0,15.624 c 0,0.555 -0.223,0.775 -0.832,0.94 l -2.05,0.5 0,0.722 15.069,0 0,-4.991 -0.831,0 L 0.887,4.82 C 0.665,5.593 0.332,5.872 -0.333,5.872 l -6.261,0 0,-8.586 4.821,0 c 0.665,0 1.052,0.273 1.274,0.997 L 0,0 z"
         style="fill:#ffffff;fill-opacity:1;fill-rule:nonzero;stroke:none"
         id="path3836"
         inkscape:connector-curvature="0" /></g><g
       id="g3838"
       transform="translate(558.57449,182.8824)"><path
         d="m 0,0 0,-17.172 c 0,-0.724 0.165,-0.893 0.887,-0.893 l 2.436,0 c 2.328,0 4.045,0.338 5.264,1.222 2.05,1.494 2.992,4.209 2.992,7.646 0,3.379 -0.942,6.7 -3.711,8.308 C 6.705,-0.222 5.208,0 2.88,0 L 0,0 z m -5.819,-19.005 0,0.724 2.051,0.498 c 0.61,0.163 0.831,0.386 0.831,0.94 l 0,15.624 c 0,0.555 -0.221,0.775 -0.831,0.94 l -2.051,0.499 0,0.723 9.365,0 c 2.548,0 4.376,-0.333 5.873,-0.998 3.767,-1.718 5.485,-5.429 5.485,-9.085 0,-3.551 -1.33,-6.871 -4.709,-8.643 -1.551,-0.836 -3.713,-1.222 -6.537,-1.222 l -9.477,0 z"
         style="fill:#ffffff;fill-opacity:1;fill-rule:nonzero;stroke:none"
         id="path3840"
         inkscape:connector-curvature="0" /></g><g
       id="g3842"
       transform="translate(472.0927,164.6013)"><path
         d="m 0,0 0,-0.724 -7.036,0 0,0.724 1.77,0.441 c 0.668,0.17 1.109,0.386 1.552,0.884 l 6.095,7.646 -6.095,8.091 c -0.387,0.555 -0.884,0.83 -1.496,0.997 l -1.662,0.442 0,0.723 8.754,0 0,-0.723 L 0,18.115 c -0.666,-0.113 -0.5,-0.388 -0.169,-0.833 l 4.488,-6.426 0.111,0 4.599,6.426 c 0.333,0.445 0.445,0.61 -0.166,0.777 l -1.773,0.442 0,0.723 7.036,0 0,-0.723 -1.773,-0.442 C 11.69,17.892 11.246,17.673 10.801,17.174 L 5.04,9.912 11.466,1.438 c 0.39,-0.554 0.887,-0.827 1.496,-0.997 L 14.626,0 l 0,-0.724 -8.754,0 0,0.724 1.883,0.385 c 0.666,0.113 0.554,0.329 0.222,0.781 l -4.876,6.869 -0.11,0 L -1.94,1.213 C -2.273,0.771 -2.384,0.611 -1.774,0.441 L 0,0 z"
         style="fill:#ffffff;fill-opacity:1;fill-rule:nonzero;stroke:none"
         id="path3844"
         inkscape:connector-curvature="0" /></g><g
       id="g3846"
       transform="translate(451.10539,193.2119)"><path
         d="m 0,0 c -0.551,-0.551 -1.377,-0.918 -2.531,-0.918 -1.005,0 -1.936,0.316 -2.567,0.947 -0.861,0.86 -0.821,1.958 -0.821,3.131 l 0,5.548 1.131,0 0,-5.96 c 0,-0.754 -0.023,-1.489 0.56,-2.071 0.404,-0.404 1.025,-0.622 1.741,-0.622 0.699,0 1.261,0.241 1.61,0.592 0.648,0.647 0.607,1.354 0.607,3.061 l 0,5 1.115,0 0,-4.706 C 0.845,2.213 0.917,0.917 0,0"
         style="fill:#ffffff;fill-opacity:1;fill-rule:nonzero;stroke:none"
         id="path3848"
         inkscape:connector-curvature="0" /></g><g
       id="g3850"
       transform="translate(461.14571,192.47121)"><path
         d="M 0,0 -4.552,7.745 -4.523,0 l -1.04,0 0,9.449 1.159,0 4.569,-7.788 -0.029,7.788 1.041,0 L 1.177,0 0,0 z"
         style="fill:#ffffff;fill-opacity:1;fill-rule:nonzero;stroke:none"
         id="path3852"
         inkscape:connector-curvature="0" /></g><path
       d="m 466.262,201.92 1.137,0 0,-9.448 -1.137,0 0,9.448 z"
       style="fill:#ffffff;fill-opacity:1;fill-rule:nonzero;stroke:none"
       id="path3854"
       inkscape:connector-curvature="0" /><g
       id="g3856"
       transform="translate(474.46719,192.47211)"><path
         d="m 0,0 -1.302,0 -3.257,9.448 1.185,0 2.755,-8.341 2.838,8.341 1.1,0 L 0,0 z"
         style="fill:#ffffff;fill-opacity:1;fill-rule:nonzero;stroke:none"
         id="path3858"
         inkscape:connector-curvature="0" /></g><g
       id="g3860"
       transform="translate(480.358,192.47211)"><path
         d="m 0,0 0,9.448 5.137,0 0,-0.942 -4.023,0 0,-3.118 3.777,0 0,-0.919 -3.777,0 0,-3.499 4.135,0 L 5.249,0 0,0 z"
         style="fill:#ffffff;fill-opacity:1;fill-rule:nonzero;stroke:none"
         id="path3862"
         inkscape:connector-curvature="0" /></g><g
       id="g3864"
       transform="translate(493.8223,192.47211)"><path
         d="M 0,0 -1.085,2.449 C -1.757,3.955 -2.064,4.11 -3.434,4.11 l -0.658,0 0,-4.11 -1.115,0 0,9.448 2.039,0 c 1.26,0 2.211,0.008 2.954,-0.735 C 0.259,8.24 0.523,7.612 0.523,6.824 0.523,6.167 0.332,5.621 -0.063,5.2 -0.403,4.838 -0.966,4.52 -1.578,4.455 -1.246,4.436 -0.971,4.256 -0.793,4.077 -0.535,3.821 -0.348,3.431 -0.071,2.813 L 1.184,0 0,0 z m -1.032,8.026 c -0.541,0.542 -1.244,0.517 -2.014,0.517 l -1.046,0 0,-3.529 0.375,0 c 0.954,0 1.981,-0.049 2.629,0.599 0.313,0.313 0.488,0.752 0.488,1.231 0,0.532 -0.209,0.959 -0.432,1.182"
         style="fill:#ffffff;fill-opacity:1;fill-rule:nonzero;stroke:none"
         id="path3866"
         inkscape:connector-curvature="0" /></g><path
       d="m 506.042,201.92 1.137,0 0,-9.448 -1.137,0 0,9.448 z"
       style="fill:#ffffff;fill-opacity:1;fill-rule:nonzero;stroke:none"
       id="path3868"
       inkscape:connector-curvature="0" /><g
       id="g3870"
       transform="translate(513.66541,200.978)"><path
         d="m 0,0 0,-8.506 -1.135,0 0,8.506 -2.81,0 0,0.942 6.745,0 L 2.8,0 0,0 z"
         style="fill:#ffffff;fill-opacity:1;fill-rule:nonzero;stroke:none"
         id="path3872"
         inkscape:connector-curvature="0" /></g><g
       id="g3874"
       transform="translate(521.90359,196.20621)"><path
         d="m 0,0 0,-3.734 -1.122,0 0,3.734 -2.999,5.714 1.299,0 2.328,-4.431 2.262,4.431 1.231,0 L 0,0 z"
         style="fill:#ffffff;fill-opacity:1;fill-rule:nonzero;stroke:none"
         id="path3876"
         inkscape:connector-curvature="0" /></g><g
       id="g3878"
       transform="translate(535.50481,192.2935)"><path
         d="m 0,0 c -2.445,0 -4.233,2.02 -4.233,4.86 0,2.918 1.769,4.945 4.321,4.945 2.472,0 4.219,-2.006 4.219,-4.858 C 4.307,2.022 2.557,0 0,0 m -0.004,8.84 c -1.851,0 -3.053,-1.564 -3.053,-3.92 0,-2.348 1.339,-3.946 3.114,-3.946 1.975,0 3.074,1.68 3.074,4.02 0,2.306 -1.298,3.846 -3.135,3.846"
         style="fill:#ffffff;fill-opacity:1;fill-rule:nonzero;stroke:none"
         id="path3880"
         inkscape:connector-curvature="0" /></g><g
       id="g3882"
       transform="translate(544.04649,200.978)"><path
         d="m 0,0 0,-3.118 3.653,0 0,-0.919 -3.653,0 0,-4.469 -1.128,0 0,9.448 5.018,0 L 3.89,0 0,0 z"
         style="fill:#ffffff;fill-opacity:1;fill-rule:nonzero;stroke:none"
         id="path3884"
         inkscape:connector-curvature="0" /></g><g
       id="g3886"
       transform="translate(497.2959,199.61501)"><path
         d="m 0,0 c 0,1.452 1.168,2.485 2.875,2.485 1.728,0 2.557,-0.892 2.641,-0.984 L 4.962,0.83 C 4.75,0.993 3.994,1.549 2.949,1.549 c -1.205,0 -1.872,-0.63 -1.872,-1.485 0,-0.414 0.169,-0.712 0.442,-0.957 0.324,-0.29 0.797,-0.505 1.306,-0.74 0.634,-0.291 1.502,-0.618 2.084,-1.222 0.402,-0.417 0.706,-0.96 0.706,-1.705 0,-1.571 -1.09,-2.768 -3.051,-2.768 -1.672,0 -2.726,0.921 -2.825,1.013 l 0.52,0.766 c 0.268,-0.199 1.318,-0.82 2.277,-0.82 1.422,0 1.954,0.779 1.954,1.717 0,0.437 -0.198,0.788 -0.493,1.07 C 3.556,-3.158 2.889,-2.873 2.25,-2.581 1.615,-2.291 1.004,-1.987 0.571,-1.532 0.285,-1.233 0,-0.743 0,0"
         style="fill:#ffffff;fill-opacity:1;fill-rule:nonzero;stroke:none"
         id="path3888"
         inkscape:connector-curvature="0" /></g><path
       style="fill:#ffffff;fill-opacity:1;fill-rule:nonzero;stroke:none"
       d="M 31.5625 29.0625 L 31.5625 40.8125 L 37.90625 40.8125 C 39.3675 40.8125 40.2075 41.15875 40.28125 42.46875 L 40.4375 42.46875 L 40.4375 31.78125 C 40.4375 30.7375 40.0775 29.88625 39.3125 29.4375 C 38.83375 29.15625 38.175 29.0625 37.375 29.0625 L 31.5625 29.0625 z M 35.15625 30.90625 C 35.63 30.90625 36 31.2375 36 31.75 C 36 32.305 35.6225 32.65625 35.125 32.65625 C 34.6025 32.65625 34.28125 32.28875 34.28125 31.8125 C 34.28125 31.3925 34.5375 30.90625 35.15625 30.90625 z M 32.3125 30.9375 L 33.0625 30.9375 C 33.38125 30.9375 33.64 30.9875 33.8125 31.15625 C 33.93375 31.2725 34.03125 31.46375 34.03125 31.6875 C 34.03125 32.3325 33.56875 32.625 32.96875 32.625 L 32.28125 32.625 L 32.28125 32.53125 C 32.47 32.515 32.5 32.49875 32.5 32.21875 L 32.5 31.34375 C 32.5 31.06375 32.48125 31.04625 32.3125 31.03125 L 32.3125 30.9375 z M 36.21875 30.9375 L 36.8125 30.9375 L 37.28125 31.96875 L 37.65625 30.9375 L 38.28125 30.9375 L 38.28125 31.03125 C 38.08375 31.05 38.08625 31.07125 38.09375 31.34375 L 38.125 32.21875 C 38.1325 32.50625 38.12625 32.5125 38.3125 32.53125 L 38.3125 32.625 L 37.5 32.625 L 37.5 32.53125 C 37.69375 32.5125 37.72125 32.50625 37.71875 32.21875 L 37.71875 31.28125 L 37.6875 31.28125 L 37.1875 32.59375 L 37.0625 32.59375 L 36.5625 31.375 L 36.5625 31.96875 C 36.555 32.19125 36.5525 32.295 36.5625 32.375 C 36.5725 32.47125 36.61375 32.51875 36.78125 32.53125 L 36.78125 32.625 L 36.15625 32.625 L 36.15625 32.53125 C 36.28 32.52 36.3275 32.47125 36.34375 32.375 C 36.3575 32.295 36.3625 32.17375 36.375 31.9375 L 36.40625 31.40625 C 36.42625 31.08 36.42375 31.05 36.21875 31.03125 L 36.21875 30.9375 z M 38.5 30.9375 L 39.34375 30.9375 L 39.34375 31.03125 C 39.165 31.04625 39.125 31.06375 39.125 31.34375 L 39.125 32.21875 C 39.125 32.49875 39.165 32.515 39.34375 32.53125 L 39.34375 32.625 L 38.5 32.625 L 38.5 32.53125 C 38.67875 32.515 38.6875 32.49875 38.6875 32.21875 L 38.6875 31.34375 C 38.6875 31.06375 38.67875 31.04625 38.5 31.03125 L 38.5 30.9375 z M 35.125 31.03125 C 34.92625 31.03125 34.75 31.26625 34.75 31.71875 C 34.75 32.18875 34.93375 32.53125 35.1875 32.53125 C 35.41125 32.53125 35.53125 32.3125 35.53125 31.84375 C 35.53125 31.3225 35.34875 31.03125 35.125 31.03125 z M 33.0625 31.0625 C 33.0025 31.0625 32.955 31.0825 32.9375 31.09375 C 32.92375 31.0975 32.9375 31.15375 32.9375 31.21875 L 32.9375 32.21875 C 32.9375 32.44875 33.00125 32.46875 33.125 32.46875 C 33.34875 32.46875 33.5625 32.24 33.5625 31.78125 C 33.5625 31.22375 33.2825 31.0625 33.0625 31.0625 z M 37.75 34 C 37.83 34 37.92375 34.01125 38 34.03125 C 38.05875 34.0475 38.09125 34.05125 38.125 34.0625 C 38.135 34.1625 38.15875 34.2925 38.1875 34.46875 L 38.0625 34.5 C 38.005 34.32875 37.92375 34.15625 37.71875 34.15625 C 37.58625 34.15625 37.5 34.25 37.5 34.375 C 37.5 34.50375 37.585 34.58 37.75 34.65625 L 37.8125 34.6875 C 38.0525 34.79625 38.25 34.915 38.25 35.21875 C 38.25 35.53625 37.995 35.78125 37.59375 35.78125 C 37.48875 35.78125 37.38125 35.7425 37.3125 35.71875 C 37.235 35.6925 37.18625 35.6725 37.15625 35.65625 C 37.135 35.5375 37.09375 35.3925 37.0625 35.21875 L 37.1875 35.1875 C 37.24125 35.3375 37.40125 35.625 37.65625 35.625 C 37.79125 35.625 37.875 35.54375 37.875 35.375 C 37.875 35.2225 37.78375 35.135 37.625 35.0625 L 37.59375 35.0625 C 37.3825 34.96375 37.125 34.8075 37.125 34.53125 C 37.125 34.2375 37.3425 34 37.75 34 z M 33.375 34.03125 L 33.9375 34.03125 L 34.8125 35.125 L 34.8125 34.78125 C 34.8125 34.50875 34.79125 34.36125 34.78125 34.28125 C 34.76875 34.19 34.70125 34.16375 34.53125 34.15625 L 34.53125 34.03125 L 35.1875 34.03125 L 35.1875 34.15625 C 35.05875 34.16125 34.9825 34.19 34.96875 34.28125 C 34.95875 34.36125 34.96875 34.50875 34.96875 34.78125 L 34.96875 35.75 L 34.75 35.75 L 33.78125 34.53125 L 33.78125 35 C 33.78125 35.27125 33.8025 35.41875 33.8125 35.5 C 33.825 35.59125 33.89125 35.61625 34.0625 35.625 L 34.0625 35.71875 L 33.40625 35.71875 L 33.40625 35.625 C 33.52 35.61875 33.58 35.59125 33.59375 35.5 C 33.60375 35.41875 33.625 35.27125 33.625 35 L 33.625 34.53125 C 33.625 34.34 33.615 34.29125 33.5625 34.21875 C 33.525 34.16375 33.46875 34.16375 33.375 34.15625 L 33.375 34.03125 z M 35.25 34.03125 L 36.0625 34.03125 L 36.0625 34.15625 L 36 34.15625 C 35.90375 34.16625 35.8775 34.19 35.90625 34.28125 C 35.9525 34.42625 36.15375 34.93375 36.25 35.1875 C 36.33 34.9675 36.52125 34.465 36.5625 34.34375 C 36.61625 34.185 36.585 34.16875 36.46875 34.15625 L 36.40625 34.15625 L 36.40625 34.03125 L 37.03125 34.03125 L 37.03125 34.15625 C 36.8825 34.17375 36.85125 34.17 36.75 34.40625 C 36.73375 34.44125 36.4125 35.22125 36.21875 35.75 L 36 35.75 C 35.82125 35.28375 35.5925 34.65 35.5 34.40625 C 35.415 34.18375 35.375 34.17125 35.25 34.15625 L 35.25 34.03125 z M 33.1875 37.15625 L 34 37.15625 L 34 37.25 C 33.82 37.265 33.8125 37.2825 33.8125 37.5625 L 33.8125 38.4375 C 33.8125 38.7175 33.82 38.73375 34 38.75 L 34 38.84375 L 33.1875 38.84375 L 33.1875 38.75 C 33.36625 38.73375 33.375 38.7175 33.375 38.4375 L 33.375 37.5625 C 33.375 37.2825 33.36625 37.265 33.1875 37.25 L 33.1875 37.15625 z M 34.1875 37.15625 L 35.03125 37.15625 L 35.03125 37.25 C 34.845 37.26625 34.84375 37.2825 34.84375 37.5625 L 34.84375 38.46875 C 34.84375 38.60375 34.82875 38.66375 34.875 38.6875 C 34.9175 38.70875 34.9825 38.71875 35.0625 38.71875 C 35.14625 38.71875 35.25875 38.6925 35.3125 38.625 C 35.35375 38.57625 35.39625 38.5125 35.4375 38.375 L 35.5625 38.40625 C 35.54625 38.505 35.4925 38.76375 35.46875 38.84375 L 34.1875 38.84375 L 34.1875 38.75 C 34.38375 38.73375 34.40625 38.7175 34.40625 38.4375 L 34.40625 37.5625 C 34.40625 37.2825 34.36125 37.26625 34.1875 37.25 L 34.1875 37.15625 z M 35.65625 37.15625 L 36.5 37.15625 L 36.5 37.25 C 36.31375 37.26625 36.28125 37.2825 36.28125 37.5625 L 36.28125 38.46875 C 36.28125 38.60375 36.2975 38.66375 36.34375 38.6875 C 36.385 38.70875 36.45 38.71875 36.53125 38.71875 C 36.615 38.71875 36.69625 38.6925 36.75 38.625 C 36.79125 38.57625 36.86625 38.5125 36.90625 38.375 L 37 38.40625 C 36.985 38.505 36.93 38.76375 36.90625 38.84375 L 35.625 38.84375 L 35.625 38.75 C 35.8225 38.73375 35.84375 38.7175 35.84375 38.4375 L 35.84375 37.5625 C 35.84375 37.2825 35.83 37.26625 35.65625 37.25 L 35.65625 37.15625 z M 36.75 37.15625 L 37.59375 37.15625 L 37.59375 37.25 L 37.5 37.28125 C 37.40375 37.29125 37.4075 37.315 37.4375 37.40625 C 37.48375 37.55125 37.68625 38.05875 37.78125 38.3125 C 37.86125 38.0925 38.02125 37.59 38.0625 37.46875 C 38.1175 37.31 38.08625 37.2625 37.96875 37.25 L 37.90625 37.25 L 37.90625 37.15625 L 38.53125 37.15625 L 38.53125 37.25 C 38.38375 37.2675 38.35125 37.295 38.25 37.53125 C 38.23375 37.56625 37.9125 38.315 37.71875 38.84375 L 37.53125 38.84375 C 37.3525 38.3775 37.0925 37.74375 37 37.5 C 36.91375 37.2775 36.87375 37.265 36.75 37.25 L 36.75 37.15625 z "
       id="path3892"
       transform="matrix(0.8,0,0,-0.8,378.118,214.535)" /><path
       style="fill:#ffffff;fill-opacity:1;fill-rule:nonzero;stroke:none"
       d="M 44.28125 29.0625 C 43.48 29.0625 42.855 29.15625 42.375 29.4375 C 41.61 29.88625 41.25 30.7375 41.25 31.78125 L 41.25 42.46875 L 41.375 42.46875 C 41.45 41.15875 42.32125 40.8125 43.78125 40.8125 L 50.15625 40.8125 L 50.15625 29.0625 L 44.28125 29.0625 z M 48.40625 30.90625 L 48.5625 31.375 C 48.6725 31.68375 48.8075 32.01625 48.90625 32.28125 C 48.99 32.50625 49.02875 32.515 49.15625 32.53125 L 49.15625 32.625 L 48.34375 32.625 L 48.34375 32.53125 L 48.40625 32.5 C 48.5025 32.4875 48.5025 32.4675 48.46875 32.375 L 48.375 32.125 L 47.96875 32.125 L 47.875 32.375 C 47.84125 32.4875 47.85 32.48625 47.96875 32.5 L 48.03125 32.53125 L 48.03125 32.625 L 47.4375 32.625 L 47.4375 32.53125 C 47.57125 32.5125 47.6025 32.49875 47.6875 32.28125 L 48.21875 30.9375 L 48.40625 30.90625 z M 42.40625 30.9375 L 43 30.9375 L 43.46875 31.96875 L 43.84375 30.9375 L 44.46875 30.9375 L 44.46875 31.03125 C 44.27125 31.05 44.27375 31.07125 44.28125 31.34375 L 44.3125 32.21875 C 44.32 32.50625 44.31375 32.5125 44.5 32.53125 L 44.5 32.625 L 43.6875 32.625 L 43.6875 32.53125 C 43.88125 32.5125 43.90875 32.50625 43.90625 32.21875 L 43.875 31.28125 L 43.375 32.59375 L 43.25 32.59375 L 42.75 31.375 L 42.75 31.96875 C 42.7425 32.19125 42.74 32.295 42.75 32.375 C 42.76 32.47125 42.8 32.51875 42.96875 32.53125 L 42.96875 32.625 L 42.34375 32.625 L 42.34375 32.53125 C 42.4675 32.52 42.515 32.47125 42.53125 32.375 C 42.545 32.295 42.55 32.17375 42.5625 31.9375 L 42.59375 31.40625 C 42.61375 31.08 42.61125 31.05 42.40625 31.03125 L 42.40625 30.9375 z M 44.6875 30.9375 L 45.53125 30.9375 L 45.53125 31.03125 C 45.3525 31.04625 45.3125 31.06375 45.3125 31.34375 L 45.3125 32.21875 C 45.3125 32.49875 45.3525 32.515 45.53125 32.53125 L 45.53125 32.625 L 44.6875 32.625 L 44.6875 32.53125 C 44.86625 32.515 44.875 32.49875 44.875 32.21875 L 44.875 31.34375 C 44.875 31.06375 44.86625 31.04625 44.6875 31.03125 L 44.6875 30.9375 z M 45.65625 30.9375 L 46.21875 30.9375 L 47.09375 32 L 47.09375 31.65625 C 47.09375 31.38375 47.0725 31.23625 47.0625 31.15625 C 47.0475 31.065 46.98375 31.03875 46.8125 31.03125 L 46.8125 30.9375 L 47.46875 30.9375 L 47.46875 31.03125 C 47.33875 31.03625 47.29375 31.065 47.28125 31.15625 C 47.27125 31.23625 47.25 31.38375 47.25 31.65625 L 47.25 32.625 L 47.03125 32.625 L 46.0625 31.40625 L 46.0625 31.90625 C 46.0625 32.1775 46.0825 32.295 46.09375 32.375 C 46.10625 32.46625 46.1725 32.5225 46.34375 32.53125 L 46.34375 32.625 L 45.6875 32.625 L 45.6875 32.53125 C 45.80125 32.525 45.8625 32.46625 45.875 32.375 C 45.885 32.295 45.90625 32.1775 45.90625 31.90625 L 45.90625 31.40625 C 45.90625 31.215 45.89625 31.1975 45.84375 31.125 C 45.805 31.07125 45.74875 31.03875 45.65625 31.03125 L 45.65625 30.9375 z M 48.15625 31.46875 L 48 31.96875 L 48.34375 31.96875 L 48.1875 31.46875 L 48.15625 31.46875 z M 43.53125 33.96875 L 43.59375 33.96875 C 43.6325 34.0275 43.65 34.03125 43.71875 34.03125 L 44.78125 34.03125 C 44.85 34.03125 44.83375 34.0175 44.875 33.96875 L 44.96875 33.96875 C 44.97125 34.0775 44.98625 34.30875 45 34.5 L 44.875 34.5 C 44.8375 34.34375 44.82 34.29375 44.78125 34.25 C 44.73625 34.2025 44.655 34.1875 44.53125 34.1875 L 44.46875 34.1875 L 44.46875 35.3125 C 44.46875 35.5925 44.47 35.60875 44.6875 35.625 L 44.6875 35.71875 L 43.78125 35.71875 L 43.78125 35.625 C 43.9875 35.60875 44.03125 35.5925 44.03125 35.3125 L 44.03125 34.1875 L 43.96875 34.1875 C 43.795 34.1875 43.72875 34.2025 43.6875 34.25 C 43.6575 34.2875 43.62625 34.35375 43.59375 34.5 L 43.5 34.5 C 43.51 34.28125 43.52625 34.1 43.53125 33.96875 z M 47.125 34 C 47.59875 34 47.96875 34.36125 47.96875 34.875 C 47.96875 35.42875 47.59125 35.78125 47.09375 35.78125 C 46.57125 35.78125 46.21875 35.3825 46.21875 34.90625 C 46.21875 34.48625 46.505 34 47.125 34 z M 45.1875 34.03125 L 46.03125 34.03125 L 46.03125 34.15625 C 45.85375 34.1725 45.8125 34.18875 45.8125 34.46875 L 45.8125 35.3125 C 45.8125 35.5925 45.85375 35.60875 46.03125 35.625 L 46.03125 35.71875 L 45.1875 35.71875 L 45.1875 35.625 C 45.36625 35.60875 45.375 35.5925 45.375 35.3125 L 45.375 34.46875 C 45.375 34.18875 45.36625 34.1725 45.1875 34.15625 L 45.1875 34.03125 z M 47.09375 34.15625 C 46.895 34.15625 46.71875 34.36 46.71875 34.8125 C 46.71875 35.2825 46.9025 35.625 47.15625 35.625 C 47.38 35.625 47.5 35.40625 47.5 34.9375 C 47.5 34.41625 47.3175 34.15625 47.09375 34.15625 z M 47.78125 37.125 L 47.96875 37.59375 C 48.08125 37.9025 48.1825 38.235 48.28125 38.5 C 48.365 38.725 48.405 38.73375 48.53125 38.75 L 48.53125 38.84375 L 47.71875 38.84375 L 47.71875 38.75 L 47.8125 38.71875 C 47.9075 38.70625 47.90875 38.68625 47.875 38.59375 L 47.78125 38.34375 L 47.34375 38.34375 L 47.28125 38.59375 C 47.2475 38.70625 47.255 38.705 47.375 38.71875 L 47.4375 38.75 L 47.4375 38.84375 L 46.84375 38.84375 L 46.84375 38.75 C 46.97375 38.7325 47.01 38.7175 47.09375 38.5 L 47.59375 37.15625 L 47.78125 37.125 z M 43.125 37.15625 L 43.75 37.15625 L 44.1875 38.1875 L 44.59375 37.15625 L 45.21875 37.15625 L 45.21875 37.25 C 45.02125 37.2675 45.02375 37.29125 45.03125 37.5625 L 45.0625 38.4375 C 45.07 38.725 45.06375 38.73125 45.25 38.75 L 45.25 38.84375 L 44.4375 38.84375 L 44.4375 38.75 C 44.63125 38.73125 44.62875 38.725 44.625 38.4375 L 44.625 37.5 L 44.125 38.8125 L 43.96875 38.8125 L 43.5 37.59375 L 43.5 38.1875 C 43.49125 38.41 43.49 38.5125 43.5 38.59375 C 43.51 38.68875 43.54875 38.73625 43.71875 38.75 L 43.71875 38.84375 L 43.09375 38.84375 L 43.09375 38.75 C 43.21875 38.73875 43.26625 38.68875 43.28125 38.59375 C 43.295 38.5125 43.3 38.3925 43.3125 38.15625 L 43.34375 37.625 C 43.3625 37.29875 43.33125 37.2675 43.125 37.25 L 43.125 37.15625 z M 45.4375 37.15625 L 46.65625 37.15625 C 46.66 37.20125 46.675 37.4 46.6875 37.59375 L 46.5625 37.59375 C 46.53625 37.46625 46.51 37.385 46.46875 37.34375 C 46.4275 37.3 46.355 37.28125 46.21875 37.28125 L 46.15625 37.28125 C 46.05875 37.28125 46.0625 37.28375 46.0625 37.375 L 46.0625 37.875 L 46.1875 37.875 C 46.41 37.875 46.4425 37.8525 46.46875 37.65625 L 46.5625 37.65625 L 46.5625 38.28125 L 46.46875 38.28125 C 46.4425 38.05375 46.41 38.03125 46.1875 38.03125 L 46.0625 38.03125 L 46.0625 38.46875 C 46.0625 38.60375 46.07875 38.66375 46.125 38.6875 C 46.16625 38.70875 46.2325 38.71875 46.3125 38.71875 C 46.41625 38.71875 46.50625 38.6875 46.5625 38.625 C 46.60625 38.57875 46.64875 38.5 46.6875 38.375 L 46.8125 38.375 C 46.80125 38.50125 46.7425 38.77375 46.71875 38.84375 L 45.40625 38.84375 L 45.40625 38.75 C 45.605 38.73375 45.625 38.7175 45.625 38.4375 L 45.625 37.5625 C 45.625 37.2825 45.61 37.26625 45.4375 37.25 L 45.4375 37.15625 z M 47.5625 37.6875 L 47.40625 38.1875 L 47.71875 38.1875 L 47.5625 37.6875 z "
       id="path3896"
       transform="matrix(0.8,0,0,-0.8,378.118,214.535)" /><g
       id="g3898"
       transform="translate(419.2202,190.58231)"><path
         d="m 0,0 0,-9.941 -7.208,0 -0.082,-0.203 c -0.125,-0.31 -0.35,-0.597 -1.136,-0.597 -0.786,0 -1.01,0.287 -1.136,0.597 l -0.082,0.203 -7.189,0 0,9.941 -0.65,0 0,-0.303 -0.624,0.192 c -0.072,0.245 -0.296,0.426 -0.565,0.426 -0.326,0 -0.592,-0.266 -0.592,-0.592 0,-0.328 0.266,-0.593 0.592,-0.593 0.143,0 0.272,0.053 0.374,0.137 l 0.815,-0.25 0,-0.799 -0.612,0.11 c -0.09,0.211 -0.3,0.359 -0.545,0.359 -0.326,0 -0.592,-0.265 -0.592,-0.592 0,-0.327 0.266,-0.592 0.592,-0.592 0.169,0 0.321,0.072 0.429,0.185 l 0.728,-0.131 0,-0.814 -0.64,0.028 c -0.103,0.172 -0.29,0.289 -0.506,0.289 -0.326,0 -0.592,-0.265 -0.592,-0.592 0,-0.327 0.266,-0.593 0.592,-0.593 0.198,0 0.371,0.098 0.479,0.246 l 0.667,-0.029 0,-0.885 -0.654,-0.024 c -0.107,0.151 -0.282,0.249 -0.481,0.249 -0.326,0 -0.592,-0.265 -0.592,-0.592 0,-0.327 0.266,-0.592 0.592,-0.592 0.214,0 0.4,0.115 0.504,0.285 l 0.631,0.023 0,-0.816 -0.715,-0.123 c -0.108,0.115 -0.261,0.188 -0.431,0.188 -0.326,0 -0.592,-0.265 -0.592,-0.592 0,-0.327 0.266,-0.592 0.592,-0.592 0.243,0 0.452,0.146 0.543,0.356 l 0.603,0.103 0,-0.801 -0.782,-0.238 c -0.102,0.084 -0.232,0.137 -0.375,0.137 -0.326,0 -0.592,-0.265 -0.592,-0.592 0,-0.328 0.266,-0.592 0.592,-0.592 0.269,0 0.494,0.18 0.566,0.425 l 0.591,0.181 0,-0.775 -0.864,-0.373 c -0.093,0.062 -0.205,0.098 -0.325,0.098 -0.326,0 -0.592,-0.265 -0.592,-0.592 0,-0.327 0.266,-0.592 0.592,-0.592 0.291,0 0.533,0.211 0.582,0.489 l 0.607,0.262 0,-0.708 7.438,0 c 0.303,-0.527 0.826,-0.8 1.619,-0.8 0.793,0 1.317,0.273 1.618,0.8 l 7.458,0 L 0.65,0 0,0 z"
         style="fill:#ffffff;fill-opacity:1;fill-rule:nonzero;stroke:none"
         id="path3900"
         inkscape:connector-curvature="0" /></g><g
       id="g3902"
       transform="translate(405.9003,193.8974)"><path
         d="m 0,0 c -1.504,0 -2.722,-0.234 -2.722,-0.522 0,-0.289 1.218,-0.522 2.722,-0.522 1.503,0 2.722,0.233 2.722,0.522 C 2.722,-0.234 1.503,0 0,0"
         style="fill:#ffffff;fill-opacity:1;fill-rule:nonzero;stroke:none"
         id="path3904"
         inkscape:connector-curvature="0" /></g><g
       id="g3906"
       transform="translate(409.648,197.15849)"><path
         d="m 0,0 -1.571,-1.104 -0.013,-0.112 0.373,-0.168 c 0.074,-0.037 0.074,-0.096 0.037,-0.132 l -0.987,-0.833 -0.094,0.008 -0.699,1.03 c -0.049,0.067 -0.031,0.134 0.054,0.148 l 0.469,0.077 0,0.118 -1.217,1.719 -0.2,0 -1.217,-1.719 0,-0.118 0.47,-0.077 c 0.084,-0.014 0.101,-0.081 0.053,-0.148 l -0.7,-1.03 -0.092,-0.008 -0.923,0.833 c -0.037,0.036 -0.037,0.095 0.037,0.132 l 0.374,0.168 -0.014,0.112 -1.637,1.104 -0.132,-0.052 0.96,-2.936 c 0.489,0.219 1.609,0.373 2.92,0.379 1.313,-0.006 2.433,-0.16 2.921,-0.379 L 0.133,-0.052 0,0 z"
         style="fill:#ffffff;fill-opacity:1;fill-rule:nonzero;stroke:none"
         id="path3908"
         inkscape:connector-curvature="0" /></g><g
       id="g3910"
       transform="translate(410.7823,174.20711)"><path
         d="m 0,0 c -1.504,0 -2.722,-0.234 -2.722,-0.522 0,-0.289 1.218,-0.522 2.722,-0.522 1.503,0 2.722,0.233 2.722,0.522 C 2.722,-0.234 1.503,0 0,0"
         style="fill:#ffffff;fill-opacity:1;fill-rule:nonzero;stroke:none"
         id="path3912"
         inkscape:connector-curvature="0" /></g><g
       id="g3914"
       transform="translate(414.53011,177.4684)"><path
         d="m 0,0 -1.571,-1.105 -0.013,-0.112 0.373,-0.167 c 0.074,-0.037 0.074,-0.096 0.037,-0.132 l -0.987,-0.834 -0.094,0.009 -0.699,1.03 c -0.048,0.067 -0.031,0.134 0.054,0.148 l 0.469,0.076 0,0.119 -1.217,1.719 -0.2,0 -1.217,-1.719 0,-0.119 0.47,-0.076 c 0.084,-0.014 0.101,-0.081 0.053,-0.148 l -0.7,-1.03 -0.093,-0.009 -0.921,0.834 c -0.038,0.036 -0.038,0.095 0.036,0.132 L -5.846,-1.217 -5.86,-1.105 -7.497,0 -7.63,-0.052 -6.668,-2.989 c 0.488,0.22 1.608,0.374 2.92,0.38 1.312,-0.006 2.433,-0.16 2.92,-0.38 L 0.133,-0.052 0,0 z"
         style="fill:#ffffff;fill-opacity:1;fill-rule:nonzero;stroke:none"
         id="path3916"
         inkscape:connector-curvature="0" /></g><g
       id="g3918"
       transform="translate(415.65359,193.8974)"><path
         d="m 0,0 c -1.505,0 -2.723,-0.234 -2.723,-0.522 0,-0.289 1.218,-0.522 2.723,-0.522 1.502,0 2.721,0.233 2.721,0.522 C 2.721,-0.234 1.502,0 0,0"
         style="fill:#ffffff;fill-opacity:1;fill-rule:nonzero;stroke:none"
         id="path3920"
         inkscape:connector-curvature="0" /></g><g
       id="g3922"
       transform="translate(419.4005,197.15849)"><path
         d="m 0,0 -1.571,-1.104 -0.014,-0.112 0.374,-0.168 c 0.073,-0.037 0.074,-0.096 0.036,-0.132 l -0.987,-0.833 -0.093,0.008 -0.699,1.03 c -0.049,0.067 -0.031,0.134 0.053,0.148 l 0.469,0.077 0,0.118 -1.217,1.719 -0.199,0 -1.217,-1.719 0,-0.118 0.469,-0.077 c 0.085,-0.014 0.102,-0.081 0.054,-0.148 l -0.699,-1.03 -0.094,-0.008 -0.922,0.844 c -0.037,0.035 -0.037,0.095 0.037,0.132 L -5.846,-1.216 -5.86,-1.104 -7.497,0 -7.63,-0.052 -6.669,-2.988 c 0.488,0.219 1.608,0.373 2.921,0.379 1.312,-0.006 2.432,-0.16 2.919,-0.379 L 0.133,-0.052 0,0 z"
         style="fill:#ffffff;fill-opacity:1;fill-rule:nonzero;stroke:none"
         id="path3924"
         inkscape:connector-curvature="0" /></g><g
       id="g4010"
       transform="translate(408.91319,166.78709)"><path
         d="m 0,0 c 0,-0.3 -0.243,-0.542 -0.542,-0.542 -0.3,0 -0.543,0.242 -0.543,0.542 0,0.299 0.243,0.542 0.543,0.542 C -0.243,0.542 0,0.299 0,0"
         style="fill:#ffffff;fill-opacity:1;fill-rule:nonzero;stroke:none"
         id="path4012"
         inkscape:connector-curvature="0" /></g><g
       id="g4014"
       transform="translate(414.4108,165.88541)"><path
         d="m 0,0 c 0,-0.3 -0.243,-0.542 -0.542,-0.542 -0.3,0 -0.543,0.242 -0.543,0.542 0,0.299 0.243,0.541 0.543,0.541 C -0.243,0.541 0,0.299 0,0"
         style="fill:#ffffff;fill-opacity:1;fill-rule:nonzero;stroke:none"
         id="path4016"
         inkscape:connector-curvature="0" /></g><g
       id="g4018"
       transform="translate(393.3447,196.3492)"><path
         d="M 0,0 z"
         style="fill:#ffffff;fill-opacity:1;fill-rule:nonzero;stroke:none"
         id="path4020"
         inkscape:connector-curvature="0" /></g><g
       id="g4022"
       transform="translate(416.123,206.1465)"><path
         d="M 0,0 z"
         style="fill:#ffffff;fill-opacity:1;fill-rule:nonzero;stroke:none"
         id="path4024"
         inkscape:connector-curvature="0" /></g><g
       id="g4026"
       transform="translate(424.8705,195.37469)"><path
         d="M 0,0 z"
         style="fill:#ffffff;fill-opacity:1;fill-rule:nonzero;stroke:none"
         id="path4028"
         inkscape:connector-curvature="0" /></g><g
       id="g4030"
       transform="translate(429.0865,177.74451)"><path
         d="M 0,0 z"
         style="fill:#ffffff;fill-opacity:1;fill-rule:nonzero;stroke:none"
         id="path4032"
         inkscape:connector-curvature="0" /></g><g
       id="g4034"
       transform="translate(411.3037,205.06239)"><path
         d="m 0,0 c 0,-0.299 -0.243,-0.542 -0.543,-0.542 -0.299,0 -0.541,0.243 -0.541,0.542 0,0.299 0.242,0.542 0.541,0.542 C -0.243,0.542 0,0.299 0,0"
         style="fill:#ffffff;fill-opacity:1;fill-rule:nonzero;stroke:none"
         id="path4036"
         inkscape:connector-curvature="0" /></g><g
       id="g4038"
       transform="translate(424.20441,199.98801)"><path
         d="m 0,0 c -0.013,-0.299 -0.266,-0.531 -0.565,-0.519 -0.299,0.013 -0.531,0.266 -0.519,0.565 0.013,0.299 0.266,0.531 0.565,0.518 C -0.221,0.551 0.012,0.299 0,0"
         style="fill:#ffffff;fill-opacity:1;fill-rule:nonzero;stroke:none"
         id="path4040"
         inkscape:connector-curvature="0" /></g><g
       id="g4042"
       transform="translate(397.01601,176.71831)"><path
         d="M 0,0 C 0.208,-0.3 0.314,-0.621 0.313,-0.953 0.312,-1.332 0.186,-1.639 -0.492,-2.108 l -1.957,-1.395 -0.361,0.518 c 0,0 2.005,1.428 2.038,1.451 0.346,0.239 0.493,0.414 0.494,0.687 0,0.174 -0.064,0.363 -0.189,0.544 -0.196,0.282 -0.448,0.373 -0.669,0.373 -0.202,0 -0.418,-0.141 -0.804,-0.41 l -1.841,-1.249 -0.353,0.509 1.751,1.187 c 0.488,0.342 0.876,0.577 1.237,0.576 C -0.62,0.682 -0.236,0.34 0,0"
         style="fill:#ffffff;fill-opacity:1;fill-rule:nonzero;stroke:none"
         id="path4044"
         inkscape:connector-curvature="0" /></g><g
       id="g4046"
       transform="translate(390.76089,180.53999)"><path
         d="M 0,0 3.724,1.306 3.93,0.742 1.799,-1.861 4.492,-0.796 4.693,-1.346 1.011,-2.76 0.805,-2.196 2.947,0.411 0.2,-0.55 0,0 z"
         style="fill:#ffffff;fill-opacity:1;fill-rule:nonzero;stroke:none"
         id="path4048"
         inkscape:connector-curvature="0" /></g><g
       id="g4050"
       transform="translate(390.2036,183.5052)"><path
         d="M 0,0 3.898,0.578 3.991,-0.046 0.093,-0.624 0,0 z"
         style="fill:#ffffff;fill-opacity:1;fill-rule:nonzero;stroke:none"
         id="path4052"
         inkscape:connector-curvature="0" /></g><g
       id="g4054"
       transform="translate(390.0881,188.2052)"><path
         d="m 0,0 0.015,0.654 3.891,-1.581 -0.028,-0.649 -3.995,-1.191 0.004,0.655 3.24,0.908 L 0,0 z"
         style="fill:#ffffff;fill-opacity:1;fill-rule:nonzero;stroke:none"
         id="path4056"
         inkscape:connector-curvature="0" /></g><g
       id="g4058"
       transform="translate(392.9445,195.82761)"><path
         d="M 0,0 C 0.231,0.42 0.396,0.579 0.64,0.578 0.731,0.578 0.845,0.556 0.959,0.493 1.107,0.41 1.22,0.274 1.262,0.128 1.279,0.071 1.286,0.015 1.285,-0.042 1.283,-0.276 1.153,-0.512 1.016,-0.758 L 0.935,-0.904 -0.175,-0.307 0,0 z M 0.701,1.194 C 0.144,1.193 -0.114,0.874 -0.469,0.232 l -0.463,-0.829 3.472,-1.884 0.299,0.542 -1.442,0.788 0.084,0.155 c 0.243,0.44 0.327,0.506 0.946,0.454 l 1.124,-0.1 0.321,0.583 -1.295,0.11 C 2.316,0.075 2.111,0.095 1.945,0.046 1.889,0.03 1.823,-0.004 1.758,-0.049 1.773,0.021 1.8,0.09 1.801,0.161 1.801,0.272 1.786,0.382 1.752,0.482 1.677,0.714 1.512,0.901 1.262,1.039 1.076,1.142 0.89,1.195 0.701,1.194"
         style="fill:#ffffff;fill-opacity:1;fill-rule:nonzero;stroke:none"
         id="path4060"
         inkscape:connector-curvature="0" /></g><g
       id="g4062"
       transform="translate(397.9584,202.59109)"><path
         d="M 0,0 0.502,0.382 2.893,-2.75 2.391,-3.132 0,0 z"
         style="fill:#ffffff;fill-opacity:1;fill-rule:nonzero;stroke:none"
         id="path4064"
         inkscape:connector-curvature="0" /></g><g
       id="g4066"
       transform="translate(400.12241,204.1274)"><path
         d="M 0,0 2.55,1.327 2.798,0.849 1.806,0.332 3.377,-2.685 2.818,-2.976 1.246,0.041 0.249,-0.479 0,0 z"
         style="fill:#ffffff;fill-opacity:1;fill-rule:nonzero;stroke:none"
         id="path4068"
         inkscape:connector-curvature="0" /></g><g
       id="g4070"
       transform="translate(406.4818,206.6532)"><path
         d="m 0,0 0.665,0.185 -0.535,-2.636 0.433,-1.497 -0.601,-0.173 -0.423,1.485 -1.872,1.953 0.648,0.188 1.346,-1.403 L 0,0 z"
         style="fill:#ffffff;fill-opacity:1;fill-rule:nonzero;stroke:none"
         id="path4072"
         inkscape:connector-curvature="0" /></g><g
       id="g4074"
       transform="translate(418.5065,201.26579)"><path
         d="M 0,0 2.001,3.395 3.884,2.286 3.61,1.821 2.265,2.614 1.712,1.674 2.977,0.929 2.71,0.474 1.445,1.22 0.539,-0.318 0,0 z"
         style="fill:#ffffff;fill-opacity:1;fill-rule:nonzero;stroke:none"
         id="path4076"
         inkscape:connector-curvature="0" /></g><g
       id="g4078"
       transform="translate(428.632,192.4872)"><path
         d="m 0,0 1.435,1.717 0.223,-0.68 -1.068,-1.222 1.587,-0.357 0.21,-0.64 -2.171,0.525 -1.542,-1.848 -0.219,0.668 1.163,1.357 -1.74,0.397 L -2.334,0.563 0,0 z"
         style="fill:#ffffff;fill-opacity:1;fill-rule:nonzero;stroke:none"
         id="path4080"
         inkscape:connector-curvature="0" /></g><g
       id="g4082"
       transform="translate(427.5058,188.61501)"><path
         d="M 0,0 3.928,0.32 4.106,-1.858 3.568,-1.902 3.442,-0.347 2.355,-0.435 2.474,-1.899 1.949,-1.942 1.829,-0.478 0.051,-0.623 0,0 z"
         style="fill:#ffffff;fill-opacity:1;fill-rule:nonzero;stroke:none"
         id="path4084"
         inkscape:connector-curvature="0" /></g><g
       id="g4086"
       transform="translate(429.5535,182.0984)"><path
         d="m 0,0 c -0.768,0 -1.664,0.418 -1.664,1.192 0,0.28 0.097,0.657 0.444,0.909 0.233,0.17 0.537,0.26 0.878,0.26 0.391,0 1.096,-0.11 1.466,-0.62 C 1.252,1.565 1.316,1.361 1.315,1.144 1.315,0.842 1.192,0.483 0.869,0.249 0.64,0.083 0.338,0 0,0 M -0.311,3.003 C -0.766,3.003 -1.185,2.88 -1.516,2.64 -2.11,2.209 -2.218,1.589 -2.218,1.227 c 0,-1.332 1.251,-1.865 2.191,-1.865 0.452,0 0.865,0.123 1.191,0.359 0.664,0.48 0.7,1.203 0.7,1.435 0,1.163 -1.068,1.847 -2.175,1.847"
         style="fill:#ffffff;fill-opacity:1;fill-rule:nonzero;stroke:none"
         id="path4088"
         inkscape:connector-curvature="0" /></g><g
       id="g4090"
       transform="translate(426.342,195.00909)"><path
         d="m 0,0 c -0.354,0 -0.673,0.148 -0.893,0.496 -0.113,0.177 -0.167,0.368 -0.168,0.561 -0.003,0.446 0.28,0.903 0.797,1.231 0.342,0.217 0.678,0.324 0.978,0.323 0.38,0 0.689,-0.167 0.895,-0.493 C 1.731,1.926 1.787,1.722 1.787,1.518 1.787,1.083 1.511,0.656 1.012,0.34 0.662,0.118 0.309,0 0,0 m 0.614,3.211 c -0.399,0 -0.823,-0.127 -1.232,-0.386 -0.757,-0.481 -1.033,-1.169 -1.033,-1.67 0,-0.326 0.089,-0.645 0.275,-0.938 0.42,-0.663 1.051,-0.825 1.477,-0.823 0.407,0.002 0.836,0.137 1.24,0.394 C 1.829,0.097 2.372,0.671 2.372,1.449 2.372,1.772 2.28,2.09 2.093,2.384 1.748,2.928 1.207,3.211 0.614,3.211"
         style="fill:#ffffff;fill-opacity:1;fill-rule:nonzero;stroke:none"
         id="path4092"
         inkscape:connector-curvature="0" /></g><g
       id="g4094"
       transform="translate(416.0015,202.8215)"><path
         d="m 0,0 c -0.286,0 -0.698,0.14 -0.928,0.56 -0.112,0.204 -0.161,0.451 -0.161,0.707 0,0.706 0.47,1.696 1.329,1.696 0.482,0 1.088,-0.359 1.088,-1.25 C 1.328,1.145 0.927,0 0,0 m 0.202,3.515 c -0.821,0 -1.536,-0.553 -1.825,-1.536 -0.063,-0.218 -0.104,-0.434 -0.104,-0.643 0,-0.394 0.066,-0.706 0.228,-1 0.364,-0.667 1.031,-0.894 1.538,-0.894 0.287,0 0.563,0.065 0.816,0.204 0.665,0.363 1.104,1.207 1.104,2.015 0,0.35 -0.068,0.681 -0.224,0.963 -0.32,0.582 -0.912,0.891 -1.533,0.891"
         style="fill:#ffffff;fill-opacity:1;fill-rule:nonzero;stroke:none"
         id="path4096"
         inkscape:connector-curvature="0" /></g><g
       id="g4098"
       transform="translate(394.3759,192.0444)"><path
         d="m 0,0 0.529,-0.15 -0.597,-2.164 -3.814,1.045 0.651,2.19 0.519,-0.146 -0.479,-1.578 1.052,-0.288 0.405,1.433 L -1.226,0.198 -1.63,-1.231 -0.441,-1.558 0,0 z"
         style="fill:#ffffff;fill-opacity:1;fill-rule:nonzero;stroke:none"
         id="path4100"
         inkscape:connector-curvature="0" /></g><g
       id="g4102"
       transform="translate(395.37621,200.27789)"><path
         d="m 0,0 c 0.547,0.614 1.107,0.571 1.107,0.571 l 0.096,-0.52 c 0,0 -0.432,-0.014 -0.77,-0.392 -0.147,-0.165 -0.221,-0.337 -0.221,-0.492 0,-0.128 0.05,-0.24 0.15,-0.329 0.273,-0.243 0.739,0.027 1.031,0.144 0.225,0.093 0.544,0.223 0.863,0.223 0.238,0 0.484,-0.068 0.709,-0.268 0.262,-0.235 0.394,-0.529 0.394,-0.838 0,-0.334 -0.13,-0.632 -0.392,-0.925 C 2.464,-3.389 1.788,-3.45 1.788,-3.45 l -0.134,0.527 c 0.399,0.092 0.7,0.245 0.883,0.45 0.143,0.161 0.214,0.341 0.214,0.5 0,0.148 -0.062,0.287 -0.184,0.396 -0.098,0.087 -0.218,0.119 -0.348,0.117 -0.254,0 -0.557,-0.146 -0.807,-0.25 -0.479,-0.197 -0.984,-0.357 -1.436,0.047 -0.23,0.205 -0.352,0.464 -0.352,0.751 0,0.303 0.12,0.625 0.376,0.912"
         style="fill:#ffffff;fill-opacity:1;fill-rule:nonzero;stroke:none"
         id="path4104"
         inkscape:connector-curvature="0" /></g><g
       id="g4106"
       transform="translate(428.7854,177.6647)"><path
         d="m 0,0 c -0.177,0 -0.479,0.102 -0.593,0.395 -0.029,0.075 -0.041,0.151 -0.04,0.227 0.002,0.216 0.104,0.441 0.21,0.676 L -0.357,1.45 0.78,0.939 0.654,0.635 C 0.442,0.154 0.304,0.001 0,0 M -2.327,2.337 -0.836,1.663 -0.911,1.495 C -1.114,1.037 -1.191,0.962 -1.812,0.96 l -1.129,-0.001 -0.268,-0.608 1.3,0.004 c 0.264,-0.001 0.468,-0.001 0.629,0.061 0.051,0.02 0.111,0.053 0.166,0.097 -0.004,-0.033 -0.015,-0.066 -0.015,-0.1 -0.002,-0.145 0.025,-0.288 0.08,-0.414 0.178,-0.416 0.662,-0.62 1.018,-0.619 0.627,0 0.867,0.375 1.172,1.066 C 1.152,0.471 1.507,1.29 1.507,1.29 L -2.076,2.904 -2.327,2.337 z"
         style="fill:#ffffff;fill-opacity:1;fill-rule:nonzero;stroke:none"
         id="path4108"
         inkscape:connector-curvature="0" /></g><g
       id="g4110"
       transform="translate(425.7878,173.30679)"><path
         d="m 0,0 c -0.313,0 -0.607,0.121 -0.913,0.365 -0.31,0.247 -0.639,0.633 -0.639,1.126 0,0.342 0.186,0.669 0.472,1.027 L -0.819,2.844 1.432,1.048 1.259,0.833 C 0.842,0.309 0.556,0 0,0 m -1.404,2.967 c -0.409,-0.512 -0.719,-0.969 -0.719,-1.56 0,-0.501 0.228,-1.073 0.804,-1.533 0.382,-0.304 0.814,-0.47 1.26,-0.47 0.548,0 0.987,0.165 1.67,1.021 l 0.623,0.782 -3.08,2.459 -0.558,-0.699 z"
         style="fill:#ffffff;fill-opacity:1;fill-rule:nonzero;stroke:none"
         id="path4112"
         inkscape:connector-curvature="0" /></g><g
       id="g4114"
       transform="translate(424.01711,168.7771)"><path
         d="m 0,0 c -3.668,-1.297 -7.091,-1.208 -10.011,-0.556 0.095,1.304 0.635,2.698 1.461,2.957 6.431,1.995 11.115,7.991 11.115,15.059 0,8.693 -7.085,15.765 -15.794,15.765 -8.71,0 -15.795,-7.072 -15.795,-15.765 0,-4.836 2.259,-9.43 6.061,-12.408 -0.903,-0.397 -1.673,-1.039 -2.23,-1.838 -0.288,0.197 -0.566,0.4 -0.823,0.611 L -26.16,3.681 c 0.172,-0.208 0.439,-0.482 0.759,-0.789 -0.468,-0.787 -0.739,-1.704 -0.739,-2.684 0,-0.153 0.01,-0.304 0.023,-0.452 -5.658,4.124 -9.021,10.679 -9.021,17.704 0,12.079 9.829,21.907 21.909,21.907 12.08,0 21.908,-9.828 21.908,-21.907 C 8.679,10.541 5.516,4.184 0,0 m -12.71,-5.171 c -3.027,0 -6.805,1.029 -9.401,2.56 -0.786,0.464 -1.724,1.328 -1.724,2.802 0,0.399 0.078,0.779 0.216,1.128 0.969,-0.801 1.971,-1.552 2.599,-1.895 0.144,-0.08 0.228,-0.118 0.396,-0.118 0.404,0 0.73,0.328 0.73,0.733 0,0.309 -0.168,0.56 -0.445,0.681 -0.537,0.235 -1.66,0.699 -2.87,1.326 0.559,0.739 1.441,1.218 2.433,1.218 0.454,0 0.891,-0.097 1.299,-0.289 l 0.829,-0.483 c 2.638,-1.612 9.425,-5.744 17.619,-3.473 -3.11,-2.807 -6.941,-4.19 -11.681,-4.19 m 2.595,-1.844 c -0.832,0 -1.515,-0.589 -1.515,-1.493 0,-0.885 0.692,-1.493 1.515,-1.493 0.125,0 0.245,0.021 0.361,0.051 -0.174,-1.252 -1.632,-2.653 -3.513,-3.283 -1.866,0.625 -3.323,2.036 -3.516,3.282 0.115,-0.03 0.234,-0.05 0.359,-0.05 0.897,0 1.515,0.628 1.515,1.493 0,0.824 -0.648,1.471 -1.483,1.489 0.255,0.466 0.5,0.961 0.68,1.492 1.034,-0.179 2.054,-0.278 3.002,-0.278 0.778,0 1.533,0.043 2.27,0.117 0.098,-0.427 0.243,-0.873 0.413,-1.334 -0.029,0.001 -0.058,0.007 -0.088,0.007 M -20.824,4.87 c 1.558,0 3.015,-0.799 3.869,-2.079 -0.748,0.19 -1.483,0.437 -2.199,0.742 l -0.003,-0.004 -0.023,0.013 c -0.502,0.236 -1.037,0.356 -1.596,0.356 -1.241,0 -2.339,-0.608 -3.016,-1.539 -0.286,0.158 -0.571,0.325 -0.851,0.499 0.84,1.213 2.237,2.012 3.819,2.012 m 6.166,-3.108 c -0.194,-0.144 -0.347,-0.315 -0.458,-0.504 -0.571,0.278 -1.289,0.635 -1.758,0.898 0.664,-0.147 1.532,-0.333 2.216,-0.394 m 4.795,0.297 c -0.453,-0.647 -0.723,-1.547 -0.805,-2.458 -1.431,0.369 -2.73,0.865 -3.863,1.382 0.215,0.417 0.832,0.712 1.302,0.712 1.155,0 2.28,0.128 3.366,0.364 m -3.366,0.27 c -0.968,0 -1.92,0.093 -2.853,0.271 -0.901,1.767 -2.748,2.903 -4.742,2.903 -0.49,0 -0.962,-0.071 -1.413,-0.196 -3.833,2.848 -6.119,7.378 -6.119,12.153 0,8.343 6.786,15.131 15.127,15.131 8.341,0 15.127,-6.788 15.127,-15.131 0,-8.343 -6.786,-15.131 -15.127,-15.131 m -7.595,-6.783 c -2.563,0 -4.648,2.091 -4.648,4.662 0,0.805 0.205,1.563 0.565,2.224 0.239,-0.217 0.495,-0.442 0.76,-0.67 -0.225,-0.477 -0.355,-1.008 -0.355,-1.571 0,-1.397 0.705,-2.552 2.039,-3.34 0.766,-0.452 1.634,-0.86 2.552,-1.215 -0.298,-0.059 -0.603,-0.09 -0.913,-0.09 M 9.347,17.46 C 9.347,29.889 -0.781,40 -13.229,40 -25.677,40 -35.805,29.889 -35.805,17.46 c 0,-7.456 3.682,-14.406 9.851,-18.618 0.607,-2.259 2.674,-3.93 5.13,-3.93 0.664,0 1.309,0.126 1.921,0.363 0.826,-0.273 1.679,-0.499 2.531,-0.674 -0.24,-0.684 -0.59,-1.334 -0.924,-1.895 0,0 0.008,0.002 0.019,0.004 -0.006,-0.004 -0.013,-0.007 -0.019,-0.011 l 0.47,-0.471 c 0.12,0.066 0.256,0.106 0.402,0.106 0.465,0 0.843,-0.377 0.843,-0.842 0,-0.465 -0.378,-0.843 -0.843,-0.843 -0.406,0 -0.762,0.26 -0.949,0.538 0,0 -0.109,-0.379 -0.109,-0.879 -0.004,-1.619 1.764,-3.469 4.215,-4.249 2.449,0.763 4.216,2.626 4.216,4.246 0,0.558 -0.111,0.882 -0.111,0.882 -0.188,-0.227 -0.493,-0.538 -0.953,-0.538 -0.464,0 -0.843,0.378 -0.843,0.843 0,0.465 0.379,0.842 0.843,0.842 0.163,0 0.314,-0.048 0.443,-0.129 l 0.456,0.457 c 0.01,-0.003 0.017,-0.005 0.017,-0.005 -0.258,0.618 -0.446,1.185 -0.574,1.73 4.059,0.546 7.484,2.264 10.206,5.127 L 0.432,-0.483 C 6.097,3.822 9.347,10.354 9.347,17.46"
         style="fill:#ffffff;fill-opacity:1;fill-rule:nonzero;stroke:none"
         id="path4116"
         inkscape:connector-curvature="0" /></g></g></svg>