<?xml version="1.0" encoding="UTF-8" standalone="no"?>
<svg
   xmlns:dc="http://purl.org/dc/elements/1.1/"
   xmlns:cc="http://creativecommons.org/ns#"
   xmlns:rdf="http://www.w3.org/1999/02/22-rdf-syntax-ns#"
   xmlns:svg="http://www.w3.org/2000/svg"
   xmlns="http://www.w3.org/2000/svg"
   xmlns:sodipodi="http://sodipodi.sourceforge.net/DTD/sodipodi-0.dtd"
   xmlns:inkscape="http://www.inkscape.org/namespaces/inkscape"
   width="300"
   height="80.2"
   version="1.1"
   id="svg2"
   inkscape:version="0.48.4 r9939"
   sodipodi:docname="logoqmul.svg">
  <metadata
     id="metadata53">
    <rdf:RDF>
      <cc:Work
         rdf:about="">
        <dc:format>image/svg+xml</dc:format>
        <dc:type
           rdf:resource="http://purl.org/dc/dcmitype/StillImage" />
        <dc:title></dc:title>
      </cc:Work>
    </rdf:RDF>
  </metadata>
  <defs
     id="defs51" />
  <sodipodi:namedview
     pagecolor="#ffffff"
     bordercolor="#666666"
     borderopacity="1"
     objecttolerance="10"
     gridtolerance="10"
     guidetolerance="10"
     inkscape:pageopacity="0"
     inkscape:pageshadow="2"
     inkscape:window-width="1920"
     inkscape:window-height="1072"
     id="namedview49"
     showgrid="false"
     inkscape:zoom="4.0917912"
     inkscape:cx="150"
     inkscape:cy="40.099998"
     inkscape:window-x="-4"
     inkscape:window-y="52"
     inkscape:window-maximized="1"
     inkscape:current-layer="svg2" />
  <desc
     id="desc4">Logo of Queen Mary, University of London</desc>
  <g
     id="g6"
     style="fill:#ffffff"
     inkscape:export-xdpi="1000"
     inkscape:export-ydpi="1000">
    <path
       fill="#000000"
       fill-rule="nonzero"
       id="path210"
       d="m101.77478,40.79189c2.67282,0.46941 4.87627,1.97036 6.56305,4.50145c1.82861,-2.53109 2.81298,-6.23556 2.81298,-11.01723c0,-9.51619 -4.03204,-14.86027 -10.26591,-14.86027c-6.23547,0 -10.2675,5.3441 -10.2675,14.86027c0,9.51619 4.03205,14.86018 10.2675,14.86018c2.01443,0 3.84298,-0.56391 5.34402,-1.68678c-1.45374,-2.48543 -2.53264,-3.32796 -4.45414,-3.60996l0,-3.04766l0,-0.00001zm13.6884,13.22066c-2.95316,0 -6.14099,-1.08058 -7.92231,-4.26511c-1.87586,1.2647 -4.1249,1.91983 -6.65598,1.91983c-8.48618,0 -13.36244,-7.40556 -13.36244,-17.39116c0,-9.9856 4.87627,-17.39127 13.36244,-17.39127c8.48459,0 13.35922,7.40568 13.35922,17.39127c0,5.72049 -1.5923,10.59507 -4.59431,13.68837c1.45377,2.53099 2.86022,3.23347 5.81339,3.23347l0,2.8146"
       style="fill:#ffffff" />
    <path
       fill="#000000"
       fill-rule="nonzero"
       id="path214"
       d="m135.01109,26.8222l0,24.37635l-2.81297,0l0,-3.84294c-2.62558,2.71851 -4.78177,4.31236 -8.34441,4.31236c-5.06206,0 -7.21987,-2.90591 -7.21987,-8.20424l0,-16.64153l2.81297,0l0,16.36122c0,4.03045 1.21907,6.23547 4.96916,6.23547c3.00039,0 4.68885,-1.8286 7.78216,-4.6432l0,-17.95348l2.81297,0"
       style="fill:#ffffff" />
    <path
       fill="#000000"
       fill-rule="nonzero"
       id="path218"
       d="m154.23106,36.85335c-0.56062,-5.01482 -2.76407,-8.20265 -7.03082,-8.24988c-4.96918,-0.04725 -7.07803,5.01641 -7.12695,8.24988l14.15778,0zm-14.15776,2.25069c0,5.53148 2.29794,10.31484 7.83101,10.31484c3.13895,0 4.68558,-1.07898 7.12532,-4.92352l2.29636,1.21904c-2.62392,4.31236 -5.01482,5.95356 -9.65636,5.95356c-6.37564,0 -10.40932,-4.07771 -10.40932,-12.65845c0,-7.54741 3.84464,-12.65674 10.03448,-12.65674c6.60869,0 9.74925,5.20383 9.74925,12.75125l-16.97075,0"
       style="fill:#ffffff" />
    <path
       fill="#000000"
       fill-rule="nonzero"
       id="path222"
       d="m176.26404,36.85335c-0.56062,-5.01482 -2.76572,-8.20265 -7.03244,-8.24988c-4.96748,-0.04725 -7.07643,5.01641 -7.12531,8.24988l14.15779,0l-0.00005,0zm-14.15778,2.25069c0,5.53148 2.29797,10.31484 7.82938,10.31484c3.14056,0 4.68721,-1.07898 7.12537,-4.92352l2.29633,1.21904c-2.62392,4.31236 -5.01479,5.95356 -9.65631,5.95356c-6.37404,0 -10.4077,-4.07771 -10.4077,-12.65845c0,-7.54741 3.8446,-12.65674 10.03447,-12.65674c6.60866,0 9.75085,5.20383 9.75085,12.75125l-16.97238,0"
       style="fill:#ffffff" />
    <path
       fill="#000000"
       fill-rule="nonzero"
       id="path226"
       d="m181.60966,51.19855l0,-24.37635l2.81139,0l0,3.84453c2.6255,-2.7184 4.78334,-4.31396 8.34602,-4.31396c5.06204,0 7.21823,2.90591 7.21823,8.20424l0,16.64153l-2.81302,0l0,-16.35963c0,-4.03035 -1.21739,-6.23548 -4.96916,-6.23548c-2.99875,0 -4.6888,1.82702 -7.78207,4.64162l0,17.95348l-2.81139,0"
       style="fill:#ffffff" />
    <path
       fill="#000000"
       fill-rule="nonzero"
       id="path230"
       d="m214.51691,51.19855l0,-33.8454l5.43854,0l9.3304,28.6904l0.09126,0l9.37605,-28.6904l5.43849,0l0,33.8454l-3.09323,0l0,-31.31431l-0.0929,0l-10.17467,31.31431l-2.95148,0l-10.173,-31.31431l-0.09618,0l0,31.31431l-3.09328,0l-0.00003,0l0.00002,0z"
       style="fill:#ffffff" />
    <path
       fill="#000000"
       fill-rule="nonzero"
       id="path234"
       d="m261.81891,37.41617c-11.15735,2.43808 -12.65839,4.73611 -12.65839,7.82773c0,2.67443 1.8286,4.17547 4.35963,4.17547c2.62556,0 5.85902,-1.5499 8.29875,-4.03204l0,-7.97117l0,0.00001zm0.46933,13.78288l-0.37643,-2.95307c-2.9075,2.29634 -5.11093,3.42089 -8.86104,3.42089c-3.79733,0 -6.70322,-2.34199 -6.70322,-6.37403c0,-6.65594 5.43852,-7.87667 15.60991,-10.12576l0,-1.68844c0,-3.23347 -1.40485,-4.87458 -5.57867,-4.87458c-2.90588,0 -5.29675,1.59386 -7.07649,4.40684l-1.87582,-1.12612c2.11055,-3.93754 5.10927,-5.53149 9.0468,-5.53149c5.53146,0 8.15698,2.25077 8.15698,7.64201l0,12.75125c0,1.21745 0.0929,2.81301 0.37482,4.45251l-2.71683,0"
       style="fill:#ffffff" />
    <path
       fill="#000000"
       fill-rule="nonzero"
       id="path238"
       d="m267.53662,51.19855l0,-24.37635l2.81293,0l0,4.63992l0.09454,0c1.31198,-3.00039 3.9375,-5.10933 7.03082,-5.10933l1.26633,0l0,2.7201l-1.26633,0c-3.09332,0 -7.12537,3.65553 -7.12537,8.34279l0,13.78288l-2.81293,0"
       style="fill:#ffffff" />
    <path
       fill="#000000"
       fill-rule="nonzero"
       id="path242"
       d="m290.0867,46.65174l0.09293,0l6.79611,-19.82935l3.00037,0l-9.09406,26.11047c-1.6412,4.78337 -3.37363,6.8906 -7.78217,6.8906c-1.21906,0 -1.96875,-0.09281 -2.62555,-0.27863l0,-2.29803c0.84424,0.09461 1.73575,0.32926 2.81302,0.32926c1.96869,0 4.12656,-1.73411 5.48575,-6.75214l-8.48621,-24.00154l3.09497,0l6.70483,19.82935"
       style="fill:#ffffff" />
    <path
       fill="#000000"
       fill-rule="nonzero"
       id="path246"
       d="m91.44745,61.44268l0,10.10617c0,1.38207 0.59974,2.10405 1.94103,2.10405c1.34132,0 1.96223,-0.72198 1.96223,-2.10405l0,-10.10617l2.76085,0l0,10.12736c0,3.18134 -1.88078,4.52263 -4.72308,4.52263c-2.84066,0 -4.7035,-1.34129 -4.7035,-4.52263l0,-10.12736l2.76247,0"
       style="fill:#ffffff" />
    <path
       fill="#000000"
       fill-rule="nonzero"
       id="path250"
       d="m99.71281,75.89293l0,-10.88682l2.44138,0l0,1.24022c0.92081,-0.79857 1.78136,-1.44067 2.82274,-1.44067c1.54015,0 2.342,0.78065 2.342,2.80155l0,8.2857l-2.52287,0l0,-8.00538c0,-0.72038 -0.23959,-1.20113 -0.9192,-1.20113c-0.52151,0 -1.10173,0.50035 -1.6428,0.98111l0,8.22543l-2.52124,0"
       style="fill:#ffffff" />
    <path
       fill="#000000"
       fill-rule="nonzero"
       id="path252"
       d="m111.35944,75.89232l-2.52126,0l0,-10.88682l2.52126,0l0,10.88682zm-2.52126,-15.05086l2.52126,0l0,2.28161l-2.52126,0l0,-2.28161z"
       style="fill:#ffffff" />
    <path
       fill="#000000"
       fill-rule="nonzero"
       id="path256"
       d="m116.70442,72.0097l0.03913,0l1.66071,-7.0047l2.52289,0l-2.96294,10.88841l-2.48048,0l-2.96292,-10.88841l2.52123,0l1.66236,7.0047l0.00002,0z"
       style="fill:#ffffff" />
    <path
       fill="#000000"
       fill-rule="nonzero"
       id="path260"
       d="m126.65089,69.00831l0,-0.59973c0,-0.95992 -0.46124,-1.56133 -1.48145,-1.56133c-1.02027,0 -1.48147,0.60141 -1.48147,1.56133l0,0.59973l2.9629,0l0.00002,0zm-2.9629,2.04208l0,1.44077c0,1.08046 0.64048,1.55962 1.48147,1.55962c1.06095,0 1.48145,-0.67801 1.48145,-1.52055l2.52128,0c-0.12059,2.24252 -1.46191,3.56105 -4.00271,3.56105c-2.40066,0 -4.00271,-1.47818 -4.00271,-3.86095l0,-3.56262c0,-2.3811 1.60203,-3.86094 4.00271,-3.86094c2.34198,0 4.00271,1.47987 4.00271,3.70279l0,2.54083l-5.48415,0"
       style="fill:#ffffff" />
    <path
       fill="#000000"
       fill-rule="nonzero"
       id="path264"
       d="m130.57309,75.89293l0,-10.88682l2.46257,0l0,1.43906l0.03911,0c0.58018,-1.07887 1.34129,-1.63952 2.60109,-1.63952l0,2.72169c-0.42047,-0.12057 -0.89963,-0.28033 -1.33966,-0.28033c-0.8214,0 -1.24191,0.62093 -1.24191,1.20114l0,7.44475l-2.52122,0"
       style="fill:#ffffff" />
    <path
       fill="#000000"
       fill-rule="nonzero"
       id="path268"
       d="m141.84143,68.32819c-0.34062,-1.00229 -0.98112,-1.48145 -1.74059,-1.48145c-0.58183,0 -1.02185,0.42046 -1.02185,0.9811c0,1.68031 4.92354,1.72109 4.92354,4.96261c0,2.16273 -1.5206,3.3019 -3.623,3.3019c-1.52058,0 -2.88141,-0.37968 -4.10373,-3.10306l2.26375,-0.61932c0.21838,1.02189 0.83931,1.6803 1.83998,1.6803c0.76114,0 1.22069,-0.35849 1.22069,-0.95991c0,-2.07958 -4.92351,-1.58083 -4.92351,-5.24462c0,-2.05998 1.66235,-3.03949 3.44371,-3.03949c1.88075,0 3.1813,1.07887 3.80223,2.72168l-2.08121,0.80025"
       style="fill:#ffffff" />
    <path
       fill="#000000"
       fill-rule="nonzero"
       id="path270"
       d="m147.56468,75.89232l-2.52124,0l0,-10.88682l2.52124,0l0,10.88682zm-2.52124,-15.05086l2.52124,0l0,2.28161l-2.52124,0l0,-2.28161z"
       style="fill:#ffffff" />
    <path
       fill="#000000"
       fill-rule="nonzero"
       id="path274"
       d="m148.80559,67.52725l0,-2.04209l0.99905,0l0,-2.95961l2.52452,0l0,2.95961l1.61998,0l0,2.04209l-1.61998,0l0,5.56401c0,0.53944 0.45959,0.80026 1.13922,0.80026c0.18089,0 0.34062,0 0.50031,-0.02119l0,2.12186c-0.48076,0.08157 -0.95993,0.09947 -1.4407,0.09947c-1.64119,0 -2.72334,-0.59973 -2.72334,-2.15947l0,-6.40496l-0.99905,0"
       style="fill:#ffffff" />
    <path
       fill="#000000"
       fill-rule="nonzero"
       id="path278"
       d="m155.28864,77.49364c0.24117,0.03909 0.48244,0.03909 0.73988,0.03909c1.10173,0 1.8221,-0.95833 1.8221,-1.44067c0,-0.6405 -0.20045,-1.38039 -0.45961,-2.30119l-2.52287,-8.78617l2.56366,0l1.69983,7.20524l0.03909,0l1.5825,-7.20524l2.562,0l-2.90099,10.84773c-0.78232,2.94171 -1.80251,3.88373 -4.32378,3.88373c-0.24121,0 -0.51988,-0.02119 -0.80182,-0.04068l0,-2.20184"
       style="fill:#ffffff" />
    <path
       fill="#000000"
       fill-rule="nonzero"
       id="path282"
       d="m170.81931,72.61011c0,0.84095 0.59973,1.2826 1.48148,1.2826c0.88008,0 1.47983,-0.44167 1.47983,-1.2826l0,-4.3221c0,-0.83936 -0.59978,-1.28101 -1.47983,-1.28101c-0.88171,0 -1.48148,0.44167 -1.48148,1.28101l0,4.3221zm-2.51967,-3.6816c0,-2.88143 1.47983,-4.12177 4.0011,-4.12177c2.52287,0 4.00272,1.24033 4.00272,4.12177l0,3.04109c0,2.88303 -1.47981,4.12167 -4.00272,4.12167c-2.52127,0 -4.0011,-1.23863 -4.0011,-4.12167l0,-3.04109"
       style="fill:#ffffff" />
    <path
       fill="#000000"
       fill-rule="nonzero"
       id="path286"
       d="m182.30737,63.44478l-0.72198,0c-0.5981,0 -0.85889,0.38137 -0.85889,0.91922l0,1.12126l1.50104,0l0,2.04208l-1.50104,0l0,8.36558l-2.52124,0l0,-8.36558l-1.14084,0l0,-2.04208l1.14084,0l0,-1.03979c0,-2.52124 1.06097,-3.20253 2.90097,-3.20253c0.36017,0 0.78065,0.05869 1.20114,0.12066l0,2.08118"
       style="fill:#ffffff" />
    <path
       fill="#000000"
       fill-rule="nonzero"
       id="path290"
       d="m188.27182,75.89293l0,-14.44954l2.76247,0l0,12.00818l4.44109,0l0,2.44136l-7.20355,0z"
       style="fill:#ffffff" />
    <path
       fill="#000000"
       fill-rule="nonzero"
       id="path294"
       d="m198.93814,72.61011c0,0.84095 0.60138,1.2826 1.48146,1.2826c0.88011,0 1.48148,-0.44167 1.48148,-1.2826l0,-4.3221c0,-0.83936 -0.60136,-1.28101 -1.48148,-1.28101c-0.88007,0 -1.48146,0.44167 -1.48146,1.28101l0,4.3221zm-2.52122,-3.6816c0,-2.88143 1.47978,-4.12177 4.00267,-4.12177c2.52124,0 4.00272,1.24033 4.00272,4.12177l0,3.04109c0,2.88303 -1.48148,4.12167 -4.00272,4.12167c-2.52286,0 -4.00267,-1.23863 -4.00267,-4.12167l0,-3.04109"
       style="fill:#ffffff" />
    <path
       fill="#000000"
       fill-rule="nonzero"
       id="path298"
       d="m206.02371,75.89293l0,-10.88682l2.43976,0l0,1.24022c0.92082,-0.79857 1.78134,-1.44067 2.82114,-1.44067c1.5434,0 2.34525,0.78065 2.34525,2.80155l0,8.2857l-2.52615,0l0,-8.00538c0,-0.72038 -0.23796,-1.20113 -0.91919,-1.20113c-0.51991,0 -1.09845,0.50035 -1.64116,0.98111l0,8.22543l-2.51967,0"
       style="fill:#ffffff" />
    <path
       fill="#000000"
       fill-rule="nonzero"
       id="path302"
       d="m220.31206,67.46658c-0.5004,-0.53786 -0.96159,-0.78066 -1.52058,-0.78066c-0.67964,0 -1.24188,0.44167 -1.24188,2.60271l0,2.3225c0,2.15936 0.56224,2.601 1.24188,2.601c0.55899,0 1.02019,-0.24112 1.52058,-0.78065l0,-5.9649zm0.20045,8.42586l0,-1.32011l-0.04076,0c-0.44,0.6796 -1.55965,1.51897 -2.68092,1.51897c-1.96228,0 -2.76248,-1.51897 -2.76248,-4.32211l0,-2.64022c0,-2.80154 0.8002,-4.32219 2.76248,-4.32219c0.6796,0 1.3201,0.31952 2.52124,1.19954l0,-4.56331l2.52126,0l0,14.44945l-2.3208,0"
       style="fill:#ffffff" />
    <path
       fill="#000000"
       fill-rule="nonzero"
       id="path306"
       d="m226.55795,72.61011c0,0.84095 0.59975,1.2826 1.48146,1.2826c0.87843,0 1.47818,-0.44167 1.47818,-1.2826l0,-4.3221c0,-0.83936 -0.59975,-1.28101 -1.47818,-1.28101c-0.88171,0 -1.48146,0.44167 -1.48146,1.28101l0,4.3221zm-2.52449,-3.6816c0,-2.88143 1.48145,-4.12177 4.00589,-4.12177c2.51967,0 4.00111,1.24033 4.00111,4.12177l0,3.04109c0,2.88303 -1.48149,4.12167 -4.00111,4.12167c-2.52448,0 -4.00589,-1.23863 -4.00589,-4.12167l0,-3.04109"
       style="fill:#ffffff" />
    <path
       fill="#000000"
       fill-rule="nonzero"
       id="path310"
       d="m233.64076,75.89293l0,-10.88682l2.44138,0l0,1.24022c0.92082,-0.79857 1.78296,-1.44067 2.82274,-1.44067c1.54016,0 2.34036,0.78065 2.34036,2.80155l0,8.2857l-2.52127,0l0,-8.00538c0,-0.72038 -0.23958,-1.20113 -0.92081,-1.20113c-0.51988,0 -1.10008,0.50035 -1.64116,0.98111l0,8.22543l-2.52124,0"
       style="fill:#ffffff" />
    <path
       fill="#000000"
       fill-rule="nonzero"
       id="path314"
       d="m35.96421,50.02726c-7.03896,0 -12.74476,-7.03403 -12.74476,-15.71255c0,-8.67693 5.7058,-15.71096 12.74476,-15.71096c7.04058,0 12.74804,7.03403 12.74804,15.71096c0,8.67852 -5.70745,15.71255 -12.74804,15.71255m-0.1434,-32.62137c-9.49177,0 -17.18753,7.6061 -17.18753,16.98541c0,9.38091 7.69575,16.98869 17.18753,16.98869c9.49337,0 17.1875,-7.6078 17.1875,-16.98869c0,-9.37931 -7.69411,-16.98541 -17.1875,-16.98541"
       style="fill:#ffffff" />
    <path
       stroke="#ffffff"
       fill="#000000"
       stroke-width="0.169"
       stroke-miterlimit="3.864"
       id="path318"
       d="m35.96421,50.02726c-7.03896,0 -12.74476,-7.03403 -12.74476,-15.71255c0,-8.67693 5.7058,-15.71096 12.74476,-15.71096c7.04058,0 12.74804,7.03403 12.74804,15.71096c0,8.67852 -5.70745,15.71255 -12.74804,15.71255zm-0.1434,-32.62137c-9.49177,0 -17.18753,7.6061 -17.18753,16.98541c0,9.38091 7.69575,16.98869 17.18753,16.98869c9.49337,0 17.1875,-7.6078 17.1875,-16.98869c0,-9.37931 -7.69411,-16.98541 -17.1875,-16.98541z"
       style="fill:#ffffff" />
    <path
       fill="#000000"
       fill-rule="nonzero"
       id="path322"
       d="m0,18.62841c0,0 12.43675,8.78933 6.77493,19.43165c0,0 8.37048,-11.43929 11.17531,4.65464c0,0 -2.4039,-3.64738 -7.0471,-2.7364c-4.05648,0.79698 -4.5601,3.93923 -4.5601,3.93923l-6.34304,-25.28912"
       style="fill:#ffffff" />
    <path
       stroke="#ffffff"
       fill="#000000"
       stroke-width="0.169"
       stroke-miterlimit="4"
       id="path326"
       d="m0,18.62841c0,0 12.43675,8.78933 6.77493,19.43165c0,0 8.37048,-11.43929 11.17531,4.65464c0,0 -2.4039,-3.64738 -7.0471,-2.7364c-4.05648,0.79698 -4.5601,3.93923 -4.5601,3.93923l-6.34304,-25.28912z"
       style="fill:#ffffff" />
    <path
       fill="#000000"
       fill-rule="nonzero"
       id="path330"
       d="m71.18098,18.62841c0,0 -12.43673,8.78933 -6.77492,19.43165c0,0 -8.36885,-11.43929 -11.1753,4.65464c0,0 2.40391,-3.64738 7.0471,-2.7364c4.05649,0.79698 4.56008,3.93923 4.56008,3.93923l6.34305,-25.28912"
       style="fill:#ffffff" />
    <path
       stroke="#ffffff"
       fill="#000000"
       stroke-width="0.169"
       stroke-miterlimit="4"
       id="path334"
       d="m71.18098,18.62841c0,0 -12.43673,8.78933 -6.77492,19.43165c0,0 -8.36885,-11.43929 -11.1753,4.65464c0,0 2.40391,-3.64738 7.0471,-2.7364c4.05649,0.79698 4.56008,3.93923 4.56008,3.93923l6.34305,-25.28912l-0.00002,0z"
       style="fill:#ffffff" />
    <path
       fill="#000000"
       fill-rule="nonzero"
       id="path338"
       d="m19.7953,52.2838c1.82207,-0.64378 3.53822,-1.20273 5.771,-2.0551c-0.8703,-0.49707 -2.01927,-1.45868 -2.84883,-2.16603c-2.19693,0.78723 -4.22763,1.57605 -5.49722,2.00955c-1.28752,0.43838 -5.49394,1.41461 -7.02266,-2.71352c-1.11803,-3.02657 1.03327,-4.95455 3.11122,-4.95455c0.77742,0 1.56784,0.29504 1.5646,0.39769c-1.06752,0 -1.92967,0.86213 -1.92967,1.9264c0,1.06097 0.86214,1.92152 1.92475,1.92152c1.06261,0 1.92475,-0.86055 1.92475,-1.92152c0,-0.83448 -0.42535,-1.47171 -1.05932,-1.95575c-0.854,-0.59157 -2.047,-0.9436 -3.17806,-0.9436c-2.52938,0 -4.73445,2.22621 -5.09302,4.80455c-0.40907,2.92212 2.79668,9.01743 12.33243,5.65036"
       style="fill:#ffffff" />
    <path
       stroke="#ffffff"
       fill="#000000"
       stroke-width="0.169"
       stroke-miterlimit="3.864"
       id="path342"
       d="m19.7953,52.2838c1.82207,-0.64378 3.53822,-1.20273 5.771,-2.0551c-0.8703,-0.49707 -2.01927,-1.45868 -2.84883,-2.16603c-2.19693,0.78723 -4.22763,1.57605 -5.49722,2.00955c-1.28752,0.43838 -5.49394,1.41461 -7.02266,-2.71352c-1.11803,-3.02657 1.03327,-4.95455 3.11122,-4.95455c0.77742,0 1.56784,0.29504 1.5646,0.39769c-1.06752,0 -1.92967,0.86213 -1.92967,1.9264c0,1.06097 0.86214,1.92152 1.92475,1.92152c1.06261,0 1.92475,-0.86055 1.92475,-1.92152c0,-0.83448 -0.42535,-1.47171 -1.05932,-1.95575c-0.854,-0.59157 -2.047,-0.9436 -3.17806,-0.9436c-2.52938,0 -4.73445,2.22621 -5.09302,4.80455c-0.40907,2.92212 2.79668,9.01743 12.33243,5.65036l-0.00001,0l0.00001,0z"
       style="fill:#ffffff" />
    <path
       fill="#000000"
       fill-rule="nonzero"
       id="path346"
       d="m9.86368,57.17429c-0.383,-1.33802 1.0789,-2.43322 3.2465,-2.43322l45.82574,0c2.16759,0 3.62951,1.0952 3.24649,2.43322c-0.38298,1.33801 -2.46421,2.30289 -4.62688,2.14154l-17.65199,-1.30877c-2.1627,-0.16294 -5.70094,-0.16294 -7.86362,0l-17.55097,1.30877c-2.16105,0.16135 -4.24389,-0.80354 -4.62526,-2.14154"
       style="fill:#ffffff" />
    <path
       stroke="#ffffff"
       fill="#000000"
       stroke-width="0.169"
       stroke-miterlimit="4"
       id="path350"
       d="m9.86368,57.17429c-0.383,-1.33802 1.0789,-2.43322 3.2465,-2.43322l45.82574,0c2.16759,0 3.62951,1.0952 3.24649,2.43322c-0.38298,1.33801 -2.46421,2.30289 -4.62688,2.14154l-17.65199,-1.30877c-2.1627,-0.16294 -5.70094,-0.16294 -7.86362,0l-17.55097,1.30877c-2.16105,0.16135 -4.24389,-0.80354 -4.62526,-2.14154l-0.00001,0z"
       style="fill:#ffffff" />
    <path
       fill="#000000"
       fill-rule="nonzero"
       id="path354"
       d="m38.60476,15.74349c-1.84002,-2.66955 -0.7497,-4.33841 0.49707,-4.33026c1.98016,0.01134 2.70541,1.12773 2.694,2.91724c1.06097,-0.61604 2.04698,-2.23605 2.05678,-3.7566c0.00977,-1.51895 -1.17507,-2.93525 -2.69238,-2.945c-1.85631,-0.01144 -2.80972,0.57038 -3.66371,1.54661c0.1434,-0.30469 0.29499,-0.60131 0.44329,-0.88819c0.32107,-0.62579 0.69588,-1.38855 0.69264,-2.06486c-0.0049,-0.81329 -0.38951,-1.70637 -0.93874,-2.6794c-0.51991,-0.9452 -1.26145,-2.35174 -1.75689,-3.54303c-0.48078,1.19785 -1.2044,2.61087 -1.71289,3.56422c-0.5378,0.97952 -0.91104,1.87755 -0.90778,2.69074c0.00491,0.67642 0.38953,1.43262 0.71872,2.0568c0.15646,0.28847 0.31293,0.58997 0.46123,0.89963c-0.86053,-0.99901 -1.81231,-1.59396 -3.69306,-1.58252c-1.51731,0.00975 -2.70214,1.42604 -2.69237,2.945c0.00815,1.52054 0.99578,3.14056 2.05676,3.7566c-0.01141,-1.78952 0.71384,-2.90592 2.69237,-2.91724c1.24841,-0.00816 2.32568,1.50592 0.38137,4.33026c2.12358,-0.51824 3.31657,-0.44006 5.36355,0"
       style="fill:#ffffff" />
    <path
       stroke="#ffffff"
       fill="#000000"
       stroke-width="0.169"
       stroke-miterlimit="4"
       id="path358"
       d="m38.60476,15.74349c-1.84002,-2.66955 -0.7497,-4.33841 0.49707,-4.33026c1.98016,0.01134 2.70541,1.12773 2.694,2.91724c1.06097,-0.61604 2.04698,-2.23605 2.05678,-3.7566c0.00977,-1.51895 -1.17507,-2.93525 -2.69238,-2.945c-1.85631,-0.01144 -2.80972,0.57038 -3.66371,1.54661c0.1434,-0.30469 0.29499,-0.60131 0.44329,-0.88819c0.32107,-0.62579 0.69588,-1.38855 0.69264,-2.06486c-0.0049,-0.81329 -0.38951,-1.70637 -0.93874,-2.6794c-0.51991,-0.9452 -1.26145,-2.35174 -1.75689,-3.54303c-0.48078,1.19785 -1.2044,2.61087 -1.71289,3.56422c-0.5378,0.97952 -0.91104,1.87755 -0.90778,2.69074c0.00491,0.67642 0.38953,1.43262 0.71872,2.0568c0.15646,0.28847 0.31293,0.58997 0.46123,0.89963c-0.86053,-0.99901 -1.81231,-1.59396 -3.69306,-1.58252c-1.51731,0.00975 -2.70214,1.42604 -2.69237,2.945c0.00815,1.52054 0.99578,3.14056 2.05676,3.7566c-0.01141,-1.78952 0.71384,-2.90592 2.69237,-2.91724c1.24841,-0.00816 2.32568,1.50592 0.38137,4.33026c2.12358,-0.51824 3.31657,-0.44006 5.36355,0l0.00003,0l-0.00001,0z"
       style="fill:#ffffff" />
    <path
       fill="#000000"
       fill-rule="nonzero"
       id="path362"
       d="m63.78087,46.88202c-0.36017,-2.57665 -2.562,-4.80455 -5.09302,-4.80455c-1.13105,0 -2.32404,0.35044 -3.17805,0.94201c-0.63398,0.48563 -1.05935,1.12285 -1.05935,1.95575c0,1.06256 0.86214,1.92469 1.92475,1.92469c1.06261,0 1.92312,-0.86213 1.92312,-1.92469c0,-1.06427 -0.86051,-1.92481 -1.92963,-1.92481c-0.00327,-0.10266 0.79042,-0.39928 1.56781,-0.39928c2.0747,0 4.22763,1.92799 3.10635,4.95444c-1.52547,4.12992 -5.73191,3.15369 -7.01939,2.71523c-1.26961,-0.43351 -7.00475,-2.62061 -9.20166,-3.40944l-0.11898,0.10107c-5.24459,-1.9069 -6.09696,-2.21159 -8.59865,-2.72984c-8.05917,-1.67214 -8.6182,3.67673 -8.6182,3.67673c0,0.18582 0.6829,-2.36478 6.02036,-1.81718c2.1904,0.22163 3.48935,0.81977 8.52694,2.89934l-0.05868,0.0375c2.2344,0.8507 7.65174,2.81131 9.47545,3.45341c9.53251,3.36547 12.73825,-2.72815 12.33081,-5.65036"
       style="fill:#ffffff" />
    <path
       stroke="#ffffff"
       fill="#000000"
       stroke-width="0.169"
       stroke-miterlimit="3.864"
       id="path366"
       d="m63.78087,46.88202c-0.36017,-2.57665 -2.562,-4.80455 -5.09302,-4.80455c-1.13105,0 -2.32404,0.35044 -3.17805,0.94201c-0.63398,0.48563 -1.05935,1.12285 -1.05935,1.95575c0,1.06256 0.86214,1.92469 1.92475,1.92469c1.06261,0 1.92312,-0.86213 1.92312,-1.92469c0,-1.06427 -0.86051,-1.92481 -1.92963,-1.92481c-0.00327,-0.10266 0.79042,-0.39928 1.56781,-0.39928c2.0747,0 4.22763,1.92799 3.10635,4.95444c-1.52547,4.12992 -5.73191,3.15369 -7.01939,2.71523c-1.26961,-0.43351 -7.00475,-2.62061 -9.20166,-3.40944l-0.11898,0.10107c-5.24459,-1.9069 -6.09696,-2.21159 -8.59865,-2.72984c-8.05917,-1.67214 -8.6182,3.67673 -8.6182,3.67673c0,0.18582 0.6829,-2.36478 6.02036,-1.81718c2.1904,0.22163 3.48935,0.81977 8.52694,2.89934l-0.05868,0.0375c2.2344,0.8507 7.65174,2.81131 9.47545,3.45341c9.53251,3.36547 12.73825,-2.72815 12.33081,-5.65036l0.00001,-0.00001z"
       style="fill:#ffffff" />
  </g>
</svg>
