<?xml version="1.0" encoding="utf-8" standalone="no"?>
<!DOCTYPE svg PUBLIC "-//W3C//DTD SVG 1.1//EN"
  "http://www.w3.org/Graphics/SVG/1.1/DTD/svg11.dtd">
<!-- Created with matplotlib (https://matplotlib.org/) -->
<svg height="345.6pt" version="1.1" viewBox="0 0 460.8 345.6" width="460.8pt" xmlns="http://www.w3.org/2000/svg" xmlns:xlink="http://www.w3.org/1999/xlink">
 <defs>
  <style type="text/css">
*{stroke-linecap:butt;stroke-linejoin:round;}
  </style>
 </defs>
 <g id="figure_1">
  <g id="patch_1">
   <path d="M 0 345.6 
L 460.8 345.6 
L 460.8 0 
L 0 0 
z
" style="fill:#ffffff;"/>
  </g>
  <g id="axes_1">
   <g id="patch_2">
    <path d="M 57.6 162.432 
L 219.927273 162.432 
L 219.927273 41.472 
L 57.6 41.472 
z
" style="fill:#ffffff;"/>
   </g>
   <g id="PolyCollection_1">
    <defs>
     <path d="M 57.6 -292.383008 
L 57.6 -286.355024 
L 73.832727 -285.109112 
L 90.065455 -281.411173 
L 106.298182 -275.507989 
L 122.530909 -268.012601 
L 138.763636 -259.747826 
L 154.996364 -251.512093 
L 171.229091 -244.044027 
L 187.461818 -237.653957 
L 203.694545 -232.252436 
L 219.927273 -227.655746 
L 219.927273 -229.990104 
L 219.927273 -229.990104 
L 203.694545 -235.014552 
L 187.461818 -240.872906 
L 171.229091 -247.87618 
L 154.996364 -255.928616 
L 138.763636 -264.714154 
L 122.530909 -273.447259 
L 106.298182 -281.213942 
L 90.065455 -287.260957 
L 73.832727 -291.082748 
L 57.6 -292.383008 
z
" id="m3e9f44080e" style="stroke:#1f77b4;stroke-opacity:0.2;"/>
    </defs>
    <g clip-path="url(#p42185b34b4)">
     <use style="fill:#1f77b4;fill-opacity:0.2;stroke:#1f77b4;stroke-opacity:0.2;" x="0" xlink:href="#m3e9f44080e" y="345.6"/>
    </g>
   </g>
   <g id="PolyCollection_2">
    <defs>
     <path d="M 57.6 -263.287626 
L 57.6 -256.1957 
L 73.832727 -255.230694 
L 90.065455 -252.282182 
L 106.298182 -247.537081 
L 122.530909 -241.631468 
L 138.763636 -235.520481 
L 154.996364 -229.965088 
L 171.229091 -225.057937 
L 187.461818 -220.849768 
L 203.694545 -217.360484 
L 219.927273 -214.322741 
L 219.927273 -218.082039 
L 219.927273 -218.082039 
L 203.694545 -221.623903 
L 187.461818 -225.715291 
L 171.229091 -230.408568 
L 154.996364 -235.918695 
L 138.763636 -242.1073 
L 122.530909 -248.549121 
L 106.298182 -254.514942 
L 90.065455 -259.28906 
L 73.832727 -262.287427 
L 57.6 -263.287626 
z
" id="m423a53f064" style="stroke:#ff7f0e;stroke-opacity:0.2;"/>
    </defs>
    <g clip-path="url(#p42185b34b4)">
     <use style="fill:#ff7f0e;fill-opacity:0.2;stroke:#ff7f0e;stroke-opacity:0.2;" x="0" xlink:href="#m423a53f064" y="345.6"/>
    </g>
   </g>
   <g id="PolyCollection_3">
    <defs>
     <path d="M 57.6 -240.998239 
L 57.6 -232.722331 
L 73.832727 -232.041153 
L 90.065455 -229.950074 
L 106.298182 -226.519722 
L 122.530909 -222.33043 
L 138.763636 -218.200422 
L 154.996364 -214.553502 
L 171.229091 -211.42181 
L 187.461818 -208.709579 
L 203.694545 -206.364977 
L 219.927273 -204.30861 
L 219.927273 -207.821452 
L 219.927273 -207.821452 
L 203.694545 -210.373736 
L 187.461818 -213.311342 
L 171.229091 -216.738711 
L 154.996364 -220.70035 
L 138.763636 -225.185952 
L 122.530909 -229.895853 
L 106.298182 -234.345971 
L 90.065455 -237.990953 
L 73.832727 -240.255417 
L 57.6 -240.998239 
z
" id="mf5937d7c5a" style="stroke:#2ca02c;stroke-opacity:0.2;"/>
    </defs>
    <g clip-path="url(#p42185b34b4)">
     <use style="fill:#2ca02c;fill-opacity:0.2;stroke:#2ca02c;stroke-opacity:0.2;" x="0" xlink:href="#mf5937d7c5a" y="345.6"/>
    </g>
   </g>
   <g id="PolyCollection_4">
    <defs>
     <path d="M 57.6 -221.188851 
L 57.6 -214.108001 
L 73.832727 -213.694337 
L 90.065455 -212.435275 
L 106.298182 -210.444095 
L 122.530909 -208.082278 
L 138.763636 -205.673416 
L 154.996364 -203.429009 
L 171.229091 -201.457121 
L 187.461818 -199.690988 
L 203.694545 -198.10717 
L 219.927273 -196.728689 
L 219.927273 -199.289859 
L 219.927273 -199.289859 
L 203.694545 -201.087746 
L 187.461818 -203.122544 
L 171.229091 -205.454791 
L 154.996364 -208.110362 
L 138.763636 -211.041396 
L 122.530909 -214.160702 
L 106.298182 -217.028244 
L 90.065455 -219.285837 
L 73.832727 -220.714068 
L 57.6 -221.188851 
z
" id="m2c09490360" style="stroke:#d62728;stroke-opacity:0.2;"/>
    </defs>
    <g clip-path="url(#p42185b34b4)">
     <use style="fill:#d62728;fill-opacity:0.2;stroke:#d62728;stroke-opacity:0.2;" x="0" xlink:href="#m2c09490360" y="345.6"/>
    </g>
   </g>
   <g id="PolyCollection_5">
    <defs>
     <path d="M 57.6 -202.561987 
L 57.6 -198.648653 
L 73.832727 -198.459192 
L 90.065455 -197.863683 
L 106.298182 -196.926633 
L 122.530909 -195.763802 
L 138.763636 -194.524739 
L 154.996364 -193.281157 
L 171.229091 -192.119103 
L 187.461818 -191.074721 
L 203.694545 -190.123599 
L 219.927273 -189.27699 
L 219.927273 -190.834054 
L 219.927273 -190.834054 
L 203.694545 -191.830428 
L 187.461818 -192.950138 
L 171.229091 -194.227425 
L 154.996364 -195.675794 
L 138.763636 -197.277781 
L 122.530909 -198.886976 
L 106.298182 -200.378597 
L 90.065455 -201.569309 
L 73.832727 -202.321747 
L 57.6 -202.561987 
z
" id="m5ed352a600" style="stroke:#9467bd;stroke-opacity:0.2;"/>
    </defs>
    <g clip-path="url(#p42185b34b4)">
     <use style="fill:#9467bd;fill-opacity:0.2;stroke:#9467bd;stroke-opacity:0.2;" x="0" xlink:href="#m5ed352a600" y="345.6"/>
    </g>
   </g>
   <g id="matplotlib.axis_1">
    <g id="xtick_1">
     <g id="line2d_1">
      <defs>
       <path d="M 0 0 
L 0 3.5 
" id="md0c39257fc" style="stroke:#000000;stroke-width:0.8;"/>
      </defs>
      <g>
       <use style="stroke:#000000;stroke-width:0.8;" x="57.6" xlink:href="#md0c39257fc" y="162.432"/>
      </g>
     </g>
    </g>
    <g id="xtick_2">
     <g id="line2d_2">
      <g>
       <use style="stroke:#000000;stroke-width:0.8;" x="98.181818" xlink:href="#md0c39257fc" y="162.432"/>
      </g>
     </g>
    </g>
    <g id="xtick_3">
     <g id="line2d_3">
      <g>
       <use style="stroke:#000000;stroke-width:0.8;" x="138.763636" xlink:href="#md0c39257fc" y="162.432"/>
      </g>
     </g>
    </g>
    <g id="xtick_4">
     <g id="line2d_4">
      <g>
       <use style="stroke:#000000;stroke-width:0.8;" x="179.345455" xlink:href="#md0c39257fc" y="162.432"/>
      </g>
     </g>
    </g>
    <g id="xtick_5">
     <g id="line2d_5">
      <g>
       <use style="stroke:#000000;stroke-width:0.8;" x="219.927273" xlink:href="#md0c39257fc" y="162.432"/>
      </g>
     </g>
    </g>
   </g>
   <g id="matplotlib.axis_2">
    <g id="ytick_1">
     <g id="line2d_6">
      <defs>
       <path d="M 0 0 
L -3.5 0 
" id="m282d560ea1" style="stroke:#000000;stroke-width:0.8;"/>
      </defs>
      <g>
       <use style="stroke:#000000;stroke-width:0.8;" x="57.6" xlink:href="#m282d560ea1" y="162.432"/>
      </g>
     </g>
     <g id="text_1">
      <!-- 0.1 -->
      <defs>
       <path d="M 31.78125 66.40625 
Q 24.171875 66.40625 20.328125 58.90625 
Q 16.5 51.421875 16.5 36.375 
Q 16.5 21.390625 20.328125 13.890625 
Q 24.171875 6.390625 31.78125 6.390625 
Q 39.453125 6.390625 43.28125 13.890625 
Q 47.125 21.390625 47.125 36.375 
Q 47.125 51.421875 43.28125 58.90625 
Q 39.453125 66.40625 31.78125 66.40625 
z
M 31.78125 74.21875 
Q 44.046875 74.21875 50.515625 64.515625 
Q 56.984375 54.828125 56.984375 36.375 
Q 56.984375 17.96875 50.515625 8.265625 
Q 44.046875 -1.421875 31.78125 -1.421875 
Q 19.53125 -1.421875 13.0625 8.265625 
Q 6.59375 17.96875 6.59375 36.375 
Q 6.59375 54.828125 13.0625 64.515625 
Q 19.53125 74.21875 31.78125 74.21875 
z
" id="DejaVuSans-48"/>
       <path d="M 10.6875 12.40625 
L 21 12.40625 
L 21 0 
L 10.6875 0 
z
" id="DejaVuSans-46"/>
       <path d="M 12.40625 8.296875 
L 28.515625 8.296875 
L 28.515625 63.921875 
L 10.984375 60.40625 
L 10.984375 69.390625 
L 28.421875 72.90625 
L 38.28125 72.90625 
L 38.28125 8.296875 
L 54.390625 8.296875 
L 54.390625 0 
L 12.40625 0 
z
" id="DejaVuSans-49"/>
      </defs>
      <g transform="translate(38.677427 165.280274)scale(0.07497 -0.07497)">
       <use xlink:href="#DejaVuSans-48"/>
       <use x="63.623047" xlink:href="#DejaVuSans-46"/>
       <use x="95.410156" xlink:href="#DejaVuSans-49"/>
      </g>
     </g>
    </g>
    <g id="ytick_2">
     <g id="line2d_7">
      <g>
       <use style="stroke:#000000;stroke-width:0.8;" x="57.6" xlink:href="#m282d560ea1" y="147.312"/>
      </g>
     </g>
     <g id="text_2">
      <!-- 0.2 -->
      <defs>
       <path d="M 19.1875 8.296875 
L 53.609375 8.296875 
L 53.609375 0 
L 7.328125 0 
L 7.328125 8.296875 
Q 12.9375 14.109375 22.625 23.890625 
Q 32.328125 33.6875 34.8125 36.53125 
Q 39.546875 41.84375 41.421875 45.53125 
Q 43.3125 49.21875 43.3125 52.78125 
Q 43.3125 58.59375 39.234375 62.25 
Q 35.15625 65.921875 28.609375 65.921875 
Q 23.96875 65.921875 18.8125 64.3125 
Q 13.671875 62.703125 7.8125 59.421875 
L 7.8125 69.390625 
Q 13.765625 71.78125 18.9375 73 
Q 24.125 74.21875 28.421875 74.21875 
Q 39.75 74.21875 46.484375 68.546875 
Q 53.21875 62.890625 53.21875 53.421875 
Q 53.21875 48.921875 51.53125 44.890625 
Q 49.859375 40.875 45.40625 35.40625 
Q 44.1875 33.984375 37.640625 27.21875 
Q 31.109375 20.453125 19.1875 8.296875 
z
" id="DejaVuSans-50"/>
      </defs>
      <g transform="translate(38.677427 150.160274)scale(0.07497 -0.07497)">
       <use xlink:href="#DejaVuSans-48"/>
       <use x="63.623047" xlink:href="#DejaVuSans-46"/>
       <use x="95.410156" xlink:href="#DejaVuSans-50"/>
      </g>
     </g>
    </g>
    <g id="ytick_3">
     <g id="line2d_8">
      <g>
       <use style="stroke:#000000;stroke-width:0.8;" x="57.6" xlink:href="#m282d560ea1" y="132.192"/>
      </g>
     </g>
     <g id="text_3">
      <!-- 0.3 -->
      <defs>
       <path d="M 40.578125 39.3125 
Q 47.65625 37.796875 51.625 33 
Q 55.609375 28.21875 55.609375 21.1875 
Q 55.609375 10.40625 48.1875 4.484375 
Q 40.765625 -1.421875 27.09375 -1.421875 
Q 22.515625 -1.421875 17.65625 -0.515625 
Q 12.796875 0.390625 7.625 2.203125 
L 7.625 11.71875 
Q 11.71875 9.328125 16.59375 8.109375 
Q 21.484375 6.890625 26.8125 6.890625 
Q 36.078125 6.890625 40.9375 10.546875 
Q 45.796875 14.203125 45.796875 21.1875 
Q 45.796875 27.640625 41.28125 31.265625 
Q 36.765625 34.90625 28.71875 34.90625 
L 20.21875 34.90625 
L 20.21875 43.015625 
L 29.109375 43.015625 
Q 36.375 43.015625 40.234375 45.921875 
Q 44.09375 48.828125 44.09375 54.296875 
Q 44.09375 59.90625 40.109375 62.90625 
Q 36.140625 65.921875 28.71875 65.921875 
Q 24.65625 65.921875 20.015625 65.03125 
Q 15.375 64.15625 9.8125 62.3125 
L 9.8125 71.09375 
Q 15.4375 72.65625 20.34375 73.4375 
Q 25.25 74.21875 29.59375 74.21875 
Q 40.828125 74.21875 47.359375 69.109375 
Q 53.90625 64.015625 53.90625 55.328125 
Q 53.90625 49.265625 50.4375 45.09375 
Q 46.96875 40.921875 40.578125 39.3125 
z
" id="DejaVuSans-51"/>
      </defs>
      <g transform="translate(38.677427 135.040274)scale(0.07497 -0.07497)">
       <use xlink:href="#DejaVuSans-48"/>
       <use x="63.623047" xlink:href="#DejaVuSans-46"/>
       <use x="95.410156" xlink:href="#DejaVuSans-51"/>
      </g>
     </g>
    </g>
    <g id="ytick_4">
     <g id="line2d_9">
      <g>
       <use style="stroke:#000000;stroke-width:0.8;" x="57.6" xlink:href="#m282d560ea1" y="117.072"/>
      </g>
     </g>
     <g id="text_4">
      <!-- 0.4 -->
      <defs>
       <path d="M 37.796875 64.3125 
L 12.890625 25.390625 
L 37.796875 25.390625 
z
M 35.203125 72.90625 
L 47.609375 72.90625 
L 47.609375 25.390625 
L 58.015625 25.390625 
L 58.015625 17.1875 
L 47.609375 17.1875 
L 47.609375 0 
L 37.796875 0 
L 37.796875 17.1875 
L 4.890625 17.1875 
L 4.890625 26.703125 
z
" id="DejaVuSans-52"/>
      </defs>
      <g transform="translate(38.677427 119.920274)scale(0.07497 -0.07497)">
       <use xlink:href="#DejaVuSans-48"/>
       <use x="63.623047" xlink:href="#DejaVuSans-46"/>
       <use x="95.410156" xlink:href="#DejaVuSans-52"/>
      </g>
     </g>
    </g>
    <g id="ytick_5">
     <g id="line2d_10">
      <g>
       <use style="stroke:#000000;stroke-width:0.8;" x="57.6" xlink:href="#m282d560ea1" y="101.952"/>
      </g>
     </g>
     <g id="text_5">
      <!-- 0.5 -->
      <defs>
       <path d="M 10.796875 72.90625 
L 49.515625 72.90625 
L 49.515625 64.59375 
L 19.828125 64.59375 
L 19.828125 46.734375 
Q 21.96875 47.46875 24.109375 47.828125 
Q 26.265625 48.1875 28.421875 48.1875 
Q 40.625 48.1875 47.75 41.5 
Q 54.890625 34.8125 54.890625 23.390625 
Q 54.890625 11.625 47.5625 5.09375 
Q 40.234375 -1.421875 26.90625 -1.421875 
Q 22.3125 -1.421875 17.546875 -0.640625 
Q 12.796875 0.140625 7.71875 1.703125 
L 7.71875 11.625 
Q 12.109375 9.234375 16.796875 8.0625 
Q 21.484375 6.890625 26.703125 6.890625 
Q 35.15625 6.890625 40.078125 11.328125 
Q 45.015625 15.765625 45.015625 23.390625 
Q 45.015625 31 40.078125 35.4375 
Q 35.15625 39.890625 26.703125 39.890625 
Q 22.75 39.890625 18.8125 39.015625 
Q 14.890625 38.140625 10.796875 36.28125 
z
" id="DejaVuSans-53"/>
      </defs>
      <g transform="translate(38.677427 104.800274)scale(0.07497 -0.07497)">
       <use xlink:href="#DejaVuSans-48"/>
       <use x="63.623047" xlink:href="#DejaVuSans-46"/>
       <use x="95.410156" xlink:href="#DejaVuSans-53"/>
      </g>
     </g>
    </g>
    <g id="ytick_6">
     <g id="line2d_11">
      <g>
       <use style="stroke:#000000;stroke-width:0.8;" x="57.6" xlink:href="#m282d560ea1" y="86.832"/>
      </g>
     </g>
     <g id="text_6">
      <!-- 0.6 -->
      <defs>
       <path d="M 33.015625 40.375 
Q 26.375 40.375 22.484375 35.828125 
Q 18.609375 31.296875 18.609375 23.390625 
Q 18.609375 15.53125 22.484375 10.953125 
Q 26.375 6.390625 33.015625 6.390625 
Q 39.65625 6.390625 43.53125 10.953125 
Q 47.40625 15.53125 47.40625 23.390625 
Q 47.40625 31.296875 43.53125 35.828125 
Q 39.65625 40.375 33.015625 40.375 
z
M 52.59375 71.296875 
L 52.59375 62.3125 
Q 48.875 64.0625 45.09375 64.984375 
Q 41.3125 65.921875 37.59375 65.921875 
Q 27.828125 65.921875 22.671875 59.328125 
Q 17.53125 52.734375 16.796875 39.40625 
Q 19.671875 43.65625 24.015625 45.921875 
Q 28.375 48.1875 33.59375 48.1875 
Q 44.578125 48.1875 50.953125 41.515625 
Q 57.328125 34.859375 57.328125 23.390625 
Q 57.328125 12.15625 50.6875 5.359375 
Q 44.046875 -1.421875 33.015625 -1.421875 
Q 20.359375 -1.421875 13.671875 8.265625 
Q 6.984375 17.96875 6.984375 36.375 
Q 6.984375 53.65625 15.1875 63.9375 
Q 23.390625 74.21875 37.203125 74.21875 
Q 40.921875 74.21875 44.703125 73.484375 
Q 48.484375 72.75 52.59375 71.296875 
z
" id="DejaVuSans-54"/>
      </defs>
      <g transform="translate(38.677427 89.680274)scale(0.07497 -0.07497)">
       <use xlink:href="#DejaVuSans-48"/>
       <use x="63.623047" xlink:href="#DejaVuSans-46"/>
       <use x="95.410156" xlink:href="#DejaVuSans-54"/>
      </g>
     </g>
    </g>
    <g id="ytick_7">
     <g id="line2d_12">
      <g>
       <use style="stroke:#000000;stroke-width:0.8;" x="57.6" xlink:href="#m282d560ea1" y="71.712"/>
      </g>
     </g>
     <g id="text_7">
      <!-- 0.7 -->
      <defs>
       <path d="M 8.203125 72.90625 
L 55.078125 72.90625 
L 55.078125 68.703125 
L 28.609375 0 
L 18.3125 0 
L 43.21875 64.59375 
L 8.203125 64.59375 
z
" id="DejaVuSans-55"/>
      </defs>
      <g transform="translate(38.677427 74.560274)scale(0.07497 -0.07497)">
       <use xlink:href="#DejaVuSans-48"/>
       <use x="63.623047" xlink:href="#DejaVuSans-46"/>
       <use x="95.410156" xlink:href="#DejaVuSans-55"/>
      </g>
     </g>
    </g>
    <g id="ytick_8">
     <g id="line2d_13">
      <g>
       <use style="stroke:#000000;stroke-width:0.8;" x="57.6" xlink:href="#m282d560ea1" y="56.592"/>
      </g>
     </g>
     <g id="text_8">
      <!-- 0.8 -->
      <defs>
       <path d="M 31.78125 34.625 
Q 24.75 34.625 20.71875 30.859375 
Q 16.703125 27.09375 16.703125 20.515625 
Q 16.703125 13.921875 20.71875 10.15625 
Q 24.75 6.390625 31.78125 6.390625 
Q 38.8125 6.390625 42.859375 10.171875 
Q 46.921875 13.96875 46.921875 20.515625 
Q 46.921875 27.09375 42.890625 30.859375 
Q 38.875 34.625 31.78125 34.625 
z
M 21.921875 38.8125 
Q 15.578125 40.375 12.03125 44.71875 
Q 8.5 49.078125 8.5 55.328125 
Q 8.5 64.0625 14.71875 69.140625 
Q 20.953125 74.21875 31.78125 74.21875 
Q 42.671875 74.21875 48.875 69.140625 
Q 55.078125 64.0625 55.078125 55.328125 
Q 55.078125 49.078125 51.53125 44.71875 
Q 48 40.375 41.703125 38.8125 
Q 48.828125 37.15625 52.796875 32.3125 
Q 56.78125 27.484375 56.78125 20.515625 
Q 56.78125 9.90625 50.3125 4.234375 
Q 43.84375 -1.421875 31.78125 -1.421875 
Q 19.734375 -1.421875 13.25 4.234375 
Q 6.78125 9.90625 6.78125 20.515625 
Q 6.78125 27.484375 10.78125 32.3125 
Q 14.796875 37.15625 21.921875 38.8125 
z
M 18.3125 54.390625 
Q 18.3125 48.734375 21.84375 45.5625 
Q 25.390625 42.390625 31.78125 42.390625 
Q 38.140625 42.390625 41.71875 45.5625 
Q 45.3125 48.734375 45.3125 54.390625 
Q 45.3125 60.0625 41.71875 63.234375 
Q 38.140625 66.40625 31.78125 66.40625 
Q 25.390625 66.40625 21.84375 63.234375 
Q 18.3125 60.0625 18.3125 54.390625 
z
" id="DejaVuSans-56"/>
      </defs>
      <g transform="translate(38.677427 59.440274)scale(0.07497 -0.07497)">
       <use xlink:href="#DejaVuSans-48"/>
       <use x="63.623047" xlink:href="#DejaVuSans-46"/>
       <use x="95.410156" xlink:href="#DejaVuSans-56"/>
      </g>
     </g>
    </g>
    <g id="ytick_9">
     <g id="line2d_14">
      <g>
       <use style="stroke:#000000;stroke-width:0.8;" x="57.6" xlink:href="#m282d560ea1" y="41.472"/>
      </g>
     </g>
     <g id="text_9">
      <!-- 0.9 -->
      <defs>
       <path d="M 10.984375 1.515625 
L 10.984375 10.5 
Q 14.703125 8.734375 18.5 7.8125 
Q 22.3125 6.890625 25.984375 6.890625 
Q 35.75 6.890625 40.890625 13.453125 
Q 46.046875 20.015625 46.78125 33.40625 
Q 43.953125 29.203125 39.59375 26.953125 
Q 35.25 24.703125 29.984375 24.703125 
Q 19.046875 24.703125 12.671875 31.3125 
Q 6.296875 37.9375 6.296875 49.421875 
Q 6.296875 60.640625 12.9375 67.421875 
Q 19.578125 74.21875 30.609375 74.21875 
Q 43.265625 74.21875 49.921875 64.515625 
Q 56.59375 54.828125 56.59375 36.375 
Q 56.59375 19.140625 48.40625 8.859375 
Q 40.234375 -1.421875 26.421875 -1.421875 
Q 22.703125 -1.421875 18.890625 -0.6875 
Q 15.09375 0.046875 10.984375 1.515625 
z
M 30.609375 32.421875 
Q 37.25 32.421875 41.125 36.953125 
Q 45.015625 41.5 45.015625 49.421875 
Q 45.015625 57.28125 41.125 61.84375 
Q 37.25 66.40625 30.609375 66.40625 
Q 23.96875 66.40625 20.09375 61.84375 
Q 16.21875 57.28125 16.21875 49.421875 
Q 16.21875 41.5 20.09375 36.953125 
Q 23.96875 32.421875 30.609375 32.421875 
z
" id="DejaVuSans-57"/>
      </defs>
      <g transform="translate(38.677427 44.320274)scale(0.07497 -0.07497)">
       <use xlink:href="#DejaVuSans-48"/>
       <use x="63.623047" xlink:href="#DejaVuSans-46"/>
       <use x="95.410156" xlink:href="#DejaVuSans-57"/>
      </g>
     </g>
    </g>
    <g id="text_10">
     <!-- normalized permittivity -->
     <defs>
      <path d="M 54.890625 33.015625 
L 54.890625 0 
L 45.90625 0 
L 45.90625 32.71875 
Q 45.90625 40.484375 42.875 44.328125 
Q 39.84375 48.1875 33.796875 48.1875 
Q 26.515625 48.1875 22.3125 43.546875 
Q 18.109375 38.921875 18.109375 30.90625 
L 18.109375 0 
L 9.078125 0 
L 9.078125 54.6875 
L 18.109375 54.6875 
L 18.109375 46.1875 
Q 21.34375 51.125 25.703125 53.5625 
Q 30.078125 56 35.796875 56 
Q 45.21875 56 50.046875 50.171875 
Q 54.890625 44.34375 54.890625 33.015625 
z
" id="DejaVuSans-110"/>
      <path d="M 30.609375 48.390625 
Q 23.390625 48.390625 19.1875 42.75 
Q 14.984375 37.109375 14.984375 27.296875 
Q 14.984375 17.484375 19.15625 11.84375 
Q 23.34375 6.203125 30.609375 6.203125 
Q 37.796875 6.203125 41.984375 11.859375 
Q 46.1875 17.53125 46.1875 27.296875 
Q 46.1875 37.015625 41.984375 42.703125 
Q 37.796875 48.390625 30.609375 48.390625 
z
M 30.609375 56 
Q 42.328125 56 49.015625 48.375 
Q 55.71875 40.765625 55.71875 27.296875 
Q 55.71875 13.875 49.015625 6.21875 
Q 42.328125 -1.421875 30.609375 -1.421875 
Q 18.84375 -1.421875 12.171875 6.21875 
Q 5.515625 13.875 5.515625 27.296875 
Q 5.515625 40.765625 12.171875 48.375 
Q 18.84375 56 30.609375 56 
z
" id="DejaVuSans-111"/>
      <path d="M 41.109375 46.296875 
Q 39.59375 47.171875 37.8125 47.578125 
Q 36.03125 48 33.890625 48 
Q 26.265625 48 22.1875 43.046875 
Q 18.109375 38.09375 18.109375 28.8125 
L 18.109375 0 
L 9.078125 0 
L 9.078125 54.6875 
L 18.109375 54.6875 
L 18.109375 46.1875 
Q 20.953125 51.171875 25.484375 53.578125 
Q 30.03125 56 36.53125 56 
Q 37.453125 56 38.578125 55.875 
Q 39.703125 55.765625 41.0625 55.515625 
z
" id="DejaVuSans-114"/>
      <path d="M 52 44.1875 
Q 55.375 50.25 60.0625 53.125 
Q 64.75 56 71.09375 56 
Q 79.640625 56 84.28125 50.015625 
Q 88.921875 44.046875 88.921875 33.015625 
L 88.921875 0 
L 79.890625 0 
L 79.890625 32.71875 
Q 79.890625 40.578125 77.09375 44.375 
Q 74.3125 48.1875 68.609375 48.1875 
Q 61.625 48.1875 57.5625 43.546875 
Q 53.515625 38.921875 53.515625 30.90625 
L 53.515625 0 
L 44.484375 0 
L 44.484375 32.71875 
Q 44.484375 40.625 41.703125 44.40625 
Q 38.921875 48.1875 33.109375 48.1875 
Q 26.21875 48.1875 22.15625 43.53125 
Q 18.109375 38.875 18.109375 30.90625 
L 18.109375 0 
L 9.078125 0 
L 9.078125 54.6875 
L 18.109375 54.6875 
L 18.109375 46.1875 
Q 21.1875 51.21875 25.484375 53.609375 
Q 29.78125 56 35.6875 56 
Q 41.65625 56 45.828125 52.96875 
Q 50 49.953125 52 44.1875 
z
" id="DejaVuSans-109"/>
      <path d="M 34.28125 27.484375 
Q 23.390625 27.484375 19.1875 25 
Q 14.984375 22.515625 14.984375 16.5 
Q 14.984375 11.71875 18.140625 8.90625 
Q 21.296875 6.109375 26.703125 6.109375 
Q 34.1875 6.109375 38.703125 11.40625 
Q 43.21875 16.703125 43.21875 25.484375 
L 43.21875 27.484375 
z
M 52.203125 31.203125 
L 52.203125 0 
L 43.21875 0 
L 43.21875 8.296875 
Q 40.140625 3.328125 35.546875 0.953125 
Q 30.953125 -1.421875 24.3125 -1.421875 
Q 15.921875 -1.421875 10.953125 3.296875 
Q 6 8.015625 6 15.921875 
Q 6 25.140625 12.171875 29.828125 
Q 18.359375 34.515625 30.609375 34.515625 
L 43.21875 34.515625 
L 43.21875 35.40625 
Q 43.21875 41.609375 39.140625 45 
Q 35.0625 48.390625 27.6875 48.390625 
Q 23 48.390625 18.546875 47.265625 
Q 14.109375 46.140625 10.015625 43.890625 
L 10.015625 52.203125 
Q 14.9375 54.109375 19.578125 55.046875 
Q 24.21875 56 28.609375 56 
Q 40.484375 56 46.34375 49.84375 
Q 52.203125 43.703125 52.203125 31.203125 
z
" id="DejaVuSans-97"/>
      <path d="M 9.421875 75.984375 
L 18.40625 75.984375 
L 18.40625 0 
L 9.421875 0 
z
" id="DejaVuSans-108"/>
      <path d="M 9.421875 54.6875 
L 18.40625 54.6875 
L 18.40625 0 
L 9.421875 0 
z
M 9.421875 75.984375 
L 18.40625 75.984375 
L 18.40625 64.59375 
L 9.421875 64.59375 
z
" id="DejaVuSans-105"/>
      <path d="M 5.515625 54.6875 
L 48.1875 54.6875 
L 48.1875 46.484375 
L 14.40625 7.171875 
L 48.1875 7.171875 
L 48.1875 0 
L 4.296875 0 
L 4.296875 8.203125 
L 38.09375 47.515625 
L 5.515625 47.515625 
z
" id="DejaVuSans-122"/>
      <path d="M 56.203125 29.59375 
L 56.203125 25.203125 
L 14.890625 25.203125 
Q 15.484375 15.921875 20.484375 11.0625 
Q 25.484375 6.203125 34.421875 6.203125 
Q 39.59375 6.203125 44.453125 7.46875 
Q 49.3125 8.734375 54.109375 11.28125 
L 54.109375 2.78125 
Q 49.265625 0.734375 44.1875 -0.34375 
Q 39.109375 -1.421875 33.890625 -1.421875 
Q 20.796875 -1.421875 13.15625 6.1875 
Q 5.515625 13.8125 5.515625 26.8125 
Q 5.515625 40.234375 12.765625 48.109375 
Q 20.015625 56 32.328125 56 
Q 43.359375 56 49.78125 48.890625 
Q 56.203125 41.796875 56.203125 29.59375 
z
M 47.21875 32.234375 
Q 47.125 39.59375 43.09375 43.984375 
Q 39.0625 48.390625 32.421875 48.390625 
Q 24.90625 48.390625 20.390625 44.140625 
Q 15.875 39.890625 15.1875 32.171875 
z
" id="DejaVuSans-101"/>
      <path d="M 45.40625 46.390625 
L 45.40625 75.984375 
L 54.390625 75.984375 
L 54.390625 0 
L 45.40625 0 
L 45.40625 8.203125 
Q 42.578125 3.328125 38.25 0.953125 
Q 33.9375 -1.421875 27.875 -1.421875 
Q 17.96875 -1.421875 11.734375 6.484375 
Q 5.515625 14.40625 5.515625 27.296875 
Q 5.515625 40.1875 11.734375 48.09375 
Q 17.96875 56 27.875 56 
Q 33.9375 56 38.25 53.625 
Q 42.578125 51.265625 45.40625 46.390625 
z
M 14.796875 27.296875 
Q 14.796875 17.390625 18.875 11.75 
Q 22.953125 6.109375 30.078125 6.109375 
Q 37.203125 6.109375 41.296875 11.75 
Q 45.40625 17.390625 45.40625 27.296875 
Q 45.40625 37.203125 41.296875 42.84375 
Q 37.203125 48.484375 30.078125 48.484375 
Q 22.953125 48.484375 18.875 42.84375 
Q 14.796875 37.203125 14.796875 27.296875 
z
" id="DejaVuSans-100"/>
      <path id="DejaVuSans-32"/>
      <path d="M 18.109375 8.203125 
L 18.109375 -20.796875 
L 9.078125 -20.796875 
L 9.078125 54.6875 
L 18.109375 54.6875 
L 18.109375 46.390625 
Q 20.953125 51.265625 25.265625 53.625 
Q 29.59375 56 35.59375 56 
Q 45.5625 56 51.78125 48.09375 
Q 58.015625 40.1875 58.015625 27.296875 
Q 58.015625 14.40625 51.78125 6.484375 
Q 45.5625 -1.421875 35.59375 -1.421875 
Q 29.59375 -1.421875 25.265625 0.953125 
Q 20.953125 3.328125 18.109375 8.203125 
z
M 48.6875 27.296875 
Q 48.6875 37.203125 44.609375 42.84375 
Q 40.53125 48.484375 33.40625 48.484375 
Q 26.265625 48.484375 22.1875 42.84375 
Q 18.109375 37.203125 18.109375 27.296875 
Q 18.109375 17.390625 22.1875 11.75 
Q 26.265625 6.109375 33.40625 6.109375 
Q 40.53125 6.109375 44.609375 11.75 
Q 48.6875 17.390625 48.6875 27.296875 
z
" id="DejaVuSans-112"/>
      <path d="M 18.3125 70.21875 
L 18.3125 54.6875 
L 36.8125 54.6875 
L 36.8125 47.703125 
L 18.3125 47.703125 
L 18.3125 18.015625 
Q 18.3125 11.328125 20.140625 9.421875 
Q 21.96875 7.515625 27.59375 7.515625 
L 36.8125 7.515625 
L 36.8125 0 
L 27.59375 0 
Q 17.1875 0 13.234375 3.875 
Q 9.28125 7.765625 9.28125 18.015625 
L 9.28125 47.703125 
L 2.6875 47.703125 
L 2.6875 54.6875 
L 9.28125 54.6875 
L 9.28125 70.21875 
z
" id="DejaVuSans-116"/>
      <path d="M 2.984375 54.6875 
L 12.5 54.6875 
L 29.59375 8.796875 
L 46.6875 54.6875 
L 56.203125 54.6875 
L 35.6875 0 
L 23.484375 0 
z
" id="DejaVuSans-118"/>
      <path d="M 32.171875 -5.078125 
Q 28.375 -14.84375 24.75 -17.8125 
Q 21.140625 -20.796875 15.09375 -20.796875 
L 7.90625 -20.796875 
L 7.90625 -13.28125 
L 13.1875 -13.28125 
Q 16.890625 -13.28125 18.9375 -11.515625 
Q 21 -9.765625 23.484375 -3.21875 
L 25.09375 0.875 
L 2.984375 54.6875 
L 12.5 54.6875 
L 29.59375 11.921875 
L 46.6875 54.6875 
L 56.203125 54.6875 
z
" id="DejaVuSans-121"/>
     </defs>
     <g transform="translate(32.805708 154.693406)rotate(-90)scale(0.09 -0.09)">
      <use xlink:href="#DejaVuSans-110"/>
      <use x="63.378906" xlink:href="#DejaVuSans-111"/>
      <use x="124.560547" xlink:href="#DejaVuSans-114"/>
      <use x="165.658203" xlink:href="#DejaVuSans-109"/>
      <use x="263.070312" xlink:href="#DejaVuSans-97"/>
      <use x="324.349609" xlink:href="#DejaVuSans-108"/>
      <use x="352.132812" xlink:href="#DejaVuSans-105"/>
      <use x="379.916016" xlink:href="#DejaVuSans-122"/>
      <use x="432.40625" xlink:href="#DejaVuSans-101"/>
      <use x="493.929688" xlink:href="#DejaVuSans-100"/>
      <use x="557.40625" xlink:href="#DejaVuSans-32"/>
      <use x="589.193359" xlink:href="#DejaVuSans-112"/>
      <use x="652.669922" xlink:href="#DejaVuSans-101"/>
      <use x="714.193359" xlink:href="#DejaVuSans-114"/>
      <use x="755.291016" xlink:href="#DejaVuSans-109"/>
      <use x="852.703125" xlink:href="#DejaVuSans-105"/>
      <use x="880.486328" xlink:href="#DejaVuSans-116"/>
      <use x="919.695312" xlink:href="#DejaVuSans-116"/>
      <use x="958.904297" xlink:href="#DejaVuSans-105"/>
      <use x="986.6875" xlink:href="#DejaVuSans-118"/>
      <use x="1045.867188" xlink:href="#DejaVuSans-105"/>
      <use x="1073.650391" xlink:href="#DejaVuSans-116"/>
      <use x="1112.859375" xlink:href="#DejaVuSans-121"/>
     </g>
    </g>
   </g>
   <g id="line2d_15">
    <path clip-path="url(#p42185b34b4)" d="M 57.6 56.230984 
L 73.832727 57.50407 
L 90.065455 61.263935 
L 106.298182 67.239035 
L 122.530909 74.87007 
L 138.763636 83.36901 
L 154.996364 91.879646 
L 171.229091 99.639896 
L 187.461818 106.336569 
L 203.694545 111.966506 
L 219.927273 116.777075 
" style="fill:none;stroke:#1f77b4;stroke-linecap:square;stroke-width:1.5;"/>
   </g>
   <g id="line2d_16">
    <path clip-path="url(#p42185b34b4)" d="M 57.6 85.858337 
L 73.832727 86.84094 
L 90.065455 89.814379 
L 106.298182 94.573989 
L 122.530909 100.509705 
L 138.763636 106.786109 
L 154.996364 112.658108 
L 171.229091 117.866747 
L 187.461818 122.317471 
L 203.694545 126.107807 
L 219.927273 129.39761 
" style="fill:none;stroke:#ff7f0e;stroke-linecap:square;stroke-width:1.5;"/>
   </g>
   <g id="line2d_17">
    <path clip-path="url(#p42185b34b4)" d="M 57.6 108.739715 
L 73.832727 109.451715 
L 90.065455 111.629486 
L 106.298182 115.167154 
L 122.530909 119.486859 
L 138.763636 123.906813 
L 154.996364 127.973074 
L 171.229091 131.51974 
L 187.461818 134.589539 
L 203.694545 137.230643 
L 219.927273 139.534969 
" style="fill:none;stroke:#2ca02c;stroke-linecap:square;stroke-width:1.5;"/>
   </g>
   <g id="line2d_18">
    <path clip-path="url(#p42185b34b4)" d="M 57.6 127.951574 
L 73.832727 128.395797 
L 90.065455 129.739444 
L 106.298182 131.863831 
L 122.530909 134.47851 
L 138.763636 137.242594 
L 154.996364 139.830315 
L 171.229091 142.144044 
L 187.461818 144.193234 
L 203.694545 146.002542 
L 219.927273 147.590726 
" style="fill:none;stroke:#d62728;stroke-linecap:square;stroke-width:1.5;"/>
   </g>
   <g id="line2d_19">
    <path clip-path="url(#p42185b34b4)" d="M 57.6 144.99468 
L 73.832727 145.209531 
L 90.065455 145.883504 
L 106.298182 146.947385 
L 122.530909 148.274611 
L 138.763636 149.69874 
L 154.996364 151.121525 
L 171.229091 152.426736 
L 187.461818 153.587571 
L 203.694545 154.622987 
L 219.927273 155.544478 
" style="fill:none;stroke:#9467bd;stroke-linecap:square;stroke-width:1.5;"/>
   </g>
   <g id="patch_3">
    <path d="M 57.6 162.432 
L 57.6 41.472 
" style="fill:none;stroke:#000000;stroke-linecap:square;stroke-linejoin:miter;stroke-width:0.8;"/>
   </g>
   <g id="patch_4">
    <path d="M 219.927273 162.432 
L 219.927273 41.472 
" style="fill:none;stroke:#000000;stroke-linecap:square;stroke-linejoin:miter;stroke-width:0.8;"/>
   </g>
   <g id="patch_5">
    <path d="M 57.6 162.432 
L 219.927273 162.432 
" style="fill:none;stroke:#000000;stroke-linecap:square;stroke-linejoin:miter;stroke-width:0.8;"/>
   </g>
   <g id="patch_6">
    <path d="M 57.6 41.472 
L 219.927273 41.472 
" style="fill:none;stroke:#000000;stroke-linecap:square;stroke-linejoin:miter;stroke-width:0.8;"/>
   </g>
   <g id="text_11">
    <!-- a -->
    <defs>
     <path d="M 32.90625 24.609375 
Q 27.4375 24.609375 24.671875 22.75 
Q 21.921875 20.90625 21.921875 17.28125 
Q 21.921875 13.96875 24.140625 12.078125 
Q 26.375 10.203125 30.328125 10.203125 
Q 35.25 10.203125 38.625 13.734375 
Q 42 17.28125 42 22.609375 
L 42 24.609375 
z
M 59.625 31.203125 
L 59.625 0 
L 42 0 
L 42 8.109375 
Q 38.484375 3.125 34.078125 0.84375 
Q 29.6875 -1.421875 23.390625 -1.421875 
Q 14.890625 -1.421875 9.59375 3.53125 
Q 4.296875 8.5 4.296875 16.40625 
Q 4.296875 26.03125 10.90625 30.515625 
Q 17.53125 35.015625 31.6875 35.015625 
L 42 35.015625 
L 42 36.375 
Q 42 40.53125 38.71875 42.453125 
Q 35.453125 44.390625 28.515625 44.390625 
Q 22.90625 44.390625 18.0625 43.265625 
Q 13.234375 42.140625 9.078125 39.890625 
L 9.078125 53.21875 
Q 14.703125 54.59375 20.359375 55.296875 
Q 26.03125 56 31.6875 56 
Q 46.484375 56 53.046875 50.171875 
Q 59.625 44.34375 59.625 31.203125 
z
" id="DejaVuSans-Bold-97"/>
    </defs>
    <g transform="translate(17.018182 35.424)scale(0.108 -0.108)">
     <use xlink:href="#DejaVuSans-Bold-97"/>
    </g>
   </g>
  </g>
  <g id="axes_2">
   <g id="patch_7">
    <path d="M 252.392727 162.432 
L 414.72 162.432 
L 414.72 41.472 
L 252.392727 41.472 
z
" style="fill:#ffffff;"/>
   </g>
   <g id="PolyCollection_6">
    <defs>
     <path d="M 252.392727 -277.248 
L 252.392727 -277.248 
L 268.625455 -277.144355 
L 284.858182 -276.899289 
L 301.090909 -276.638505 
L 317.323636 -276.611376 
L 333.556364 -276.722753 
L 349.789091 -276.64361 
L 366.021818 -275.542094 
L 382.254545 -273.405464 
L 398.487273 -270.031197 
L 414.72 -265.835598 
L 414.72 -275.800805 
L 414.72 -275.800805 
L 398.487273 -280.022093 
L 382.254545 -283.576977 
L 366.021818 -285.212605 
L 349.789091 -284.578752 
L 333.556364 -282.60981 
L 317.323636 -280.475882 
L 301.090909 -278.825072 
L 284.858182 -277.773202 
L 268.625455 -277.337742 
L 252.392727 -277.248 
z
" id="ma4e5d741c0" style="stroke:#1f77b4;stroke-opacity:0.2;"/>
    </defs>
    <g clip-path="url(#pe5e8332e7d)">
     <use style="fill:#1f77b4;fill-opacity:0.2;stroke:#1f77b4;stroke-opacity:0.2;" x="0" xlink:href="#ma4e5d741c0" y="345.6"/>
    </g>
   </g>
   <g id="PolyCollection_7">
    <defs>
     <path d="M 252.392727 -277.248 
L 252.392727 -277.248 
L 268.625455 -277.039595 
L 284.858182 -276.59723 
L 301.090909 -276.09089 
L 317.323636 -275.249332 
L 333.556364 -274.174807 
L 349.789091 -272.262192 
L 366.021818 -268.945647 
L 382.254545 -263.944075 
L 398.487273 -257.836367 
L 414.72 -251.401086 
L 414.72 -266.231664 
L 414.72 -266.231664 
L 398.487273 -273.019143 
L 382.254545 -279.527698 
L 366.021818 -284.80849 
L 349.789091 -288.075932 
L 333.556364 -288.665439 
L 317.323636 -285.994863 
L 301.090909 -282.024791 
L 284.858182 -279.033557 
L 268.625455 -277.567612 
L 252.392727 -277.248 
z
" id="md726fe0fdf" style="stroke:#ff7f0e;stroke-opacity:0.2;"/>
    </defs>
    <g clip-path="url(#pe5e8332e7d)">
     <use style="fill:#ff7f0e;fill-opacity:0.2;stroke:#ff7f0e;stroke-opacity:0.2;" x="0" xlink:href="#md726fe0fdf" y="345.6"/>
    </g>
   </g>
   <g id="PolyCollection_8">
    <defs>
     <path d="M 252.392727 -277.248 
L 252.392727 -277.248 
L 268.625455 -277.029675 
L 284.858182 -276.675203 
L 301.090909 -276.447628 
L 317.323636 -275.948507 
L 333.556364 -273.95771 
L 349.789091 -269.543061 
L 366.021818 -262.961885 
L 382.254545 -255.11044 
L 398.487273 -246.723493 
L 414.72 -238.45323 
L 414.72 -254.116624 
L 414.72 -254.116624 
L 398.487273 -261.957521 
L 382.254545 -269.509977 
L 366.021818 -276.033948 
L 349.789091 -280.93758 
L 333.556364 -283.260577 
L 317.323636 -282.922244 
L 301.090909 -280.671026 
L 284.858182 -278.30344 
L 268.625455 -277.376989 
L 252.392727 -277.248 
z
" id="m13b62c70c4" style="stroke:#2ca02c;stroke-opacity:0.2;"/>
    </defs>
    <g clip-path="url(#pe5e8332e7d)">
     <use style="fill:#2ca02c;fill-opacity:0.2;stroke:#2ca02c;stroke-opacity:0.2;" x="0" xlink:href="#m13b62c70c4" y="345.6"/>
    </g>
   </g>
   <g id="PolyCollection_9">
    <defs>
     <path d="M 252.392727 -277.248 
L 252.392727 -277.248 
L 268.625455 -276.534354 
L 284.858182 -274.592844 
L 301.090909 -271.604402 
L 317.323636 -267.704307 
L 333.556364 -262.060641 
L 349.789091 -254.454088 
L 366.021818 -245.358246 
L 382.254545 -235.679928 
L 398.487273 -226.054722 
L 414.72 -216.717107 
L 414.72 -235.0224 
L 414.72 -235.0224 
L 398.487273 -243.645258 
L 382.254545 -252.279936 
L 366.021818 -260.507196 
L 349.789091 -267.668516 
L 333.556364 -272.887439 
L 317.323636 -275.662489 
L 301.090909 -276.95652 
L 284.858182 -277.054133 
L 268.625455 -277.113876 
L 252.392727 -277.248 
z
" id="m4d09774e22" style="stroke:#d62728;stroke-opacity:0.2;"/>
    </defs>
    <g clip-path="url(#pe5e8332e7d)">
     <use style="fill:#d62728;fill-opacity:0.2;stroke:#d62728;stroke-opacity:0.2;" x="0" xlink:href="#m4d09774e22" y="345.6"/>
    </g>
   </g>
   <g id="PolyCollection_10">
    <defs>
     <path d="M 252.392727 -277.248 
L 252.392727 -277.248 
L 268.625455 -275.934953 
L 284.858182 -272.330675 
L 301.090909 -266.642022 
L 317.323636 -259.136534 
L 333.556364 -249.906626 
L 349.789091 -239.539247 
L 366.021818 -228.326767 
L 382.254545 -216.856873 
L 398.487273 -205.970841 
L 414.72 -195.76395 
L 414.72 -209.790037 
L 414.72 -209.790037 
L 398.487273 -219.934286 
L 382.254545 -230.473426 
L 366.021818 -240.845829 
L 349.789091 -250.552985 
L 333.556364 -258.964457 
L 317.323636 -266.001991 
L 301.090909 -271.092798 
L 284.858182 -274.451095 
L 268.625455 -276.42757 
L 252.392727 -277.248 
z
" id="m9ff040e900" style="stroke:#9467bd;stroke-opacity:0.2;"/>
    </defs>
    <g clip-path="url(#pe5e8332e7d)">
     <use style="fill:#9467bd;fill-opacity:0.2;stroke:#9467bd;stroke-opacity:0.2;" x="0" xlink:href="#m9ff040e900" y="345.6"/>
    </g>
   </g>
   <g id="matplotlib.axis_3">
    <g id="xtick_6">
     <g id="line2d_20">
      <g>
       <use style="stroke:#000000;stroke-width:0.8;" x="252.392727" xlink:href="#md0c39257fc" y="162.432"/>
      </g>
     </g>
    </g>
    <g id="xtick_7">
     <g id="line2d_21">
      <g>
       <use style="stroke:#000000;stroke-width:0.8;" x="292.974545" xlink:href="#md0c39257fc" y="162.432"/>
      </g>
     </g>
    </g>
    <g id="xtick_8">
     <g id="line2d_22">
      <g>
       <use style="stroke:#000000;stroke-width:0.8;" x="333.556364" xlink:href="#md0c39257fc" y="162.432"/>
      </g>
     </g>
    </g>
    <g id="xtick_9">
     <g id="line2d_23">
      <g>
       <use style="stroke:#000000;stroke-width:0.8;" x="374.138182" xlink:href="#md0c39257fc" y="162.432"/>
      </g>
     </g>
    </g>
    <g id="xtick_10">
     <g id="line2d_24">
      <g>
       <use style="stroke:#000000;stroke-width:0.8;" x="414.72" xlink:href="#md0c39257fc" y="162.432"/>
      </g>
     </g>
    </g>
   </g>
   <g id="matplotlib.axis_4">
    <g id="ytick_10">
     <g id="line2d_25">
      <g>
       <use style="stroke:#000000;stroke-width:0.8;" x="252.392727" xlink:href="#m282d560ea1" y="148.992"/>
      </g>
     </g>
     <g id="text_12">
      <!-- 0.7 -->
      <g transform="translate(233.470154 151.840274)scale(0.07497 -0.07497)">
       <use xlink:href="#DejaVuSans-48"/>
       <use x="63.623047" xlink:href="#DejaVuSans-46"/>
       <use x="95.410156" xlink:href="#DejaVuSans-55"/>
      </g>
     </g>
    </g>
    <g id="ytick_11">
     <g id="line2d_26">
      <g>
       <use style="stroke:#000000;stroke-width:0.8;" x="252.392727" xlink:href="#m282d560ea1" y="122.112"/>
      </g>
     </g>
     <g id="text_13">
      <!-- 0.8 -->
      <g transform="translate(233.470154 124.960274)scale(0.07497 -0.07497)">
       <use xlink:href="#DejaVuSans-48"/>
       <use x="63.623047" xlink:href="#DejaVuSans-46"/>
       <use x="95.410156" xlink:href="#DejaVuSans-56"/>
      </g>
     </g>
    </g>
    <g id="ytick_12">
     <g id="line2d_27">
      <g>
       <use style="stroke:#000000;stroke-width:0.8;" x="252.392727" xlink:href="#m282d560ea1" y="95.232"/>
      </g>
     </g>
     <g id="text_14">
      <!-- 0.9 -->
      <g transform="translate(233.470154 98.080274)scale(0.07497 -0.07497)">
       <use xlink:href="#DejaVuSans-48"/>
       <use x="63.623047" xlink:href="#DejaVuSans-46"/>
       <use x="95.410156" xlink:href="#DejaVuSans-57"/>
      </g>
     </g>
    </g>
    <g id="ytick_13">
     <g id="line2d_28">
      <g>
       <use style="stroke:#000000;stroke-width:0.8;" x="252.392727" xlink:href="#m282d560ea1" y="68.352"/>
      </g>
     </g>
     <g id="text_15">
      <!-- 1.0 -->
      <g transform="translate(233.470154 71.200274)scale(0.07497 -0.07497)">
       <use xlink:href="#DejaVuSans-49"/>
       <use x="63.623047" xlink:href="#DejaVuSans-46"/>
       <use x="95.410156" xlink:href="#DejaVuSans-48"/>
      </g>
     </g>
    </g>
    <g id="ytick_14">
     <g id="line2d_29">
      <g>
       <use style="stroke:#000000;stroke-width:0.8;" x="252.392727" xlink:href="#m282d560ea1" y="41.472"/>
      </g>
     </g>
     <g id="text_16">
      <!-- 1.1 -->
      <g transform="translate(233.470154 44.320274)scale(0.07497 -0.07497)">
       <use xlink:href="#DejaVuSans-49"/>
       <use x="63.623047" xlink:href="#DejaVuSans-46"/>
       <use x="95.410156" xlink:href="#DejaVuSans-49"/>
      </g>
     </g>
    </g>
    <g id="text_17">
     <!-- normalized tunability -->
     <defs>
      <path d="M 8.5 21.578125 
L 8.5 54.6875 
L 17.484375 54.6875 
L 17.484375 21.921875 
Q 17.484375 14.15625 20.5 10.265625 
Q 23.53125 6.390625 29.59375 6.390625 
Q 36.859375 6.390625 41.078125 11.03125 
Q 45.3125 15.671875 45.3125 23.6875 
L 45.3125 54.6875 
L 54.296875 54.6875 
L 54.296875 0 
L 45.3125 0 
L 45.3125 8.40625 
Q 42.046875 3.421875 37.71875 1 
Q 33.40625 -1.421875 27.6875 -1.421875 
Q 18.265625 -1.421875 13.375 4.4375 
Q 8.5 10.296875 8.5 21.578125 
z
M 31.109375 56 
z
" id="DejaVuSans-117"/>
      <path d="M 48.6875 27.296875 
Q 48.6875 37.203125 44.609375 42.84375 
Q 40.53125 48.484375 33.40625 48.484375 
Q 26.265625 48.484375 22.1875 42.84375 
Q 18.109375 37.203125 18.109375 27.296875 
Q 18.109375 17.390625 22.1875 11.75 
Q 26.265625 6.109375 33.40625 6.109375 
Q 40.53125 6.109375 44.609375 11.75 
Q 48.6875 17.390625 48.6875 27.296875 
z
M 18.109375 46.390625 
Q 20.953125 51.265625 25.265625 53.625 
Q 29.59375 56 35.59375 56 
Q 45.5625 56 51.78125 48.09375 
Q 58.015625 40.1875 58.015625 27.296875 
Q 58.015625 14.40625 51.78125 6.484375 
Q 45.5625 -1.421875 35.59375 -1.421875 
Q 29.59375 -1.421875 25.265625 0.953125 
Q 20.953125 3.328125 18.109375 8.203125 
L 18.109375 0 
L 9.078125 0 
L 9.078125 75.984375 
L 18.109375 75.984375 
z
" id="DejaVuSans-98"/>
     </defs>
     <g transform="translate(227.598436 149.725828)rotate(-90)scale(0.09 -0.09)">
      <use xlink:href="#DejaVuSans-110"/>
      <use x="63.378906" xlink:href="#DejaVuSans-111"/>
      <use x="124.560547" xlink:href="#DejaVuSans-114"/>
      <use x="165.658203" xlink:href="#DejaVuSans-109"/>
      <use x="263.070312" xlink:href="#DejaVuSans-97"/>
      <use x="324.349609" xlink:href="#DejaVuSans-108"/>
      <use x="352.132812" xlink:href="#DejaVuSans-105"/>
      <use x="379.916016" xlink:href="#DejaVuSans-122"/>
      <use x="432.40625" xlink:href="#DejaVuSans-101"/>
      <use x="493.929688" xlink:href="#DejaVuSans-100"/>
      <use x="557.40625" xlink:href="#DejaVuSans-32"/>
      <use x="589.193359" xlink:href="#DejaVuSans-116"/>
      <use x="628.402344" xlink:href="#DejaVuSans-117"/>
      <use x="691.78125" xlink:href="#DejaVuSans-110"/>
      <use x="755.160156" xlink:href="#DejaVuSans-97"/>
      <use x="816.439453" xlink:href="#DejaVuSans-98"/>
      <use x="879.916016" xlink:href="#DejaVuSans-105"/>
      <use x="907.699219" xlink:href="#DejaVuSans-108"/>
      <use x="935.482422" xlink:href="#DejaVuSans-105"/>
      <use x="963.265625" xlink:href="#DejaVuSans-116"/>
      <use x="1002.474609" xlink:href="#DejaVuSans-121"/>
     </g>
    </g>
   </g>
   <g id="line2d_30">
    <path clip-path="url(#pe5e8332e7d)" d="M 252.392727 68.352 
L 268.625455 68.358952 
L 284.858182 68.263755 
L 301.090909 67.868212 
L 317.323636 67.056371 
L 333.556364 65.933719 
L 349.789091 64.988819 
L 366.021818 65.222651 
L 382.254545 67.108779 
L 398.487273 70.573355 
L 414.72 74.781798 
" style="fill:none;stroke:#1f77b4;stroke-linecap:square;stroke-width:1.5;"/>
   </g>
   <g id="line2d_31">
    <path clip-path="url(#pe5e8332e7d)" d="M 252.392727 68.352 
L 268.625455 68.296396 
L 284.858182 67.784606 
L 301.090909 66.542159 
L 317.323636 64.977902 
L 333.556364 64.179877 
L 349.789091 65.430938 
L 366.021818 68.722931 
L 382.254545 73.864113 
L 398.487273 80.172245 
L 414.72 86.783625 
" style="fill:none;stroke:#ff7f0e;stroke-linecap:square;stroke-width:1.5;"/>
   </g>
   <g id="line2d_32">
    <path clip-path="url(#pe5e8332e7d)" d="M 252.392727 68.352 
L 268.625455 68.396668 
L 284.858182 68.110679 
L 301.090909 67.040673 
L 317.323636 66.164625 
L 333.556364 66.990857 
L 349.789091 70.35968 
L 366.021818 76.102084 
L 382.254545 83.289792 
L 398.487273 91.259493 
L 414.72 99.315073 
" style="fill:none;stroke:#2ca02c;stroke-linecap:square;stroke-width:1.5;"/>
   </g>
   <g id="line2d_33">
    <path clip-path="url(#pe5e8332e7d)" d="M 252.392727 68.352 
L 268.625455 68.775885 
L 284.858182 69.776511 
L 301.090909 71.319539 
L 317.323636 73.916602 
L 333.556364 78.12596 
L 349.789091 84.538698 
L 366.021818 92.667279 
L 382.254545 101.620068 
L 398.487273 110.75001 
L 414.72 119.730247 
" style="fill:none;stroke:#d62728;stroke-linecap:square;stroke-width:1.5;"/>
   </g>
   <g id="line2d_34">
    <path clip-path="url(#pe5e8332e7d)" d="M 252.392727 68.352 
L 268.625455 69.418739 
L 284.858182 72.209115 
L 301.090909 76.73259 
L 317.323636 83.030737 
L 333.556364 91.164459 
L 349.789091 100.553884 
L 366.021818 111.013702 
L 382.254545 121.934851 
L 398.487273 132.647437 
L 414.72 142.823007 
" style="fill:none;stroke:#9467bd;stroke-linecap:square;stroke-width:1.5;"/>
   </g>
   <g id="patch_8">
    <path d="M 252.392727 162.432 
L 252.392727 41.472 
" style="fill:none;stroke:#000000;stroke-linecap:square;stroke-linejoin:miter;stroke-width:0.8;"/>
   </g>
   <g id="patch_9">
    <path d="M 414.72 162.432 
L 414.72 41.472 
" style="fill:none;stroke:#000000;stroke-linecap:square;stroke-linejoin:miter;stroke-width:0.8;"/>
   </g>
   <g id="patch_10">
    <path d="M 252.392727 162.432 
L 414.72 162.432 
" style="fill:none;stroke:#000000;stroke-linecap:square;stroke-linejoin:miter;stroke-width:0.8;"/>
   </g>
   <g id="patch_11">
    <path d="M 252.392727 41.472 
L 414.72 41.472 
" style="fill:none;stroke:#000000;stroke-linecap:square;stroke-linejoin:miter;stroke-width:0.8;"/>
   </g>
   <g id="text_18">
    <!-- c -->
    <defs>
     <path d="M 52.59375 52.984375 
L 52.59375 38.71875 
Q 49.03125 41.15625 45.4375 42.328125 
Q 41.84375 43.5 37.984375 43.5 
Q 30.671875 43.5 26.59375 39.234375 
Q 22.515625 34.96875 22.515625 27.296875 
Q 22.515625 19.625 26.59375 15.34375 
Q 30.671875 11.078125 37.984375 11.078125 
Q 42.09375 11.078125 45.78125 12.296875 
Q 49.46875 13.53125 52.59375 15.921875 
L 52.59375 1.609375 
Q 48.484375 0.09375 44.265625 -0.65625 
Q 40.046875 -1.421875 35.796875 -1.421875 
Q 21 -1.421875 12.640625 6.171875 
Q 4.296875 13.765625 4.296875 27.296875 
Q 4.296875 40.828125 12.640625 48.40625 
Q 21 56 35.796875 56 
Q 40.09375 56 44.265625 55.25 
Q 48.4375 54.5 52.59375 52.984375 
z
" id="DejaVuSans-Bold-99"/>
    </defs>
    <g transform="translate(211.810909 35.424)scale(0.108 -0.108)">
     <use xlink:href="#DejaVuSans-Bold-99"/>
    </g>
   </g>
   <g id="legend_1">
    <g id="line2d_35">
     <path d="M 259.140027 107.484847 
L 274.134027 107.484847 
" style="fill:none;stroke:#1f77b4;stroke-linecap:square;stroke-width:1.5;"/>
    </g>
    <g id="line2d_36"/>
    <g id="text_19">
     <!-- $f=0.1$ -->
     <defs>
      <path d="M 47.796875 75.984375 
L 46.390625 68.5 
L 37.796875 68.5 
Q 32.90625 68.5 30.6875 66.578125 
Q 28.46875 64.65625 27.390625 59.515625 
L 26.421875 54.6875 
L 41.21875 54.6875 
L 39.890625 47.703125 
L 25.09375 47.703125 
L 15.828125 0 
L 6.78125 0 
L 16.109375 47.703125 
L 7.515625 47.703125 
L 8.796875 54.6875 
L 17.390625 54.6875 
L 18.109375 58.5 
Q 19.96875 68.171875 24.625 72.078125 
Q 29.296875 75.984375 39.3125 75.984375 
z
" id="DejaVuSans-Oblique-102"/>
      <path d="M 10.59375 45.40625 
L 73.1875 45.40625 
L 73.1875 37.203125 
L 10.59375 37.203125 
z
M 10.59375 25.484375 
L 73.1875 25.484375 
L 73.1875 17.1875 
L 10.59375 17.1875 
z
" id="DejaVuSans-61"/>
     </defs>
     <g transform="translate(280.131627 110.108797)scale(0.07497 -0.07497)">
      <use transform="translate(0 0.015625)" xlink:href="#DejaVuSans-Oblique-102"/>
      <use transform="translate(54.6875 0.015625)" xlink:href="#DejaVuSans-61"/>
      <use transform="translate(157.958984 0.015625)" xlink:href="#DejaVuSans-48"/>
      <use transform="translate(221.582031 0.015625)" xlink:href="#DejaVuSans-46"/>
      <use transform="translate(253.369141 0.015625)" xlink:href="#DejaVuSans-49"/>
     </g>
    </g>
    <g id="line2d_37">
     <path d="M 259.140027 118.489037 
L 274.134027 118.489037 
" style="fill:none;stroke:#ff7f0e;stroke-linecap:square;stroke-width:1.5;"/>
    </g>
    <g id="line2d_38"/>
    <g id="text_20">
     <!-- $f=0.2$ -->
     <g transform="translate(280.131627 121.112987)scale(0.07497 -0.07497)">
      <use transform="translate(0 0.015625)" xlink:href="#DejaVuSans-Oblique-102"/>
      <use transform="translate(54.6875 0.015625)" xlink:href="#DejaVuSans-61"/>
      <use transform="translate(157.958984 0.015625)" xlink:href="#DejaVuSans-48"/>
      <use transform="translate(221.582031 0.015625)" xlink:href="#DejaVuSans-46"/>
      <use transform="translate(253.291016 0.015625)" xlink:href="#DejaVuSans-50"/>
     </g>
    </g>
    <g id="line2d_39">
     <path d="M 259.140027 129.493228 
L 274.134027 129.493228 
" style="fill:none;stroke:#2ca02c;stroke-linecap:square;stroke-width:1.5;"/>
    </g>
    <g id="line2d_40"/>
    <g id="text_21">
     <!-- $f=0.3$ -->
     <g transform="translate(280.131627 132.117178)scale(0.07497 -0.07497)">
      <use transform="translate(0 0.015625)" xlink:href="#DejaVuSans-Oblique-102"/>
      <use transform="translate(54.6875 0.015625)" xlink:href="#DejaVuSans-61"/>
      <use transform="translate(157.958984 0.015625)" xlink:href="#DejaVuSans-48"/>
      <use transform="translate(221.582031 0.015625)" xlink:href="#DejaVuSans-46"/>
      <use transform="translate(253.369141 0.015625)" xlink:href="#DejaVuSans-51"/>
     </g>
    </g>
    <g id="line2d_41">
     <path d="M 259.140027 140.497418 
L 274.134027 140.497418 
" style="fill:none;stroke:#d62728;stroke-linecap:square;stroke-width:1.5;"/>
    </g>
    <g id="line2d_42"/>
    <g id="text_22">
     <!-- $f=0.4$ -->
     <g transform="translate(280.131627 143.121368)scale(0.07497 -0.07497)">
      <use transform="translate(0 0.015625)" xlink:href="#DejaVuSans-Oblique-102"/>
      <use transform="translate(54.6875 0.015625)" xlink:href="#DejaVuSans-61"/>
      <use transform="translate(157.958984 0.015625)" xlink:href="#DejaVuSans-48"/>
      <use transform="translate(221.582031 0.015625)" xlink:href="#DejaVuSans-46"/>
      <use transform="translate(253.369141 0.015625)" xlink:href="#DejaVuSans-52"/>
     </g>
    </g>
    <g id="line2d_43">
     <path d="M 259.140027 151.501608 
L 274.134027 151.501608 
" style="fill:none;stroke:#9467bd;stroke-linecap:square;stroke-width:1.5;"/>
    </g>
    <g id="line2d_44"/>
    <g id="text_23">
     <!-- $f=0.5$ -->
     <g transform="translate(280.131627 154.125558)scale(0.07497 -0.07497)">
      <use transform="translate(0 0.015625)" xlink:href="#DejaVuSans-Oblique-102"/>
      <use transform="translate(54.6875 0.015625)" xlink:href="#DejaVuSans-61"/>
      <use transform="translate(157.958984 0.015625)" xlink:href="#DejaVuSans-48"/>
      <use transform="translate(221.582031 0.015625)" xlink:href="#DejaVuSans-46"/>
      <use transform="translate(253.369141 0.015625)" xlink:href="#DejaVuSans-53"/>
     </g>
    </g>
   </g>
  </g>
  <g id="axes_3">
   <g id="patch_12">
    <path d="M 57.6 307.584 
L 219.927273 307.584 
L 219.927273 186.624 
L 57.6 186.624 
z
" style="fill:#ffffff;"/>
   </g>
   <g id="PolyCollection_11">
    <defs>
     <path d="M 57.6 -153.629961 
L 57.6 -150.313478 
L 73.832727 -150.230955 
L 90.065455 -149.947708 
L 106.298182 -149.369178 
L 122.530909 -148.423265 
L 138.763636 -147.144504 
L 154.996364 -145.613535 
L 171.229091 -144.001796 
L 187.461818 -142.467898 
L 203.694545 -140.964596 
L 219.927273 -139.726096 
L 219.927273 -146.675315 
L 219.927273 -146.675315 
L 203.694545 -147.565645 
L 187.461818 -148.492769 
L 171.229091 -149.683287 
L 154.996364 -150.886392 
L 138.763636 -151.951687 
L 122.530909 -152.704526 
L 106.298182 -153.158701 
L 90.065455 -153.432331 
L 73.832727 -153.582671 
L 57.6 -153.629961 
z
" id="m9c3e3fe5b1" style="stroke:#1f77b4;stroke-opacity:0.2;"/>
    </defs>
    <g clip-path="url(#p6b1397145f)">
     <use style="fill:#1f77b4;fill-opacity:0.2;stroke:#1f77b4;stroke-opacity:0.2;" x="0" xlink:href="#m9c3e3fe5b1" y="345.6"/>
    </g>
   </g>
   <g id="PolyCollection_12">
    <defs>
     <path d="M 57.6 -146.462511 
L 57.6 -139.317696 
L 73.832727 -139.058252 
L 90.065455 -138.099934 
L 106.298182 -136.192567 
L 122.530909 -133.297066 
L 138.763636 -129.676761 
L 154.996364 -126.069532 
L 171.229091 -122.745745 
L 187.461818 -119.695092 
L 203.694545 -117.380694 
L 219.927273 -115.221189 
L 219.927273 -130.981795 
L 219.927273 -130.981795 
L 203.694545 -132.60785 
L 187.461818 -134.53432 
L 171.229091 -136.513336 
L 154.996364 -138.788198 
L 138.763636 -141.056895 
L 122.530909 -143.092492 
L 106.298182 -144.705958 
L 90.065455 -145.774163 
L 73.832727 -146.309427 
L 57.6 -146.462511 
z
" id="m3dd67dcbff" style="stroke:#ff7f0e;stroke-opacity:0.2;"/>
    </defs>
    <g clip-path="url(#p6b1397145f)">
     <use style="fill:#ff7f0e;fill-opacity:0.2;stroke:#ff7f0e;stroke-opacity:0.2;" x="0" xlink:href="#m3dd67dcbff" y="345.6"/>
    </g>
   </g>
   <g id="PolyCollection_13">
    <defs>
     <path d="M 57.6 -139.014609 
L 57.6 -123.908764 
L 73.832727 -123.567584 
L 90.065455 -122.28967 
L 106.298182 -119.506382 
L 122.530909 -115.26605 
L 138.763636 -110.570631 
L 154.996364 -106.370876 
L 171.229091 -102.835728 
L 187.461818 -99.776248 
L 203.694545 -97.18053 
L 219.927273 -94.96291 
L 219.927273 -115.909425 
L 219.927273 -115.909425 
L 203.694545 -118.152264 
L 187.461818 -120.691201 
L 171.229091 -123.619689 
L 154.996364 -126.889089 
L 138.763636 -130.370998 
L 122.530909 -133.569869 
L 106.298182 -136.117859 
L 90.065455 -137.905688 
L 73.832727 -138.768621 
L 57.6 -139.014609 
z
" id="mdf1db60100" style="stroke:#2ca02c;stroke-opacity:0.2;"/>
    </defs>
    <g clip-path="url(#p6b1397145f)">
     <use style="fill:#2ca02c;fill-opacity:0.2;stroke:#2ca02c;stroke-opacity:0.2;" x="0" xlink:href="#mdf1db60100" y="345.6"/>
    </g>
   </g>
   <g id="PolyCollection_14">
    <defs>
     <path d="M 57.6 -121.045449 
L 57.6 -101.972441 
L 73.832727 -101.578919 
L 90.065455 -99.983419 
L 106.298182 -96.681791 
L 122.530909 -92.345218 
L 138.763636 -87.869698 
L 154.996364 -83.625581 
L 171.229091 -80.213561 
L 187.461818 -77.448911 
L 203.694545 -75.17051 
L 219.927273 -73.345717 
L 219.927273 -96.576549 
L 219.927273 -96.576549 
L 203.694545 -99.10978 
L 187.461818 -101.92238 
L 171.229091 -105.093756 
L 154.996364 -108.60709 
L 138.763636 -112.289422 
L 122.530909 -115.856361 
L 106.298182 -118.466238 
L 90.065455 -120.07573 
L 73.832727 -120.838832 
L 57.6 -121.045449 
z
" id="m4b76f3302f" style="stroke:#d62728;stroke-opacity:0.2;"/>
    </defs>
    <g clip-path="url(#p6b1397145f)">
     <use style="fill:#d62728;fill-opacity:0.2;stroke:#d62728;stroke-opacity:0.2;" x="0" xlink:href="#m4b76f3302f" y="345.6"/>
    </g>
   </g>
   <g id="PolyCollection_15">
    <defs>
     <path d="M 57.6 -85.724816 
L 57.6 -65.48172 
L 73.832727 -65.311874 
L 90.065455 -64.683459 
L 106.298182 -62.934252 
L 122.530909 -60.262924 
L 138.763636 -57.218475 
L 154.996364 -53.961543 
L 171.229091 -50.87661 
L 187.461818 -48.257958 
L 203.694545 -45.897553 
L 219.927273 -43.948763 
L 219.927273 -60.632862 
L 219.927273 -60.632862 
L 203.694545 -63.068522 
L 187.461818 -65.873085 
L 171.229091 -69.129623 
L 154.996364 -72.720654 
L 138.763636 -76.554191 
L 122.530909 -80.055413 
L 106.298182 -82.896098 
L 90.065455 -84.687692 
L 73.832727 -85.487571 
L 57.6 -85.724816 
z
" id="mea5c441e19" style="stroke:#9467bd;stroke-opacity:0.2;"/>
    </defs>
    <g clip-path="url(#p6b1397145f)">
     <use style="fill:#9467bd;fill-opacity:0.2;stroke:#9467bd;stroke-opacity:0.2;" x="0" xlink:href="#mea5c441e19" y="345.6"/>
    </g>
   </g>
   <g id="matplotlib.axis_5">
    <g id="xtick_11">
     <g id="line2d_45">
      <g>
       <use style="stroke:#000000;stroke-width:0.8;" x="57.6" xlink:href="#md0c39257fc" y="307.584"/>
      </g>
     </g>
     <g id="text_24">
      <!-- 0.0 -->
      <g transform="translate(51.638714 320.280549)scale(0.07497 -0.07497)">
       <use xlink:href="#DejaVuSans-48"/>
       <use x="63.623047" xlink:href="#DejaVuSans-46"/>
       <use x="95.410156" xlink:href="#DejaVuSans-48"/>
      </g>
     </g>
    </g>
    <g id="xtick_12">
     <g id="line2d_46">
      <g>
       <use style="stroke:#000000;stroke-width:0.8;" x="98.181818" xlink:href="#md0c39257fc" y="307.584"/>
      </g>
     </g>
     <g id="text_25">
      <!-- 0.5 -->
      <g transform="translate(92.220532 320.280549)scale(0.07497 -0.07497)">
       <use xlink:href="#DejaVuSans-48"/>
       <use x="63.623047" xlink:href="#DejaVuSans-46"/>
       <use x="95.410156" xlink:href="#DejaVuSans-53"/>
      </g>
     </g>
    </g>
    <g id="xtick_13">
     <g id="line2d_47">
      <g>
       <use style="stroke:#000000;stroke-width:0.8;" x="138.763636" xlink:href="#md0c39257fc" y="307.584"/>
      </g>
     </g>
     <g id="text_26">
      <!-- 1.0 -->
      <g transform="translate(132.80235 320.280549)scale(0.07497 -0.07497)">
       <use xlink:href="#DejaVuSans-49"/>
       <use x="63.623047" xlink:href="#DejaVuSans-46"/>
       <use x="95.410156" xlink:href="#DejaVuSans-48"/>
      </g>
     </g>
    </g>
    <g id="xtick_14">
     <g id="line2d_48">
      <g>
       <use style="stroke:#000000;stroke-width:0.8;" x="179.345455" xlink:href="#md0c39257fc" y="307.584"/>
      </g>
     </g>
     <g id="text_27">
      <!-- 1.5 -->
      <g transform="translate(173.384168 320.280549)scale(0.07497 -0.07497)">
       <use xlink:href="#DejaVuSans-49"/>
       <use x="63.623047" xlink:href="#DejaVuSans-46"/>
       <use x="95.410156" xlink:href="#DejaVuSans-53"/>
      </g>
     </g>
    </g>
    <g id="xtick_15">
     <g id="line2d_49">
      <g>
       <use style="stroke:#000000;stroke-width:0.8;" x="219.927273" xlink:href="#md0c39257fc" y="307.584"/>
      </g>
     </g>
     <g id="text_28">
      <!-- 2.0 -->
      <g transform="translate(213.965986 320.280549)scale(0.07497 -0.07497)">
       <use xlink:href="#DejaVuSans-50"/>
       <use x="63.623047" xlink:href="#DejaVuSans-46"/>
       <use x="95.410156" xlink:href="#DejaVuSans-48"/>
      </g>
     </g>
    </g>
    <g id="text_29">
     <!-- bias electric field (MV/m) -->
     <defs>
      <path d="M 44.28125 53.078125 
L 44.28125 44.578125 
Q 40.484375 46.53125 36.375 47.5 
Q 32.28125 48.484375 27.875 48.484375 
Q 21.1875 48.484375 17.84375 46.4375 
Q 14.5 44.390625 14.5 40.28125 
Q 14.5 37.15625 16.890625 35.375 
Q 19.28125 33.59375 26.515625 31.984375 
L 29.59375 31.296875 
Q 39.15625 29.25 43.1875 25.515625 
Q 47.21875 21.78125 47.21875 15.09375 
Q 47.21875 7.46875 41.1875 3.015625 
Q 35.15625 -1.421875 24.609375 -1.421875 
Q 20.21875 -1.421875 15.453125 -0.5625 
Q 10.6875 0.296875 5.421875 2 
L 5.421875 11.28125 
Q 10.40625 8.6875 15.234375 7.390625 
Q 20.0625 6.109375 24.8125 6.109375 
Q 31.15625 6.109375 34.5625 8.28125 
Q 37.984375 10.453125 37.984375 14.40625 
Q 37.984375 18.0625 35.515625 20.015625 
Q 33.0625 21.96875 24.703125 23.78125 
L 21.578125 24.515625 
Q 13.234375 26.265625 9.515625 29.90625 
Q 5.8125 33.546875 5.8125 39.890625 
Q 5.8125 47.609375 11.28125 51.796875 
Q 16.75 56 26.8125 56 
Q 31.78125 56 36.171875 55.265625 
Q 40.578125 54.546875 44.28125 53.078125 
z
" id="DejaVuSans-115"/>
      <path d="M 48.78125 52.59375 
L 48.78125 44.1875 
Q 44.96875 46.296875 41.140625 47.34375 
Q 37.3125 48.390625 33.40625 48.390625 
Q 24.65625 48.390625 19.8125 42.84375 
Q 14.984375 37.3125 14.984375 27.296875 
Q 14.984375 17.28125 19.8125 11.734375 
Q 24.65625 6.203125 33.40625 6.203125 
Q 37.3125 6.203125 41.140625 7.25 
Q 44.96875 8.296875 48.78125 10.40625 
L 48.78125 2.09375 
Q 45.015625 0.34375 40.984375 -0.53125 
Q 36.96875 -1.421875 32.421875 -1.421875 
Q 20.0625 -1.421875 12.78125 6.34375 
Q 5.515625 14.109375 5.515625 27.296875 
Q 5.515625 40.671875 12.859375 48.328125 
Q 20.21875 56 33.015625 56 
Q 37.15625 56 41.109375 55.140625 
Q 45.0625 54.296875 48.78125 52.59375 
z
" id="DejaVuSans-99"/>
      <path d="M 37.109375 75.984375 
L 37.109375 68.5 
L 28.515625 68.5 
Q 23.6875 68.5 21.796875 66.546875 
Q 19.921875 64.59375 19.921875 59.515625 
L 19.921875 54.6875 
L 34.71875 54.6875 
L 34.71875 47.703125 
L 19.921875 47.703125 
L 19.921875 0 
L 10.890625 0 
L 10.890625 47.703125 
L 2.296875 47.703125 
L 2.296875 54.6875 
L 10.890625 54.6875 
L 10.890625 58.5 
Q 10.890625 67.625 15.140625 71.796875 
Q 19.390625 75.984375 28.609375 75.984375 
z
" id="DejaVuSans-102"/>
      <path d="M 31 75.875 
Q 24.46875 64.65625 21.28125 53.65625 
Q 18.109375 42.671875 18.109375 31.390625 
Q 18.109375 20.125 21.3125 9.0625 
Q 24.515625 -2 31 -13.1875 
L 23.1875 -13.1875 
Q 15.875 -1.703125 12.234375 9.375 
Q 8.59375 20.453125 8.59375 31.390625 
Q 8.59375 42.28125 12.203125 53.3125 
Q 15.828125 64.359375 23.1875 75.875 
z
" id="DejaVuSans-40"/>
      <path d="M 9.8125 72.90625 
L 24.515625 72.90625 
L 43.109375 23.296875 
L 61.8125 72.90625 
L 76.515625 72.90625 
L 76.515625 0 
L 66.890625 0 
L 66.890625 64.015625 
L 48.09375 14.015625 
L 38.1875 14.015625 
L 19.390625 64.015625 
L 19.390625 0 
L 9.8125 0 
z
" id="DejaVuSans-77"/>
      <path d="M 28.609375 0 
L 0.78125 72.90625 
L 11.078125 72.90625 
L 34.1875 11.53125 
L 57.328125 72.90625 
L 67.578125 72.90625 
L 39.796875 0 
z
" id="DejaVuSans-86"/>
      <path d="M 25.390625 72.90625 
L 33.6875 72.90625 
L 8.296875 -9.28125 
L 0 -9.28125 
z
" id="DejaVuSans-47"/>
      <path d="M 8.015625 75.875 
L 15.828125 75.875 
Q 23.140625 64.359375 26.78125 53.3125 
Q 30.421875 42.28125 30.421875 31.390625 
Q 30.421875 20.453125 26.78125 9.375 
Q 23.140625 -1.703125 15.828125 -13.1875 
L 8.015625 -13.1875 
Q 14.5 -2 17.703125 9.0625 
Q 20.90625 20.125 20.90625 31.390625 
Q 20.90625 42.671875 17.703125 53.65625 
Q 14.5 64.65625 8.015625 75.875 
z
" id="DejaVuSans-41"/>
     </defs>
     <g transform="translate(82.581839 332.678284)scale(0.09 -0.09)">
      <use xlink:href="#DejaVuSans-98"/>
      <use x="63.476562" xlink:href="#DejaVuSans-105"/>
      <use x="91.259766" xlink:href="#DejaVuSans-97"/>
      <use x="152.539062" xlink:href="#DejaVuSans-115"/>
      <use x="204.638672" xlink:href="#DejaVuSans-32"/>
      <use x="236.425781" xlink:href="#DejaVuSans-101"/>
      <use x="297.949219" xlink:href="#DejaVuSans-108"/>
      <use x="325.732422" xlink:href="#DejaVuSans-101"/>
      <use x="387.255859" xlink:href="#DejaVuSans-99"/>
      <use x="442.236328" xlink:href="#DejaVuSans-116"/>
      <use x="481.445312" xlink:href="#DejaVuSans-114"/>
      <use x="522.558594" xlink:href="#DejaVuSans-105"/>
      <use x="550.341797" xlink:href="#DejaVuSans-99"/>
      <use x="605.322266" xlink:href="#DejaVuSans-32"/>
      <use x="637.109375" xlink:href="#DejaVuSans-102"/>
      <use x="672.314453" xlink:href="#DejaVuSans-105"/>
      <use x="700.097656" xlink:href="#DejaVuSans-101"/>
      <use x="761.621094" xlink:href="#DejaVuSans-108"/>
      <use x="789.404297" xlink:href="#DejaVuSans-100"/>
      <use x="852.880859" xlink:href="#DejaVuSans-32"/>
      <use x="884.667969" xlink:href="#DejaVuSans-40"/>
      <use x="923.681641" xlink:href="#DejaVuSans-77"/>
      <use x="1009.960938" xlink:href="#DejaVuSans-86"/>
      <use x="1078.369141" xlink:href="#DejaVuSans-47"/>
      <use x="1112.060547" xlink:href="#DejaVuSans-109"/>
      <use x="1209.472656" xlink:href="#DejaVuSans-41"/>
     </g>
    </g>
   </g>
   <g id="matplotlib.axis_6">
    <g id="ytick_15">
     <g id="line2d_50">
      <g>
       <use style="stroke:#000000;stroke-width:0.8;" x="57.6" xlink:href="#m282d560ea1" y="294.436174"/>
      </g>
     </g>
     <g id="text_30">
      <!-- 0.6 -->
      <g transform="translate(38.677427 297.284448)scale(0.07497 -0.07497)">
       <use xlink:href="#DejaVuSans-48"/>
       <use x="63.623047" xlink:href="#DejaVuSans-46"/>
       <use x="95.410156" xlink:href="#DejaVuSans-54"/>
      </g>
     </g>
    </g>
    <g id="ytick_16">
     <g id="line2d_51">
      <g>
       <use style="stroke:#000000;stroke-width:0.8;" x="57.6" xlink:href="#m282d560ea1" y="268.140522"/>
      </g>
     </g>
     <g id="text_31">
      <!-- 0.7 -->
      <g transform="translate(38.677427 270.988796)scale(0.07497 -0.07497)">
       <use xlink:href="#DejaVuSans-48"/>
       <use x="63.623047" xlink:href="#DejaVuSans-46"/>
       <use x="95.410156" xlink:href="#DejaVuSans-55"/>
      </g>
     </g>
    </g>
    <g id="ytick_17">
     <g id="line2d_52">
      <g>
       <use style="stroke:#000000;stroke-width:0.8;" x="57.6" xlink:href="#m282d560ea1" y="241.84487"/>
      </g>
     </g>
     <g id="text_32">
      <!-- 0.8 -->
      <g transform="translate(38.677427 244.693144)scale(0.07497 -0.07497)">
       <use xlink:href="#DejaVuSans-48"/>
       <use x="63.623047" xlink:href="#DejaVuSans-46"/>
       <use x="95.410156" xlink:href="#DejaVuSans-56"/>
      </g>
     </g>
    </g>
    <g id="ytick_18">
     <g id="line2d_53">
      <g>
       <use style="stroke:#000000;stroke-width:0.8;" x="57.6" xlink:href="#m282d560ea1" y="215.549217"/>
      </g>
     </g>
     <g id="text_33">
      <!-- 0.9 -->
      <g transform="translate(38.677427 218.397492)scale(0.07497 -0.07497)">
       <use xlink:href="#DejaVuSans-48"/>
       <use x="63.623047" xlink:href="#DejaVuSans-46"/>
       <use x="95.410156" xlink:href="#DejaVuSans-57"/>
      </g>
     </g>
    </g>
    <g id="ytick_19">
     <g id="line2d_54">
      <g>
       <use style="stroke:#000000;stroke-width:0.8;" x="57.6" xlink:href="#m282d560ea1" y="189.253565"/>
      </g>
     </g>
     <g id="text_34">
      <!-- 1.0 -->
      <g transform="translate(38.677427 192.10184)scale(0.07497 -0.07497)">
       <use xlink:href="#DejaVuSans-49"/>
       <use x="63.623047" xlink:href="#DejaVuSans-46"/>
       <use x="95.410156" xlink:href="#DejaVuSans-48"/>
      </g>
     </g>
    </g>
    <g id="text_35">
     <!-- normalized loss tangent -->
     <defs>
      <path d="M 45.40625 27.984375 
Q 45.40625 37.75 41.375 43.109375 
Q 37.359375 48.484375 30.078125 48.484375 
Q 22.859375 48.484375 18.828125 43.109375 
Q 14.796875 37.75 14.796875 27.984375 
Q 14.796875 18.265625 18.828125 12.890625 
Q 22.859375 7.515625 30.078125 7.515625 
Q 37.359375 7.515625 41.375 12.890625 
Q 45.40625 18.265625 45.40625 27.984375 
z
M 54.390625 6.78125 
Q 54.390625 -7.171875 48.1875 -13.984375 
Q 42 -20.796875 29.203125 -20.796875 
Q 24.46875 -20.796875 20.265625 -20.09375 
Q 16.0625 -19.390625 12.109375 -17.921875 
L 12.109375 -9.1875 
Q 16.0625 -11.328125 19.921875 -12.34375 
Q 23.78125 -13.375 27.78125 -13.375 
Q 36.625 -13.375 41.015625 -8.765625 
Q 45.40625 -4.15625 45.40625 5.171875 
L 45.40625 9.625 
Q 42.625 4.78125 38.28125 2.390625 
Q 33.9375 0 27.875 0 
Q 17.828125 0 11.671875 7.65625 
Q 5.515625 15.328125 5.515625 27.984375 
Q 5.515625 40.671875 11.671875 48.328125 
Q 17.828125 56 27.875 56 
Q 33.9375 56 38.28125 53.609375 
Q 42.625 51.21875 45.40625 46.390625 
L 45.40625 54.6875 
L 54.390625 54.6875 
z
" id="DejaVuSans-103"/>
     </defs>
     <g transform="translate(32.805708 301.355016)rotate(-90)scale(0.09 -0.09)">
      <use xlink:href="#DejaVuSans-110"/>
      <use x="63.378906" xlink:href="#DejaVuSans-111"/>
      <use x="124.560547" xlink:href="#DejaVuSans-114"/>
      <use x="165.658203" xlink:href="#DejaVuSans-109"/>
      <use x="263.070312" xlink:href="#DejaVuSans-97"/>
      <use x="324.349609" xlink:href="#DejaVuSans-108"/>
      <use x="352.132812" xlink:href="#DejaVuSans-105"/>
      <use x="379.916016" xlink:href="#DejaVuSans-122"/>
      <use x="432.40625" xlink:href="#DejaVuSans-101"/>
      <use x="493.929688" xlink:href="#DejaVuSans-100"/>
      <use x="557.40625" xlink:href="#DejaVuSans-32"/>
      <use x="589.193359" xlink:href="#DejaVuSans-108"/>
      <use x="616.976562" xlink:href="#DejaVuSans-111"/>
      <use x="678.158203" xlink:href="#DejaVuSans-115"/>
      <use x="730.257812" xlink:href="#DejaVuSans-115"/>
      <use x="782.357422" xlink:href="#DejaVuSans-32"/>
      <use x="814.144531" xlink:href="#DejaVuSans-116"/>
      <use x="853.353516" xlink:href="#DejaVuSans-97"/>
      <use x="914.632812" xlink:href="#DejaVuSans-110"/>
      <use x="978.011719" xlink:href="#DejaVuSans-103"/>
      <use x="1041.488281" xlink:href="#DejaVuSans-101"/>
      <use x="1103.011719" xlink:href="#DejaVuSans-110"/>
      <use x="1166.390625" xlink:href="#DejaVuSans-116"/>
     </g>
    </g>
   </g>
   <g id="line2d_55">
    <path clip-path="url(#p6b1397145f)" d="M 57.6 193.628281 
L 73.832727 193.693187 
L 90.065455 193.90998 
L 106.298182 194.336061 
L 122.530909 195.036105 
L 138.763636 196.051904 
L 154.996364 197.350037 
L 171.229091 198.757459 
L 187.461818 200.119666 
L 203.694545 201.334879 
L 219.927273 202.399295 
" style="fill:none;stroke:#1f77b4;stroke-linecap:square;stroke-width:1.5;"/>
   </g>
   <g id="line2d_56">
    <path clip-path="url(#p6b1397145f)" d="M 57.6 202.709896 
L 73.832727 202.91616 
L 90.065455 203.662951 
L 106.298182 205.150737 
L 122.530909 207.405221 
L 138.763636 210.233172 
L 154.996364 213.171135 
L 171.229091 215.97046 
L 187.461818 218.485294 
L 203.694545 220.605728 
L 219.927273 222.498508 
" style="fill:none;stroke:#ff7f0e;stroke-linecap:square;stroke-width:1.5;"/>
   </g>
   <g id="line2d_57">
    <path clip-path="url(#p6b1397145f)" d="M 57.6 214.138313 
L 73.832727 214.431898 
L 90.065455 215.502321 
L 106.298182 217.78788 
L 122.530909 221.18204 
L 138.763636 225.129185 
L 154.996364 228.970018 
L 171.229091 232.372292 
L 187.461818 235.366276 
L 203.694545 237.933603 
L 219.927273 240.163832 
" style="fill:none;stroke:#2ca02c;stroke-linecap:square;stroke-width:1.5;"/>
   </g>
   <g id="line2d_58">
    <path clip-path="url(#p6b1397145f)" d="M 57.6 234.091055 
L 73.832727 234.391124 
L 90.065455 235.570425 
L 106.298182 238.025985 
L 122.530909 241.49921 
L 138.763636 245.52044 
L 154.996364 249.483664 
L 171.229091 252.946341 
L 187.461818 255.914354 
L 203.694545 258.459855 
L 219.927273 260.638867 
" style="fill:none;stroke:#d62728;stroke-linecap:square;stroke-width:1.5;"/>
   </g>
   <g id="line2d_59">
    <path clip-path="url(#p6b1397145f)" d="M 57.6 269.996732 
L 73.832727 270.200277 
L 90.065455 270.914424 
L 106.298182 272.684825 
L 122.530909 275.440831 
L 138.763636 278.713667 
L 154.996364 282.258901 
L 171.229091 285.596884 
L 187.461818 288.534478 
L 203.694545 291.116963 
L 219.927273 293.309187 
" style="fill:none;stroke:#9467bd;stroke-linecap:square;stroke-width:1.5;"/>
   </g>
   <g id="patch_13">
    <path d="M 57.6 307.584 
L 57.6 186.624 
" style="fill:none;stroke:#000000;stroke-linecap:square;stroke-linejoin:miter;stroke-width:0.8;"/>
   </g>
   <g id="patch_14">
    <path d="M 219.927273 307.584 
L 219.927273 186.624 
" style="fill:none;stroke:#000000;stroke-linecap:square;stroke-linejoin:miter;stroke-width:0.8;"/>
   </g>
   <g id="patch_15">
    <path d="M 57.6 307.584 
L 219.927273 307.584 
" style="fill:none;stroke:#000000;stroke-linecap:square;stroke-linejoin:miter;stroke-width:0.8;"/>
   </g>
   <g id="patch_16">
    <path d="M 57.6 186.624 
L 219.927273 186.624 
" style="fill:none;stroke:#000000;stroke-linecap:square;stroke-linejoin:miter;stroke-width:0.8;"/>
   </g>
   <g id="text_36">
    <!-- b -->
    <defs>
     <path d="M 37.5 11.28125 
Q 43.109375 11.28125 46.0625 15.375 
Q 49.03125 19.484375 49.03125 27.296875 
Q 49.03125 35.109375 46.0625 39.203125 
Q 43.109375 43.3125 37.5 43.3125 
Q 31.890625 43.3125 28.875 39.1875 
Q 25.875 35.0625 25.875 27.296875 
Q 25.875 19.53125 28.875 15.40625 
Q 31.890625 11.28125 37.5 11.28125 
z
M 25.875 46.6875 
Q 29.5 51.46875 33.890625 53.734375 
Q 38.28125 56 44 56 
Q 54.109375 56 60.59375 47.96875 
Q 67.09375 39.9375 67.09375 27.296875 
Q 67.09375 14.65625 60.59375 6.609375 
Q 54.109375 -1.421875 44 -1.421875 
Q 38.28125 -1.421875 33.890625 0.84375 
Q 29.5 3.125 25.875 7.90625 
L 25.875 0 
L 8.40625 0 
L 8.40625 75.984375 
L 25.875 75.984375 
z
" id="DejaVuSans-Bold-98"/>
    </defs>
    <g transform="translate(17.018182 180.576)scale(0.108 -0.108)">
     <use xlink:href="#DejaVuSans-Bold-98"/>
    </g>
   </g>
  </g>
  <g id="axes_4">
   <g id="patch_17">
    <path d="M 252.392727 307.584 
L 414.72 307.584 
L 414.72 186.624 
L 252.392727 186.624 
z
" style="fill:#ffffff;"/>
   </g>
   <g id="PolyCollection_16">
    <defs>
     <path d="M 252.392727 -140.398755 
L 252.392727 -126.258628 
L 268.625455 -124.519029 
L 284.858182 -119.340813 
L 301.090909 -111.056018 
L 317.323636 -100.504561 
L 333.556364 -88.76811 
L 349.789091 -76.983988 
L 366.021818 -66.205526 
L 382.254545 -56.968586 
L 398.487273 -49.138431 
L 414.72 -42.524986 
L 414.72 -49.698461 
L 414.72 -49.698461 
L 398.487273 -56.995098 
L 382.254545 -65.558337 
L 366.021818 -75.881247 
L 349.789091 -87.737867 
L 333.556364 -100.589888 
L 317.323636 -113.248162 
L 301.090909 -124.445704 
L 284.858182 -133.104131 
L 268.625455 -138.552609 
L 252.392727 -140.398755 
z
" id="m63ddd5202e" style="stroke:#1f77b4;stroke-opacity:0.2;"/>
    </defs>
    <g clip-path="url(#p579b3b3956)">
     <use style="fill:#1f77b4;fill-opacity:0.2;stroke:#1f77b4;stroke-opacity:0.2;" x="0" xlink:href="#m63ddd5202e" y="345.6"/>
    </g>
   </g>
   <g id="PolyCollection_17">
    <defs>
     <path d="M 252.392727 -140.880095 
L 252.392727 -119.143353 
L 268.625455 -117.514238 
L 284.858182 -112.512812 
L 301.090909 -104.342383 
L 317.323636 -93.91144 
L 333.556364 -82.905581 
L 349.789091 -72.713811 
L 366.021818 -63.655267 
L 382.254545 -55.939082 
L 398.487273 -49.613999 
L 414.72 -44.132456 
L 414.72 -63.396869 
L 414.72 -63.396869 
L 398.487273 -69.814925 
L 382.254545 -77.13935 
L 366.021818 -85.419373 
L 349.789091 -94.989093 
L 333.556364 -105.519967 
L 317.323636 -116.378458 
L 301.090909 -126.331011 
L 284.858182 -134.28884 
L 268.625455 -139.249021 
L 252.392727 -140.880095 
z
" id="m858446ec4a" style="stroke:#ff7f0e;stroke-opacity:0.2;"/>
    </defs>
    <g clip-path="url(#p579b3b3956)">
     <use style="fill:#ff7f0e;fill-opacity:0.2;stroke:#ff7f0e;stroke-opacity:0.2;" x="0" xlink:href="#m858446ec4a" y="345.6"/>
    </g>
   </g>
   <g id="PolyCollection_18">
    <defs>
     <path d="M 252.392727 -148.383883 
L 252.392727 -112.866953 
L 268.625455 -111.42524 
L 284.858182 -106.955324 
L 301.090909 -99.47411 
L 317.323636 -90.055501 
L 333.556364 -80.558765 
L 349.789091 -72.121641 
L 366.021818 -64.947496 
L 382.254545 -58.769176 
L 398.487273 -53.427821 
L 414.72 -48.803223 
L 414.72 -74.469569 
L 414.72 -74.469569 
L 398.487273 -80.495907 
L 382.254545 -87.321763 
L 366.021818 -95.229145 
L 349.789091 -104.209067 
L 333.556364 -114.144151 
L 317.323636 -124.434237 
L 301.090909 -134.108324 
L 284.858182 -142.002169 
L 268.625455 -146.826729 
L 252.392727 -148.383883 
z
" id="m6f5470aba4" style="stroke:#2ca02c;stroke-opacity:0.2;"/>
    </defs>
    <g clip-path="url(#p579b3b3956)">
     <use style="fill:#2ca02c;fill-opacity:0.2;stroke:#2ca02c;stroke-opacity:0.2;" x="0" xlink:href="#m6f5470aba4" y="345.6"/>
    </g>
   </g>
   <g id="PolyCollection_19">
    <defs>
     <path d="M 252.392727 -149.616083 
L 252.392727 -109.282275 
L 268.625455 -108.113799 
L 284.858182 -104.498875 
L 301.090909 -98.697886 
L 317.323636 -91.692851 
L 333.556364 -84.454206 
L 349.789091 -77.761487 
L 366.021818 -71.955 
L 382.254545 -66.811835 
L 398.487273 -62.248606 
L 414.72 -58.270956 
L 414.72 -87.084701 
L 414.72 -87.084701 
L 398.487273 -92.233092 
L 382.254545 -98.118384 
L 366.021818 -104.832245 
L 349.789091 -112.421238 
L 333.556364 -120.823081 
L 317.323636 -129.774229 
L 301.090909 -137.955249 
L 284.858182 -144.327858 
L 268.625455 -148.303601 
L 252.392727 -149.616083 
z
" id="m92d4018ade" style="stroke:#d62728;stroke-opacity:0.2;"/>
    </defs>
    <g clip-path="url(#p579b3b3956)">
     <use style="fill:#d62728;fill-opacity:0.2;stroke:#d62728;stroke-opacity:0.2;" x="0" xlink:href="#m92d4018ade" y="345.6"/>
    </g>
   </g>
   <g id="PolyCollection_20">
    <defs>
     <path d="M 252.392727 -140.74594 
L 252.392727 -110.348715 
L 268.625455 -109.569008 
L 284.858182 -107.049049 
L 301.090909 -103.055494 
L 317.323636 -98.170446 
L 333.556364 -92.949974 
L 349.789091 -87.702994 
L 366.021818 -82.740131 
L 382.254545 -78.269853 
L 398.487273 -74.24315 
L 414.72 -70.720186 
L 414.72 -91.866146 
L 414.72 -91.866146 
L 398.487273 -95.933172 
L 382.254545 -100.525296 
L 366.021818 -105.827966 
L 349.789091 -111.925795 
L 333.556364 -118.784952 
L 317.323636 -125.641889 
L 301.090909 -131.974539 
L 284.858182 -136.824945 
L 268.625455 -139.805523 
L 252.392727 -140.74594 
z
" id="m0b99a7e9a4" style="stroke:#9467bd;stroke-opacity:0.2;"/>
    </defs>
    <g clip-path="url(#p579b3b3956)">
     <use style="fill:#9467bd;fill-opacity:0.2;stroke:#9467bd;stroke-opacity:0.2;" x="0" xlink:href="#m0b99a7e9a4" y="345.6"/>
    </g>
   </g>
   <g id="matplotlib.axis_7">
    <g id="xtick_16">
     <g id="line2d_60">
      <g>
       <use style="stroke:#000000;stroke-width:0.8;" x="252.392727" xlink:href="#md0c39257fc" y="307.584"/>
      </g>
     </g>
     <g id="text_37">
      <!-- 0.0 -->
      <g transform="translate(246.431441 320.280549)scale(0.07497 -0.07497)">
       <use xlink:href="#DejaVuSans-48"/>
       <use x="63.623047" xlink:href="#DejaVuSans-46"/>
       <use x="95.410156" xlink:href="#DejaVuSans-48"/>
      </g>
     </g>
    </g>
    <g id="xtick_17">
     <g id="line2d_61">
      <g>
       <use style="stroke:#000000;stroke-width:0.8;" x="292.974545" xlink:href="#md0c39257fc" y="307.584"/>
      </g>
     </g>
     <g id="text_38">
      <!-- 0.5 -->
      <g transform="translate(287.013259 320.280549)scale(0.07497 -0.07497)">
       <use xlink:href="#DejaVuSans-48"/>
       <use x="63.623047" xlink:href="#DejaVuSans-46"/>
       <use x="95.410156" xlink:href="#DejaVuSans-53"/>
      </g>
     </g>
    </g>
    <g id="xtick_18">
     <g id="line2d_62">
      <g>
       <use style="stroke:#000000;stroke-width:0.8;" x="333.556364" xlink:href="#md0c39257fc" y="307.584"/>
      </g>
     </g>
     <g id="text_39">
      <!-- 1.0 -->
      <g transform="translate(327.595077 320.280549)scale(0.07497 -0.07497)">
       <use xlink:href="#DejaVuSans-49"/>
       <use x="63.623047" xlink:href="#DejaVuSans-46"/>
       <use x="95.410156" xlink:href="#DejaVuSans-48"/>
      </g>
     </g>
    </g>
    <g id="xtick_19">
     <g id="line2d_63">
      <g>
       <use style="stroke:#000000;stroke-width:0.8;" x="374.138182" xlink:href="#md0c39257fc" y="307.584"/>
      </g>
     </g>
     <g id="text_40">
      <!-- 1.5 -->
      <g transform="translate(368.176895 320.280549)scale(0.07497 -0.07497)">
       <use xlink:href="#DejaVuSans-49"/>
       <use x="63.623047" xlink:href="#DejaVuSans-46"/>
       <use x="95.410156" xlink:href="#DejaVuSans-53"/>
      </g>
     </g>
    </g>
    <g id="xtick_20">
     <g id="line2d_64">
      <g>
       <use style="stroke:#000000;stroke-width:0.8;" x="414.72" xlink:href="#md0c39257fc" y="307.584"/>
      </g>
     </g>
     <g id="text_41">
      <!-- 2.0 -->
      <g transform="translate(408.758714 320.280549)scale(0.07497 -0.07497)">
       <use xlink:href="#DejaVuSans-50"/>
       <use x="63.623047" xlink:href="#DejaVuSans-46"/>
       <use x="95.410156" xlink:href="#DejaVuSans-48"/>
      </g>
     </g>
    </g>
    <g id="text_42">
     <!-- bias electric field (MV/m) -->
     <g transform="translate(277.374567 332.678284)scale(0.09 -0.09)">
      <use xlink:href="#DejaVuSans-98"/>
      <use x="63.476562" xlink:href="#DejaVuSans-105"/>
      <use x="91.259766" xlink:href="#DejaVuSans-97"/>
      <use x="152.539062" xlink:href="#DejaVuSans-115"/>
      <use x="204.638672" xlink:href="#DejaVuSans-32"/>
      <use x="236.425781" xlink:href="#DejaVuSans-101"/>
      <use x="297.949219" xlink:href="#DejaVuSans-108"/>
      <use x="325.732422" xlink:href="#DejaVuSans-101"/>
      <use x="387.255859" xlink:href="#DejaVuSans-99"/>
      <use x="442.236328" xlink:href="#DejaVuSans-116"/>
      <use x="481.445312" xlink:href="#DejaVuSans-114"/>
      <use x="522.558594" xlink:href="#DejaVuSans-105"/>
      <use x="550.341797" xlink:href="#DejaVuSans-99"/>
      <use x="605.322266" xlink:href="#DejaVuSans-32"/>
      <use x="637.109375" xlink:href="#DejaVuSans-102"/>
      <use x="672.314453" xlink:href="#DejaVuSans-105"/>
      <use x="700.097656" xlink:href="#DejaVuSans-101"/>
      <use x="761.621094" xlink:href="#DejaVuSans-108"/>
      <use x="789.404297" xlink:href="#DejaVuSans-100"/>
      <use x="852.880859" xlink:href="#DejaVuSans-32"/>
      <use x="884.667969" xlink:href="#DejaVuSans-40"/>
      <use x="923.681641" xlink:href="#DejaVuSans-77"/>
      <use x="1009.960938" xlink:href="#DejaVuSans-86"/>
      <use x="1078.369141" xlink:href="#DejaVuSans-47"/>
      <use x="1112.060547" xlink:href="#DejaVuSans-109"/>
      <use x="1209.472656" xlink:href="#DejaVuSans-41"/>
     </g>
    </g>
   </g>
   <g id="matplotlib.axis_8">
    <g id="ytick_20">
     <g id="line2d_65">
      <g>
       <use style="stroke:#000000;stroke-width:0.8;" x="252.392727" xlink:href="#m282d560ea1" y="307.584"/>
      </g>
     </g>
     <g id="text_43">
      <!-- 0.5 -->
      <g transform="translate(233.470154 310.432274)scale(0.07497 -0.07497)">
       <use xlink:href="#DejaVuSans-48"/>
       <use x="63.623047" xlink:href="#DejaVuSans-46"/>
       <use x="95.410156" xlink:href="#DejaVuSans-53"/>
      </g>
     </g>
    </g>
    <g id="ytick_21">
     <g id="line2d_66">
      <g>
       <use style="stroke:#000000;stroke-width:0.8;" x="252.392727" xlink:href="#m282d560ea1" y="288.684"/>
      </g>
     </g>
     <g id="text_44">
      <!-- 0.6 -->
      <g transform="translate(233.470154 291.532274)scale(0.07497 -0.07497)">
       <use xlink:href="#DejaVuSans-48"/>
       <use x="63.623047" xlink:href="#DejaVuSans-46"/>
       <use x="95.410156" xlink:href="#DejaVuSans-54"/>
      </g>
     </g>
    </g>
    <g id="ytick_22">
     <g id="line2d_67">
      <g>
       <use style="stroke:#000000;stroke-width:0.8;" x="252.392727" xlink:href="#m282d560ea1" y="269.784"/>
      </g>
     </g>
     <g id="text_45">
      <!-- 0.7 -->
      <g transform="translate(233.470154 272.632274)scale(0.07497 -0.07497)">
       <use xlink:href="#DejaVuSans-48"/>
       <use x="63.623047" xlink:href="#DejaVuSans-46"/>
       <use x="95.410156" xlink:href="#DejaVuSans-55"/>
      </g>
     </g>
    </g>
    <g id="ytick_23">
     <g id="line2d_68">
      <g>
       <use style="stroke:#000000;stroke-width:0.8;" x="252.392727" xlink:href="#m282d560ea1" y="250.884"/>
      </g>
     </g>
     <g id="text_46">
      <!-- 0.8 -->
      <g transform="translate(233.470154 253.732274)scale(0.07497 -0.07497)">
       <use xlink:href="#DejaVuSans-48"/>
       <use x="63.623047" xlink:href="#DejaVuSans-46"/>
       <use x="95.410156" xlink:href="#DejaVuSans-56"/>
      </g>
     </g>
    </g>
    <g id="ytick_24">
     <g id="line2d_69">
      <g>
       <use style="stroke:#000000;stroke-width:0.8;" x="252.392727" xlink:href="#m282d560ea1" y="231.984"/>
      </g>
     </g>
     <g id="text_47">
      <!-- 0.9 -->
      <g transform="translate(233.470154 234.832274)scale(0.07497 -0.07497)">
       <use xlink:href="#DejaVuSans-48"/>
       <use x="63.623047" xlink:href="#DejaVuSans-46"/>
       <use x="95.410156" xlink:href="#DejaVuSans-57"/>
      </g>
     </g>
    </g>
    <g id="ytick_25">
     <g id="line2d_70">
      <g>
       <use style="stroke:#000000;stroke-width:0.8;" x="252.392727" xlink:href="#m282d560ea1" y="213.084"/>
      </g>
     </g>
     <g id="text_48">
      <!-- 1.0 -->
      <g transform="translate(233.470154 215.932274)scale(0.07497 -0.07497)">
       <use xlink:href="#DejaVuSans-49"/>
       <use x="63.623047" xlink:href="#DejaVuSans-46"/>
       <use x="95.410156" xlink:href="#DejaVuSans-48"/>
      </g>
     </g>
    </g>
    <g id="ytick_26">
     <g id="line2d_71">
      <g>
       <use style="stroke:#000000;stroke-width:0.8;" x="252.392727" xlink:href="#m282d560ea1" y="194.184"/>
      </g>
     </g>
     <g id="text_49">
      <!-- 1.1 -->
      <g transform="translate(233.470154 197.032274)scale(0.07497 -0.07497)">
       <use xlink:href="#DejaVuSans-49"/>
       <use x="63.623047" xlink:href="#DejaVuSans-46"/>
       <use x="95.410156" xlink:href="#DejaVuSans-49"/>
      </g>
     </g>
    </g>
    <g id="text_50">
     <!-- anisotropy factor -->
     <g transform="translate(227.598436 285.561422)rotate(-90)scale(0.09 -0.09)">
      <use xlink:href="#DejaVuSans-97"/>
      <use x="61.279297" xlink:href="#DejaVuSans-110"/>
      <use x="124.658203" xlink:href="#DejaVuSans-105"/>
      <use x="152.441406" xlink:href="#DejaVuSans-115"/>
      <use x="204.541016" xlink:href="#DejaVuSans-111"/>
      <use x="265.722656" xlink:href="#DejaVuSans-116"/>
      <use x="304.931641" xlink:href="#DejaVuSans-114"/>
      <use x="346.013672" xlink:href="#DejaVuSans-111"/>
      <use x="407.195312" xlink:href="#DejaVuSans-112"/>
      <use x="470.671875" xlink:href="#DejaVuSans-121"/>
      <use x="529.851562" xlink:href="#DejaVuSans-32"/>
      <use x="561.638672" xlink:href="#DejaVuSans-102"/>
      <use x="596.84375" xlink:href="#DejaVuSans-97"/>
      <use x="658.123047" xlink:href="#DejaVuSans-99"/>
      <use x="713.103516" xlink:href="#DejaVuSans-116"/>
      <use x="752.3125" xlink:href="#DejaVuSans-111"/>
      <use x="813.494141" xlink:href="#DejaVuSans-114"/>
     </g>
    </g>
   </g>
   <g id="line2d_72">
    <path clip-path="url(#p579b3b3956)" d="M 252.392727 212.271308 
L 268.625455 214.064181 
L 284.858182 219.377528 
L 301.090909 227.849139 
L 317.323636 238.723638 
L 333.556364 250.921001 
L 349.789091 263.239073 
L 366.021818 274.556614 
L 382.254545 284.336539 
L 398.487273 292.533236 
L 414.72 299.488277 
" style="fill:none;stroke:#1f77b4;stroke-linecap:square;stroke-width:1.5;"/>
   </g>
   <g id="line2d_73">
    <path clip-path="url(#p579b3b3956)" d="M 252.392727 215.588276 
L 268.625455 217.21837 
L 284.858182 222.199174 
L 301.090909 230.263303 
L 317.323636 240.455051 
L 333.556364 251.387226 
L 349.789091 261.748548 
L 366.021818 271.06268 
L 382.254545 279.060784 
L 398.487273 285.885538 
L 414.72 291.835337 
" style="fill:none;stroke:#ff7f0e;stroke-linecap:square;stroke-width:1.5;"/>
   </g>
   <g id="line2d_74">
    <path clip-path="url(#p579b3b3956)" d="M 252.392727 214.974582 
L 268.625455 216.474016 
L 284.858182 221.121254 
L 301.090909 228.808783 
L 317.323636 238.355131 
L 333.556364 248.248542 
L 349.789091 257.434646 
L 366.021818 265.511679 
L 382.254545 272.55453 
L 398.487273 278.638136 
L 414.72 283.963604 
" style="fill:none;stroke:#2ca02c;stroke-linecap:square;stroke-width:1.5;"/>
   </g>
   <g id="line2d_75">
    <path clip-path="url(#p579b3b3956)" d="M 252.392727 216.150821 
L 268.625455 217.3913 
L 284.858182 221.186634 
L 301.090909 227.273433 
L 317.323636 234.86646 
L 333.556364 242.961357 
L 349.789091 250.508637 
L 366.021818 257.206377 
L 382.254545 263.13489 
L 398.487273 268.359151 
L 414.72 272.922171 
" style="fill:none;stroke:#d62728;stroke-linecap:square;stroke-width:1.5;"/>
   </g>
   <g id="line2d_76">
    <path clip-path="url(#p579b3b3956)" d="M 252.392727 220.052672 
L 268.625455 220.912734 
L 284.858182 223.663003 
L 301.090909 228.084984 
L 317.323636 233.693833 
L 333.556364 239.732537 
L 349.789091 245.785606 
L 366.021818 251.315952 
L 382.254545 256.202426 
L 398.487273 260.511839 
L 414.72 264.306834 
" style="fill:none;stroke:#9467bd;stroke-linecap:square;stroke-width:1.5;"/>
   </g>
   <g id="patch_18">
    <path d="M 252.392727 307.584 
L 252.392727 186.624 
" style="fill:none;stroke:#000000;stroke-linecap:square;stroke-linejoin:miter;stroke-width:0.8;"/>
   </g>
   <g id="patch_19">
    <path d="M 414.72 307.584 
L 414.72 186.624 
" style="fill:none;stroke:#000000;stroke-linecap:square;stroke-linejoin:miter;stroke-width:0.8;"/>
   </g>
   <g id="patch_20">
    <path d="M 252.392727 307.584 
L 414.72 307.584 
" style="fill:none;stroke:#000000;stroke-linecap:square;stroke-linejoin:miter;stroke-width:0.8;"/>
   </g>
   <g id="patch_21">
    <path d="M 252.392727 186.624 
L 414.72 186.624 
" style="fill:none;stroke:#000000;stroke-linecap:square;stroke-linejoin:miter;stroke-width:0.8;"/>
   </g>
   <g id="text_51">
    <!-- d -->
    <defs>
     <path d="M 45.609375 46.6875 
L 45.609375 75.984375 
L 63.1875 75.984375 
L 63.1875 0 
L 45.609375 0 
L 45.609375 7.90625 
Q 42 3.078125 37.640625 0.828125 
Q 33.296875 -1.421875 27.59375 -1.421875 
Q 17.484375 -1.421875 10.984375 6.609375 
Q 4.5 14.65625 4.5 27.296875 
Q 4.5 39.9375 10.984375 47.96875 
Q 17.484375 56 27.59375 56 
Q 33.25 56 37.625 53.734375 
Q 42 51.46875 45.609375 46.6875 
z
M 34.078125 11.28125 
Q 39.703125 11.28125 42.65625 15.375 
Q 45.609375 19.484375 45.609375 27.296875 
Q 45.609375 35.109375 42.65625 39.203125 
Q 39.703125 43.3125 34.078125 43.3125 
Q 28.515625 43.3125 25.5625 39.203125 
Q 22.609375 35.109375 22.609375 27.296875 
Q 22.609375 19.484375 25.5625 15.375 
Q 28.515625 11.28125 34.078125 11.28125 
z
" id="DejaVuSans-Bold-100"/>
    </defs>
    <g transform="translate(211.810909 180.576)scale(0.108 -0.108)">
     <use xlink:href="#DejaVuSans-Bold-100"/>
    </g>
   </g>
  </g>
 </g>
 <defs>
  <clipPath id="p42185b34b4">
   <rect height="120.96" width="162.327273" x="57.6" y="41.472"/>
  </clipPath>
  <clipPath id="pe5e8332e7d">
   <rect height="120.96" width="162.327273" x="252.392727" y="41.472"/>
  </clipPath>
  <clipPath id="p6b1397145f">
   <rect height="120.96" width="162.327273" x="57.6" y="186.624"/>
  </clipPath>
  <clipPath id="p579b3b3956">
   <rect height="120.96" width="162.327273" x="252.392727" y="186.624"/>
  </clipPath>
 </defs>
</svg>
