<?xml version="1.0" encoding="utf-8" standalone="no"?>
<!DOCTYPE svg PUBLIC "-//W3C//DTD SVG 1.1//EN"
  "http://www.w3.org/Graphics/SVG/1.1/DTD/svg11.dtd">
<!-- Created with matplotlib (https://matplotlib.org/) -->
<svg height="284.4pt" version="1.1" viewBox="0 0 509.76 284.4" width="509.76pt" xmlns="http://www.w3.org/2000/svg" xmlns:xlink="http://www.w3.org/1999/xlink">
 <defs>
  <style type="text/css">
*{stroke-linecap:butt;stroke-linejoin:round;}
  </style>
 </defs>
 <g id="figure_1">
  <g id="patch_1">
   <path d="M 0 284.4 
L 509.76 284.4 
L 509.76 0 
L 0 0 
z
" style="fill:#ffffff;"/>
  </g>
  <g id="axes_1">
   <g id="patch_2">
    <path d="M 63.72 126.502597 
L 243.288724 126.502597 
L 243.288724 20.991429 
L 63.72 20.991429 
z
" style="fill:#ffffff;"/>
   </g>
   <g id="PolyCollection_1">
    <defs>
     <path d="M 63.72 -253.163632 
L 63.72 -247.905533 
L 81.676872 -246.818747 
L 99.633745 -243.593104 
L 117.590617 -238.443866 
L 135.547489 -231.905777 
L 153.504362 -224.696567 
L 171.461234 -217.512689 
L 189.418107 -210.998434 
L 207.374979 -205.424494 
L 225.331851 -200.712848 
L 243.288724 -196.70324 
L 243.288724 -198.739457 
L 243.288724 -198.739457 
L 225.331851 -203.12219 
L 207.374979 -208.232324 
L 189.418107 -214.34115 
L 171.461234 -221.365141 
L 153.504362 -229.028604 
L 135.547489 -236.646329 
L 117.590617 -243.421063 
L 99.633745 -248.695762 
L 81.676872 -252.02944 
L 63.72 -253.163632 
z
" id="m8ab0497259" style="stroke:#1f77b4;stroke-opacity:0.2;"/>
    </defs>
    <g clip-path="url(#p3a671ba367)">
     <use style="fill:#1f77b4;fill-opacity:0.2;stroke:#1f77b4;stroke-opacity:0.2;" x="0" xlink:href="#m8ab0497259" y="284.4"/>
    </g>
   </g>
   <g id="PolyCollection_2">
    <defs>
     <path d="M 63.72 -227.784269 
L 63.72 -221.598114 
L 81.676872 -220.756356 
L 99.633745 -218.184424 
L 117.590617 -214.04536 
L 135.547489 -208.894004 
L 153.504362 -203.563503 
L 171.461234 -198.717636 
L 189.418107 -194.437219 
L 207.374979 -190.766511 
L 225.331851 -187.722873 
L 243.288724 -185.073107 
L 243.288724 -188.352273 
L 243.288724 -188.352273 
L 225.331851 -191.441775 
L 207.374979 -195.010617 
L 189.418107 -199.104476 
L 171.461234 -203.910858 
L 153.504362 -209.309063 
L 135.547489 -214.928144 
L 117.590617 -220.132019 
L 99.633745 -224.296394 
L 81.676872 -226.911814 
L 63.72 -227.784269 
z
" id="m51cd29d492" style="stroke:#ff7f0e;stroke-opacity:0.2;"/>
    </defs>
    <g clip-path="url(#p3a671ba367)">
     <use style="fill:#ff7f0e;fill-opacity:0.2;stroke:#ff7f0e;stroke-opacity:0.2;" x="0" xlink:href="#m51cd29d492" y="284.4"/>
    </g>
   </g>
   <g id="PolyCollection_3">
    <defs>
     <path d="M 63.72 -208.34165 
L 63.72 -201.122728 
L 81.676872 -200.528549 
L 99.633745 -198.70454 
L 117.590617 -195.712307 
L 135.547489 -192.058065 
L 153.504362 -188.455535 
L 171.461234 -185.274395 
L 189.418107 -182.542678 
L 207.374979 -180.176849 
L 225.331851 -178.131696 
L 243.288724 -176.337965 
L 243.288724 -179.402153 
L 243.288724 -179.402153 
L 225.331851 -181.628462 
L 207.374979 -184.190882 
L 189.418107 -187.180512 
L 171.461234 -190.636177 
L 153.504362 -194.548884 
L 135.547489 -198.657244 
L 117.590617 -202.538999 
L 99.633745 -205.71845 
L 81.676872 -207.693699 
L 63.72 -208.34165 
z
" id="mf525acf7a2" style="stroke:#2ca02c;stroke-opacity:0.2;"/>
    </defs>
    <g clip-path="url(#p3a671ba367)">
     <use style="fill:#2ca02c;fill-opacity:0.2;stroke:#2ca02c;stroke-opacity:0.2;" x="0" xlink:href="#mf525acf7a2" y="284.4"/>
    </g>
   </g>
   <g id="PolyCollection_4">
    <defs>
     <path d="M 63.72 -191.062287 
L 63.72 -184.885793 
L 81.676872 -184.524961 
L 99.633745 -183.426704 
L 117.590617 -181.689835 
L 135.547489 -179.629666 
L 153.504362 -177.52846 
L 171.461234 -175.570706 
L 189.418107 -173.850664 
L 207.374979 -172.310099 
L 225.331851 -170.928564 
L 243.288724 -169.72614 
L 243.288724 -171.960201 
L 243.288724 -171.960201 
L 225.331851 -173.528465 
L 207.374979 -175.303382 
L 189.418107 -177.337758 
L 171.461234 -179.654163 
L 153.504362 -182.21085 
L 135.547489 -184.931762 
L 117.590617 -187.433067 
L 99.633745 -189.402323 
L 81.676872 -190.648143 
L 63.72 -191.062287 
z
" id="m5399212ebb" style="stroke:#d62728;stroke-opacity:0.2;"/>
    </defs>
    <g clip-path="url(#p3a671ba367)">
     <use style="fill:#d62728;fill-opacity:0.2;stroke:#d62728;stroke-opacity:0.2;" x="0" xlink:href="#m5399212ebb" y="284.4"/>
    </g>
   </g>
   <g id="PolyCollection_5">
    <defs>
     <path d="M 63.72 -174.814418 
L 63.72 -171.40089 
L 81.676872 -171.235626 
L 99.633745 -170.716175 
L 117.590617 -169.898803 
L 135.547489 -168.884488 
L 153.504362 -167.803676 
L 171.461234 -166.718922 
L 189.418107 -165.705284 
L 207.374979 -164.794289 
L 225.331851 -163.964643 
L 243.288724 -163.226161 
L 243.288724 -164.58436 
L 243.288724 -164.58436 
L 225.331851 -165.453478 
L 207.374979 -166.430181 
L 189.418107 -167.544334 
L 171.461234 -168.807719 
L 153.504362 -170.205104 
L 135.547489 -171.608774 
L 117.590617 -172.909888 
L 99.633745 -173.948524 
L 81.676872 -174.604861 
L 63.72 -174.814418 
z
" id="mdb852bf558" style="stroke:#9467bd;stroke-opacity:0.2;"/>
    </defs>
    <g clip-path="url(#p3a671ba367)">
     <use style="fill:#9467bd;fill-opacity:0.2;stroke:#9467bd;stroke-opacity:0.2;" x="0" xlink:href="#mdb852bf558" y="284.4"/>
    </g>
   </g>
   <g id="matplotlib.axis_1">
    <g id="xtick_1">
     <g id="line2d_1">
      <defs>
       <path d="M 0 0 
L 0 3.5 
" id="mb0181074aa" style="stroke:#000000;stroke-width:0.8;"/>
      </defs>
      <g>
       <use style="stroke:#000000;stroke-width:0.8;" x="63.72" xlink:href="#mb0181074aa" y="126.502597"/>
      </g>
     </g>
    </g>
    <g id="xtick_2">
     <g id="line2d_2">
      <g>
       <use style="stroke:#000000;stroke-width:0.8;" x="108.612181" xlink:href="#mb0181074aa" y="126.502597"/>
      </g>
     </g>
    </g>
    <g id="xtick_3">
     <g id="line2d_3">
      <g>
       <use style="stroke:#000000;stroke-width:0.8;" x="153.504362" xlink:href="#mb0181074aa" y="126.502597"/>
      </g>
     </g>
    </g>
    <g id="xtick_4">
     <g id="line2d_4">
      <g>
       <use style="stroke:#000000;stroke-width:0.8;" x="198.396543" xlink:href="#mb0181074aa" y="126.502597"/>
      </g>
     </g>
    </g>
    <g id="xtick_5">
     <g id="line2d_5">
      <g>
       <use style="stroke:#000000;stroke-width:0.8;" x="243.288724" xlink:href="#mb0181074aa" y="126.502597"/>
      </g>
     </g>
    </g>
   </g>
   <g id="matplotlib.axis_2">
    <g id="ytick_1">
     <g id="line2d_6">
      <defs>
       <path d="M 0 0 
L -3.5 0 
" id="m0bfd48255b" style="stroke:#000000;stroke-width:0.8;"/>
      </defs>
      <g>
       <use style="stroke:#000000;stroke-width:0.8;" x="63.72" xlink:href="#m0bfd48255b" y="113.313701"/>
      </g>
     </g>
     <g id="text_1">
      <!-- 0.2 -->
      <defs>
       <path d="M 31.78125 66.40625 
Q 24.171875 66.40625 20.328125 58.90625 
Q 16.5 51.421875 16.5 36.375 
Q 16.5 21.390625 20.328125 13.890625 
Q 24.171875 6.390625 31.78125 6.390625 
Q 39.453125 6.390625 43.28125 13.890625 
Q 47.125 21.390625 47.125 36.375 
Q 47.125 51.421875 43.28125 58.90625 
Q 39.453125 66.40625 31.78125 66.40625 
z
M 31.78125 74.21875 
Q 44.046875 74.21875 50.515625 64.515625 
Q 56.984375 54.828125 56.984375 36.375 
Q 56.984375 17.96875 50.515625 8.265625 
Q 44.046875 -1.421875 31.78125 -1.421875 
Q 19.53125 -1.421875 13.0625 8.265625 
Q 6.59375 17.96875 6.59375 36.375 
Q 6.59375 54.828125 13.0625 64.515625 
Q 19.53125 74.21875 31.78125 74.21875 
z
" id="DejaVuSans-48"/>
       <path d="M 10.6875 12.40625 
L 21 12.40625 
L 21 0 
L 10.6875 0 
z
" id="DejaVuSans-46"/>
       <path d="M 19.1875 8.296875 
L 53.609375 8.296875 
L 53.609375 0 
L 7.328125 0 
L 7.328125 8.296875 
Q 12.9375 14.109375 22.625 23.890625 
Q 32.328125 33.6875 34.8125 36.53125 
Q 39.546875 41.84375 41.421875 45.53125 
Q 43.3125 49.21875 43.3125 52.78125 
Q 43.3125 58.59375 39.234375 62.25 
Q 35.15625 65.921875 28.609375 65.921875 
Q 23.96875 65.921875 18.8125 64.3125 
Q 13.671875 62.703125 7.8125 59.421875 
L 7.8125 69.390625 
Q 13.765625 71.78125 18.9375 73 
Q 24.125 74.21875 28.421875 74.21875 
Q 39.75 74.21875 46.484375 68.546875 
Q 53.21875 62.890625 53.21875 53.421875 
Q 53.21875 48.921875 51.53125 44.890625 
Q 49.859375 40.875 45.40625 35.40625 
Q 44.1875 33.984375 37.640625 27.21875 
Q 31.109375 20.453125 19.1875 8.296875 
z
" id="DejaVuSans-50"/>
      </defs>
      <g transform="translate(44.797427 116.161976)scale(0.07497 -0.07497)">
       <use xlink:href="#DejaVuSans-48"/>
       <use x="63.623047" xlink:href="#DejaVuSans-46"/>
       <use x="95.410156" xlink:href="#DejaVuSans-50"/>
      </g>
     </g>
    </g>
    <g id="ytick_2">
     <g id="line2d_7">
      <g>
       <use style="stroke:#000000;stroke-width:0.8;" x="63.72" xlink:href="#m0bfd48255b" y="86.935909"/>
      </g>
     </g>
     <g id="text_2">
      <!-- 0.4 -->
      <defs>
       <path d="M 37.796875 64.3125 
L 12.890625 25.390625 
L 37.796875 25.390625 
z
M 35.203125 72.90625 
L 47.609375 72.90625 
L 47.609375 25.390625 
L 58.015625 25.390625 
L 58.015625 17.1875 
L 47.609375 17.1875 
L 47.609375 0 
L 37.796875 0 
L 37.796875 17.1875 
L 4.890625 17.1875 
L 4.890625 26.703125 
z
" id="DejaVuSans-52"/>
      </defs>
      <g transform="translate(44.797427 89.784183)scale(0.07497 -0.07497)">
       <use xlink:href="#DejaVuSans-48"/>
       <use x="63.623047" xlink:href="#DejaVuSans-46"/>
       <use x="95.410156" xlink:href="#DejaVuSans-52"/>
      </g>
     </g>
    </g>
    <g id="ytick_3">
     <g id="line2d_8">
      <g>
       <use style="stroke:#000000;stroke-width:0.8;" x="63.72" xlink:href="#m0bfd48255b" y="60.558117"/>
      </g>
     </g>
     <g id="text_3">
      <!-- 0.6 -->
      <defs>
       <path d="M 33.015625 40.375 
Q 26.375 40.375 22.484375 35.828125 
Q 18.609375 31.296875 18.609375 23.390625 
Q 18.609375 15.53125 22.484375 10.953125 
Q 26.375 6.390625 33.015625 6.390625 
Q 39.65625 6.390625 43.53125 10.953125 
Q 47.40625 15.53125 47.40625 23.390625 
Q 47.40625 31.296875 43.53125 35.828125 
Q 39.65625 40.375 33.015625 40.375 
z
M 52.59375 71.296875 
L 52.59375 62.3125 
Q 48.875 64.0625 45.09375 64.984375 
Q 41.3125 65.921875 37.59375 65.921875 
Q 27.828125 65.921875 22.671875 59.328125 
Q 17.53125 52.734375 16.796875 39.40625 
Q 19.671875 43.65625 24.015625 45.921875 
Q 28.375 48.1875 33.59375 48.1875 
Q 44.578125 48.1875 50.953125 41.515625 
Q 57.328125 34.859375 57.328125 23.390625 
Q 57.328125 12.15625 50.6875 5.359375 
Q 44.046875 -1.421875 33.015625 -1.421875 
Q 20.359375 -1.421875 13.671875 8.265625 
Q 6.984375 17.96875 6.984375 36.375 
Q 6.984375 53.65625 15.1875 63.9375 
Q 23.390625 74.21875 37.203125 74.21875 
Q 40.921875 74.21875 44.703125 73.484375 
Q 48.484375 72.75 52.59375 71.296875 
z
" id="DejaVuSans-54"/>
      </defs>
      <g transform="translate(44.797427 63.406391)scale(0.07497 -0.07497)">
       <use xlink:href="#DejaVuSans-48"/>
       <use x="63.623047" xlink:href="#DejaVuSans-46"/>
       <use x="95.410156" xlink:href="#DejaVuSans-54"/>
      </g>
     </g>
    </g>
    <g id="ytick_4">
     <g id="line2d_9">
      <g>
       <use style="stroke:#000000;stroke-width:0.8;" x="63.72" xlink:href="#m0bfd48255b" y="34.180325"/>
      </g>
     </g>
     <g id="text_4">
      <!-- 0.8 -->
      <defs>
       <path d="M 31.78125 34.625 
Q 24.75 34.625 20.71875 30.859375 
Q 16.703125 27.09375 16.703125 20.515625 
Q 16.703125 13.921875 20.71875 10.15625 
Q 24.75 6.390625 31.78125 6.390625 
Q 38.8125 6.390625 42.859375 10.171875 
Q 46.921875 13.96875 46.921875 20.515625 
Q 46.921875 27.09375 42.890625 30.859375 
Q 38.875 34.625 31.78125 34.625 
z
M 21.921875 38.8125 
Q 15.578125 40.375 12.03125 44.71875 
Q 8.5 49.078125 8.5 55.328125 
Q 8.5 64.0625 14.71875 69.140625 
Q 20.953125 74.21875 31.78125 74.21875 
Q 42.671875 74.21875 48.875 69.140625 
Q 55.078125 64.0625 55.078125 55.328125 
Q 55.078125 49.078125 51.53125 44.71875 
Q 48 40.375 41.703125 38.8125 
Q 48.828125 37.15625 52.796875 32.3125 
Q 56.78125 27.484375 56.78125 20.515625 
Q 56.78125 9.90625 50.3125 4.234375 
Q 43.84375 -1.421875 31.78125 -1.421875 
Q 19.734375 -1.421875 13.25 4.234375 
Q 6.78125 9.90625 6.78125 20.515625 
Q 6.78125 27.484375 10.78125 32.3125 
Q 14.796875 37.15625 21.921875 38.8125 
z
M 18.3125 54.390625 
Q 18.3125 48.734375 21.84375 45.5625 
Q 25.390625 42.390625 31.78125 42.390625 
Q 38.140625 42.390625 41.71875 45.5625 
Q 45.3125 48.734375 45.3125 54.390625 
Q 45.3125 60.0625 41.71875 63.234375 
Q 38.140625 66.40625 31.78125 66.40625 
Q 25.390625 66.40625 21.84375 63.234375 
Q 18.3125 60.0625 18.3125 54.390625 
z
" id="DejaVuSans-56"/>
      </defs>
      <g transform="translate(44.797427 37.028599)scale(0.07497 -0.07497)">
       <use xlink:href="#DejaVuSans-48"/>
       <use x="63.623047" xlink:href="#DejaVuSans-46"/>
       <use x="95.410156" xlink:href="#DejaVuSans-56"/>
      </g>
     </g>
    </g>
    <g id="text_5">
     <!-- normalized permittivity -->
     <defs>
      <path d="M 54.890625 33.015625 
L 54.890625 0 
L 45.90625 0 
L 45.90625 32.71875 
Q 45.90625 40.484375 42.875 44.328125 
Q 39.84375 48.1875 33.796875 48.1875 
Q 26.515625 48.1875 22.3125 43.546875 
Q 18.109375 38.921875 18.109375 30.90625 
L 18.109375 0 
L 9.078125 0 
L 9.078125 54.6875 
L 18.109375 54.6875 
L 18.109375 46.1875 
Q 21.34375 51.125 25.703125 53.5625 
Q 30.078125 56 35.796875 56 
Q 45.21875 56 50.046875 50.171875 
Q 54.890625 44.34375 54.890625 33.015625 
z
" id="DejaVuSans-110"/>
      <path d="M 30.609375 48.390625 
Q 23.390625 48.390625 19.1875 42.75 
Q 14.984375 37.109375 14.984375 27.296875 
Q 14.984375 17.484375 19.15625 11.84375 
Q 23.34375 6.203125 30.609375 6.203125 
Q 37.796875 6.203125 41.984375 11.859375 
Q 46.1875 17.53125 46.1875 27.296875 
Q 46.1875 37.015625 41.984375 42.703125 
Q 37.796875 48.390625 30.609375 48.390625 
z
M 30.609375 56 
Q 42.328125 56 49.015625 48.375 
Q 55.71875 40.765625 55.71875 27.296875 
Q 55.71875 13.875 49.015625 6.21875 
Q 42.328125 -1.421875 30.609375 -1.421875 
Q 18.84375 -1.421875 12.171875 6.21875 
Q 5.515625 13.875 5.515625 27.296875 
Q 5.515625 40.765625 12.171875 48.375 
Q 18.84375 56 30.609375 56 
z
" id="DejaVuSans-111"/>
      <path d="M 41.109375 46.296875 
Q 39.59375 47.171875 37.8125 47.578125 
Q 36.03125 48 33.890625 48 
Q 26.265625 48 22.1875 43.046875 
Q 18.109375 38.09375 18.109375 28.8125 
L 18.109375 0 
L 9.078125 0 
L 9.078125 54.6875 
L 18.109375 54.6875 
L 18.109375 46.1875 
Q 20.953125 51.171875 25.484375 53.578125 
Q 30.03125 56 36.53125 56 
Q 37.453125 56 38.578125 55.875 
Q 39.703125 55.765625 41.0625 55.515625 
z
" id="DejaVuSans-114"/>
      <path d="M 52 44.1875 
Q 55.375 50.25 60.0625 53.125 
Q 64.75 56 71.09375 56 
Q 79.640625 56 84.28125 50.015625 
Q 88.921875 44.046875 88.921875 33.015625 
L 88.921875 0 
L 79.890625 0 
L 79.890625 32.71875 
Q 79.890625 40.578125 77.09375 44.375 
Q 74.3125 48.1875 68.609375 48.1875 
Q 61.625 48.1875 57.5625 43.546875 
Q 53.515625 38.921875 53.515625 30.90625 
L 53.515625 0 
L 44.484375 0 
L 44.484375 32.71875 
Q 44.484375 40.625 41.703125 44.40625 
Q 38.921875 48.1875 33.109375 48.1875 
Q 26.21875 48.1875 22.15625 43.53125 
Q 18.109375 38.875 18.109375 30.90625 
L 18.109375 0 
L 9.078125 0 
L 9.078125 54.6875 
L 18.109375 54.6875 
L 18.109375 46.1875 
Q 21.1875 51.21875 25.484375 53.609375 
Q 29.78125 56 35.6875 56 
Q 41.65625 56 45.828125 52.96875 
Q 50 49.953125 52 44.1875 
z
" id="DejaVuSans-109"/>
      <path d="M 34.28125 27.484375 
Q 23.390625 27.484375 19.1875 25 
Q 14.984375 22.515625 14.984375 16.5 
Q 14.984375 11.71875 18.140625 8.90625 
Q 21.296875 6.109375 26.703125 6.109375 
Q 34.1875 6.109375 38.703125 11.40625 
Q 43.21875 16.703125 43.21875 25.484375 
L 43.21875 27.484375 
z
M 52.203125 31.203125 
L 52.203125 0 
L 43.21875 0 
L 43.21875 8.296875 
Q 40.140625 3.328125 35.546875 0.953125 
Q 30.953125 -1.421875 24.3125 -1.421875 
Q 15.921875 -1.421875 10.953125 3.296875 
Q 6 8.015625 6 15.921875 
Q 6 25.140625 12.171875 29.828125 
Q 18.359375 34.515625 30.609375 34.515625 
L 43.21875 34.515625 
L 43.21875 35.40625 
Q 43.21875 41.609375 39.140625 45 
Q 35.0625 48.390625 27.6875 48.390625 
Q 23 48.390625 18.546875 47.265625 
Q 14.109375 46.140625 10.015625 43.890625 
L 10.015625 52.203125 
Q 14.9375 54.109375 19.578125 55.046875 
Q 24.21875 56 28.609375 56 
Q 40.484375 56 46.34375 49.84375 
Q 52.203125 43.703125 52.203125 31.203125 
z
" id="DejaVuSans-97"/>
      <path d="M 9.421875 75.984375 
L 18.40625 75.984375 
L 18.40625 0 
L 9.421875 0 
z
" id="DejaVuSans-108"/>
      <path d="M 9.421875 54.6875 
L 18.40625 54.6875 
L 18.40625 0 
L 9.421875 0 
z
M 9.421875 75.984375 
L 18.40625 75.984375 
L 18.40625 64.59375 
L 9.421875 64.59375 
z
" id="DejaVuSans-105"/>
      <path d="M 5.515625 54.6875 
L 48.1875 54.6875 
L 48.1875 46.484375 
L 14.40625 7.171875 
L 48.1875 7.171875 
L 48.1875 0 
L 4.296875 0 
L 4.296875 8.203125 
L 38.09375 47.515625 
L 5.515625 47.515625 
z
" id="DejaVuSans-122"/>
      <path d="M 56.203125 29.59375 
L 56.203125 25.203125 
L 14.890625 25.203125 
Q 15.484375 15.921875 20.484375 11.0625 
Q 25.484375 6.203125 34.421875 6.203125 
Q 39.59375 6.203125 44.453125 7.46875 
Q 49.3125 8.734375 54.109375 11.28125 
L 54.109375 2.78125 
Q 49.265625 0.734375 44.1875 -0.34375 
Q 39.109375 -1.421875 33.890625 -1.421875 
Q 20.796875 -1.421875 13.15625 6.1875 
Q 5.515625 13.8125 5.515625 26.8125 
Q 5.515625 40.234375 12.765625 48.109375 
Q 20.015625 56 32.328125 56 
Q 43.359375 56 49.78125 48.890625 
Q 56.203125 41.796875 56.203125 29.59375 
z
M 47.21875 32.234375 
Q 47.125 39.59375 43.09375 43.984375 
Q 39.0625 48.390625 32.421875 48.390625 
Q 24.90625 48.390625 20.390625 44.140625 
Q 15.875 39.890625 15.1875 32.171875 
z
" id="DejaVuSans-101"/>
      <path d="M 45.40625 46.390625 
L 45.40625 75.984375 
L 54.390625 75.984375 
L 54.390625 0 
L 45.40625 0 
L 45.40625 8.203125 
Q 42.578125 3.328125 38.25 0.953125 
Q 33.9375 -1.421875 27.875 -1.421875 
Q 17.96875 -1.421875 11.734375 6.484375 
Q 5.515625 14.40625 5.515625 27.296875 
Q 5.515625 40.1875 11.734375 48.09375 
Q 17.96875 56 27.875 56 
Q 33.9375 56 38.25 53.625 
Q 42.578125 51.265625 45.40625 46.390625 
z
M 14.796875 27.296875 
Q 14.796875 17.390625 18.875 11.75 
Q 22.953125 6.109375 30.078125 6.109375 
Q 37.203125 6.109375 41.296875 11.75 
Q 45.40625 17.390625 45.40625 27.296875 
Q 45.40625 37.203125 41.296875 42.84375 
Q 37.203125 48.484375 30.078125 48.484375 
Q 22.953125 48.484375 18.875 42.84375 
Q 14.796875 37.203125 14.796875 27.296875 
z
" id="DejaVuSans-100"/>
      <path id="DejaVuSans-32"/>
      <path d="M 18.109375 8.203125 
L 18.109375 -20.796875 
L 9.078125 -20.796875 
L 9.078125 54.6875 
L 18.109375 54.6875 
L 18.109375 46.390625 
Q 20.953125 51.265625 25.265625 53.625 
Q 29.59375 56 35.59375 56 
Q 45.5625 56 51.78125 48.09375 
Q 58.015625 40.1875 58.015625 27.296875 
Q 58.015625 14.40625 51.78125 6.484375 
Q 45.5625 -1.421875 35.59375 -1.421875 
Q 29.59375 -1.421875 25.265625 0.953125 
Q 20.953125 3.328125 18.109375 8.203125 
z
M 48.6875 27.296875 
Q 48.6875 37.203125 44.609375 42.84375 
Q 40.53125 48.484375 33.40625 48.484375 
Q 26.265625 48.484375 22.1875 42.84375 
Q 18.109375 37.203125 18.109375 27.296875 
Q 18.109375 17.390625 22.1875 11.75 
Q 26.265625 6.109375 33.40625 6.109375 
Q 40.53125 6.109375 44.609375 11.75 
Q 48.6875 17.390625 48.6875 27.296875 
z
" id="DejaVuSans-112"/>
      <path d="M 18.3125 70.21875 
L 18.3125 54.6875 
L 36.8125 54.6875 
L 36.8125 47.703125 
L 18.3125 47.703125 
L 18.3125 18.015625 
Q 18.3125 11.328125 20.140625 9.421875 
Q 21.96875 7.515625 27.59375 7.515625 
L 36.8125 7.515625 
L 36.8125 0 
L 27.59375 0 
Q 17.1875 0 13.234375 3.875 
Q 9.28125 7.765625 9.28125 18.015625 
L 9.28125 47.703125 
L 2.6875 47.703125 
L 2.6875 54.6875 
L 9.28125 54.6875 
L 9.28125 70.21875 
z
" id="DejaVuSans-116"/>
      <path d="M 2.984375 54.6875 
L 12.5 54.6875 
L 29.59375 8.796875 
L 46.6875 54.6875 
L 56.203125 54.6875 
L 35.6875 0 
L 23.484375 0 
z
" id="DejaVuSans-118"/>
      <path d="M 32.171875 -5.078125 
Q 28.375 -14.84375 24.75 -17.8125 
Q 21.140625 -20.796875 15.09375 -20.796875 
L 7.90625 -20.796875 
L 7.90625 -13.28125 
L 13.1875 -13.28125 
Q 16.890625 -13.28125 18.9375 -11.515625 
Q 21 -9.765625 23.484375 -3.21875 
L 25.09375 0.875 
L 2.984375 54.6875 
L 12.5 54.6875 
L 29.59375 11.921875 
L 46.6875 54.6875 
L 56.203125 54.6875 
z
" id="DejaVuSans-121"/>
     </defs>
     <g transform="translate(38.925708 126.488419)rotate(-90)scale(0.09 -0.09)">
      <use xlink:href="#DejaVuSans-110"/>
      <use x="63.378906" xlink:href="#DejaVuSans-111"/>
      <use x="124.560547" xlink:href="#DejaVuSans-114"/>
      <use x="165.658203" xlink:href="#DejaVuSans-109"/>
      <use x="263.070312" xlink:href="#DejaVuSans-97"/>
      <use x="324.349609" xlink:href="#DejaVuSans-108"/>
      <use x="352.132812" xlink:href="#DejaVuSans-105"/>
      <use x="379.916016" xlink:href="#DejaVuSans-122"/>
      <use x="432.40625" xlink:href="#DejaVuSans-101"/>
      <use x="493.929688" xlink:href="#DejaVuSans-100"/>
      <use x="557.40625" xlink:href="#DejaVuSans-32"/>
      <use x="589.193359" xlink:href="#DejaVuSans-112"/>
      <use x="652.669922" xlink:href="#DejaVuSans-101"/>
      <use x="714.193359" xlink:href="#DejaVuSans-114"/>
      <use x="755.291016" xlink:href="#DejaVuSans-109"/>
      <use x="852.703125" xlink:href="#DejaVuSans-105"/>
      <use x="880.486328" xlink:href="#DejaVuSans-116"/>
      <use x="919.695312" xlink:href="#DejaVuSans-116"/>
      <use x="958.904297" xlink:href="#DejaVuSans-105"/>
      <use x="986.6875" xlink:href="#DejaVuSans-118"/>
      <use x="1045.867188" xlink:href="#DejaVuSans-105"/>
      <use x="1073.650391" xlink:href="#DejaVuSans-116"/>
      <use x="1112.859375" xlink:href="#DejaVuSans-121"/>
     </g>
    </g>
   </g>
   <g id="line2d_10">
    <path clip-path="url(#p3a671ba367)" d="M 63.72 33.865417 
L 81.676872 34.975906 
L 99.633745 38.255567 
L 117.590617 43.467536 
L 135.547489 50.123947 
L 153.504362 57.537415 
L 171.461234 64.961085 
L 189.418107 71.730208 
L 207.374979 77.571591 
L 225.331851 82.482481 
L 243.288724 86.678651 
" style="fill:none;stroke:#1f77b4;stroke-linecap:square;stroke-width:1.5;"/>
   </g>
   <g id="line2d_11">
    <path clip-path="url(#p3a671ba367)" d="M 63.72 59.708809 
L 81.676872 60.565915 
L 99.633745 63.159591 
L 117.590617 67.31131 
L 135.547489 72.488926 
L 153.504362 77.963717 
L 171.461234 83.085753 
L 189.418107 87.629153 
L 207.374979 91.511436 
L 225.331851 94.817676 
L 243.288724 97.68731 
" style="fill:none;stroke:#ff7f0e;stroke-linecap:square;stroke-width:1.5;"/>
   </g>
   <g id="line2d_12">
    <path clip-path="url(#p3a671ba367)" d="M 63.72 79.667811 
L 81.676872 80.288876 
L 99.633745 82.188505 
L 117.590617 85.274347 
L 135.547489 89.042345 
L 153.504362 92.89779 
L 171.461234 96.444714 
L 189.418107 99.538405 
L 207.374979 102.216134 
L 225.331851 104.519921 
L 243.288724 106.529941 
" style="fill:none;stroke:#2ca02c;stroke-linecap:square;stroke-width:1.5;"/>
   </g>
   <g id="line2d_13">
    <path clip-path="url(#p3a671ba367)" d="M 63.72 96.42596 
L 81.676872 96.813448 
L 99.633745 97.985486 
L 117.590617 99.838549 
L 135.547489 102.119286 
L 153.504362 104.530345 
L 171.461234 106.787566 
L 189.418107 108.805789 
L 207.374979 110.593259 
L 225.331851 112.171485 
L 243.288724 113.556829 
" style="fill:none;stroke:#d62728;stroke-linecap:square;stroke-width:1.5;"/>
   </g>
   <g id="line2d_14">
    <path clip-path="url(#p3a671ba367)" d="M 63.72 111.292346 
L 81.676872 111.479756 
L 99.633745 112.067651 
L 117.590617 112.995654 
L 135.547489 114.153369 
L 153.504362 115.39561 
L 171.461234 116.636679 
L 189.418107 117.775191 
L 207.374979 118.787765 
L 225.331851 119.69094 
L 243.288724 120.494739 
" style="fill:none;stroke:#9467bd;stroke-linecap:square;stroke-width:1.5;"/>
   </g>
   <g id="patch_3">
    <path d="M 63.72 126.502597 
L 63.72 20.991429 
" style="fill:none;stroke:#000000;stroke-linecap:square;stroke-linejoin:miter;stroke-width:0.8;"/>
   </g>
   <g id="patch_4">
    <path d="M 243.288724 126.502597 
L 243.288724 20.991429 
" style="fill:none;stroke:#000000;stroke-linecap:square;stroke-linejoin:miter;stroke-width:0.8;"/>
   </g>
   <g id="patch_5">
    <path d="M 63.72 126.502597 
L 243.288724 126.502597 
" style="fill:none;stroke:#000000;stroke-linecap:square;stroke-linejoin:miter;stroke-width:0.8;"/>
   </g>
   <g id="patch_6">
    <path d="M 63.72 20.991429 
L 243.288724 20.991429 
" style="fill:none;stroke:#000000;stroke-linecap:square;stroke-linejoin:miter;stroke-width:0.8;"/>
   </g>
   <g id="text_6">
    <!-- a -->
    <defs>
     <path d="M 32.90625 24.609375 
Q 27.4375 24.609375 24.671875 22.75 
Q 21.921875 20.90625 21.921875 17.28125 
Q 21.921875 13.96875 24.140625 12.078125 
Q 26.375 10.203125 30.328125 10.203125 
Q 35.25 10.203125 38.625 13.734375 
Q 42 17.28125 42 22.609375 
L 42 24.609375 
z
M 59.625 31.203125 
L 59.625 0 
L 42 0 
L 42 8.109375 
Q 38.484375 3.125 34.078125 0.84375 
Q 29.6875 -1.421875 23.390625 -1.421875 
Q 14.890625 -1.421875 9.59375 3.53125 
Q 4.296875 8.5 4.296875 16.40625 
Q 4.296875 26.03125 10.90625 30.515625 
Q 17.53125 35.015625 31.6875 35.015625 
L 42 35.015625 
L 42 36.375 
Q 42 40.53125 38.71875 42.453125 
Q 35.453125 44.390625 28.515625 44.390625 
Q 22.90625 44.390625 18.0625 43.265625 
Q 13.234375 42.140625 9.078125 39.890625 
L 9.078125 53.21875 
Q 14.703125 54.59375 20.359375 55.296875 
Q 26.03125 56 31.6875 56 
Q 46.484375 56 53.046875 50.171875 
Q 59.625 44.34375 59.625 31.203125 
z
" id="DejaVuSans-Bold-97"/>
    </defs>
    <g transform="translate(18.827819 15.71587)scale(0.108 -0.108)">
     <use xlink:href="#DejaVuSans-Bold-97"/>
    </g>
   </g>
  </g>
  <g id="axes_2">
   <g id="patch_7">
    <path d="M 309.558134 126.502597 
L 489.126857 126.502597 
L 489.126857 20.991429 
L 309.558134 20.991429 
z
" style="fill:#ffffff;"/>
   </g>
   <g id="PolyCollection_6">
    <defs>
     <path d="M 309.558134 -239.961645 
L 309.558134 -239.961645 
L 327.515006 -239.871237 
L 345.471878 -239.657471 
L 363.428751 -239.429994 
L 381.385623 -239.40633 
L 399.342495 -239.503482 
L 417.299368 -239.434447 
L 435.25624 -238.473615 
L 453.213112 -236.609872 
L 471.169985 -233.666561 
L 489.126857 -230.006818 
L 489.126857 -238.699284 
L 489.126857 -238.699284 
L 471.169985 -242.381435 
L 453.213112 -245.482295 
L 435.25624 -246.909022 
L 417.299368 -246.356124 
L 399.342495 -244.638653 
L 381.385623 -242.777267 
L 363.428751 -241.337296 
L 345.471878 -240.419769 
L 327.515006 -240.039926 
L 309.558134 -239.961645 
z
" id="m505293ab36" style="stroke:#1f77b4;stroke-opacity:0.2;"/>
    </defs>
    <g clip-path="url(#pb1c058c85d)">
     <use style="fill:#1f77b4;fill-opacity:0.2;stroke:#1f77b4;stroke-opacity:0.2;" x="0" xlink:href="#m505293ab36" y="284.4"/>
    </g>
   </g>
   <g id="PolyCollection_7">
    <defs>
     <path d="M 309.558134 -239.961645 
L 309.558134 -239.961645 
L 327.515006 -239.779857 
L 345.471878 -239.39399 
L 363.428751 -238.95232 
L 381.385623 -238.218244 
L 399.342495 -237.280956 
L 417.299368 -235.612617 
L 435.25624 -232.719657 
L 453.213112 -228.356878 
L 471.169985 -223.029237 
L 489.126857 -217.415861 
L 489.126857 -230.352299 
L 489.126857 -230.352299 
L 471.169985 -236.272892 
L 453.213112 -241.950184 
L 435.25624 -246.556521 
L 417.299368 -249.40665 
L 399.342495 -249.920866 
L 381.385623 -247.591372 
L 363.428751 -244.128351 
L 345.471878 -241.519154 
L 327.515006 -240.240437 
L 309.558134 -239.961645 
z
" id="m9f7906c9e3" style="stroke:#ff7f0e;stroke-opacity:0.2;"/>
    </defs>
    <g clip-path="url(#pb1c058c85d)">
     <use style="fill:#ff7f0e;fill-opacity:0.2;stroke:#ff7f0e;stroke-opacity:0.2;" x="0" xlink:href="#m9f7906c9e3" y="284.4"/>
    </g>
   </g>
   <g id="PolyCollection_8">
    <defs>
     <path d="M 309.558134 -239.961645 
L 309.558134 -239.961645 
L 327.515006 -239.771204 
L 345.471878 -239.462005 
L 363.428751 -239.263495 
L 381.385623 -238.828121 
L 399.342495 -237.091586 
L 417.299368 -233.240769 
L 435.25624 -227.500131 
L 453.213112 -220.651461 
L 471.169985 -213.335682 
L 489.126857 -206.121685 
L 489.126857 -219.784574 
L 489.126857 -219.784574 
L 471.169985 -226.624043 
L 453.213112 -233.211911 
L 435.25624 -238.90265 
L 417.299368 -243.179997 
L 399.342495 -245.206304 
L 381.385623 -244.911183 
L 363.428751 -242.947487 
L 345.471878 -240.882285 
L 327.515006 -240.07416 
L 309.558134 -239.961645 
z
" id="mbd93619a02" style="stroke:#2ca02c;stroke-opacity:0.2;"/>
    </defs>
    <g clip-path="url(#pb1c058c85d)">
     <use style="fill:#2ca02c;fill-opacity:0.2;stroke:#2ca02c;stroke-opacity:0.2;" x="0" xlink:href="#mbd93619a02" y="284.4"/>
    </g>
   </g>
   <g id="PolyCollection_9">
    <defs>
     <path d="M 309.558134 -239.961645 
L 309.558134 -239.961645 
L 327.515006 -239.339145 
L 345.471878 -237.645602 
L 363.428751 -235.038839 
L 381.385623 -231.636858 
L 399.342495 -226.713993 
L 417.299368 -220.078938 
L 435.25624 -212.144803 
L 453.213112 -203.702585 
L 471.169985 -195.306696 
L 489.126857 -187.161668 
L 489.126857 -203.129035 
L 489.126857 -203.129035 
L 471.169985 -210.650595 
L 453.213112 -218.182465 
L 435.25624 -225.358952 
L 417.299368 -231.605639 
L 399.342495 -236.158008 
L 381.385623 -238.578633 
L 363.428751 -239.707392 
L 345.471878 -239.792539 
L 327.515006 -239.844651 
L 309.558134 -239.961645 
z
" id="mf57b816a40" style="stroke:#d62728;stroke-opacity:0.2;"/>
    </defs>
    <g clip-path="url(#pb1c058c85d)">
     <use style="fill:#d62728;fill-opacity:0.2;stroke:#d62728;stroke-opacity:0.2;" x="0" xlink:href="#mf57b816a40" y="284.4"/>
    </g>
   </g>
   <g id="PolyCollection_10">
    <defs>
     <path d="M 309.558134 -239.961645 
L 309.558134 -239.961645 
L 327.515006 -238.816298 
L 345.471878 -235.672354 
L 363.428751 -230.710247 
L 381.385623 -224.163349 
L 399.342495 -216.11227 
L 417.299368 -207.068998 
L 435.25624 -197.288559 
L 453.213112 -187.283583 
L 471.169985 -177.787898 
L 489.126857 -168.884616 
L 489.126857 -181.119313 
L 489.126857 -181.119313 
L 471.169985 -189.967953 
L 453.213112 -199.16105 
L 435.25624 -208.208705 
L 417.299368 -216.676077 
L 399.342495 -224.013249 
L 381.385623 -230.151959 
L 363.428751 -234.592577 
L 345.471878 -237.521957 
L 327.515006 -239.245999 
L 309.558134 -239.961645 
z
" id="m78c66e5698" style="stroke:#9467bd;stroke-opacity:0.2;"/>
    </defs>
    <g clip-path="url(#pb1c058c85d)">
     <use style="fill:#9467bd;fill-opacity:0.2;stroke:#9467bd;stroke-opacity:0.2;" x="0" xlink:href="#m78c66e5698" y="284.4"/>
    </g>
   </g>
   <g id="matplotlib.axis_3">
    <g id="xtick_6">
     <g id="line2d_15">
      <g>
       <use style="stroke:#000000;stroke-width:0.8;" x="309.558134" xlink:href="#mb0181074aa" y="126.502597"/>
      </g>
     </g>
    </g>
    <g id="xtick_7">
     <g id="line2d_16">
      <g>
       <use style="stroke:#000000;stroke-width:0.8;" x="354.450314" xlink:href="#mb0181074aa" y="126.502597"/>
      </g>
     </g>
    </g>
    <g id="xtick_8">
     <g id="line2d_17">
      <g>
       <use style="stroke:#000000;stroke-width:0.8;" x="399.342495" xlink:href="#mb0181074aa" y="126.502597"/>
      </g>
     </g>
    </g>
    <g id="xtick_9">
     <g id="line2d_18">
      <g>
       <use style="stroke:#000000;stroke-width:0.8;" x="444.234676" xlink:href="#mb0181074aa" y="126.502597"/>
      </g>
     </g>
    </g>
    <g id="xtick_10">
     <g id="line2d_19">
      <g>
       <use style="stroke:#000000;stroke-width:0.8;" x="489.126857" xlink:href="#mb0181074aa" y="126.502597"/>
      </g>
     </g>
    </g>
   </g>
   <g id="matplotlib.axis_4">
    <g id="ytick_5">
     <g id="line2d_20">
      <g>
       <use style="stroke:#000000;stroke-width:0.8;" x="309.558134" xlink:href="#m0bfd48255b" y="114.779134"/>
      </g>
     </g>
     <g id="text_7">
      <!-- 0.7 -->
      <defs>
       <path d="M 8.203125 72.90625 
L 55.078125 72.90625 
L 55.078125 68.703125 
L 28.609375 0 
L 18.3125 0 
L 43.21875 64.59375 
L 8.203125 64.59375 
z
" id="DejaVuSans-55"/>
      </defs>
      <g transform="translate(290.635561 117.627408)scale(0.07497 -0.07497)">
       <use xlink:href="#DejaVuSans-48"/>
       <use x="63.623047" xlink:href="#DejaVuSans-46"/>
       <use x="95.410156" xlink:href="#DejaVuSans-55"/>
      </g>
     </g>
    </g>
    <g id="ytick_6">
     <g id="line2d_21">
      <g>
       <use style="stroke:#000000;stroke-width:0.8;" x="309.558134" xlink:href="#m0bfd48255b" y="91.332208"/>
      </g>
     </g>
     <g id="text_8">
      <!-- 0.8 -->
      <g transform="translate(290.635561 94.180482)scale(0.07497 -0.07497)">
       <use xlink:href="#DejaVuSans-48"/>
       <use x="63.623047" xlink:href="#DejaVuSans-46"/>
       <use x="95.410156" xlink:href="#DejaVuSans-56"/>
      </g>
     </g>
    </g>
    <g id="ytick_7">
     <g id="line2d_22">
      <g>
       <use style="stroke:#000000;stroke-width:0.8;" x="309.558134" xlink:href="#m0bfd48255b" y="67.885281"/>
      </g>
     </g>
     <g id="text_9">
      <!-- 0.9 -->
      <defs>
       <path d="M 10.984375 1.515625 
L 10.984375 10.5 
Q 14.703125 8.734375 18.5 7.8125 
Q 22.3125 6.890625 25.984375 6.890625 
Q 35.75 6.890625 40.890625 13.453125 
Q 46.046875 20.015625 46.78125 33.40625 
Q 43.953125 29.203125 39.59375 26.953125 
Q 35.25 24.703125 29.984375 24.703125 
Q 19.046875 24.703125 12.671875 31.3125 
Q 6.296875 37.9375 6.296875 49.421875 
Q 6.296875 60.640625 12.9375 67.421875 
Q 19.578125 74.21875 30.609375 74.21875 
Q 43.265625 74.21875 49.921875 64.515625 
Q 56.59375 54.828125 56.59375 36.375 
Q 56.59375 19.140625 48.40625 8.859375 
Q 40.234375 -1.421875 26.421875 -1.421875 
Q 22.703125 -1.421875 18.890625 -0.6875 
Q 15.09375 0.046875 10.984375 1.515625 
z
M 30.609375 32.421875 
Q 37.25 32.421875 41.125 36.953125 
Q 45.015625 41.5 45.015625 49.421875 
Q 45.015625 57.28125 41.125 61.84375 
Q 37.25 66.40625 30.609375 66.40625 
Q 23.96875 66.40625 20.09375 61.84375 
Q 16.21875 57.28125 16.21875 49.421875 
Q 16.21875 41.5 20.09375 36.953125 
Q 23.96875 32.421875 30.609375 32.421875 
z
" id="DejaVuSans-57"/>
      </defs>
      <g transform="translate(290.635561 70.733556)scale(0.07497 -0.07497)">
       <use xlink:href="#DejaVuSans-48"/>
       <use x="63.623047" xlink:href="#DejaVuSans-46"/>
       <use x="95.410156" xlink:href="#DejaVuSans-57"/>
      </g>
     </g>
    </g>
    <g id="ytick_8">
     <g id="line2d_23">
      <g>
       <use style="stroke:#000000;stroke-width:0.8;" x="309.558134" xlink:href="#m0bfd48255b" y="44.438355"/>
      </g>
     </g>
     <g id="text_10">
      <!-- 1.0 -->
      <defs>
       <path d="M 12.40625 8.296875 
L 28.515625 8.296875 
L 28.515625 63.921875 
L 10.984375 60.40625 
L 10.984375 69.390625 
L 28.421875 72.90625 
L 38.28125 72.90625 
L 38.28125 8.296875 
L 54.390625 8.296875 
L 54.390625 0 
L 12.40625 0 
z
" id="DejaVuSans-49"/>
      </defs>
      <g transform="translate(290.635561 47.286629)scale(0.07497 -0.07497)">
       <use xlink:href="#DejaVuSans-49"/>
       <use x="63.623047" xlink:href="#DejaVuSans-46"/>
       <use x="95.410156" xlink:href="#DejaVuSans-48"/>
      </g>
     </g>
    </g>
    <g id="ytick_9">
     <g id="line2d_24">
      <g>
       <use style="stroke:#000000;stroke-width:0.8;" x="309.558134" xlink:href="#m0bfd48255b" y="20.991429"/>
      </g>
     </g>
     <g id="text_11">
      <!-- 1.1 -->
      <g transform="translate(290.635561 23.839703)scale(0.07497 -0.07497)">
       <use xlink:href="#DejaVuSans-49"/>
       <use x="63.623047" xlink:href="#DejaVuSans-46"/>
       <use x="95.410156" xlink:href="#DejaVuSans-49"/>
      </g>
     </g>
    </g>
    <g id="text_12">
     <!-- normalized tunability -->
     <defs>
      <path d="M 8.5 21.578125 
L 8.5 54.6875 
L 17.484375 54.6875 
L 17.484375 21.921875 
Q 17.484375 14.15625 20.5 10.265625 
Q 23.53125 6.390625 29.59375 6.390625 
Q 36.859375 6.390625 41.078125 11.03125 
Q 45.3125 15.671875 45.3125 23.6875 
L 45.3125 54.6875 
L 54.296875 54.6875 
L 54.296875 0 
L 45.3125 0 
L 45.3125 8.40625 
Q 42.046875 3.421875 37.71875 1 
Q 33.40625 -1.421875 27.6875 -1.421875 
Q 18.265625 -1.421875 13.375 4.4375 
Q 8.5 10.296875 8.5 21.578125 
z
M 31.109375 56 
z
" id="DejaVuSans-117"/>
      <path d="M 48.6875 27.296875 
Q 48.6875 37.203125 44.609375 42.84375 
Q 40.53125 48.484375 33.40625 48.484375 
Q 26.265625 48.484375 22.1875 42.84375 
Q 18.109375 37.203125 18.109375 27.296875 
Q 18.109375 17.390625 22.1875 11.75 
Q 26.265625 6.109375 33.40625 6.109375 
Q 40.53125 6.109375 44.609375 11.75 
Q 48.6875 17.390625 48.6875 27.296875 
z
M 18.109375 46.390625 
Q 20.953125 51.265625 25.265625 53.625 
Q 29.59375 56 35.59375 56 
Q 45.5625 56 51.78125 48.09375 
Q 58.015625 40.1875 58.015625 27.296875 
Q 58.015625 14.40625 51.78125 6.484375 
Q 45.5625 -1.421875 35.59375 -1.421875 
Q 29.59375 -1.421875 25.265625 0.953125 
Q 20.953125 3.328125 18.109375 8.203125 
L 18.109375 0 
L 9.078125 0 
L 9.078125 75.984375 
L 18.109375 75.984375 
z
" id="DejaVuSans-98"/>
     </defs>
     <g transform="translate(284.763842 121.520841)rotate(-90)scale(0.09 -0.09)">
      <use xlink:href="#DejaVuSans-110"/>
      <use x="63.378906" xlink:href="#DejaVuSans-111"/>
      <use x="124.560547" xlink:href="#DejaVuSans-114"/>
      <use x="165.658203" xlink:href="#DejaVuSans-109"/>
      <use x="263.070312" xlink:href="#DejaVuSans-97"/>
      <use x="324.349609" xlink:href="#DejaVuSans-108"/>
      <use x="352.132812" xlink:href="#DejaVuSans-105"/>
      <use x="379.916016" xlink:href="#DejaVuSans-122"/>
      <use x="432.40625" xlink:href="#DejaVuSans-101"/>
      <use x="493.929688" xlink:href="#DejaVuSans-100"/>
      <use x="557.40625" xlink:href="#DejaVuSans-32"/>
      <use x="589.193359" xlink:href="#DejaVuSans-116"/>
      <use x="628.402344" xlink:href="#DejaVuSans-117"/>
      <use x="691.78125" xlink:href="#DejaVuSans-110"/>
      <use x="755.160156" xlink:href="#DejaVuSans-97"/>
      <use x="816.439453" xlink:href="#DejaVuSans-98"/>
      <use x="879.916016" xlink:href="#DejaVuSans-105"/>
      <use x="907.699219" xlink:href="#DejaVuSans-108"/>
      <use x="935.482422" xlink:href="#DejaVuSans-105"/>
      <use x="963.265625" xlink:href="#DejaVuSans-116"/>
      <use x="1002.474609" xlink:href="#DejaVuSans-121"/>
     </g>
    </g>
   </g>
   <g id="line2d_25">
    <path clip-path="url(#pb1c058c85d)" d="M 309.558134 44.438355 
L 327.515006 44.444419 
L 345.471878 44.36138 
L 363.428751 44.016355 
L 381.385623 43.308202 
L 399.342495 42.328933 
L 417.299368 41.504714 
L 435.25624 41.708681 
L 453.213112 43.353917 
L 471.169985 46.376002 
L 489.126857 50.046949 
" style="fill:none;stroke:#1f77b4;stroke-linecap:square;stroke-width:1.5;"/>
   </g>
   <g id="line2d_26">
    <path clip-path="url(#pb1c058c85d)" d="M 309.558134 44.438355 
L 327.515006 44.389853 
L 345.471878 43.943428 
L 363.428751 42.859665 
L 381.385623 41.495192 
L 399.342495 40.799089 
L 417.299368 41.890367 
L 435.25624 44.761911 
L 453.213112 49.246469 
L 471.169985 54.748936 
L 489.126857 60.51592 
" style="fill:none;stroke:#ff7f0e;stroke-linecap:square;stroke-width:1.5;"/>
   </g>
   <g id="line2d_27">
    <path clip-path="url(#pb1c058c85d)" d="M 309.558134 44.438355 
L 327.515006 44.477318 
L 345.471878 44.227855 
L 363.428751 43.294509 
L 381.385623 42.530348 
L 399.342495 43.251055 
L 417.299368 46.189617 
L 435.25624 51.19861 
L 453.213112 57.468314 
L 471.169985 64.420137 
L 489.126857 71.446871 
" style="fill:none;stroke:#2ca02c;stroke-linecap:square;stroke-width:1.5;"/>
   </g>
   <g id="line2d_28">
    <path clip-path="url(#pb1c058c85d)" d="M 309.558134 44.438355 
L 327.515006 44.808102 
L 345.471878 45.68093 
L 363.428751 47.026884 
L 381.385623 49.292254 
L 399.342495 52.963999 
L 417.299368 58.557712 
L 435.25624 65.648123 
L 453.213112 73.457475 
L 471.169985 81.421354 
L 489.126857 89.254648 
" style="fill:none;stroke:#d62728;stroke-linecap:square;stroke-width:1.5;"/>
   </g>
   <g id="line2d_29">
    <path clip-path="url(#pb1c058c85d)" d="M 309.558134 44.438355 
L 327.515006 45.368851 
L 345.471878 47.802845 
L 363.428751 51.748588 
L 381.385623 57.242346 
L 399.342495 64.337241 
L 417.299368 72.527462 
L 435.25624 81.651368 
L 453.213112 91.177684 
L 471.169985 100.522074 
L 489.126857 109.398035 
" style="fill:none;stroke:#9467bd;stroke-linecap:square;stroke-width:1.5;"/>
   </g>
   <g id="patch_8">
    <path d="M 309.558134 126.502597 
L 309.558134 20.991429 
" style="fill:none;stroke:#000000;stroke-linecap:square;stroke-linejoin:miter;stroke-width:0.8;"/>
   </g>
   <g id="patch_9">
    <path d="M 489.126857 126.502597 
L 489.126857 20.991429 
" style="fill:none;stroke:#000000;stroke-linecap:square;stroke-linejoin:miter;stroke-width:0.8;"/>
   </g>
   <g id="patch_10">
    <path d="M 309.558134 126.502597 
L 489.126857 126.502597 
" style="fill:none;stroke:#000000;stroke-linecap:square;stroke-linejoin:miter;stroke-width:0.8;"/>
   </g>
   <g id="patch_11">
    <path d="M 309.558134 20.991429 
L 489.126857 20.991429 
" style="fill:none;stroke:#000000;stroke-linecap:square;stroke-linejoin:miter;stroke-width:0.8;"/>
   </g>
   <g id="text_13">
    <!-- c -->
    <defs>
     <path d="M 52.59375 52.984375 
L 52.59375 38.71875 
Q 49.03125 41.15625 45.4375 42.328125 
Q 41.84375 43.5 37.984375 43.5 
Q 30.671875 43.5 26.59375 39.234375 
Q 22.515625 34.96875 22.515625 27.296875 
Q 22.515625 19.625 26.59375 15.34375 
Q 30.671875 11.078125 37.984375 11.078125 
Q 42.09375 11.078125 45.78125 12.296875 
Q 49.46875 13.53125 52.59375 15.921875 
L 52.59375 1.609375 
Q 48.484375 0.09375 44.265625 -0.65625 
Q 40.046875 -1.421875 35.796875 -1.421875 
Q 21 -1.421875 12.640625 6.171875 
Q 4.296875 13.765625 4.296875 27.296875 
Q 4.296875 40.828125 12.640625 48.40625 
Q 21 56 35.796875 56 
Q 40.09375 56 44.265625 55.25 
Q 48.4375 54.5 52.59375 52.984375 
z
" id="DejaVuSans-Bold-99"/>
    </defs>
    <g transform="translate(264.665953 15.71587)scale(0.108 -0.108)">
     <use xlink:href="#DejaVuSans-Bold-99"/>
    </g>
   </g>
   <g id="legend_1">
    <g id="line2d_30">
     <path d="M 316.305434 71.555444 
L 331.299434 71.555444 
" style="fill:none;stroke:#1f77b4;stroke-linecap:square;stroke-width:1.5;"/>
    </g>
    <g id="line2d_31"/>
    <g id="text_14">
     <!-- $f=0.1$ -->
     <defs>
      <path d="M 47.796875 75.984375 
L 46.390625 68.5 
L 37.796875 68.5 
Q 32.90625 68.5 30.6875 66.578125 
Q 28.46875 64.65625 27.390625 59.515625 
L 26.421875 54.6875 
L 41.21875 54.6875 
L 39.890625 47.703125 
L 25.09375 47.703125 
L 15.828125 0 
L 6.78125 0 
L 16.109375 47.703125 
L 7.515625 47.703125 
L 8.796875 54.6875 
L 17.390625 54.6875 
L 18.109375 58.5 
Q 19.96875 68.171875 24.625 72.078125 
Q 29.296875 75.984375 39.3125 75.984375 
z
" id="DejaVuSans-Oblique-102"/>
      <path d="M 10.59375 45.40625 
L 73.1875 45.40625 
L 73.1875 37.203125 
L 10.59375 37.203125 
z
M 10.59375 25.484375 
L 73.1875 25.484375 
L 73.1875 17.1875 
L 10.59375 17.1875 
z
" id="DejaVuSans-61"/>
     </defs>
     <g transform="translate(337.297034 74.179394)scale(0.07497 -0.07497)">
      <use transform="translate(0 0.015625)" xlink:href="#DejaVuSans-Oblique-102"/>
      <use transform="translate(54.6875 0.015625)" xlink:href="#DejaVuSans-61"/>
      <use transform="translate(157.958984 0.015625)" xlink:href="#DejaVuSans-48"/>
      <use transform="translate(221.582031 0.015625)" xlink:href="#DejaVuSans-46"/>
      <use transform="translate(253.369141 0.015625)" xlink:href="#DejaVuSans-49"/>
     </g>
    </g>
    <g id="line2d_32">
     <path d="M 316.305434 82.559635 
L 331.299434 82.559635 
" style="fill:none;stroke:#ff7f0e;stroke-linecap:square;stroke-width:1.5;"/>
    </g>
    <g id="line2d_33"/>
    <g id="text_15">
     <!-- $f=0.2$ -->
     <g transform="translate(337.297034 85.183585)scale(0.07497 -0.07497)">
      <use transform="translate(0 0.015625)" xlink:href="#DejaVuSans-Oblique-102"/>
      <use transform="translate(54.6875 0.015625)" xlink:href="#DejaVuSans-61"/>
      <use transform="translate(157.958984 0.015625)" xlink:href="#DejaVuSans-48"/>
      <use transform="translate(221.582031 0.015625)" xlink:href="#DejaVuSans-46"/>
      <use transform="translate(253.291016 0.015625)" xlink:href="#DejaVuSans-50"/>
     </g>
    </g>
    <g id="line2d_34">
     <path d="M 316.305434 93.563825 
L 331.299434 93.563825 
" style="fill:none;stroke:#2ca02c;stroke-linecap:square;stroke-width:1.5;"/>
    </g>
    <g id="line2d_35"/>
    <g id="text_16">
     <!-- $f=0.3$ -->
     <defs>
      <path d="M 40.578125 39.3125 
Q 47.65625 37.796875 51.625 33 
Q 55.609375 28.21875 55.609375 21.1875 
Q 55.609375 10.40625 48.1875 4.484375 
Q 40.765625 -1.421875 27.09375 -1.421875 
Q 22.515625 -1.421875 17.65625 -0.515625 
Q 12.796875 0.390625 7.625 2.203125 
L 7.625 11.71875 
Q 11.71875 9.328125 16.59375 8.109375 
Q 21.484375 6.890625 26.8125 6.890625 
Q 36.078125 6.890625 40.9375 10.546875 
Q 45.796875 14.203125 45.796875 21.1875 
Q 45.796875 27.640625 41.28125 31.265625 
Q 36.765625 34.90625 28.71875 34.90625 
L 20.21875 34.90625 
L 20.21875 43.015625 
L 29.109375 43.015625 
Q 36.375 43.015625 40.234375 45.921875 
Q 44.09375 48.828125 44.09375 54.296875 
Q 44.09375 59.90625 40.109375 62.90625 
Q 36.140625 65.921875 28.71875 65.921875 
Q 24.65625 65.921875 20.015625 65.03125 
Q 15.375 64.15625 9.8125 62.3125 
L 9.8125 71.09375 
Q 15.4375 72.65625 20.34375 73.4375 
Q 25.25 74.21875 29.59375 74.21875 
Q 40.828125 74.21875 47.359375 69.109375 
Q 53.90625 64.015625 53.90625 55.328125 
Q 53.90625 49.265625 50.4375 45.09375 
Q 46.96875 40.921875 40.578125 39.3125 
z
" id="DejaVuSans-51"/>
     </defs>
     <g transform="translate(337.297034 96.187775)scale(0.07497 -0.07497)">
      <use transform="translate(0 0.015625)" xlink:href="#DejaVuSans-Oblique-102"/>
      <use transform="translate(54.6875 0.015625)" xlink:href="#DejaVuSans-61"/>
      <use transform="translate(157.958984 0.015625)" xlink:href="#DejaVuSans-48"/>
      <use transform="translate(221.582031 0.015625)" xlink:href="#DejaVuSans-46"/>
      <use transform="translate(253.369141 0.015625)" xlink:href="#DejaVuSans-51"/>
     </g>
    </g>
    <g id="line2d_36">
     <path d="M 316.305434 104.568015 
L 331.299434 104.568015 
" style="fill:none;stroke:#d62728;stroke-linecap:square;stroke-width:1.5;"/>
    </g>
    <g id="line2d_37"/>
    <g id="text_17">
     <!-- $f=0.4$ -->
     <g transform="translate(337.297034 107.191965)scale(0.07497 -0.07497)">
      <use transform="translate(0 0.015625)" xlink:href="#DejaVuSans-Oblique-102"/>
      <use transform="translate(54.6875 0.015625)" xlink:href="#DejaVuSans-61"/>
      <use transform="translate(157.958984 0.015625)" xlink:href="#DejaVuSans-48"/>
      <use transform="translate(221.582031 0.015625)" xlink:href="#DejaVuSans-46"/>
      <use transform="translate(253.369141 0.015625)" xlink:href="#DejaVuSans-52"/>
     </g>
    </g>
    <g id="line2d_38">
     <path d="M 316.305434 115.572206 
L 331.299434 115.572206 
" style="fill:none;stroke:#9467bd;stroke-linecap:square;stroke-width:1.5;"/>
    </g>
    <g id="line2d_39"/>
    <g id="text_18">
     <!-- $f=0.5$ -->
     <defs>
      <path d="M 10.796875 72.90625 
L 49.515625 72.90625 
L 49.515625 64.59375 
L 19.828125 64.59375 
L 19.828125 46.734375 
Q 21.96875 47.46875 24.109375 47.828125 
Q 26.265625 48.1875 28.421875 48.1875 
Q 40.625 48.1875 47.75 41.5 
Q 54.890625 34.8125 54.890625 23.390625 
Q 54.890625 11.625 47.5625 5.09375 
Q 40.234375 -1.421875 26.90625 -1.421875 
Q 22.3125 -1.421875 17.546875 -0.640625 
Q 12.796875 0.140625 7.71875 1.703125 
L 7.71875 11.625 
Q 12.109375 9.234375 16.796875 8.0625 
Q 21.484375 6.890625 26.703125 6.890625 
Q 35.15625 6.890625 40.078125 11.328125 
Q 45.015625 15.765625 45.015625 23.390625 
Q 45.015625 31 40.078125 35.4375 
Q 35.15625 39.890625 26.703125 39.890625 
Q 22.75 39.890625 18.8125 39.015625 
Q 14.890625 38.140625 10.796875 36.28125 
z
" id="DejaVuSans-53"/>
     </defs>
     <g transform="translate(337.297034 118.196156)scale(0.07497 -0.07497)">
      <use transform="translate(0 0.015625)" xlink:href="#DejaVuSans-Oblique-102"/>
      <use transform="translate(54.6875 0.015625)" xlink:href="#DejaVuSans-61"/>
      <use transform="translate(157.958984 0.015625)" xlink:href="#DejaVuSans-48"/>
      <use transform="translate(221.582031 0.015625)" xlink:href="#DejaVuSans-46"/>
      <use transform="translate(253.369141 0.015625)" xlink:href="#DejaVuSans-53"/>
     </g>
    </g>
   </g>
  </g>
  <g id="axes_3">
   <g id="patch_12">
    <path d="M 63.72 253.116 
L 243.288724 253.116 
L 243.288724 147.604831 
L 63.72 147.604831 
z
" style="fill:#ffffff;"/>
   </g>
   <g id="PolyCollection_11">
    <defs>
     <path d="M 63.72 -132.131918 
L 63.72 -129.239011 
L 81.676872 -129.167028 
L 99.633745 -128.919957 
L 117.590617 -128.415316 
L 135.547489 -127.590213 
L 153.504362 -126.474774 
L 171.461234 -125.139338 
L 189.418107 -123.733447 
L 207.374979 -122.395457 
L 225.331851 -121.084154 
L 243.288724 -120.003834 
L 243.288724 -126.065509 
L 243.288724 -126.065509 
L 225.331851 -126.842128 
L 207.374979 -127.650841 
L 189.418107 -128.689307 
L 171.461234 -129.738753 
L 153.504362 -130.667991 
L 135.547489 -131.324678 
L 117.590617 -131.720846 
L 99.633745 -131.959529 
L 81.676872 -132.090667 
L 63.72 -132.131918 
z
" id="mf74c213200" style="stroke:#1f77b4;stroke-opacity:0.2;"/>
    </defs>
    <g clip-path="url(#p68fcb8eafc)">
     <use style="fill:#1f77b4;fill-opacity:0.2;stroke:#1f77b4;stroke-opacity:0.2;" x="0" xlink:href="#mf74c213200" y="284.4"/>
    </g>
   </g>
   <g id="PolyCollection_12">
    <defs>
     <path d="M 63.72 -125.879884 
L 63.72 -119.647594 
L 81.676872 -119.421286 
L 99.633745 -118.585363 
L 117.590617 -116.921602 
L 135.547489 -114.39591 
L 153.504362 -111.237985 
L 171.461234 -108.091466 
L 189.418107 -105.192188 
L 207.374979 -102.53116 
L 225.331851 -100.512353 
L 243.288724 -98.628657 
L 243.288724 -112.376342 
L 243.288724 -112.376342 
L 225.331851 -113.794719 
L 207.374979 -115.475144 
L 189.418107 -117.201403 
L 171.461234 -119.185722 
L 153.504362 -121.164665 
L 135.547489 -122.940279 
L 117.590617 -124.347676 
L 99.633745 -125.27945 
L 81.676872 -125.746351 
L 63.72 -125.879884 
z
" id="m74b5a3f072" style="stroke:#ff7f0e;stroke-opacity:0.2;"/>
    </defs>
    <g clip-path="url(#p68fcb8eafc)">
     <use style="fill:#ff7f0e;fill-opacity:0.2;stroke:#ff7f0e;stroke-opacity:0.2;" x="0" xlink:href="#m74b5a3f072" y="284.4"/>
    </g>
   </g>
   <g id="PolyCollection_13">
    <defs>
     <path d="M 63.72 -119.383217 
L 63.72 -106.206668 
L 81.676872 -105.909063 
L 99.633745 -104.794363 
L 117.590617 -102.366552 
L 135.547489 -98.667789 
L 153.504362 -94.572062 
L 171.461234 -90.908693 
L 189.418107 -87.825049 
L 207.374979 -85.156321 
L 225.331851 -82.892125 
L 243.288724 -80.957736 
L 243.288724 -99.228993 
L 243.288724 -99.228993 
L 225.331851 -101.18538 
L 207.374979 -103.400047 
L 189.418107 -105.954513 
L 171.461234 -108.80635 
L 153.504362 -111.843555 
L 135.547489 -114.633871 
L 117.590617 -116.856435 
L 99.633745 -118.415926 
L 81.676872 -119.168646 
L 63.72 -119.383217 
z
" id="m6f9a69d06b" style="stroke:#2ca02c;stroke-opacity:0.2;"/>
    </defs>
    <g clip-path="url(#p68fcb8eafc)">
     <use style="fill:#2ca02c;fill-opacity:0.2;stroke:#2ca02c;stroke-opacity:0.2;" x="0" xlink:href="#m6f9a69d06b" y="284.4"/>
    </g>
   </g>
   <g id="PolyCollection_14">
    <defs>
     <path d="M 63.72 -103.709052 
L 63.72 -87.07202 
L 81.676872 -86.728758 
L 99.633745 -85.337033 
L 117.590617 -82.457084 
L 135.547489 -78.674371 
L 153.504362 -74.770458 
L 171.461234 -71.068393 
L 189.418107 -68.092151 
L 207.374979 -65.680598 
L 225.331851 -63.693191 
L 243.288724 -62.101458 
L 243.288724 -82.365283 
L 243.288724 -82.365283 
L 225.331851 -84.574974 
L 207.374979 -87.028353 
L 189.418107 -89.794685 
L 171.461234 -92.859301 
L 153.504362 -96.071331 
L 135.547489 -99.182706 
L 117.590617 -101.459253 
L 99.633745 -102.863183 
L 81.676872 -103.528823 
L 63.72 -103.709052 
z
" id="m27ee2ee472" style="stroke:#d62728;stroke-opacity:0.2;"/>
    </defs>
    <g clip-path="url(#p68fcb8eafc)">
     <use style="fill:#d62728;fill-opacity:0.2;stroke:#d62728;stroke-opacity:0.2;" x="0" xlink:href="#m27ee2ee472" y="284.4"/>
    </g>
   </g>
   <g id="PolyCollection_15">
    <defs>
     <path d="M 63.72 -72.899517 
L 63.72 -55.241839 
L 81.676872 -55.093686 
L 99.633745 -54.545531 
L 117.590617 -53.01973 
L 135.547489 -50.68958 
L 153.504362 -48.033964 
L 171.461234 -45.193002 
L 189.418107 -42.502072 
L 207.374979 -40.217871 
L 225.331851 -38.158933 
L 243.288724 -36.45904 
L 243.288724 -51.01227 
L 243.288724 -51.01227 
L 225.331851 -53.136851 
L 207.374979 -55.58322 
L 189.418107 -58.423837 
L 171.461234 -61.556227 
L 153.504362 -64.900151 
L 135.547489 -67.954202 
L 117.590617 -70.432079 
L 99.633745 -71.994853 
L 81.676872 -72.692573 
L 63.72 -72.899517 
z
" id="ma3eb0a3ae3" style="stroke:#9467bd;stroke-opacity:0.2;"/>
    </defs>
    <g clip-path="url(#p68fcb8eafc)">
     <use style="fill:#9467bd;fill-opacity:0.2;stroke:#9467bd;stroke-opacity:0.2;" x="0" xlink:href="#ma3eb0a3ae3" y="284.4"/>
    </g>
   </g>
   <g id="matplotlib.axis_5">
    <g id="xtick_11">
     <g id="line2d_40">
      <g>
       <use style="stroke:#000000;stroke-width:0.8;" x="63.72" xlink:href="#mb0181074aa" y="253.116"/>
      </g>
     </g>
     <g id="text_19">
      <!-- 0.0 -->
      <g transform="translate(57.758714 265.812549)scale(0.07497 -0.07497)">
       <use xlink:href="#DejaVuSans-48"/>
       <use x="63.623047" xlink:href="#DejaVuSans-46"/>
       <use x="95.410156" xlink:href="#DejaVuSans-48"/>
      </g>
     </g>
    </g>
    <g id="xtick_12">
     <g id="line2d_41">
      <g>
       <use style="stroke:#000000;stroke-width:0.8;" x="108.612181" xlink:href="#mb0181074aa" y="253.116"/>
      </g>
     </g>
     <g id="text_20">
      <!-- 0.5 -->
      <g transform="translate(102.650894 265.812549)scale(0.07497 -0.07497)">
       <use xlink:href="#DejaVuSans-48"/>
       <use x="63.623047" xlink:href="#DejaVuSans-46"/>
       <use x="95.410156" xlink:href="#DejaVuSans-53"/>
      </g>
     </g>
    </g>
    <g id="xtick_13">
     <g id="line2d_42">
      <g>
       <use style="stroke:#000000;stroke-width:0.8;" x="153.504362" xlink:href="#mb0181074aa" y="253.116"/>
      </g>
     </g>
     <g id="text_21">
      <!-- 1.0 -->
      <g transform="translate(147.543075 265.812549)scale(0.07497 -0.07497)">
       <use xlink:href="#DejaVuSans-49"/>
       <use x="63.623047" xlink:href="#DejaVuSans-46"/>
       <use x="95.410156" xlink:href="#DejaVuSans-48"/>
      </g>
     </g>
    </g>
    <g id="xtick_14">
     <g id="line2d_43">
      <g>
       <use style="stroke:#000000;stroke-width:0.8;" x="198.396543" xlink:href="#mb0181074aa" y="253.116"/>
      </g>
     </g>
     <g id="text_22">
      <!-- 1.5 -->
      <g transform="translate(192.435256 265.812549)scale(0.07497 -0.07497)">
       <use xlink:href="#DejaVuSans-49"/>
       <use x="63.623047" xlink:href="#DejaVuSans-46"/>
       <use x="95.410156" xlink:href="#DejaVuSans-53"/>
      </g>
     </g>
    </g>
    <g id="xtick_15">
     <g id="line2d_44">
      <g>
       <use style="stroke:#000000;stroke-width:0.8;" x="243.288724" xlink:href="#mb0181074aa" y="253.116"/>
      </g>
     </g>
     <g id="text_23">
      <!-- 2.0 -->
      <g transform="translate(237.327437 265.812549)scale(0.07497 -0.07497)">
       <use xlink:href="#DejaVuSans-50"/>
       <use x="63.623047" xlink:href="#DejaVuSans-46"/>
       <use x="95.410156" xlink:href="#DejaVuSans-48"/>
      </g>
     </g>
    </g>
    <g id="text_24">
     <!-- bias electric field (MV/m) -->
     <defs>
      <path d="M 44.28125 53.078125 
L 44.28125 44.578125 
Q 40.484375 46.53125 36.375 47.5 
Q 32.28125 48.484375 27.875 48.484375 
Q 21.1875 48.484375 17.84375 46.4375 
Q 14.5 44.390625 14.5 40.28125 
Q 14.5 37.15625 16.890625 35.375 
Q 19.28125 33.59375 26.515625 31.984375 
L 29.59375 31.296875 
Q 39.15625 29.25 43.1875 25.515625 
Q 47.21875 21.78125 47.21875 15.09375 
Q 47.21875 7.46875 41.1875 3.015625 
Q 35.15625 -1.421875 24.609375 -1.421875 
Q 20.21875 -1.421875 15.453125 -0.5625 
Q 10.6875 0.296875 5.421875 2 
L 5.421875 11.28125 
Q 10.40625 8.6875 15.234375 7.390625 
Q 20.0625 6.109375 24.8125 6.109375 
Q 31.15625 6.109375 34.5625 8.28125 
Q 37.984375 10.453125 37.984375 14.40625 
Q 37.984375 18.0625 35.515625 20.015625 
Q 33.0625 21.96875 24.703125 23.78125 
L 21.578125 24.515625 
Q 13.234375 26.265625 9.515625 29.90625 
Q 5.8125 33.546875 5.8125 39.890625 
Q 5.8125 47.609375 11.28125 51.796875 
Q 16.75 56 26.8125 56 
Q 31.78125 56 36.171875 55.265625 
Q 40.578125 54.546875 44.28125 53.078125 
z
" id="DejaVuSans-115"/>
      <path d="M 48.78125 52.59375 
L 48.78125 44.1875 
Q 44.96875 46.296875 41.140625 47.34375 
Q 37.3125 48.390625 33.40625 48.390625 
Q 24.65625 48.390625 19.8125 42.84375 
Q 14.984375 37.3125 14.984375 27.296875 
Q 14.984375 17.28125 19.8125 11.734375 
Q 24.65625 6.203125 33.40625 6.203125 
Q 37.3125 6.203125 41.140625 7.25 
Q 44.96875 8.296875 48.78125 10.40625 
L 48.78125 2.09375 
Q 45.015625 0.34375 40.984375 -0.53125 
Q 36.96875 -1.421875 32.421875 -1.421875 
Q 20.0625 -1.421875 12.78125 6.34375 
Q 5.515625 14.109375 5.515625 27.296875 
Q 5.515625 40.671875 12.859375 48.328125 
Q 20.21875 56 33.015625 56 
Q 37.15625 56 41.109375 55.140625 
Q 45.0625 54.296875 48.78125 52.59375 
z
" id="DejaVuSans-99"/>
      <path d="M 37.109375 75.984375 
L 37.109375 68.5 
L 28.515625 68.5 
Q 23.6875 68.5 21.796875 66.546875 
Q 19.921875 64.59375 19.921875 59.515625 
L 19.921875 54.6875 
L 34.71875 54.6875 
L 34.71875 47.703125 
L 19.921875 47.703125 
L 19.921875 0 
L 10.890625 0 
L 10.890625 47.703125 
L 2.296875 47.703125 
L 2.296875 54.6875 
L 10.890625 54.6875 
L 10.890625 58.5 
Q 10.890625 67.625 15.140625 71.796875 
Q 19.390625 75.984375 28.609375 75.984375 
z
" id="DejaVuSans-102"/>
      <path d="M 31 75.875 
Q 24.46875 64.65625 21.28125 53.65625 
Q 18.109375 42.671875 18.109375 31.390625 
Q 18.109375 20.125 21.3125 9.0625 
Q 24.515625 -2 31 -13.1875 
L 23.1875 -13.1875 
Q 15.875 -1.703125 12.234375 9.375 
Q 8.59375 20.453125 8.59375 31.390625 
Q 8.59375 42.28125 12.203125 53.3125 
Q 15.828125 64.359375 23.1875 75.875 
z
" id="DejaVuSans-40"/>
      <path d="M 9.8125 72.90625 
L 24.515625 72.90625 
L 43.109375 23.296875 
L 61.8125 72.90625 
L 76.515625 72.90625 
L 76.515625 0 
L 66.890625 0 
L 66.890625 64.015625 
L 48.09375 14.015625 
L 38.1875 14.015625 
L 19.390625 64.015625 
L 19.390625 0 
L 9.8125 0 
z
" id="DejaVuSans-77"/>
      <path d="M 28.609375 0 
L 0.78125 72.90625 
L 11.078125 72.90625 
L 34.1875 11.53125 
L 57.328125 72.90625 
L 67.578125 72.90625 
L 39.796875 0 
z
" id="DejaVuSans-86"/>
      <path d="M 25.390625 72.90625 
L 33.6875 72.90625 
L 8.296875 -9.28125 
L 0 -9.28125 
z
" id="DejaVuSans-47"/>
      <path d="M 8.015625 75.875 
L 15.828125 75.875 
Q 23.140625 64.359375 26.78125 53.3125 
Q 30.421875 42.28125 30.421875 31.390625 
Q 30.421875 20.453125 26.78125 9.375 
Q 23.140625 -1.703125 15.828125 -13.1875 
L 8.015625 -13.1875 
Q 14.5 -2 17.703125 9.0625 
Q 20.90625 20.125 20.90625 31.390625 
Q 20.90625 42.671875 17.703125 53.65625 
Q 14.5 64.65625 8.015625 75.875 
z
" id="DejaVuSans-41"/>
     </defs>
     <g transform="translate(97.322565 278.210284)scale(0.09 -0.09)">
      <use xlink:href="#DejaVuSans-98"/>
      <use x="63.476562" xlink:href="#DejaVuSans-105"/>
      <use x="91.259766" xlink:href="#DejaVuSans-97"/>
      <use x="152.539062" xlink:href="#DejaVuSans-115"/>
      <use x="204.638672" xlink:href="#DejaVuSans-32"/>
      <use x="236.425781" xlink:href="#DejaVuSans-101"/>
      <use x="297.949219" xlink:href="#DejaVuSans-108"/>
      <use x="325.732422" xlink:href="#DejaVuSans-101"/>
      <use x="387.255859" xlink:href="#DejaVuSans-99"/>
      <use x="442.236328" xlink:href="#DejaVuSans-116"/>
      <use x="481.445312" xlink:href="#DejaVuSans-114"/>
      <use x="522.558594" xlink:href="#DejaVuSans-105"/>
      <use x="550.341797" xlink:href="#DejaVuSans-99"/>
      <use x="605.322266" xlink:href="#DejaVuSans-32"/>
      <use x="637.109375" xlink:href="#DejaVuSans-102"/>
      <use x="672.314453" xlink:href="#DejaVuSans-105"/>
      <use x="700.097656" xlink:href="#DejaVuSans-101"/>
      <use x="761.621094" xlink:href="#DejaVuSans-108"/>
      <use x="789.404297" xlink:href="#DejaVuSans-100"/>
      <use x="852.880859" xlink:href="#DejaVuSans-32"/>
      <use x="884.667969" xlink:href="#DejaVuSans-40"/>
      <use x="923.681641" xlink:href="#DejaVuSans-77"/>
      <use x="1009.960938" xlink:href="#DejaVuSans-86"/>
      <use x="1078.369141" xlink:href="#DejaVuSans-47"/>
      <use x="1112.060547" xlink:href="#DejaVuSans-109"/>
      <use x="1209.472656" xlink:href="#DejaVuSans-41"/>
     </g>
    </g>
   </g>
   <g id="matplotlib.axis_6">
    <g id="ytick_10">
     <g id="line2d_45">
      <g>
       <use style="stroke:#000000;stroke-width:0.8;" x="63.72" xlink:href="#m0bfd48255b" y="241.647395"/>
      </g>
     </g>
     <g id="text_25">
      <!-- 0.6 -->
      <g transform="translate(44.797427 244.495669)scale(0.07497 -0.07497)">
       <use xlink:href="#DejaVuSans-48"/>
       <use x="63.623047" xlink:href="#DejaVuSans-46"/>
       <use x="95.410156" xlink:href="#DejaVuSans-54"/>
      </g>
     </g>
    </g>
    <g id="ytick_11">
     <g id="line2d_46">
      <g>
       <use style="stroke:#000000;stroke-width:0.8;" x="63.72" xlink:href="#m0bfd48255b" y="218.710184"/>
      </g>
     </g>
     <g id="text_26">
      <!-- 0.7 -->
      <g transform="translate(44.797427 221.558458)scale(0.07497 -0.07497)">
       <use xlink:href="#DejaVuSans-48"/>
       <use x="63.623047" xlink:href="#DejaVuSans-46"/>
       <use x="95.410156" xlink:href="#DejaVuSans-55"/>
      </g>
     </g>
    </g>
    <g id="ytick_12">
     <g id="line2d_47">
      <g>
       <use style="stroke:#000000;stroke-width:0.8;" x="63.72" xlink:href="#m0bfd48255b" y="195.772973"/>
      </g>
     </g>
     <g id="text_27">
      <!-- 0.8 -->
      <g transform="translate(44.797427 198.621248)scale(0.07497 -0.07497)">
       <use xlink:href="#DejaVuSans-48"/>
       <use x="63.623047" xlink:href="#DejaVuSans-46"/>
       <use x="95.410156" xlink:href="#DejaVuSans-56"/>
      </g>
     </g>
    </g>
    <g id="ytick_13">
     <g id="line2d_48">
      <g>
       <use style="stroke:#000000;stroke-width:0.8;" x="63.72" xlink:href="#m0bfd48255b" y="172.835763"/>
      </g>
     </g>
     <g id="text_28">
      <!-- 0.9 -->
      <g transform="translate(44.797427 175.684037)scale(0.07497 -0.07497)">
       <use xlink:href="#DejaVuSans-48"/>
       <use x="63.623047" xlink:href="#DejaVuSans-46"/>
       <use x="95.410156" xlink:href="#DejaVuSans-57"/>
      </g>
     </g>
    </g>
    <g id="ytick_14">
     <g id="line2d_49">
      <g>
       <use style="stroke:#000000;stroke-width:0.8;" x="63.72" xlink:href="#m0bfd48255b" y="149.898552"/>
      </g>
     </g>
     <g id="text_29">
      <!-- 1.0 -->
      <g transform="translate(44.797427 152.746827)scale(0.07497 -0.07497)">
       <use xlink:href="#DejaVuSans-49"/>
       <use x="63.623047" xlink:href="#DejaVuSans-46"/>
       <use x="95.410156" xlink:href="#DejaVuSans-48"/>
      </g>
     </g>
    </g>
    <g id="text_30">
     <!-- normalized loss tangent -->
     <defs>
      <path d="M 45.40625 27.984375 
Q 45.40625 37.75 41.375 43.109375 
Q 37.359375 48.484375 30.078125 48.484375 
Q 22.859375 48.484375 18.828125 43.109375 
Q 14.796875 37.75 14.796875 27.984375 
Q 14.796875 18.265625 18.828125 12.890625 
Q 22.859375 7.515625 30.078125 7.515625 
Q 37.359375 7.515625 41.375 12.890625 
Q 45.40625 18.265625 45.40625 27.984375 
z
M 54.390625 6.78125 
Q 54.390625 -7.171875 48.1875 -13.984375 
Q 42 -20.796875 29.203125 -20.796875 
Q 24.46875 -20.796875 20.265625 -20.09375 
Q 16.0625 -19.390625 12.109375 -17.921875 
L 12.109375 -9.1875 
Q 16.0625 -11.328125 19.921875 -12.34375 
Q 23.78125 -13.375 27.78125 -13.375 
Q 36.625 -13.375 41.015625 -8.765625 
Q 45.40625 -4.15625 45.40625 5.171875 
L 45.40625 9.625 
Q 42.625 4.78125 38.28125 2.390625 
Q 33.9375 0 27.875 0 
Q 17.828125 0 11.671875 7.65625 
Q 5.515625 15.328125 5.515625 27.984375 
Q 5.515625 40.671875 11.671875 48.328125 
Q 17.828125 56 27.875 56 
Q 33.9375 56 38.28125 53.609375 
Q 42.625 51.21875 45.40625 46.390625 
L 45.40625 54.6875 
L 54.390625 54.6875 
z
" id="DejaVuSans-103"/>
     </defs>
     <g transform="translate(38.925708 254.611431)rotate(-90)scale(0.09 -0.09)">
      <use xlink:href="#DejaVuSans-110"/>
      <use x="63.378906" xlink:href="#DejaVuSans-111"/>
      <use x="124.560547" xlink:href="#DejaVuSans-114"/>
      <use x="165.658203" xlink:href="#DejaVuSans-109"/>
      <use x="263.070312" xlink:href="#DejaVuSans-97"/>
      <use x="324.349609" xlink:href="#DejaVuSans-108"/>
      <use x="352.132812" xlink:href="#DejaVuSans-105"/>
      <use x="379.916016" xlink:href="#DejaVuSans-122"/>
      <use x="432.40625" xlink:href="#DejaVuSans-101"/>
      <use x="493.929688" xlink:href="#DejaVuSans-100"/>
      <use x="557.40625" xlink:href="#DejaVuSans-32"/>
      <use x="589.193359" xlink:href="#DejaVuSans-108"/>
      <use x="616.976562" xlink:href="#DejaVuSans-111"/>
      <use x="678.158203" xlink:href="#DejaVuSans-115"/>
      <use x="730.257812" xlink:href="#DejaVuSans-115"/>
      <use x="782.357422" xlink:href="#DejaVuSans-32"/>
      <use x="814.144531" xlink:href="#DejaVuSans-116"/>
      <use x="853.353516" xlink:href="#DejaVuSans-97"/>
      <use x="914.632812" xlink:href="#DejaVuSans-110"/>
      <use x="978.011719" xlink:href="#DejaVuSans-103"/>
      <use x="1041.488281" xlink:href="#DejaVuSans-101"/>
      <use x="1103.011719" xlink:href="#DejaVuSans-110"/>
      <use x="1166.390625" xlink:href="#DejaVuSans-116"/>
     </g>
    </g>
   </g>
   <g id="line2d_50">
    <path clip-path="url(#p68fcb8eafc)" d="M 63.72 153.714535 
L 81.676872 153.771152 
L 99.633745 153.960257 
L 117.590617 154.331919 
L 135.547489 154.942554 
L 153.504362 155.828618 
L 171.461234 156.960954 
L 189.418107 158.188623 
L 207.374979 159.376851 
L 225.331851 160.436859 
L 243.288724 161.365329 
" style="fill:none;stroke:#1f77b4;stroke-linecap:square;stroke-width:1.5;"/>
   </g>
   <g id="line2d_51">
    <path clip-path="url(#p68fcb8eafc)" d="M 63.72 161.636261 
L 81.676872 161.816181 
L 99.633745 162.467593 
L 117.590617 163.765361 
L 135.547489 165.731906 
L 153.504362 168.198675 
L 171.461234 170.761406 
L 189.418107 173.203205 
L 207.374979 175.396848 
L 225.331851 177.246464 
L 243.288724 178.8975 
" style="fill:none;stroke:#ff7f0e;stroke-linecap:square;stroke-width:1.5;"/>
   </g>
   <g id="line2d_52">
    <path clip-path="url(#p68fcb8eafc)" d="M 63.72 171.605057 
L 81.676872 171.861146 
L 99.633745 172.794856 
L 117.590617 174.788506 
L 135.547489 177.74917 
L 153.504362 181.192192 
L 171.461234 184.542479 
L 189.418107 187.510219 
L 207.374979 190.121816 
L 225.331851 192.361248 
L 243.288724 194.306636 
" style="fill:none;stroke:#2ca02c;stroke-linecap:square;stroke-width:1.5;"/>
   </g>
   <g id="line2d_53">
    <path clip-path="url(#p68fcb8eafc)" d="M 63.72 189.009464 
L 81.676872 189.27121 
L 99.633745 190.299892 
L 117.590617 192.441831 
L 135.547489 195.471461 
L 153.504362 198.979106 
L 171.461234 202.436153 
L 189.418107 205.456582 
L 207.374979 208.045524 
L 225.331851 210.265918 
L 243.288724 212.166629 
" style="fill:none;stroke:#d62728;stroke-linecap:square;stroke-width:1.5;"/>
   </g>
   <g id="line2d_54">
    <path clip-path="url(#p68fcb8eafc)" d="M 63.72 220.329322 
L 81.676872 220.506871 
L 99.633745 221.129808 
L 117.590617 222.674096 
L 135.547489 225.078109 
L 153.504362 227.932943 
L 171.461234 231.025385 
L 189.418107 233.937045 
L 207.374979 236.499455 
L 225.331851 238.752108 
L 243.288724 240.664345 
" style="fill:none;stroke:#9467bd;stroke-linecap:square;stroke-width:1.5;"/>
   </g>
   <g id="patch_13">
    <path d="M 63.72 253.116 
L 63.72 147.604831 
" style="fill:none;stroke:#000000;stroke-linecap:square;stroke-linejoin:miter;stroke-width:0.8;"/>
   </g>
   <g id="patch_14">
    <path d="M 243.288724 253.116 
L 243.288724 147.604831 
" style="fill:none;stroke:#000000;stroke-linecap:square;stroke-linejoin:miter;stroke-width:0.8;"/>
   </g>
   <g id="patch_15">
    <path d="M 63.72 253.116 
L 243.288724 253.116 
" style="fill:none;stroke:#000000;stroke-linecap:square;stroke-linejoin:miter;stroke-width:0.8;"/>
   </g>
   <g id="patch_16">
    <path d="M 63.72 147.604831 
L 243.288724 147.604831 
" style="fill:none;stroke:#000000;stroke-linecap:square;stroke-linejoin:miter;stroke-width:0.8;"/>
   </g>
   <g id="text_31">
    <!-- b -->
    <defs>
     <path d="M 37.5 11.28125 
Q 43.109375 11.28125 46.0625 15.375 
Q 49.03125 19.484375 49.03125 27.296875 
Q 49.03125 35.109375 46.0625 39.203125 
Q 43.109375 43.3125 37.5 43.3125 
Q 31.890625 43.3125 28.875 39.1875 
Q 25.875 35.0625 25.875 27.296875 
Q 25.875 19.53125 28.875 15.40625 
Q 31.890625 11.28125 37.5 11.28125 
z
M 25.875 46.6875 
Q 29.5 51.46875 33.890625 53.734375 
Q 38.28125 56 44 56 
Q 54.109375 56 60.59375 47.96875 
Q 67.09375 39.9375 67.09375 27.296875 
Q 67.09375 14.65625 60.59375 6.609375 
Q 54.109375 -1.421875 44 -1.421875 
Q 38.28125 -1.421875 33.890625 0.84375 
Q 29.5 3.125 25.875 7.90625 
L 25.875 0 
L 8.40625 0 
L 8.40625 75.984375 
L 25.875 75.984375 
z
" id="DejaVuSans-Bold-98"/>
    </defs>
    <g transform="translate(18.827819 142.329273)scale(0.108 -0.108)">
     <use xlink:href="#DejaVuSans-Bold-98"/>
    </g>
   </g>
  </g>
  <g id="axes_4">
   <g id="patch_17">
    <path d="M 309.558134 253.116 
L 489.126857 253.116 
L 489.126857 147.604831 
L 309.558134 147.604831 
z
" style="fill:#ffffff;"/>
   </g>
   <g id="PolyCollection_16">
    <defs>
     <path d="M 309.558134 -120.590582 
L 309.558134 -108.256411 
L 327.515006 -106.738991 
L 345.471878 -102.222129 
L 363.428751 -94.995456 
L 381.385623 -85.791615 
L 399.342495 -75.554126 
L 417.299368 -65.275055 
L 435.25624 -55.873202 
L 453.213112 -47.81599 
L 471.169985 -40.98589 
L 489.126857 -35.217105 
L 489.126857 -41.474394 
L 489.126857 -41.474394 
L 471.169985 -47.839116 
L 453.213112 -55.30867 
L 435.25624 -64.313154 
L 417.299368 -74.655464 
L 399.342495 -85.866044 
L 381.385623 -96.907623 
L 363.428751 -106.675031 
L 345.471878 -114.227616 
L 327.515006 -118.980223 
L 309.558134 -120.590582 
z
" id="m4805ef00d8" style="stroke:#1f77b4;stroke-opacity:0.2;"/>
    </defs>
    <g clip-path="url(#pb731c56fa7)">
     <use style="fill:#1f77b4;fill-opacity:0.2;stroke:#1f77b4;stroke-opacity:0.2;" x="0" xlink:href="#m4805ef00d8" y="284.4"/>
    </g>
   </g>
   <g id="PolyCollection_17">
    <defs>
     <path d="M 309.558134 -121.010446 
L 309.558134 -102.049888 
L 327.515006 -100.628841 
L 345.471878 -96.26619 
L 363.428751 -89.139276 
L 381.385623 -80.040557 
L 399.342495 -70.440351 
L 417.299368 -61.550258 
L 435.25624 -53.648658 
L 453.213112 -46.917973 
L 471.169985 -41.40072 
L 489.126857 -36.619271 
L 489.126857 -53.423263 
L 489.126857 -53.423263 
L 471.169985 -59.021613 
L 453.213112 -65.410574 
L 435.25624 -72.633084 
L 417.299368 -80.980575 
L 399.342495 -90.166461 
L 381.385623 -99.638121 
L 363.428751 -108.31955 
L 345.471878 -115.261016 
L 327.515006 -119.587691 
L 309.558134 -121.010446 
z
" id="m41b618ee40" style="stroke:#ff7f0e;stroke-opacity:0.2;"/>
    </defs>
    <g clip-path="url(#pb731c56fa7)">
     <use style="fill:#ff7f0e;fill-opacity:0.2;stroke:#ff7f0e;stroke-opacity:0.2;" x="0" xlink:href="#m41b618ee40" y="284.4"/>
    </g>
   </g>
   <g id="PolyCollection_18">
    <defs>
     <path d="M 309.558134 -127.555861 
L 309.558134 -96.575101 
L 327.515006 -95.317521 
L 345.471878 -91.418496 
L 363.428751 -84.892772 
L 381.385623 -76.677093 
L 399.342495 -68.393267 
L 417.299368 -61.033719 
L 435.25624 -54.775846 
L 453.213112 -49.386612 
L 471.169985 -44.727446 
L 489.126857 -40.693495 
L 489.126857 -63.081774 
L 489.126857 -63.081774 
L 471.169985 -68.338436 
L 453.213112 -74.292504 
L 435.25624 -81.189968 
L 417.299368 -89.022987 
L 399.342495 -97.689177 
L 381.385623 -106.665028 
L 363.428751 -115.103555 
L 345.471878 -121.98921 
L 327.515006 -126.197584 
L 309.558134 -127.555861 
z
" id="m9b722a375b" style="stroke:#2ca02c;stroke-opacity:0.2;"/>
    </defs>
    <g clip-path="url(#pb731c56fa7)">
     <use style="fill:#2ca02c;fill-opacity:0.2;stroke:#2ca02c;stroke-opacity:0.2;" x="0" xlink:href="#m9b722a375b" y="284.4"/>
    </g>
   </g>
   <g id="PolyCollection_19">
    <defs>
     <path d="M 309.558134 -128.630687 
L 309.558134 -93.448252 
L 327.515006 -92.429012 
L 345.471878 -89.275781 
L 363.428751 -84.215686 
L 381.385623 -78.105323 
L 399.342495 -71.791187 
L 417.299368 -65.953253 
L 435.25624 -60.888362 
L 453.213112 -56.402074 
L 471.169985 -52.421653 
L 489.126857 -48.952023 
L 489.126857 -74.08572 
L 489.126857 -74.08572 
L 471.169985 -78.576565 
L 453.213112 -83.710197 
L 435.25624 -89.566574 
L 417.299368 -96.186312 
L 399.342495 -103.515084 
L 381.385623 -111.323005 
L 363.428751 -118.459156 
L 345.471878 -124.017865 
L 327.515006 -127.485833 
L 309.558134 -128.630687 
z
" id="m341fd35645" style="stroke:#d62728;stroke-opacity:0.2;"/>
    </defs>
    <g clip-path="url(#pb731c56fa7)">
     <use style="fill:#d62728;fill-opacity:0.2;stroke:#d62728;stroke-opacity:0.2;" x="0" xlink:href="#m341fd35645" y="284.4"/>
    </g>
   </g>
   <g id="PolyCollection_20">
    <defs>
     <path d="M 309.558134 -120.893425 
L 309.558134 -94.378489 
L 327.515006 -93.698365 
L 345.471878 -91.50025 
L 363.428751 -88.016747 
L 381.385623 -83.75561 
L 399.342495 -79.201889 
L 417.299368 -74.625045 
L 435.25624 -70.296032 
L 453.213112 -66.396691 
L 471.169985 -62.884273 
L 489.126857 -59.811256 
L 489.126857 -78.256486 
L 489.126857 -78.256486 
L 471.169985 -81.804077 
L 453.213112 -85.809701 
L 435.25624 -90.435122 
L 417.299368 -95.754146 
L 399.342495 -101.737262 
L 381.385623 -107.718441 
L 363.428751 -113.242294 
L 345.471878 -117.473213 
L 327.515006 -120.073117 
L 309.558134 -120.893425 
z
" id="mfb760a7897" style="stroke:#9467bd;stroke-opacity:0.2;"/>
    </defs>
    <g clip-path="url(#pb731c56fa7)">
     <use style="fill:#9467bd;fill-opacity:0.2;stroke:#9467bd;stroke-opacity:0.2;" x="0" xlink:href="#mfb760a7897" y="284.4"/>
    </g>
   </g>
   <g id="matplotlib.axis_7">
    <g id="xtick_16">
     <g id="line2d_55">
      <g>
       <use style="stroke:#000000;stroke-width:0.8;" x="309.558134" xlink:href="#mb0181074aa" y="253.116"/>
      </g>
     </g>
     <g id="text_32">
      <!-- 0.0 -->
      <g transform="translate(303.596847 265.812549)scale(0.07497 -0.07497)">
       <use xlink:href="#DejaVuSans-48"/>
       <use x="63.623047" xlink:href="#DejaVuSans-46"/>
       <use x="95.410156" xlink:href="#DejaVuSans-48"/>
      </g>
     </g>
    </g>
    <g id="xtick_17">
     <g id="line2d_56">
      <g>
       <use style="stroke:#000000;stroke-width:0.8;" x="354.450314" xlink:href="#mb0181074aa" y="253.116"/>
      </g>
     </g>
     <g id="text_33">
      <!-- 0.5 -->
      <g transform="translate(348.489028 265.812549)scale(0.07497 -0.07497)">
       <use xlink:href="#DejaVuSans-48"/>
       <use x="63.623047" xlink:href="#DejaVuSans-46"/>
       <use x="95.410156" xlink:href="#DejaVuSans-53"/>
      </g>
     </g>
    </g>
    <g id="xtick_18">
     <g id="line2d_57">
      <g>
       <use style="stroke:#000000;stroke-width:0.8;" x="399.342495" xlink:href="#mb0181074aa" y="253.116"/>
      </g>
     </g>
     <g id="text_34">
      <!-- 1.0 -->
      <g transform="translate(393.381209 265.812549)scale(0.07497 -0.07497)">
       <use xlink:href="#DejaVuSans-49"/>
       <use x="63.623047" xlink:href="#DejaVuSans-46"/>
       <use x="95.410156" xlink:href="#DejaVuSans-48"/>
      </g>
     </g>
    </g>
    <g id="xtick_19">
     <g id="line2d_58">
      <g>
       <use style="stroke:#000000;stroke-width:0.8;" x="444.234676" xlink:href="#mb0181074aa" y="253.116"/>
      </g>
     </g>
     <g id="text_35">
      <!-- 1.5 -->
      <g transform="translate(438.27339 265.812549)scale(0.07497 -0.07497)">
       <use xlink:href="#DejaVuSans-49"/>
       <use x="63.623047" xlink:href="#DejaVuSans-46"/>
       <use x="95.410156" xlink:href="#DejaVuSans-53"/>
      </g>
     </g>
    </g>
    <g id="xtick_20">
     <g id="line2d_59">
      <g>
       <use style="stroke:#000000;stroke-width:0.8;" x="489.126857" xlink:href="#mb0181074aa" y="253.116"/>
      </g>
     </g>
     <g id="text_36">
      <!-- 2.0 -->
      <g transform="translate(483.165571 265.812549)scale(0.07497 -0.07497)">
       <use xlink:href="#DejaVuSans-50"/>
       <use x="63.623047" xlink:href="#DejaVuSans-46"/>
       <use x="95.410156" xlink:href="#DejaVuSans-48"/>
      </g>
     </g>
    </g>
    <g id="text_37">
     <!-- bias electric field (MV/m) -->
     <g transform="translate(343.160698 278.210284)scale(0.09 -0.09)">
      <use xlink:href="#DejaVuSans-98"/>
      <use x="63.476562" xlink:href="#DejaVuSans-105"/>
      <use x="91.259766" xlink:href="#DejaVuSans-97"/>
      <use x="152.539062" xlink:href="#DejaVuSans-115"/>
      <use x="204.638672" xlink:href="#DejaVuSans-32"/>
      <use x="236.425781" xlink:href="#DejaVuSans-101"/>
      <use x="297.949219" xlink:href="#DejaVuSans-108"/>
      <use x="325.732422" xlink:href="#DejaVuSans-101"/>
      <use x="387.255859" xlink:href="#DejaVuSans-99"/>
      <use x="442.236328" xlink:href="#DejaVuSans-116"/>
      <use x="481.445312" xlink:href="#DejaVuSans-114"/>
      <use x="522.558594" xlink:href="#DejaVuSans-105"/>
      <use x="550.341797" xlink:href="#DejaVuSans-99"/>
      <use x="605.322266" xlink:href="#DejaVuSans-32"/>
      <use x="637.109375" xlink:href="#DejaVuSans-102"/>
      <use x="672.314453" xlink:href="#DejaVuSans-105"/>
      <use x="700.097656" xlink:href="#DejaVuSans-101"/>
      <use x="761.621094" xlink:href="#DejaVuSans-108"/>
      <use x="789.404297" xlink:href="#DejaVuSans-100"/>
      <use x="852.880859" xlink:href="#DejaVuSans-32"/>
      <use x="884.667969" xlink:href="#DejaVuSans-40"/>
      <use x="923.681641" xlink:href="#DejaVuSans-77"/>
      <use x="1009.960938" xlink:href="#DejaVuSans-86"/>
      <use x="1078.369141" xlink:href="#DejaVuSans-47"/>
      <use x="1112.060547" xlink:href="#DejaVuSans-109"/>
      <use x="1209.472656" xlink:href="#DejaVuSans-41"/>
     </g>
    </g>
   </g>
   <g id="matplotlib.axis_8">
    <g id="ytick_15">
     <g id="line2d_60">
      <g>
       <use style="stroke:#000000;stroke-width:0.8;" x="309.558134" xlink:href="#m0bfd48255b" y="253.116"/>
      </g>
     </g>
     <g id="text_38">
      <!-- 0.5 -->
      <g transform="translate(290.635561 255.964274)scale(0.07497 -0.07497)">
       <use xlink:href="#DejaVuSans-48"/>
       <use x="63.623047" xlink:href="#DejaVuSans-46"/>
       <use x="95.410156" xlink:href="#DejaVuSans-53"/>
      </g>
     </g>
    </g>
    <g id="ytick_16">
     <g id="line2d_61">
      <g>
       <use style="stroke:#000000;stroke-width:0.8;" x="309.558134" xlink:href="#m0bfd48255b" y="236.62988"/>
      </g>
     </g>
     <g id="text_39">
      <!-- 0.6 -->
      <g transform="translate(290.635561 239.478154)scale(0.07497 -0.07497)">
       <use xlink:href="#DejaVuSans-48"/>
       <use x="63.623047" xlink:href="#DejaVuSans-46"/>
       <use x="95.410156" xlink:href="#DejaVuSans-54"/>
      </g>
     </g>
    </g>
    <g id="ytick_17">
     <g id="line2d_62">
      <g>
       <use style="stroke:#000000;stroke-width:0.8;" x="309.558134" xlink:href="#m0bfd48255b" y="220.14376"/>
      </g>
     </g>
     <g id="text_40">
      <!-- 0.7 -->
      <g transform="translate(290.635561 222.992034)scale(0.07497 -0.07497)">
       <use xlink:href="#DejaVuSans-48"/>
       <use x="63.623047" xlink:href="#DejaVuSans-46"/>
       <use x="95.410156" xlink:href="#DejaVuSans-55"/>
      </g>
     </g>
    </g>
    <g id="ytick_18">
     <g id="line2d_63">
      <g>
       <use style="stroke:#000000;stroke-width:0.8;" x="309.558134" xlink:href="#m0bfd48255b" y="203.65764"/>
      </g>
     </g>
     <g id="text_41">
      <!-- 0.8 -->
      <g transform="translate(290.635561 206.505914)scale(0.07497 -0.07497)">
       <use xlink:href="#DejaVuSans-48"/>
       <use x="63.623047" xlink:href="#DejaVuSans-46"/>
       <use x="95.410156" xlink:href="#DejaVuSans-56"/>
      </g>
     </g>
    </g>
    <g id="ytick_19">
     <g id="line2d_64">
      <g>
       <use style="stroke:#000000;stroke-width:0.8;" x="309.558134" xlink:href="#m0bfd48255b" y="187.171519"/>
      </g>
     </g>
     <g id="text_42">
      <!-- 0.9 -->
      <g transform="translate(290.635561 190.019794)scale(0.07497 -0.07497)">
       <use xlink:href="#DejaVuSans-48"/>
       <use x="63.623047" xlink:href="#DejaVuSans-46"/>
       <use x="95.410156" xlink:href="#DejaVuSans-57"/>
      </g>
     </g>
    </g>
    <g id="ytick_20">
     <g id="line2d_65">
      <g>
       <use style="stroke:#000000;stroke-width:0.8;" x="309.558134" xlink:href="#m0bfd48255b" y="170.685399"/>
      </g>
     </g>
     <g id="text_43">
      <!-- 1.0 -->
      <g transform="translate(290.635561 173.533674)scale(0.07497 -0.07497)">
       <use xlink:href="#DejaVuSans-49"/>
       <use x="63.623047" xlink:href="#DejaVuSans-46"/>
       <use x="95.410156" xlink:href="#DejaVuSans-48"/>
      </g>
     </g>
    </g>
    <g id="ytick_21">
     <g id="line2d_66">
      <g>
       <use style="stroke:#000000;stroke-width:0.8;" x="309.558134" xlink:href="#m0bfd48255b" y="154.199279"/>
      </g>
     </g>
     <g id="text_44">
      <!-- 1.1 -->
      <g transform="translate(290.635561 157.047554)scale(0.07497 -0.07497)">
       <use xlink:href="#DejaVuSans-49"/>
       <use x="63.623047" xlink:href="#DejaVuSans-46"/>
       <use x="95.410156" xlink:href="#DejaVuSans-49"/>
      </g>
     </g>
    </g>
    <g id="text_45">
     <!-- anisotropy factor -->
     <g transform="translate(284.763842 238.817837)rotate(-90)scale(0.09 -0.09)">
      <use xlink:href="#DejaVuSans-97"/>
      <use x="61.279297" xlink:href="#DejaVuSans-110"/>
      <use x="124.658203" xlink:href="#DejaVuSans-105"/>
      <use x="152.441406" xlink:href="#DejaVuSans-115"/>
      <use x="204.541016" xlink:href="#DejaVuSans-111"/>
      <use x="265.722656" xlink:href="#DejaVuSans-116"/>
      <use x="304.931641" xlink:href="#DejaVuSans-114"/>
      <use x="346.013672" xlink:href="#DejaVuSans-111"/>
      <use x="407.195312" xlink:href="#DejaVuSans-112"/>
      <use x="470.671875" xlink:href="#DejaVuSans-121"/>
      <use x="529.851562" xlink:href="#DejaVuSans-32"/>
      <use x="561.638672" xlink:href="#DejaVuSans-102"/>
      <use x="596.84375" xlink:href="#DejaVuSans-97"/>
      <use x="658.123047" xlink:href="#DejaVuSans-99"/>
      <use x="713.103516" xlink:href="#DejaVuSans-116"/>
      <use x="752.3125" xlink:href="#DejaVuSans-111"/>
      <use x="813.494141" xlink:href="#DejaVuSans-114"/>
     </g>
    </g>
   </g>
   <g id="line2d_67">
    <path clip-path="url(#pb731c56fa7)" d="M 309.558134 169.976504 
L 327.515006 171.540393 
L 345.471878 176.175127 
L 363.428751 183.564757 
L 381.385623 193.050381 
L 399.342495 203.689915 
L 417.299368 214.434741 
L 435.25624 224.306822 
L 453.213112 232.83767 
L 471.169985 239.987497 
L 489.126857 246.054251 
" style="fill:none;stroke:#1f77b4;stroke-linecap:square;stroke-width:1.5;"/>
   </g>
   <g id="line2d_68">
    <path clip-path="url(#pb731c56fa7)" d="M 309.558134 172.869833 
L 327.515006 174.291734 
L 345.471878 178.636397 
L 363.428751 185.670587 
L 381.385623 194.560661 
L 399.342495 204.096594 
L 417.299368 213.134583 
L 435.25624 221.259129 
L 453.213112 228.235727 
L 471.169985 234.188833 
L 489.126857 239.378733 
" style="fill:none;stroke:#ff7f0e;stroke-linecap:square;stroke-width:1.5;"/>
   </g>
   <g id="line2d_69">
    <path clip-path="url(#pb731c56fa7)" d="M 309.558134 172.334519 
L 327.515006 173.642447 
L 345.471878 177.696147 
L 363.428751 184.401836 
L 381.385623 192.728939 
L 399.342495 201.358778 
L 417.299368 209.371647 
L 435.25624 216.417093 
L 453.213112 222.560442 
L 471.169985 227.867059 
L 489.126857 232.512366 
" style="fill:none;stroke:#2ca02c;stroke-linecap:square;stroke-width:1.5;"/>
   </g>
   <g id="line2d_70">
    <path clip-path="url(#pb731c56fa7)" d="M 309.558134 173.36053 
L 327.515006 174.442577 
L 345.471878 177.753177 
L 363.428751 183.062579 
L 381.385623 189.685836 
L 399.342495 196.746864 
L 417.299368 203.330218 
L 435.25624 209.172532 
L 453.213112 214.343864 
L 471.169985 218.900891 
L 489.126857 222.881128 
" style="fill:none;stroke:#d62728;stroke-linecap:square;stroke-width:1.5;"/>
   </g>
   <g id="line2d_71">
    <path clip-path="url(#pb731c56fa7)" d="M 309.558134 176.764043 
L 327.515006 177.514259 
L 345.471878 179.913268 
L 363.428751 183.77048 
L 381.385623 188.662975 
L 399.342495 193.930425 
L 417.299368 199.210405 
L 435.25624 204.034423 
L 453.213112 208.296804 
L 471.169985 212.055825 
L 489.126857 215.366129 
" style="fill:none;stroke:#9467bd;stroke-linecap:square;stroke-width:1.5;"/>
   </g>
   <g id="patch_18">
    <path d="M 309.558134 253.116 
L 309.558134 147.604831 
" style="fill:none;stroke:#000000;stroke-linecap:square;stroke-linejoin:miter;stroke-width:0.8;"/>
   </g>
   <g id="patch_19">
    <path d="M 489.126857 253.116 
L 489.126857 147.604831 
" style="fill:none;stroke:#000000;stroke-linecap:square;stroke-linejoin:miter;stroke-width:0.8;"/>
   </g>
   <g id="patch_20">
    <path d="M 309.558134 253.116 
L 489.126857 253.116 
" style="fill:none;stroke:#000000;stroke-linecap:square;stroke-linejoin:miter;stroke-width:0.8;"/>
   </g>
   <g id="patch_21">
    <path d="M 309.558134 147.604831 
L 489.126857 147.604831 
" style="fill:none;stroke:#000000;stroke-linecap:square;stroke-linejoin:miter;stroke-width:0.8;"/>
   </g>
   <g id="text_46">
    <!-- d -->
    <defs>
     <path d="M 45.609375 46.6875 
L 45.609375 75.984375 
L 63.1875 75.984375 
L 63.1875 0 
L 45.609375 0 
L 45.609375 7.90625 
Q 42 3.078125 37.640625 0.828125 
Q 33.296875 -1.421875 27.59375 -1.421875 
Q 17.484375 -1.421875 10.984375 6.609375 
Q 4.5 14.65625 4.5 27.296875 
Q 4.5 39.9375 10.984375 47.96875 
Q 17.484375 56 27.59375 56 
Q 33.25 56 37.625 53.734375 
Q 42 51.46875 45.609375 46.6875 
z
M 34.078125 11.28125 
Q 39.703125 11.28125 42.65625 15.375 
Q 45.609375 19.484375 45.609375 27.296875 
Q 45.609375 35.109375 42.65625 39.203125 
Q 39.703125 43.3125 34.078125 43.3125 
Q 28.515625 43.3125 25.5625 39.203125 
Q 22.609375 35.109375 22.609375 27.296875 
Q 22.609375 19.484375 25.5625 15.375 
Q 28.515625 11.28125 34.078125 11.28125 
z
" id="DejaVuSans-Bold-100"/>
    </defs>
    <g transform="translate(264.665953 142.329273)scale(0.108 -0.108)">
     <use xlink:href="#DejaVuSans-Bold-100"/>
    </g>
   </g>
  </g>
 </g>
 <defs>
  <clipPath id="p3a671ba367">
   <rect height="105.511169" width="179.568724" x="63.72" y="20.991429"/>
  </clipPath>
  <clipPath id="pb1c058c85d">
   <rect height="105.511169" width="179.568724" x="309.558134" y="20.991429"/>
  </clipPath>
  <clipPath id="p68fcb8eafc">
   <rect height="105.511169" width="179.568724" x="63.72" y="147.604831"/>
  </clipPath>
  <clipPath id="pb731c56fa7">
   <rect height="105.511169" width="179.568724" x="309.558134" y="147.604831"/>
  </clipPath>
 </defs>
</svg>
