<?xml version="1.0" encoding="utf-8" standalone="no"?>
<!DOCTYPE svg PUBLIC "-//W3C//DTD SVG 1.1//EN"
  "http://www.w3.org/Graphics/SVG/1.1/DTD/svg11.dtd">
<!-- Created with matplotlib (https://matplotlib.org/) -->
<svg height="287.28pt" version="1.1" viewBox="0 0 511.2 287.28" width="511.2pt" xmlns="http://www.w3.org/2000/svg" xmlns:xlink="http://www.w3.org/1999/xlink">
 <defs>
  <style type="text/css">
*{stroke-linecap:butt;stroke-linejoin:round;}
  </style>
 </defs>
 <g id="figure_1">
  <g id="patch_1">
   <path d="M 0 287.28 
L 511.2 287.28 
L 511.2 0 
L 0 0 
z
" style="fill:#ffffff;"/>
  </g>
  <g id="axes_1">
   <g id="patch_2">
    <path d="M 63.9 128.156727 
L 242.337736 128.156727 
L 242.337736 21.888 
L 63.9 21.888 
z
" style="fill:#ffffff;"/>
   </g>
   <g id="PolyCollection_1">
    <defs>
     <path d="M 63.9 -255.073503 
L 63.9 -249.777652 
L 81.743774 -248.771518 
L 99.587547 -245.832472 
L 117.431321 -241.214688 
L 135.275094 -235.352228 
L 153.118868 -228.790009 
L 170.962642 -222.056731 
L 188.806415 -215.558517 
L 206.650189 -209.542717 
L 224.493962 -204.119922 
L 242.337736 -199.308076 
L 242.337736 -201.052312 
L 242.337736 -201.052312 
L 224.493962 -206.139268 
L 206.650189 -211.889666 
L 188.806415 -218.2898 
L 170.962642 -225.226853 
L 153.118868 -232.439704 
L 135.275094 -239.492658 
L 117.431321 -245.812274 
L 99.587547 -250.802202 
L 81.743774 -253.983493 
L 63.9 -255.073503 
z
" id="mfdeeb856d5" style="stroke:#1f77b4;stroke-opacity:0.2;"/>
    </defs>
    <g clip-path="url(#pe7e962d856)">
     <use style="fill:#1f77b4;fill-opacity:0.2;stroke:#1f77b4;stroke-opacity:0.2;" x="0" xlink:href="#mfdeeb856d5" y="287.28"/>
    </g>
   </g>
   <g id="PolyCollection_2">
    <defs>
     <path d="M 63.9 -229.511919 
L 63.9 -223.281348 
L 81.743774 -222.6075 
L 99.587547 -220.633721 
L 117.431321 -217.516046 
L 135.275094 -213.52808 
L 153.118868 -209.022703 
L 170.962642 -204.352169 
L 188.806415 -199.796313 
L 206.650189 -195.533828 
L 224.493962 -191.652346 
L 242.337736 -188.17521 
L 242.337736 -190.44445 
L 242.337736 -190.44445 
L 224.493962 -194.245557 
L 206.650189 -198.50727 
L 188.806415 -203.209392 
L 170.962642 -208.26015 
L 153.118868 -213.464331 
L 135.275094 -218.50924 
L 117.431321 -222.994738 
L 99.587547 -226.514253 
L 81.743774 -228.748221 
L 63.9 -229.511919 
z
" id="m4b2495251f" style="stroke:#ff7f0e;stroke-opacity:0.2;"/>
    </defs>
    <g clip-path="url(#pe7e962d856)">
     <use style="fill:#ff7f0e;fill-opacity:0.2;stroke:#ff7f0e;stroke-opacity:0.2;" x="0" xlink:href="#m4b2495251f" y="287.28"/>
    </g>
   </g>
   <g id="PolyCollection_3">
    <defs>
     <path d="M 63.9 -209.929704 
L 63.9 -202.658951 
L 81.743774 -202.216457 
L 99.587547 -200.917396 
L 117.431321 -198.856336 
L 135.275094 -196.203043 
L 153.118868 -193.181592 
L 170.962642 -190.021035 
L 188.806415 -186.908469 
L 206.650189 -183.968033 
L 224.493962 -181.26497 
L 242.337736 -178.821476 
L 242.337736 -181.614706 
L 242.337736 -181.614706 
L 224.493962 -184.441384 
L 206.650189 -187.58979 
L 188.806415 -191.039518 
L 170.962642 -194.718556 
L 153.118868 -198.482281 
L 135.275094 -202.105972 
L 117.431321 -205.308263 
L 99.587547 -207.808511 
L 81.743774 -209.390016 
L 63.9 -209.929704 
z
" id="m09c29417b5" style="stroke:#2ca02c;stroke-opacity:0.2;"/>
    </defs>
    <g clip-path="url(#pe7e962d856)">
     <use style="fill:#2ca02c;fill-opacity:0.2;stroke:#2ca02c;stroke-opacity:0.2;" x="0" xlink:href="#m09c29417b5" y="287.28"/>
    </g>
   </g>
   <g id="PolyCollection_4">
    <defs>
     <path d="M 63.9 -192.526277 
L 63.9 -186.305436 
L 81.743774 -186.036157 
L 99.587547 -185.243063 
L 117.431321 -183.97682 
L 135.275094 -182.332002 
L 153.118868 -180.438028 
L 170.962642 -178.43195 
L 188.806415 -176.430203 
L 206.650189 -174.514078 
L 224.493962 -172.729983 
L 242.337736 -171.09754 
L 242.337736 -173.571004 
L 242.337736 -173.571004 
L 224.493962 -175.53575 
L 206.650189 -177.703055 
L 188.806415 -180.053581 
L 170.962642 -182.53389 
L 153.118868 -185.044448 
L 135.275094 -187.437166 
L 117.431321 -189.532536 
L 99.587547 -191.156522 
L 81.743774 -192.178464 
L 63.9 -192.526277 
z
" id="mc91b5e2c84" style="stroke:#d62728;stroke-opacity:0.2;"/>
    </defs>
    <g clip-path="url(#pe7e962d856)">
     <use style="fill:#d62728;fill-opacity:0.2;stroke:#d62728;stroke-opacity:0.2;" x="0" xlink:href="#mc91b5e2c84" y="287.28"/>
    </g>
   </g>
   <g id="PolyCollection_5">
    <defs>
     <path d="M 63.9 -176.161751 
L 63.9 -172.723713 
L 81.743774 -172.58023 
L 99.587547 -172.156017 
L 117.431321 -171.473642 
L 135.275094 -170.577721 
L 153.118868 -169.532349 
L 170.962642 -168.408485 
L 188.806415 -167.269304 
L 206.650189 -166.161503 
L 224.493962 -165.114071 
L 242.337736 -164.141554 
L 242.337736 -165.655783 
L 242.337736 -165.655783 
L 224.493962 -166.810501 
L 206.650189 -168.064485 
L 188.806415 -169.40231 
L 170.962642 -170.790374 
L 153.118868 -172.172011 
L 135.275094 -173.468066 
L 117.431321 -174.587218 
L 99.587547 -175.444826 
L 81.743774 -175.980255 
L 63.9 -176.161751 
z
" id="m3f463dc860" style="stroke:#9467bd;stroke-opacity:0.2;"/>
    </defs>
    <g clip-path="url(#pe7e962d856)">
     <use style="fill:#9467bd;fill-opacity:0.2;stroke:#9467bd;stroke-opacity:0.2;" x="0" xlink:href="#m3f463dc860" y="287.28"/>
    </g>
   </g>
   <g id="matplotlib.axis_1">
    <g id="xtick_1">
     <g id="line2d_1">
      <defs>
       <path d="M 0 0 
L 0 3.5 
" id="mba9f85dce5" style="stroke:#000000;stroke-width:0.8;"/>
      </defs>
      <g>
       <use style="stroke:#000000;stroke-width:0.8;" x="63.9" xlink:href="#mba9f85dce5" y="128.156727"/>
      </g>
     </g>
    </g>
    <g id="xtick_2">
     <g id="line2d_2">
      <g>
       <use style="stroke:#000000;stroke-width:0.8;" x="108.509434" xlink:href="#mba9f85dce5" y="128.156727"/>
      </g>
     </g>
    </g>
    <g id="xtick_3">
     <g id="line2d_3">
      <g>
       <use style="stroke:#000000;stroke-width:0.8;" x="153.118868" xlink:href="#mba9f85dce5" y="128.156727"/>
      </g>
     </g>
    </g>
    <g id="xtick_4">
     <g id="line2d_4">
      <g>
       <use style="stroke:#000000;stroke-width:0.8;" x="197.728302" xlink:href="#mba9f85dce5" y="128.156727"/>
      </g>
     </g>
    </g>
    <g id="xtick_5">
     <g id="line2d_5">
      <g>
       <use style="stroke:#000000;stroke-width:0.8;" x="242.337736" xlink:href="#mba9f85dce5" y="128.156727"/>
      </g>
     </g>
    </g>
   </g>
   <g id="matplotlib.axis_2">
    <g id="ytick_1">
     <g id="line2d_6">
      <defs>
       <path d="M 0 0 
L -3.5 0 
" id="m2749198469" style="stroke:#000000;stroke-width:0.8;"/>
      </defs>
      <g>
       <use style="stroke:#000000;stroke-width:0.8;" x="63.9" xlink:href="#m2749198469" y="114.873136"/>
      </g>
     </g>
     <g id="text_1">
      <!-- 0.2 -->
      <defs>
       <path d="M 31.78125 66.40625 
Q 24.171875 66.40625 20.328125 58.90625 
Q 16.5 51.421875 16.5 36.375 
Q 16.5 21.390625 20.328125 13.890625 
Q 24.171875 6.390625 31.78125 6.390625 
Q 39.453125 6.390625 43.28125 13.890625 
Q 47.125 21.390625 47.125 36.375 
Q 47.125 51.421875 43.28125 58.90625 
Q 39.453125 66.40625 31.78125 66.40625 
z
M 31.78125 74.21875 
Q 44.046875 74.21875 50.515625 64.515625 
Q 56.984375 54.828125 56.984375 36.375 
Q 56.984375 17.96875 50.515625 8.265625 
Q 44.046875 -1.421875 31.78125 -1.421875 
Q 19.53125 -1.421875 13.0625 8.265625 
Q 6.59375 17.96875 6.59375 36.375 
Q 6.59375 54.828125 13.0625 64.515625 
Q 19.53125 74.21875 31.78125 74.21875 
z
" id="DejaVuSans-48"/>
       <path d="M 10.6875 12.40625 
L 21 12.40625 
L 21 0 
L 10.6875 0 
z
" id="DejaVuSans-46"/>
       <path d="M 19.1875 8.296875 
L 53.609375 8.296875 
L 53.609375 0 
L 7.328125 0 
L 7.328125 8.296875 
Q 12.9375 14.109375 22.625 23.890625 
Q 32.328125 33.6875 34.8125 36.53125 
Q 39.546875 41.84375 41.421875 45.53125 
Q 43.3125 49.21875 43.3125 52.78125 
Q 43.3125 58.59375 39.234375 62.25 
Q 35.15625 65.921875 28.609375 65.921875 
Q 23.96875 65.921875 18.8125 64.3125 
Q 13.671875 62.703125 7.8125 59.421875 
L 7.8125 69.390625 
Q 13.765625 71.78125 18.9375 73 
Q 24.125 74.21875 28.421875 74.21875 
Q 39.75 74.21875 46.484375 68.546875 
Q 53.21875 62.890625 53.21875 53.421875 
Q 53.21875 48.921875 51.53125 44.890625 
Q 49.859375 40.875 45.40625 35.40625 
Q 44.1875 33.984375 37.640625 27.21875 
Q 31.109375 20.453125 19.1875 8.296875 
z
" id="DejaVuSans-50"/>
      </defs>
      <g transform="translate(44.977427 117.721411)scale(0.07497 -0.07497)">
       <use xlink:href="#DejaVuSans-48"/>
       <use x="63.623047" xlink:href="#DejaVuSans-46"/>
       <use x="95.410156" xlink:href="#DejaVuSans-50"/>
      </g>
     </g>
    </g>
    <g id="ytick_2">
     <g id="line2d_7">
      <g>
       <use style="stroke:#000000;stroke-width:0.8;" x="63.9" xlink:href="#m2749198469" y="88.305955"/>
      </g>
     </g>
     <g id="text_2">
      <!-- 0.4 -->
      <defs>
       <path d="M 37.796875 64.3125 
L 12.890625 25.390625 
L 37.796875 25.390625 
z
M 35.203125 72.90625 
L 47.609375 72.90625 
L 47.609375 25.390625 
L 58.015625 25.390625 
L 58.015625 17.1875 
L 47.609375 17.1875 
L 47.609375 0 
L 37.796875 0 
L 37.796875 17.1875 
L 4.890625 17.1875 
L 4.890625 26.703125 
z
" id="DejaVuSans-52"/>
      </defs>
      <g transform="translate(44.977427 91.154229)scale(0.07497 -0.07497)">
       <use xlink:href="#DejaVuSans-48"/>
       <use x="63.623047" xlink:href="#DejaVuSans-46"/>
       <use x="95.410156" xlink:href="#DejaVuSans-52"/>
      </g>
     </g>
    </g>
    <g id="ytick_3">
     <g id="line2d_8">
      <g>
       <use style="stroke:#000000;stroke-width:0.8;" x="63.9" xlink:href="#m2749198469" y="61.738773"/>
      </g>
     </g>
     <g id="text_3">
      <!-- 0.6 -->
      <defs>
       <path d="M 33.015625 40.375 
Q 26.375 40.375 22.484375 35.828125 
Q 18.609375 31.296875 18.609375 23.390625 
Q 18.609375 15.53125 22.484375 10.953125 
Q 26.375 6.390625 33.015625 6.390625 
Q 39.65625 6.390625 43.53125 10.953125 
Q 47.40625 15.53125 47.40625 23.390625 
Q 47.40625 31.296875 43.53125 35.828125 
Q 39.65625 40.375 33.015625 40.375 
z
M 52.59375 71.296875 
L 52.59375 62.3125 
Q 48.875 64.0625 45.09375 64.984375 
Q 41.3125 65.921875 37.59375 65.921875 
Q 27.828125 65.921875 22.671875 59.328125 
Q 17.53125 52.734375 16.796875 39.40625 
Q 19.671875 43.65625 24.015625 45.921875 
Q 28.375 48.1875 33.59375 48.1875 
Q 44.578125 48.1875 50.953125 41.515625 
Q 57.328125 34.859375 57.328125 23.390625 
Q 57.328125 12.15625 50.6875 5.359375 
Q 44.046875 -1.421875 33.015625 -1.421875 
Q 20.359375 -1.421875 13.671875 8.265625 
Q 6.984375 17.96875 6.984375 36.375 
Q 6.984375 53.65625 15.1875 63.9375 
Q 23.390625 74.21875 37.203125 74.21875 
Q 40.921875 74.21875 44.703125 73.484375 
Q 48.484375 72.75 52.59375 71.296875 
z
" id="DejaVuSans-54"/>
      </defs>
      <g transform="translate(44.977427 64.587047)scale(0.07497 -0.07497)">
       <use xlink:href="#DejaVuSans-48"/>
       <use x="63.623047" xlink:href="#DejaVuSans-46"/>
       <use x="95.410156" xlink:href="#DejaVuSans-54"/>
      </g>
     </g>
    </g>
    <g id="ytick_4">
     <g id="line2d_9">
      <g>
       <use style="stroke:#000000;stroke-width:0.8;" x="63.9" xlink:href="#m2749198469" y="35.171591"/>
      </g>
     </g>
     <g id="text_4">
      <!-- 0.8 -->
      <defs>
       <path d="M 31.78125 34.625 
Q 24.75 34.625 20.71875 30.859375 
Q 16.703125 27.09375 16.703125 20.515625 
Q 16.703125 13.921875 20.71875 10.15625 
Q 24.75 6.390625 31.78125 6.390625 
Q 38.8125 6.390625 42.859375 10.171875 
Q 46.921875 13.96875 46.921875 20.515625 
Q 46.921875 27.09375 42.890625 30.859375 
Q 38.875 34.625 31.78125 34.625 
z
M 21.921875 38.8125 
Q 15.578125 40.375 12.03125 44.71875 
Q 8.5 49.078125 8.5 55.328125 
Q 8.5 64.0625 14.71875 69.140625 
Q 20.953125 74.21875 31.78125 74.21875 
Q 42.671875 74.21875 48.875 69.140625 
Q 55.078125 64.0625 55.078125 55.328125 
Q 55.078125 49.078125 51.53125 44.71875 
Q 48 40.375 41.703125 38.8125 
Q 48.828125 37.15625 52.796875 32.3125 
Q 56.78125 27.484375 56.78125 20.515625 
Q 56.78125 9.90625 50.3125 4.234375 
Q 43.84375 -1.421875 31.78125 -1.421875 
Q 19.734375 -1.421875 13.25 4.234375 
Q 6.78125 9.90625 6.78125 20.515625 
Q 6.78125 27.484375 10.78125 32.3125 
Q 14.796875 37.15625 21.921875 38.8125 
z
M 18.3125 54.390625 
Q 18.3125 48.734375 21.84375 45.5625 
Q 25.390625 42.390625 31.78125 42.390625 
Q 38.140625 42.390625 41.71875 45.5625 
Q 45.3125 48.734375 45.3125 54.390625 
Q 45.3125 60.0625 41.71875 63.234375 
Q 38.140625 66.40625 31.78125 66.40625 
Q 25.390625 66.40625 21.84375 63.234375 
Q 18.3125 60.0625 18.3125 54.390625 
z
" id="DejaVuSans-56"/>
      </defs>
      <g transform="translate(44.977427 38.019865)scale(0.07497 -0.07497)">
       <use xlink:href="#DejaVuSans-48"/>
       <use x="63.623047" xlink:href="#DejaVuSans-46"/>
       <use x="95.410156" xlink:href="#DejaVuSans-56"/>
      </g>
     </g>
    </g>
    <g id="text_5">
     <!-- normalized permittivity -->
     <defs>
      <path d="M 54.890625 33.015625 
L 54.890625 0 
L 45.90625 0 
L 45.90625 32.71875 
Q 45.90625 40.484375 42.875 44.328125 
Q 39.84375 48.1875 33.796875 48.1875 
Q 26.515625 48.1875 22.3125 43.546875 
Q 18.109375 38.921875 18.109375 30.90625 
L 18.109375 0 
L 9.078125 0 
L 9.078125 54.6875 
L 18.109375 54.6875 
L 18.109375 46.1875 
Q 21.34375 51.125 25.703125 53.5625 
Q 30.078125 56 35.796875 56 
Q 45.21875 56 50.046875 50.171875 
Q 54.890625 44.34375 54.890625 33.015625 
z
" id="DejaVuSans-110"/>
      <path d="M 30.609375 48.390625 
Q 23.390625 48.390625 19.1875 42.75 
Q 14.984375 37.109375 14.984375 27.296875 
Q 14.984375 17.484375 19.15625 11.84375 
Q 23.34375 6.203125 30.609375 6.203125 
Q 37.796875 6.203125 41.984375 11.859375 
Q 46.1875 17.53125 46.1875 27.296875 
Q 46.1875 37.015625 41.984375 42.703125 
Q 37.796875 48.390625 30.609375 48.390625 
z
M 30.609375 56 
Q 42.328125 56 49.015625 48.375 
Q 55.71875 40.765625 55.71875 27.296875 
Q 55.71875 13.875 49.015625 6.21875 
Q 42.328125 -1.421875 30.609375 -1.421875 
Q 18.84375 -1.421875 12.171875 6.21875 
Q 5.515625 13.875 5.515625 27.296875 
Q 5.515625 40.765625 12.171875 48.375 
Q 18.84375 56 30.609375 56 
z
" id="DejaVuSans-111"/>
      <path d="M 41.109375 46.296875 
Q 39.59375 47.171875 37.8125 47.578125 
Q 36.03125 48 33.890625 48 
Q 26.265625 48 22.1875 43.046875 
Q 18.109375 38.09375 18.109375 28.8125 
L 18.109375 0 
L 9.078125 0 
L 9.078125 54.6875 
L 18.109375 54.6875 
L 18.109375 46.1875 
Q 20.953125 51.171875 25.484375 53.578125 
Q 30.03125 56 36.53125 56 
Q 37.453125 56 38.578125 55.875 
Q 39.703125 55.765625 41.0625 55.515625 
z
" id="DejaVuSans-114"/>
      <path d="M 52 44.1875 
Q 55.375 50.25 60.0625 53.125 
Q 64.75 56 71.09375 56 
Q 79.640625 56 84.28125 50.015625 
Q 88.921875 44.046875 88.921875 33.015625 
L 88.921875 0 
L 79.890625 0 
L 79.890625 32.71875 
Q 79.890625 40.578125 77.09375 44.375 
Q 74.3125 48.1875 68.609375 48.1875 
Q 61.625 48.1875 57.5625 43.546875 
Q 53.515625 38.921875 53.515625 30.90625 
L 53.515625 0 
L 44.484375 0 
L 44.484375 32.71875 
Q 44.484375 40.625 41.703125 44.40625 
Q 38.921875 48.1875 33.109375 48.1875 
Q 26.21875 48.1875 22.15625 43.53125 
Q 18.109375 38.875 18.109375 30.90625 
L 18.109375 0 
L 9.078125 0 
L 9.078125 54.6875 
L 18.109375 54.6875 
L 18.109375 46.1875 
Q 21.1875 51.21875 25.484375 53.609375 
Q 29.78125 56 35.6875 56 
Q 41.65625 56 45.828125 52.96875 
Q 50 49.953125 52 44.1875 
z
" id="DejaVuSans-109"/>
      <path d="M 34.28125 27.484375 
Q 23.390625 27.484375 19.1875 25 
Q 14.984375 22.515625 14.984375 16.5 
Q 14.984375 11.71875 18.140625 8.90625 
Q 21.296875 6.109375 26.703125 6.109375 
Q 34.1875 6.109375 38.703125 11.40625 
Q 43.21875 16.703125 43.21875 25.484375 
L 43.21875 27.484375 
z
M 52.203125 31.203125 
L 52.203125 0 
L 43.21875 0 
L 43.21875 8.296875 
Q 40.140625 3.328125 35.546875 0.953125 
Q 30.953125 -1.421875 24.3125 -1.421875 
Q 15.921875 -1.421875 10.953125 3.296875 
Q 6 8.015625 6 15.921875 
Q 6 25.140625 12.171875 29.828125 
Q 18.359375 34.515625 30.609375 34.515625 
L 43.21875 34.515625 
L 43.21875 35.40625 
Q 43.21875 41.609375 39.140625 45 
Q 35.0625 48.390625 27.6875 48.390625 
Q 23 48.390625 18.546875 47.265625 
Q 14.109375 46.140625 10.015625 43.890625 
L 10.015625 52.203125 
Q 14.9375 54.109375 19.578125 55.046875 
Q 24.21875 56 28.609375 56 
Q 40.484375 56 46.34375 49.84375 
Q 52.203125 43.703125 52.203125 31.203125 
z
" id="DejaVuSans-97"/>
      <path d="M 9.421875 75.984375 
L 18.40625 75.984375 
L 18.40625 0 
L 9.421875 0 
z
" id="DejaVuSans-108"/>
      <path d="M 9.421875 54.6875 
L 18.40625 54.6875 
L 18.40625 0 
L 9.421875 0 
z
M 9.421875 75.984375 
L 18.40625 75.984375 
L 18.40625 64.59375 
L 9.421875 64.59375 
z
" id="DejaVuSans-105"/>
      <path d="M 5.515625 54.6875 
L 48.1875 54.6875 
L 48.1875 46.484375 
L 14.40625 7.171875 
L 48.1875 7.171875 
L 48.1875 0 
L 4.296875 0 
L 4.296875 8.203125 
L 38.09375 47.515625 
L 5.515625 47.515625 
z
" id="DejaVuSans-122"/>
      <path d="M 56.203125 29.59375 
L 56.203125 25.203125 
L 14.890625 25.203125 
Q 15.484375 15.921875 20.484375 11.0625 
Q 25.484375 6.203125 34.421875 6.203125 
Q 39.59375 6.203125 44.453125 7.46875 
Q 49.3125 8.734375 54.109375 11.28125 
L 54.109375 2.78125 
Q 49.265625 0.734375 44.1875 -0.34375 
Q 39.109375 -1.421875 33.890625 -1.421875 
Q 20.796875 -1.421875 13.15625 6.1875 
Q 5.515625 13.8125 5.515625 26.8125 
Q 5.515625 40.234375 12.765625 48.109375 
Q 20.015625 56 32.328125 56 
Q 43.359375 56 49.78125 48.890625 
Q 56.203125 41.796875 56.203125 29.59375 
z
M 47.21875 32.234375 
Q 47.125 39.59375 43.09375 43.984375 
Q 39.0625 48.390625 32.421875 48.390625 
Q 24.90625 48.390625 20.390625 44.140625 
Q 15.875 39.890625 15.1875 32.171875 
z
" id="DejaVuSans-101"/>
      <path d="M 45.40625 46.390625 
L 45.40625 75.984375 
L 54.390625 75.984375 
L 54.390625 0 
L 45.40625 0 
L 45.40625 8.203125 
Q 42.578125 3.328125 38.25 0.953125 
Q 33.9375 -1.421875 27.875 -1.421875 
Q 17.96875 -1.421875 11.734375 6.484375 
Q 5.515625 14.40625 5.515625 27.296875 
Q 5.515625 40.1875 11.734375 48.09375 
Q 17.96875 56 27.875 56 
Q 33.9375 56 38.25 53.625 
Q 42.578125 51.265625 45.40625 46.390625 
z
M 14.796875 27.296875 
Q 14.796875 17.390625 18.875 11.75 
Q 22.953125 6.109375 30.078125 6.109375 
Q 37.203125 6.109375 41.296875 11.75 
Q 45.40625 17.390625 45.40625 27.296875 
Q 45.40625 37.203125 41.296875 42.84375 
Q 37.203125 48.484375 30.078125 48.484375 
Q 22.953125 48.484375 18.875 42.84375 
Q 14.796875 37.203125 14.796875 27.296875 
z
" id="DejaVuSans-100"/>
      <path id="DejaVuSans-32"/>
      <path d="M 18.109375 8.203125 
L 18.109375 -20.796875 
L 9.078125 -20.796875 
L 9.078125 54.6875 
L 18.109375 54.6875 
L 18.109375 46.390625 
Q 20.953125 51.265625 25.265625 53.625 
Q 29.59375 56 35.59375 56 
Q 45.5625 56 51.78125 48.09375 
Q 58.015625 40.1875 58.015625 27.296875 
Q 58.015625 14.40625 51.78125 6.484375 
Q 45.5625 -1.421875 35.59375 -1.421875 
Q 29.59375 -1.421875 25.265625 0.953125 
Q 20.953125 3.328125 18.109375 8.203125 
z
M 48.6875 27.296875 
Q 48.6875 37.203125 44.609375 42.84375 
Q 40.53125 48.484375 33.40625 48.484375 
Q 26.265625 48.484375 22.1875 42.84375 
Q 18.109375 37.203125 18.109375 27.296875 
Q 18.109375 17.390625 22.1875 11.75 
Q 26.265625 6.109375 33.40625 6.109375 
Q 40.53125 6.109375 44.609375 11.75 
Q 48.6875 17.390625 48.6875 27.296875 
z
" id="DejaVuSans-112"/>
      <path d="M 18.3125 70.21875 
L 18.3125 54.6875 
L 36.8125 54.6875 
L 36.8125 47.703125 
L 18.3125 47.703125 
L 18.3125 18.015625 
Q 18.3125 11.328125 20.140625 9.421875 
Q 21.96875 7.515625 27.59375 7.515625 
L 36.8125 7.515625 
L 36.8125 0 
L 27.59375 0 
Q 17.1875 0 13.234375 3.875 
Q 9.28125 7.765625 9.28125 18.015625 
L 9.28125 47.703125 
L 2.6875 47.703125 
L 2.6875 54.6875 
L 9.28125 54.6875 
L 9.28125 70.21875 
z
" id="DejaVuSans-116"/>
      <path d="M 2.984375 54.6875 
L 12.5 54.6875 
L 29.59375 8.796875 
L 46.6875 54.6875 
L 56.203125 54.6875 
L 35.6875 0 
L 23.484375 0 
z
" id="DejaVuSans-118"/>
      <path d="M 32.171875 -5.078125 
Q 28.375 -14.84375 24.75 -17.8125 
Q 21.140625 -20.796875 15.09375 -20.796875 
L 7.90625 -20.796875 
L 7.90625 -13.28125 
L 13.1875 -13.28125 
Q 16.890625 -13.28125 18.9375 -11.515625 
Q 21 -9.765625 23.484375 -3.21875 
L 25.09375 0.875 
L 2.984375 54.6875 
L 12.5 54.6875 
L 29.59375 11.921875 
L 46.6875 54.6875 
L 56.203125 54.6875 
z
" id="DejaVuSans-121"/>
     </defs>
     <g transform="translate(39.105708 127.76377)rotate(-90)scale(0.09 -0.09)">
      <use xlink:href="#DejaVuSans-110"/>
      <use x="63.378906" xlink:href="#DejaVuSans-111"/>
      <use x="124.560547" xlink:href="#DejaVuSans-114"/>
      <use x="165.658203" xlink:href="#DejaVuSans-109"/>
      <use x="263.070312" xlink:href="#DejaVuSans-97"/>
      <use x="324.349609" xlink:href="#DejaVuSans-108"/>
      <use x="352.132812" xlink:href="#DejaVuSans-105"/>
      <use x="379.916016" xlink:href="#DejaVuSans-122"/>
      <use x="432.40625" xlink:href="#DejaVuSans-101"/>
      <use x="493.929688" xlink:href="#DejaVuSans-100"/>
      <use x="557.40625" xlink:href="#DejaVuSans-32"/>
      <use x="589.193359" xlink:href="#DejaVuSans-112"/>
      <use x="652.669922" xlink:href="#DejaVuSans-101"/>
      <use x="714.193359" xlink:href="#DejaVuSans-114"/>
      <use x="755.291016" xlink:href="#DejaVuSans-109"/>
      <use x="852.703125" xlink:href="#DejaVuSans-105"/>
      <use x="880.486328" xlink:href="#DejaVuSans-116"/>
      <use x="919.695312" xlink:href="#DejaVuSans-116"/>
      <use x="958.904297" xlink:href="#DejaVuSans-105"/>
      <use x="986.6875" xlink:href="#DejaVuSans-118"/>
      <use x="1045.867188" xlink:href="#DejaVuSans-105"/>
      <use x="1073.650391" xlink:href="#DejaVuSans-116"/>
      <use x="1112.859375" xlink:href="#DejaVuSans-121"/>
     </g>
    </g>
   </g>
   <g id="line2d_10">
    <path clip-path="url(#pe7e962d856)" d="M 63.9 34.854422 
L 81.743774 35.902494 
L 99.587547 38.962663 
L 117.431321 43.766519 
L 135.275094 49.857557 
L 153.118868 56.665143 
L 170.962642 63.638208 
L 188.806415 70.355842 
L 206.650189 76.563808 
L 224.493962 82.150405 
L 242.337736 87.099806 
" style="fill:none;stroke:#1f77b4;stroke-linecap:square;stroke-width:1.5;"/>
   </g>
   <g id="line2d_11">
    <path clip-path="url(#pe7e962d856)" d="M 63.9 60.883367 
L 81.743774 61.60214 
L 99.587547 63.706013 
L 117.431321 67.024608 
L 135.275094 71.26134 
L 153.118868 76.036483 
L 170.962642 80.97384 
L 188.806415 85.777148 
L 206.650189 90.259451 
L 224.493962 94.331049 
L 242.337736 97.97017 
" style="fill:none;stroke:#ff7f0e;stroke-linecap:square;stroke-width:1.5;"/>
   </g>
   <g id="line2d_12">
    <path clip-path="url(#pe7e962d856)" d="M 63.9 80.985672 
L 81.743774 81.476763 
L 99.587547 82.917046 
L 117.431321 85.197701 
L 135.275094 88.125492 
L 153.118868 91.448064 
L 170.962642 94.910204 
L 188.806415 98.306006 
L 206.650189 101.501088 
L 224.493962 104.426823 
L 242.337736 107.061909 
" style="fill:none;stroke:#2ca02c;stroke-linecap:square;stroke-width:1.5;"/>
   </g>
   <g id="line2d_13">
    <path clip-path="url(#pe7e962d856)" d="M 63.9 97.864143 
L 81.743774 98.17269 
L 99.587547 99.080207 
L 117.431321 100.525322 
L 135.275094 102.395416 
L 153.118868 104.538762 
L 170.962642 106.79708 
L 188.806415 109.038108 
L 206.650189 111.171434 
L 224.493962 113.147133 
L 242.337736 114.945728 
" style="fill:none;stroke:#d62728;stroke-linecap:square;stroke-width:1.5;"/>
   </g>
   <g id="line2d_14">
    <path clip-path="url(#pe7e962d856)" d="M 63.9 112.837268 
L 81.743774 112.999758 
L 99.587547 113.479578 
L 117.431321 114.24957 
L 135.275094 115.257106 
L 153.118868 116.42782 
L 170.962642 117.68057 
L 188.806415 118.944193 
L 206.650189 120.167006 
L 224.493962 121.317714 
L 242.337736 122.381332 
" style="fill:none;stroke:#9467bd;stroke-linecap:square;stroke-width:1.5;"/>
   </g>
   <g id="patch_3">
    <path d="M 63.9 128.156727 
L 63.9 21.888 
" style="fill:none;stroke:#000000;stroke-linecap:square;stroke-linejoin:miter;stroke-width:0.8;"/>
   </g>
   <g id="patch_4">
    <path d="M 242.337736 128.156727 
L 242.337736 21.888 
" style="fill:none;stroke:#000000;stroke-linecap:square;stroke-linejoin:miter;stroke-width:0.8;"/>
   </g>
   <g id="patch_5">
    <path d="M 63.9 128.156727 
L 242.337736 128.156727 
" style="fill:none;stroke:#000000;stroke-linecap:square;stroke-linejoin:miter;stroke-width:0.8;"/>
   </g>
   <g id="patch_6">
    <path d="M 63.9 21.888 
L 242.337736 21.888 
" style="fill:none;stroke:#000000;stroke-linecap:square;stroke-linejoin:miter;stroke-width:0.8;"/>
   </g>
   <g id="text_6">
    <!-- a -->
    <defs>
     <path d="M 32.90625 24.609375 
Q 27.4375 24.609375 24.671875 22.75 
Q 21.921875 20.90625 21.921875 17.28125 
Q 21.921875 13.96875 24.140625 12.078125 
Q 26.375 10.203125 30.328125 10.203125 
Q 35.25 10.203125 38.625 13.734375 
Q 42 17.28125 42 22.609375 
L 42 24.609375 
z
M 59.625 31.203125 
L 59.625 0 
L 42 0 
L 42 8.109375 
Q 38.484375 3.125 34.078125 0.84375 
Q 29.6875 -1.421875 23.390625 -1.421875 
Q 14.890625 -1.421875 9.59375 3.53125 
Q 4.296875 8.5 4.296875 16.40625 
Q 4.296875 26.03125 10.90625 30.515625 
Q 17.53125 35.015625 31.6875 35.015625 
L 42 35.015625 
L 42 36.375 
Q 42 40.53125 38.71875 42.453125 
Q 35.453125 44.390625 28.515625 44.390625 
Q 22.90625 44.390625 18.0625 43.265625 
Q 13.234375 42.140625 9.078125 39.890625 
L 9.078125 53.21875 
Q 14.703125 54.59375 20.359375 55.296875 
Q 26.03125 56 31.6875 56 
Q 46.484375 56 53.046875 50.171875 
Q 59.625 44.34375 59.625 31.203125 
z
" id="DejaVuSans-Bold-97"/>
    </defs>
    <g transform="translate(19.290566 16.574564)scale(0.108 -0.108)">
     <use xlink:href="#DejaVuSans-Bold-97"/>
    </g>
   </g>
  </g>
  <g id="axes_2">
   <g id="patch_7">
    <path d="M 313.287978 128.156727 
L 491.725714 128.156727 
L 491.725714 21.888 
L 313.287978 21.888 
z
" style="fill:#ffffff;"/>
   </g>
   <g id="PolyCollection_6">
    <defs>
     <path d="M 313.287978 -241.776727 
L 313.287978 -241.776727 
L 331.131752 -241.573111 
L 348.975526 -240.97312 
L 366.819299 -240.01394 
L 384.663073 -238.764652 
L 402.506846 -237.319276 
L 420.35062 -235.776924 
L 438.194394 -234.221668 
L 456.038167 -232.71252 
L 473.881941 -231.283887 
L 491.725714 -229.951388 
L 491.725714 -234.18786 
L 491.725714 -234.18786 
L 473.881941 -235.078631 
L 456.038167 -236.021738 
L 438.194394 -237.005673 
L 420.35062 -238.007561 
L 402.506846 -238.990088 
L 384.663073 -239.901753 
L 366.819299 -240.683261 
L 348.975526 -241.279526 
L 331.131752 -241.650944 
L 313.287978 -241.776727 
z
" id="md8868829c0" style="stroke:#1f77b4;stroke-opacity:0.2;"/>
    </defs>
    <g clip-path="url(#p098e00a142)">
     <use style="fill:#1f77b4;fill-opacity:0.2;stroke:#1f77b4;stroke-opacity:0.2;" x="0" xlink:href="#md8868829c0" y="287.28"/>
    </g>
   </g>
   <g id="PolyCollection_7">
    <defs>
     <path d="M 313.287978 -241.776727 
L 313.287978 -241.776727 
L 331.131752 -241.338732 
L 348.975526 -240.049136 
L 366.819299 -237.990684 
L 384.663073 -235.315351 
L 402.506846 -232.227922 
L 420.35062 -228.942319 
L 438.194394 -225.638362 
L 456.038167 -222.440982 
L 473.881941 -219.422024 
L 491.725714 -216.613232 
L 491.725714 -222.455668 
L 491.725714 -222.455668 
L 473.881941 -224.673473 
L 456.038167 -227.03816 
L 438.194394 -229.522218 
L 420.35062 -232.06823 
L 402.506846 -234.580185 
L 384.663073 -236.923425 
L 366.819299 -238.941018 
L 348.975526 -240.485554 
L 331.131752 -241.449811 
L 313.287978 -241.776727 
z
" id="m118e3134fb" style="stroke:#ff7f0e;stroke-opacity:0.2;"/>
    </defs>
    <g clip-path="url(#p098e00a142)">
     <use style="fill:#ff7f0e;fill-opacity:0.2;stroke:#ff7f0e;stroke-opacity:0.2;" x="0" xlink:href="#m118e3134fb" y="287.28"/>
    </g>
   </g>
   <g id="PolyCollection_8">
    <defs>
     <path d="M 313.287978 -241.776727 
L 313.287978 -241.776727 
L 331.131752 -241.118994 
L 348.975526 -239.183249 
L 366.819299 -236.096014 
L 384.663073 -232.088506 
L 402.506846 -227.470935 
L 420.35062 -222.566068 
L 438.194394 -217.644093 
L 456.038167 -212.891747 
L 473.881941 -208.415526 
L 491.725714 -204.261595 
L 491.725714 -212.771831 
L 491.725714 -212.771831 
L 473.881941 -216.091988 
L 456.038167 -219.63484 
L 438.194394 -223.359392 
L 420.35062 -227.179757 
L 402.506846 -230.951951 
L 384.663073 -234.473538 
L 366.819299 -237.507991 
L 348.975526 -239.832479 
L 331.131752 -241.284362 
L 313.287978 -241.776727 
z
" id="m9ea9234b92" style="stroke:#2ca02c;stroke-opacity:0.2;"/>
    </defs>
    <g clip-path="url(#p098e00a142)">
     <use style="fill:#2ca02c;fill-opacity:0.2;stroke:#2ca02c;stroke-opacity:0.2;" x="0" xlink:href="#m9ea9234b92" y="287.28"/>
    </g>
   </g>
   <g id="PolyCollection_9">
    <defs>
     <path d="M 313.287978 -241.776727 
L 313.287978 -241.776727 
L 331.131752 -240.853894 
L 348.975526 -238.142128 
L 366.819299 -233.830397 
L 384.663073 -228.258166 
L 402.506846 -221.873714 
L 420.35062 -215.13629 
L 438.194394 -208.423649 
L 456.038167 -201.990872 
L 473.881941 -195.978001 
L 491.725714 -190.440396 
L 491.725714 -200.218774 
L 491.725714 -200.218774 
L 473.881941 -204.847098 
L 456.038167 -209.824246 
L 438.194394 -215.098411 
L 420.35062 -220.551708 
L 402.506846 -225.978472 
L 384.663073 -231.081815 
L 366.819299 -235.507452 
L 348.975526 -238.915057 
L 331.131752 -241.051049 
L 313.287978 -241.776727 
z
" id="m9c33aab147" style="stroke:#d62728;stroke-opacity:0.2;"/>
    </defs>
    <g clip-path="url(#p098e00a142)">
     <use style="fill:#d62728;fill-opacity:0.2;stroke:#d62728;stroke-opacity:0.2;" x="0" xlink:href="#m9c33aab147" y="287.28"/>
    </g>
   </g>
   <g id="PolyCollection_10">
    <defs>
     <path d="M 313.287978 -241.776727 
L 313.287978 -241.776727 
L 331.131752 -240.540591 
L 348.975526 -236.915203 
L 366.819299 -231.172665 
L 384.663073 -223.791971 
L 402.506846 -215.393438 
L 420.35062 -206.600172 
L 438.194394 -197.913264 
L 456.038167 -189.660974 
L 473.881941 -182.014507 
L 491.725714 -175.032602 
L 491.725714 -182.522245 
L 491.725714 -182.522245 
L 473.881941 -188.881326 
L 456.038167 -195.794983 
L 438.194394 -203.201614 
L 420.35062 -210.941782 
L 402.506846 -218.72228 
L 384.663073 -226.106163 
L 366.819299 -232.559514 
L 348.975526 -237.558735 
L 331.131752 -240.705433 
L 313.287978 -241.776727 
z
" id="md53b52a4d8" style="stroke:#9467bd;stroke-opacity:0.2;"/>
    </defs>
    <g clip-path="url(#p098e00a142)">
     <use style="fill:#9467bd;fill-opacity:0.2;stroke:#9467bd;stroke-opacity:0.2;" x="0" xlink:href="#md53b52a4d8" y="287.28"/>
    </g>
   </g>
   <g id="matplotlib.axis_3">
    <g id="xtick_6">
     <g id="line2d_15">
      <g>
       <use style="stroke:#000000;stroke-width:0.8;" x="313.287978" xlink:href="#mba9f85dce5" y="128.156727"/>
      </g>
     </g>
    </g>
    <g id="xtick_7">
     <g id="line2d_16">
      <g>
       <use style="stroke:#000000;stroke-width:0.8;" x="357.897412" xlink:href="#mba9f85dce5" y="128.156727"/>
      </g>
     </g>
    </g>
    <g id="xtick_8">
     <g id="line2d_17">
      <g>
       <use style="stroke:#000000;stroke-width:0.8;" x="402.506846" xlink:href="#mba9f85dce5" y="128.156727"/>
      </g>
     </g>
    </g>
    <g id="xtick_9">
     <g id="line2d_18">
      <g>
       <use style="stroke:#000000;stroke-width:0.8;" x="447.11628" xlink:href="#mba9f85dce5" y="128.156727"/>
      </g>
     </g>
    </g>
    <g id="xtick_10">
     <g id="line2d_19">
      <g>
       <use style="stroke:#000000;stroke-width:0.8;" x="491.725714" xlink:href="#mba9f85dce5" y="128.156727"/>
      </g>
     </g>
    </g>
   </g>
   <g id="matplotlib.axis_4">
    <g id="ytick_5">
     <g id="line2d_20">
      <g>
       <use style="stroke:#000000;stroke-width:0.8;" x="313.287978" xlink:href="#m2749198469" y="116.349091"/>
      </g>
     </g>
     <g id="text_7">
      <!-- 0.7 -->
      <defs>
       <path d="M 8.203125 72.90625 
L 55.078125 72.90625 
L 55.078125 68.703125 
L 28.609375 0 
L 18.3125 0 
L 43.21875 64.59375 
L 8.203125 64.59375 
z
" id="DejaVuSans-55"/>
      </defs>
      <g transform="translate(294.365406 119.197365)scale(0.07497 -0.07497)">
       <use xlink:href="#DejaVuSans-48"/>
       <use x="63.623047" xlink:href="#DejaVuSans-46"/>
       <use x="95.410156" xlink:href="#DejaVuSans-55"/>
      </g>
     </g>
    </g>
    <g id="ytick_6">
     <g id="line2d_21">
      <g>
       <use style="stroke:#000000;stroke-width:0.8;" x="313.287978" xlink:href="#m2749198469" y="92.733818"/>
      </g>
     </g>
     <g id="text_8">
      <!-- 0.8 -->
      <g transform="translate(294.365406 95.582092)scale(0.07497 -0.07497)">
       <use xlink:href="#DejaVuSans-48"/>
       <use x="63.623047" xlink:href="#DejaVuSans-46"/>
       <use x="95.410156" xlink:href="#DejaVuSans-56"/>
      </g>
     </g>
    </g>
    <g id="ytick_7">
     <g id="line2d_22">
      <g>
       <use style="stroke:#000000;stroke-width:0.8;" x="313.287978" xlink:href="#m2749198469" y="69.118545"/>
      </g>
     </g>
     <g id="text_9">
      <!-- 0.9 -->
      <defs>
       <path d="M 10.984375 1.515625 
L 10.984375 10.5 
Q 14.703125 8.734375 18.5 7.8125 
Q 22.3125 6.890625 25.984375 6.890625 
Q 35.75 6.890625 40.890625 13.453125 
Q 46.046875 20.015625 46.78125 33.40625 
Q 43.953125 29.203125 39.59375 26.953125 
Q 35.25 24.703125 29.984375 24.703125 
Q 19.046875 24.703125 12.671875 31.3125 
Q 6.296875 37.9375 6.296875 49.421875 
Q 6.296875 60.640625 12.9375 67.421875 
Q 19.578125 74.21875 30.609375 74.21875 
Q 43.265625 74.21875 49.921875 64.515625 
Q 56.59375 54.828125 56.59375 36.375 
Q 56.59375 19.140625 48.40625 8.859375 
Q 40.234375 -1.421875 26.421875 -1.421875 
Q 22.703125 -1.421875 18.890625 -0.6875 
Q 15.09375 0.046875 10.984375 1.515625 
z
M 30.609375 32.421875 
Q 37.25 32.421875 41.125 36.953125 
Q 45.015625 41.5 45.015625 49.421875 
Q 45.015625 57.28125 41.125 61.84375 
Q 37.25 66.40625 30.609375 66.40625 
Q 23.96875 66.40625 20.09375 61.84375 
Q 16.21875 57.28125 16.21875 49.421875 
Q 16.21875 41.5 20.09375 36.953125 
Q 23.96875 32.421875 30.609375 32.421875 
z
" id="DejaVuSans-57"/>
      </defs>
      <g transform="translate(294.365406 71.96682)scale(0.07497 -0.07497)">
       <use xlink:href="#DejaVuSans-48"/>
       <use x="63.623047" xlink:href="#DejaVuSans-46"/>
       <use x="95.410156" xlink:href="#DejaVuSans-57"/>
      </g>
     </g>
    </g>
    <g id="ytick_8">
     <g id="line2d_23">
      <g>
       <use style="stroke:#000000;stroke-width:0.8;" x="313.287978" xlink:href="#m2749198469" y="45.503273"/>
      </g>
     </g>
     <g id="text_10">
      <!-- 1.0 -->
      <defs>
       <path d="M 12.40625 8.296875 
L 28.515625 8.296875 
L 28.515625 63.921875 
L 10.984375 60.40625 
L 10.984375 69.390625 
L 28.421875 72.90625 
L 38.28125 72.90625 
L 38.28125 8.296875 
L 54.390625 8.296875 
L 54.390625 0 
L 12.40625 0 
z
" id="DejaVuSans-49"/>
      </defs>
      <g transform="translate(294.365406 48.351547)scale(0.07497 -0.07497)">
       <use xlink:href="#DejaVuSans-49"/>
       <use x="63.623047" xlink:href="#DejaVuSans-46"/>
       <use x="95.410156" xlink:href="#DejaVuSans-48"/>
      </g>
     </g>
    </g>
    <g id="ytick_9">
     <g id="line2d_24">
      <g>
       <use style="stroke:#000000;stroke-width:0.8;" x="313.287978" xlink:href="#m2749198469" y="21.888"/>
      </g>
     </g>
     <g id="text_11">
      <!-- 1.1 -->
      <g transform="translate(294.365406 24.736274)scale(0.07497 -0.07497)">
       <use xlink:href="#DejaVuSans-49"/>
       <use x="63.623047" xlink:href="#DejaVuSans-46"/>
       <use x="95.410156" xlink:href="#DejaVuSans-49"/>
      </g>
     </g>
    </g>
    <g id="text_12">
     <!-- normalized tunability -->
     <defs>
      <path d="M 8.5 21.578125 
L 8.5 54.6875 
L 17.484375 54.6875 
L 17.484375 21.921875 
Q 17.484375 14.15625 20.5 10.265625 
Q 23.53125 6.390625 29.59375 6.390625 
Q 36.859375 6.390625 41.078125 11.03125 
Q 45.3125 15.671875 45.3125 23.6875 
L 45.3125 54.6875 
L 54.296875 54.6875 
L 54.296875 0 
L 45.3125 0 
L 45.3125 8.40625 
Q 42.046875 3.421875 37.71875 1 
Q 33.40625 -1.421875 27.6875 -1.421875 
Q 18.265625 -1.421875 13.375 4.4375 
Q 8.5 10.296875 8.5 21.578125 
z
M 31.109375 56 
z
" id="DejaVuSans-117"/>
      <path d="M 48.6875 27.296875 
Q 48.6875 37.203125 44.609375 42.84375 
Q 40.53125 48.484375 33.40625 48.484375 
Q 26.265625 48.484375 22.1875 42.84375 
Q 18.109375 37.203125 18.109375 27.296875 
Q 18.109375 17.390625 22.1875 11.75 
Q 26.265625 6.109375 33.40625 6.109375 
Q 40.53125 6.109375 44.609375 11.75 
Q 48.6875 17.390625 48.6875 27.296875 
z
M 18.109375 46.390625 
Q 20.953125 51.265625 25.265625 53.625 
Q 29.59375 56 35.59375 56 
Q 45.5625 56 51.78125 48.09375 
Q 58.015625 40.1875 58.015625 27.296875 
Q 58.015625 14.40625 51.78125 6.484375 
Q 45.5625 -1.421875 35.59375 -1.421875 
Q 29.59375 -1.421875 25.265625 0.953125 
Q 20.953125 3.328125 18.109375 8.203125 
L 18.109375 0 
L 9.078125 0 
L 9.078125 75.984375 
L 18.109375 75.984375 
z
" id="DejaVuSans-98"/>
     </defs>
     <g transform="translate(288.493687 122.796192)rotate(-90)scale(0.09 -0.09)">
      <use xlink:href="#DejaVuSans-110"/>
      <use x="63.378906" xlink:href="#DejaVuSans-111"/>
      <use x="124.560547" xlink:href="#DejaVuSans-114"/>
      <use x="165.658203" xlink:href="#DejaVuSans-109"/>
      <use x="263.070312" xlink:href="#DejaVuSans-97"/>
      <use x="324.349609" xlink:href="#DejaVuSans-108"/>
      <use x="352.132812" xlink:href="#DejaVuSans-105"/>
      <use x="379.916016" xlink:href="#DejaVuSans-122"/>
      <use x="432.40625" xlink:href="#DejaVuSans-101"/>
      <use x="493.929688" xlink:href="#DejaVuSans-100"/>
      <use x="557.40625" xlink:href="#DejaVuSans-32"/>
      <use x="589.193359" xlink:href="#DejaVuSans-116"/>
      <use x="628.402344" xlink:href="#DejaVuSans-117"/>
      <use x="691.78125" xlink:href="#DejaVuSans-110"/>
      <use x="755.160156" xlink:href="#DejaVuSans-97"/>
      <use x="816.439453" xlink:href="#DejaVuSans-98"/>
      <use x="879.916016" xlink:href="#DejaVuSans-105"/>
      <use x="907.699219" xlink:href="#DejaVuSans-108"/>
      <use x="935.482422" xlink:href="#DejaVuSans-105"/>
      <use x="963.265625" xlink:href="#DejaVuSans-116"/>
      <use x="1002.474609" xlink:href="#DejaVuSans-121"/>
     </g>
    </g>
   </g>
   <g id="line2d_25">
    <path clip-path="url(#p098e00a142)" d="M 313.287978 45.503273 
L 331.131752 45.667973 
L 348.975526 46.153677 
L 366.819299 46.931399 
L 384.663073 47.946798 
L 402.506846 49.125318 
L 420.35062 50.387758 
L 438.194394 51.666329 
L 456.038167 52.912871 
L 473.881941 54.098741 
L 491.725714 55.210376 
" style="fill:none;stroke:#1f77b4;stroke-linecap:square;stroke-width:1.5;"/>
   </g>
   <g id="line2d_26">
    <path clip-path="url(#p098e00a142)" d="M 313.287978 45.503273 
L 331.131752 45.885729 
L 348.975526 47.012655 
L 366.819299 48.814149 
L 384.663073 51.160612 
L 402.506846 53.875947 
L 420.35062 56.774726 
L 438.194394 59.69971 
L 456.038167 62.540429 
L 473.881941 65.232252 
L 491.725714 67.74555 
" style="fill:none;stroke:#ff7f0e;stroke-linecap:square;stroke-width:1.5;"/>
   </g>
   <g id="line2d_27">
    <path clip-path="url(#p098e00a142)" d="M 313.287978 45.503273 
L 331.131752 46.078322 
L 348.975526 47.772136 
L 366.819299 50.477998 
L 384.663073 53.998978 
L 402.506846 58.068557 
L 420.35062 62.407087 
L 438.194394 66.778257 
L 456.038167 71.016706 
L 473.881941 75.026243 
L 491.725714 78.763287 
" style="fill:none;stroke:#2ca02c;stroke-linecap:square;stroke-width:1.5;"/>
   </g>
   <g id="line2d_28">
    <path clip-path="url(#p098e00a142)" d="M 313.287978 45.503273 
L 331.131752 46.327529 
L 348.975526 48.751407 
L 366.819299 52.611076 
L 384.663073 57.61001 
L 402.506846 63.353907 
L 420.35062 69.436001 
L 438.194394 75.51897 
L 456.038167 81.372441 
L 473.881941 86.86745 
L 491.725714 91.950415 
" style="fill:none;stroke:#d62728;stroke-linecap:square;stroke-width:1.5;"/>
   </g>
   <g id="line2d_29">
    <path clip-path="url(#p098e00a142)" d="M 313.287978 45.503273 
L 331.131752 46.656988 
L 348.975526 50.043031 
L 366.819299 55.41391 
L 384.663073 62.330933 
L 402.506846 70.222141 
L 420.35062 78.509023 
L 438.194394 86.722561 
L 456.038167 94.552021 
L 473.881941 101.832083 
L 491.725714 108.502576 
" style="fill:none;stroke:#9467bd;stroke-linecap:square;stroke-width:1.5;"/>
   </g>
   <g id="patch_8">
    <path d="M 313.287978 128.156727 
L 313.287978 21.888 
" style="fill:none;stroke:#000000;stroke-linecap:square;stroke-linejoin:miter;stroke-width:0.8;"/>
   </g>
   <g id="patch_9">
    <path d="M 491.725714 128.156727 
L 491.725714 21.888 
" style="fill:none;stroke:#000000;stroke-linecap:square;stroke-linejoin:miter;stroke-width:0.8;"/>
   </g>
   <g id="patch_10">
    <path d="M 313.287978 128.156727 
L 491.725714 128.156727 
" style="fill:none;stroke:#000000;stroke-linecap:square;stroke-linejoin:miter;stroke-width:0.8;"/>
   </g>
   <g id="patch_11">
    <path d="M 313.287978 21.888 
L 491.725714 21.888 
" style="fill:none;stroke:#000000;stroke-linecap:square;stroke-linejoin:miter;stroke-width:0.8;"/>
   </g>
   <g id="text_13">
    <!-- c -->
    <defs>
     <path d="M 52.59375 52.984375 
L 52.59375 38.71875 
Q 49.03125 41.15625 45.4375 42.328125 
Q 41.84375 43.5 37.984375 43.5 
Q 30.671875 43.5 26.59375 39.234375 
Q 22.515625 34.96875 22.515625 27.296875 
Q 22.515625 19.625 26.59375 15.34375 
Q 30.671875 11.078125 37.984375 11.078125 
Q 42.09375 11.078125 45.78125 12.296875 
Q 49.46875 13.53125 52.59375 15.921875 
L 52.59375 1.609375 
Q 48.484375 0.09375 44.265625 -0.65625 
Q 40.046875 -1.421875 35.796875 -1.421875 
Q 21 -1.421875 12.640625 6.171875 
Q 4.296875 13.765625 4.296875 27.296875 
Q 4.296875 40.828125 12.640625 48.40625 
Q 21 56 35.796875 56 
Q 40.09375 56 44.265625 55.25 
Q 48.4375 54.5 52.59375 52.984375 
z
" id="DejaVuSans-Bold-99"/>
    </defs>
    <g transform="translate(268.678544 16.574564)scale(0.108 -0.108)">
     <use xlink:href="#DejaVuSans-Bold-99"/>
    </g>
   </g>
   <g id="legend_1">
    <g id="line2d_30">
     <path d="M 320.035278 73.209574 
L 335.029278 73.209574 
" style="fill:none;stroke:#1f77b4;stroke-linecap:square;stroke-width:1.5;"/>
    </g>
    <g id="line2d_31"/>
    <g id="text_14">
     <!-- $f=0.1$ -->
     <defs>
      <path d="M 47.796875 75.984375 
L 46.390625 68.5 
L 37.796875 68.5 
Q 32.90625 68.5 30.6875 66.578125 
Q 28.46875 64.65625 27.390625 59.515625 
L 26.421875 54.6875 
L 41.21875 54.6875 
L 39.890625 47.703125 
L 25.09375 47.703125 
L 15.828125 0 
L 6.78125 0 
L 16.109375 47.703125 
L 7.515625 47.703125 
L 8.796875 54.6875 
L 17.390625 54.6875 
L 18.109375 58.5 
Q 19.96875 68.171875 24.625 72.078125 
Q 29.296875 75.984375 39.3125 75.984375 
z
" id="DejaVuSans-Oblique-102"/>
      <path d="M 10.59375 45.40625 
L 73.1875 45.40625 
L 73.1875 37.203125 
L 10.59375 37.203125 
z
M 10.59375 25.484375 
L 73.1875 25.484375 
L 73.1875 17.1875 
L 10.59375 17.1875 
z
" id="DejaVuSans-61"/>
     </defs>
     <g transform="translate(341.026878 75.833524)scale(0.07497 -0.07497)">
      <use transform="translate(0 0.015625)" xlink:href="#DejaVuSans-Oblique-102"/>
      <use transform="translate(54.6875 0.015625)" xlink:href="#DejaVuSans-61"/>
      <use transform="translate(157.958984 0.015625)" xlink:href="#DejaVuSans-48"/>
      <use transform="translate(221.582031 0.015625)" xlink:href="#DejaVuSans-46"/>
      <use transform="translate(253.369141 0.015625)" xlink:href="#DejaVuSans-49"/>
     </g>
    </g>
    <g id="line2d_32">
     <path d="M 320.035278 84.213765 
L 335.029278 84.213765 
" style="fill:none;stroke:#ff7f0e;stroke-linecap:square;stroke-width:1.5;"/>
    </g>
    <g id="line2d_33"/>
    <g id="text_15">
     <!-- $f=0.2$ -->
     <g transform="translate(341.026878 86.837715)scale(0.07497 -0.07497)">
      <use transform="translate(0 0.015625)" xlink:href="#DejaVuSans-Oblique-102"/>
      <use transform="translate(54.6875 0.015625)" xlink:href="#DejaVuSans-61"/>
      <use transform="translate(157.958984 0.015625)" xlink:href="#DejaVuSans-48"/>
      <use transform="translate(221.582031 0.015625)" xlink:href="#DejaVuSans-46"/>
      <use transform="translate(253.291016 0.015625)" xlink:href="#DejaVuSans-50"/>
     </g>
    </g>
    <g id="line2d_34">
     <path d="M 320.035278 95.217955 
L 335.029278 95.217955 
" style="fill:none;stroke:#2ca02c;stroke-linecap:square;stroke-width:1.5;"/>
    </g>
    <g id="line2d_35"/>
    <g id="text_16">
     <!-- $f=0.3$ -->
     <defs>
      <path d="M 40.578125 39.3125 
Q 47.65625 37.796875 51.625 33 
Q 55.609375 28.21875 55.609375 21.1875 
Q 55.609375 10.40625 48.1875 4.484375 
Q 40.765625 -1.421875 27.09375 -1.421875 
Q 22.515625 -1.421875 17.65625 -0.515625 
Q 12.796875 0.390625 7.625 2.203125 
L 7.625 11.71875 
Q 11.71875 9.328125 16.59375 8.109375 
Q 21.484375 6.890625 26.8125 6.890625 
Q 36.078125 6.890625 40.9375 10.546875 
Q 45.796875 14.203125 45.796875 21.1875 
Q 45.796875 27.640625 41.28125 31.265625 
Q 36.765625 34.90625 28.71875 34.90625 
L 20.21875 34.90625 
L 20.21875 43.015625 
L 29.109375 43.015625 
Q 36.375 43.015625 40.234375 45.921875 
Q 44.09375 48.828125 44.09375 54.296875 
Q 44.09375 59.90625 40.109375 62.90625 
Q 36.140625 65.921875 28.71875 65.921875 
Q 24.65625 65.921875 20.015625 65.03125 
Q 15.375 64.15625 9.8125 62.3125 
L 9.8125 71.09375 
Q 15.4375 72.65625 20.34375 73.4375 
Q 25.25 74.21875 29.59375 74.21875 
Q 40.828125 74.21875 47.359375 69.109375 
Q 53.90625 64.015625 53.90625 55.328125 
Q 53.90625 49.265625 50.4375 45.09375 
Q 46.96875 40.921875 40.578125 39.3125 
z
" id="DejaVuSans-51"/>
     </defs>
     <g transform="translate(341.026878 97.841905)scale(0.07497 -0.07497)">
      <use transform="translate(0 0.015625)" xlink:href="#DejaVuSans-Oblique-102"/>
      <use transform="translate(54.6875 0.015625)" xlink:href="#DejaVuSans-61"/>
      <use transform="translate(157.958984 0.015625)" xlink:href="#DejaVuSans-48"/>
      <use transform="translate(221.582031 0.015625)" xlink:href="#DejaVuSans-46"/>
      <use transform="translate(253.369141 0.015625)" xlink:href="#DejaVuSans-51"/>
     </g>
    </g>
    <g id="line2d_36">
     <path d="M 320.035278 106.222145 
L 335.029278 106.222145 
" style="fill:none;stroke:#d62728;stroke-linecap:square;stroke-width:1.5;"/>
    </g>
    <g id="line2d_37"/>
    <g id="text_17">
     <!-- $f=0.4$ -->
     <g transform="translate(341.026878 108.846095)scale(0.07497 -0.07497)">
      <use transform="translate(0 0.015625)" xlink:href="#DejaVuSans-Oblique-102"/>
      <use transform="translate(54.6875 0.015625)" xlink:href="#DejaVuSans-61"/>
      <use transform="translate(157.958984 0.015625)" xlink:href="#DejaVuSans-48"/>
      <use transform="translate(221.582031 0.015625)" xlink:href="#DejaVuSans-46"/>
      <use transform="translate(253.369141 0.015625)" xlink:href="#DejaVuSans-52"/>
     </g>
    </g>
    <g id="line2d_38">
     <path d="M 320.035278 117.226336 
L 335.029278 117.226336 
" style="fill:none;stroke:#9467bd;stroke-linecap:square;stroke-width:1.5;"/>
    </g>
    <g id="line2d_39"/>
    <g id="text_18">
     <!-- $f=0.5$ -->
     <defs>
      <path d="M 10.796875 72.90625 
L 49.515625 72.90625 
L 49.515625 64.59375 
L 19.828125 64.59375 
L 19.828125 46.734375 
Q 21.96875 47.46875 24.109375 47.828125 
Q 26.265625 48.1875 28.421875 48.1875 
Q 40.625 48.1875 47.75 41.5 
Q 54.890625 34.8125 54.890625 23.390625 
Q 54.890625 11.625 47.5625 5.09375 
Q 40.234375 -1.421875 26.90625 -1.421875 
Q 22.3125 -1.421875 17.546875 -0.640625 
Q 12.796875 0.140625 7.71875 1.703125 
L 7.71875 11.625 
Q 12.109375 9.234375 16.796875 8.0625 
Q 21.484375 6.890625 26.703125 6.890625 
Q 35.15625 6.890625 40.078125 11.328125 
Q 45.015625 15.765625 45.015625 23.390625 
Q 45.015625 31 40.078125 35.4375 
Q 35.15625 39.890625 26.703125 39.890625 
Q 22.75 39.890625 18.8125 39.015625 
Q 14.890625 38.140625 10.796875 36.28125 
z
" id="DejaVuSans-53"/>
     </defs>
     <g transform="translate(341.026878 119.850286)scale(0.07497 -0.07497)">
      <use transform="translate(0 0.015625)" xlink:href="#DejaVuSans-Oblique-102"/>
      <use transform="translate(54.6875 0.015625)" xlink:href="#DejaVuSans-61"/>
      <use transform="translate(157.958984 0.015625)" xlink:href="#DejaVuSans-48"/>
      <use transform="translate(221.582031 0.015625)" xlink:href="#DejaVuSans-46"/>
      <use transform="translate(253.369141 0.015625)" xlink:href="#DejaVuSans-53"/>
     </g>
    </g>
   </g>
  </g>
  <g id="axes_3">
   <g id="patch_12">
    <path d="M 63.9 255.6792 
L 242.337736 255.6792 
L 242.337736 149.410473 
L 63.9 149.410473 
z
" style="fill:#ffffff;"/>
   </g>
   <g id="PolyCollection_11">
    <defs>
     <path d="M 63.9 -133.172795 
L 63.9 -130.259117 
L 81.743774 -130.247981 
L 99.587547 -130.214278 
L 117.431321 -130.157481 
L 135.275094 -130.077638 
L 153.118868 -129.975984 
L 170.962642 -129.854995 
L 188.806415 -129.717949 
L 206.650189 -129.568344 
L 224.493962 -129.409459 
L 242.337736 -129.244109 
L 242.337736 -131.95644 
L 242.337736 -131.95644 
L 224.493962 -132.145749 
L 206.650189 -132.330044 
L 188.806415 -132.506176 
L 170.962642 -132.670173 
L 153.118868 -132.817413 
L 135.275094 -132.943148 
L 117.431321 -133.04333 
L 99.587547 -133.115403 
L 81.743774 -133.158501 
L 63.9 -133.172795 
z
" id="mcf43b6ca40" style="stroke:#1f77b4;stroke-opacity:0.2;"/>
    </defs>
    <g clip-path="url(#pbb494db310)">
     <use style="fill:#1f77b4;fill-opacity:0.2;stroke:#1f77b4;stroke-opacity:0.2;" x="0" xlink:href="#mcf43b6ca40" y="287.28"/>
    </g>
   </g>
   <g id="PolyCollection_12">
    <defs>
     <path d="M 63.9 -126.875872 
L 63.9 -120.598835 
L 81.743774 -120.572852 
L 99.587547 -120.494543 
L 117.431321 -120.363657 
L 135.275094 -120.181796 
L 153.118868 -119.953548 
L 170.962642 -119.686159 
L 188.806415 -119.388185 
L 206.650189 -119.068053 
L 224.493962 -118.733129 
L 242.337736 -118.389361 
L 242.337736 -124.186666 
L 242.337736 -124.186666 
L 224.493962 -124.59575 
L 206.650189 -124.996847 
L 188.806415 -125.383018 
L 170.962642 -125.745317 
L 153.118868 -126.073087 
L 135.275094 -126.355067 
L 117.431321 -126.581272 
L 99.587547 -126.744939 
L 81.743774 -126.843209 
L 63.9 -126.875872 
z
" id="md59f351ac9" style="stroke:#ff7f0e;stroke-opacity:0.2;"/>
    </defs>
    <g clip-path="url(#pbb494db310)">
     <use style="fill:#ff7f0e;fill-opacity:0.2;stroke:#ff7f0e;stroke-opacity:0.2;" x="0" xlink:href="#md59f351ac9" y="287.28"/>
    </g>
   </g>
   <g id="PolyCollection_13">
    <defs>
     <path d="M 63.9 -120.332559 
L 63.9 -107.061405 
L 81.743774 -107.027869 
L 99.587547 -106.926882 
L 117.431321 -106.758314 
L 135.275094 -106.52435 
L 153.118868 -106.230723 
L 170.962642 -105.886193 
L 188.806415 -105.500924 
L 206.650189 -105.084893 
L 224.493962 -104.646911 
L 242.337736 -104.194267 
L 242.337736 -115.443173 
L 242.337736 -115.443173 
L 224.493962 -116.161593 
L 206.650189 -116.874517 
L 188.806415 -117.569195 
L 170.962642 -118.228492 
L 153.118868 -118.831309 
L 135.275094 -119.354693 
L 117.431321 -119.777676 
L 99.587547 -120.085399 
L 81.743774 -120.270822 
L 63.9 -120.332559 
z
" id="m2abed01e36" style="stroke:#2ca02c;stroke-opacity:0.2;"/>
    </defs>
    <g clip-path="url(#pbb494db310)">
     <use style="fill:#2ca02c;fill-opacity:0.2;stroke:#2ca02c;stroke-opacity:0.2;" x="0" xlink:href="#m2abed01e36" y="287.28"/>
    </g>
   </g>
   <g id="PolyCollection_14">
    <defs>
     <path d="M 63.9 -104.545855 
L 63.9 -87.789371 
L 81.743774 -87.76124 
L 99.587547 -87.67671 
L 117.431321 -87.53615 
L 135.275094 -87.341949 
L 153.118868 -87.099175 
L 170.962642 -86.814814 
L 188.806415 -86.496341 
L 206.650189 -86.150609 
L 224.493962 -85.783383 
L 242.337736 -85.399335 
L 242.337736 -99.738434 
L 242.337736 -99.738434 
L 224.493962 -100.491216 
L 206.650189 -101.223486 
L 188.806415 -101.922102 
L 170.962642 -102.570948 
L 153.118868 -103.151778 
L 135.275094 -103.646298 
L 117.431321 -104.03929 
L 99.587547 -104.321468 
L 81.743774 -104.489994 
L 63.9 -104.545855 
z
" id="m6a4f5bb01d" style="stroke:#d62728;stroke-opacity:0.2;"/>
    </defs>
    <g clip-path="url(#pbb494db310)">
     <use style="fill:#d62728;fill-opacity:0.2;stroke:#d62728;stroke-opacity:0.2;" x="0" xlink:href="#m6a4f5bb01d" y="287.28"/>
    </g>
   </g>
   <g id="PolyCollection_15">
    <defs>
     <path d="M 63.9 -73.515112 
L 63.9 -55.730654 
L 81.743774 -55.751368 
L 99.587547 -55.811459 
L 117.431321 -55.9042 
L 135.275094 -56.017578 
L 153.118868 -56.135533 
L 170.962642 -56.241188 
L 188.806415 -56.320298 
L 206.650189 -56.363208 
L 224.493962 -56.365025 
L 242.337736 -56.324708 
L 242.337736 -70.297119 
L 242.337736 -70.297119 
L 224.493962 -70.830197 
L 206.650189 -71.337486 
L 188.806415 -71.811199 
L 170.962642 -72.242567 
L 153.118868 -72.622287 
L 135.275094 -72.941449 
L 117.431321 -73.19291 
L 99.587547 -73.372585 
L 81.743774 -73.47965 
L 63.9 -73.515112 
z
" id="mb1892401a6" style="stroke:#9467bd;stroke-opacity:0.2;"/>
    </defs>
    <g clip-path="url(#pbb494db310)">
     <use style="fill:#9467bd;fill-opacity:0.2;stroke:#9467bd;stroke-opacity:0.2;" x="0" xlink:href="#mb1892401a6" y="287.28"/>
    </g>
   </g>
   <g id="matplotlib.axis_5">
    <g id="xtick_11">
     <g id="line2d_40">
      <g>
       <use style="stroke:#000000;stroke-width:0.8;" x="63.9" xlink:href="#mba9f85dce5" y="255.6792"/>
      </g>
     </g>
     <g id="text_19">
      <!-- 0.0 -->
      <g transform="translate(57.938714 268.375749)scale(0.07497 -0.07497)">
       <use xlink:href="#DejaVuSans-48"/>
       <use x="63.623047" xlink:href="#DejaVuSans-46"/>
       <use x="95.410156" xlink:href="#DejaVuSans-48"/>
      </g>
     </g>
    </g>
    <g id="xtick_12">
     <g id="line2d_41">
      <g>
       <use style="stroke:#000000;stroke-width:0.8;" x="108.509434" xlink:href="#mba9f85dce5" y="255.6792"/>
      </g>
     </g>
     <g id="text_20">
      <!-- 0.5 -->
      <g transform="translate(102.548148 268.375749)scale(0.07497 -0.07497)">
       <use xlink:href="#DejaVuSans-48"/>
       <use x="63.623047" xlink:href="#DejaVuSans-46"/>
       <use x="95.410156" xlink:href="#DejaVuSans-53"/>
      </g>
     </g>
    </g>
    <g id="xtick_13">
     <g id="line2d_42">
      <g>
       <use style="stroke:#000000;stroke-width:0.8;" x="153.118868" xlink:href="#mba9f85dce5" y="255.6792"/>
      </g>
     </g>
     <g id="text_21">
      <!-- 1.0 -->
      <g transform="translate(147.157582 268.375749)scale(0.07497 -0.07497)">
       <use xlink:href="#DejaVuSans-49"/>
       <use x="63.623047" xlink:href="#DejaVuSans-46"/>
       <use x="95.410156" xlink:href="#DejaVuSans-48"/>
      </g>
     </g>
    </g>
    <g id="xtick_14">
     <g id="line2d_43">
      <g>
       <use style="stroke:#000000;stroke-width:0.8;" x="197.728302" xlink:href="#mba9f85dce5" y="255.6792"/>
      </g>
     </g>
     <g id="text_22">
      <!-- 1.5 -->
      <g transform="translate(191.767015 268.375749)scale(0.07497 -0.07497)">
       <use xlink:href="#DejaVuSans-49"/>
       <use x="63.623047" xlink:href="#DejaVuSans-46"/>
       <use x="95.410156" xlink:href="#DejaVuSans-53"/>
      </g>
     </g>
    </g>
    <g id="xtick_15">
     <g id="line2d_44">
      <g>
       <use style="stroke:#000000;stroke-width:0.8;" x="242.337736" xlink:href="#mba9f85dce5" y="255.6792"/>
      </g>
     </g>
     <g id="text_23">
      <!-- 2.0 -->
      <g transform="translate(236.376449 268.375749)scale(0.07497 -0.07497)">
       <use xlink:href="#DejaVuSans-50"/>
       <use x="63.623047" xlink:href="#DejaVuSans-46"/>
       <use x="95.410156" xlink:href="#DejaVuSans-48"/>
      </g>
     </g>
    </g>
    <g id="text_24">
     <!-- bias electric field (MV/m) -->
     <defs>
      <path d="M 44.28125 53.078125 
L 44.28125 44.578125 
Q 40.484375 46.53125 36.375 47.5 
Q 32.28125 48.484375 27.875 48.484375 
Q 21.1875 48.484375 17.84375 46.4375 
Q 14.5 44.390625 14.5 40.28125 
Q 14.5 37.15625 16.890625 35.375 
Q 19.28125 33.59375 26.515625 31.984375 
L 29.59375 31.296875 
Q 39.15625 29.25 43.1875 25.515625 
Q 47.21875 21.78125 47.21875 15.09375 
Q 47.21875 7.46875 41.1875 3.015625 
Q 35.15625 -1.421875 24.609375 -1.421875 
Q 20.21875 -1.421875 15.453125 -0.5625 
Q 10.6875 0.296875 5.421875 2 
L 5.421875 11.28125 
Q 10.40625 8.6875 15.234375 7.390625 
Q 20.0625 6.109375 24.8125 6.109375 
Q 31.15625 6.109375 34.5625 8.28125 
Q 37.984375 10.453125 37.984375 14.40625 
Q 37.984375 18.0625 35.515625 20.015625 
Q 33.0625 21.96875 24.703125 23.78125 
L 21.578125 24.515625 
Q 13.234375 26.265625 9.515625 29.90625 
Q 5.8125 33.546875 5.8125 39.890625 
Q 5.8125 47.609375 11.28125 51.796875 
Q 16.75 56 26.8125 56 
Q 31.78125 56 36.171875 55.265625 
Q 40.578125 54.546875 44.28125 53.078125 
z
" id="DejaVuSans-115"/>
      <path d="M 48.78125 52.59375 
L 48.78125 44.1875 
Q 44.96875 46.296875 41.140625 47.34375 
Q 37.3125 48.390625 33.40625 48.390625 
Q 24.65625 48.390625 19.8125 42.84375 
Q 14.984375 37.3125 14.984375 27.296875 
Q 14.984375 17.28125 19.8125 11.734375 
Q 24.65625 6.203125 33.40625 6.203125 
Q 37.3125 6.203125 41.140625 7.25 
Q 44.96875 8.296875 48.78125 10.40625 
L 48.78125 2.09375 
Q 45.015625 0.34375 40.984375 -0.53125 
Q 36.96875 -1.421875 32.421875 -1.421875 
Q 20.0625 -1.421875 12.78125 6.34375 
Q 5.515625 14.109375 5.515625 27.296875 
Q 5.515625 40.671875 12.859375 48.328125 
Q 20.21875 56 33.015625 56 
Q 37.15625 56 41.109375 55.140625 
Q 45.0625 54.296875 48.78125 52.59375 
z
" id="DejaVuSans-99"/>
      <path d="M 37.109375 75.984375 
L 37.109375 68.5 
L 28.515625 68.5 
Q 23.6875 68.5 21.796875 66.546875 
Q 19.921875 64.59375 19.921875 59.515625 
L 19.921875 54.6875 
L 34.71875 54.6875 
L 34.71875 47.703125 
L 19.921875 47.703125 
L 19.921875 0 
L 10.890625 0 
L 10.890625 47.703125 
L 2.296875 47.703125 
L 2.296875 54.6875 
L 10.890625 54.6875 
L 10.890625 58.5 
Q 10.890625 67.625 15.140625 71.796875 
Q 19.390625 75.984375 28.609375 75.984375 
z
" id="DejaVuSans-102"/>
      <path d="M 31 75.875 
Q 24.46875 64.65625 21.28125 53.65625 
Q 18.109375 42.671875 18.109375 31.390625 
Q 18.109375 20.125 21.3125 9.0625 
Q 24.515625 -2 31 -13.1875 
L 23.1875 -13.1875 
Q 15.875 -1.703125 12.234375 9.375 
Q 8.59375 20.453125 8.59375 31.390625 
Q 8.59375 42.28125 12.203125 53.3125 
Q 15.828125 64.359375 23.1875 75.875 
z
" id="DejaVuSans-40"/>
      <path d="M 9.8125 72.90625 
L 24.515625 72.90625 
L 43.109375 23.296875 
L 61.8125 72.90625 
L 76.515625 72.90625 
L 76.515625 0 
L 66.890625 0 
L 66.890625 64.015625 
L 48.09375 14.015625 
L 38.1875 14.015625 
L 19.390625 64.015625 
L 19.390625 0 
L 9.8125 0 
z
" id="DejaVuSans-77"/>
      <path d="M 28.609375 0 
L 0.78125 72.90625 
L 11.078125 72.90625 
L 34.1875 11.53125 
L 57.328125 72.90625 
L 67.578125 72.90625 
L 39.796875 0 
z
" id="DejaVuSans-86"/>
      <path d="M 25.390625 72.90625 
L 33.6875 72.90625 
L 8.296875 -9.28125 
L 0 -9.28125 
z
" id="DejaVuSans-47"/>
      <path d="M 8.015625 75.875 
L 15.828125 75.875 
Q 23.140625 64.359375 26.78125 53.3125 
Q 30.421875 42.28125 30.421875 31.390625 
Q 30.421875 20.453125 26.78125 9.375 
Q 23.140625 -1.703125 15.828125 -13.1875 
L 8.015625 -13.1875 
Q 14.5 -2 17.703125 9.0625 
Q 20.90625 20.125 20.90625 31.390625 
Q 20.90625 42.671875 17.703125 53.65625 
Q 14.5 64.65625 8.015625 75.875 
z
" id="DejaVuSans-41"/>
     </defs>
     <g transform="translate(96.937071 280.773484)scale(0.09 -0.09)">
      <use xlink:href="#DejaVuSans-98"/>
      <use x="63.476562" xlink:href="#DejaVuSans-105"/>
      <use x="91.259766" xlink:href="#DejaVuSans-97"/>
      <use x="152.539062" xlink:href="#DejaVuSans-115"/>
      <use x="204.638672" xlink:href="#DejaVuSans-32"/>
      <use x="236.425781" xlink:href="#DejaVuSans-101"/>
      <use x="297.949219" xlink:href="#DejaVuSans-108"/>
      <use x="325.732422" xlink:href="#DejaVuSans-101"/>
      <use x="387.255859" xlink:href="#DejaVuSans-99"/>
      <use x="442.236328" xlink:href="#DejaVuSans-116"/>
      <use x="481.445312" xlink:href="#DejaVuSans-114"/>
      <use x="522.558594" xlink:href="#DejaVuSans-105"/>
      <use x="550.341797" xlink:href="#DejaVuSans-99"/>
      <use x="605.322266" xlink:href="#DejaVuSans-32"/>
      <use x="637.109375" xlink:href="#DejaVuSans-102"/>
      <use x="672.314453" xlink:href="#DejaVuSans-105"/>
      <use x="700.097656" xlink:href="#DejaVuSans-101"/>
      <use x="761.621094" xlink:href="#DejaVuSans-108"/>
      <use x="789.404297" xlink:href="#DejaVuSans-100"/>
      <use x="852.880859" xlink:href="#DejaVuSans-32"/>
      <use x="884.667969" xlink:href="#DejaVuSans-40"/>
      <use x="923.681641" xlink:href="#DejaVuSans-77"/>
      <use x="1009.960938" xlink:href="#DejaVuSans-86"/>
      <use x="1078.369141" xlink:href="#DejaVuSans-47"/>
      <use x="1112.060547" xlink:href="#DejaVuSans-109"/>
      <use x="1209.472656" xlink:href="#DejaVuSans-41"/>
     </g>
    </g>
   </g>
   <g id="matplotlib.axis_6">
    <g id="ytick_10">
     <g id="line2d_45">
      <g>
       <use style="stroke:#000000;stroke-width:0.8;" x="63.9" xlink:href="#m2749198469" y="244.128251"/>
      </g>
     </g>
     <g id="text_25">
      <!-- 0.6 -->
      <g transform="translate(44.977427 246.976526)scale(0.07497 -0.07497)">
       <use xlink:href="#DejaVuSans-48"/>
       <use x="63.623047" xlink:href="#DejaVuSans-46"/>
       <use x="95.410156" xlink:href="#DejaVuSans-54"/>
      </g>
     </g>
    </g>
    <g id="ytick_11">
     <g id="line2d_46">
      <g>
       <use style="stroke:#000000;stroke-width:0.8;" x="63.9" xlink:href="#m2749198469" y="221.026354"/>
      </g>
     </g>
     <g id="text_26">
      <!-- 0.7 -->
      <g transform="translate(44.977427 223.874628)scale(0.07497 -0.07497)">
       <use xlink:href="#DejaVuSans-48"/>
       <use x="63.623047" xlink:href="#DejaVuSans-46"/>
       <use x="95.410156" xlink:href="#DejaVuSans-55"/>
      </g>
     </g>
    </g>
    <g id="ytick_12">
     <g id="line2d_47">
      <g>
       <use style="stroke:#000000;stroke-width:0.8;" x="63.9" xlink:href="#m2749198469" y="197.924457"/>
      </g>
     </g>
     <g id="text_27">
      <!-- 0.8 -->
      <g transform="translate(44.977427 200.772731)scale(0.07497 -0.07497)">
       <use xlink:href="#DejaVuSans-48"/>
       <use x="63.623047" xlink:href="#DejaVuSans-46"/>
       <use x="95.410156" xlink:href="#DejaVuSans-56"/>
      </g>
     </g>
    </g>
    <g id="ytick_13">
     <g id="line2d_48">
      <g>
       <use style="stroke:#000000;stroke-width:0.8;" x="63.9" xlink:href="#m2749198469" y="174.82256"/>
      </g>
     </g>
     <g id="text_28">
      <!-- 0.9 -->
      <g transform="translate(44.977427 177.670834)scale(0.07497 -0.07497)">
       <use xlink:href="#DejaVuSans-48"/>
       <use x="63.623047" xlink:href="#DejaVuSans-46"/>
       <use x="95.410156" xlink:href="#DejaVuSans-57"/>
      </g>
     </g>
    </g>
    <g id="ytick_14">
     <g id="line2d_49">
      <g>
       <use style="stroke:#000000;stroke-width:0.8;" x="63.9" xlink:href="#m2749198469" y="151.720662"/>
      </g>
     </g>
     <g id="text_29">
      <!-- 1.0 -->
      <g transform="translate(44.977427 154.568937)scale(0.07497 -0.07497)">
       <use xlink:href="#DejaVuSans-49"/>
       <use x="63.623047" xlink:href="#DejaVuSans-46"/>
       <use x="95.410156" xlink:href="#DejaVuSans-48"/>
      </g>
     </g>
    </g>
    <g id="text_30">
     <!-- normalized loss tangent -->
     <defs>
      <path d="M 45.40625 27.984375 
Q 45.40625 37.75 41.375 43.109375 
Q 37.359375 48.484375 30.078125 48.484375 
Q 22.859375 48.484375 18.828125 43.109375 
Q 14.796875 37.75 14.796875 27.984375 
Q 14.796875 18.265625 18.828125 12.890625 
Q 22.859375 7.515625 30.078125 7.515625 
Q 37.359375 7.515625 41.375 12.890625 
Q 45.40625 18.265625 45.40625 27.984375 
z
M 54.390625 6.78125 
Q 54.390625 -7.171875 48.1875 -13.984375 
Q 42 -20.796875 29.203125 -20.796875 
Q 24.46875 -20.796875 20.265625 -20.09375 
Q 16.0625 -19.390625 12.109375 -17.921875 
L 12.109375 -9.1875 
Q 16.0625 -11.328125 19.921875 -12.34375 
Q 23.78125 -13.375 27.78125 -13.375 
Q 36.625 -13.375 41.015625 -8.765625 
Q 45.40625 -4.15625 45.40625 5.171875 
L 45.40625 9.625 
Q 42.625 4.78125 38.28125 2.390625 
Q 33.9375 0 27.875 0 
Q 17.828125 0 11.671875 7.65625 
Q 5.515625 15.328125 5.515625 27.984375 
Q 5.515625 40.671875 11.671875 48.328125 
Q 17.828125 56 27.875 56 
Q 33.9375 56 38.28125 53.609375 
Q 42.625 51.21875 45.40625 46.390625 
L 45.40625 54.6875 
L 54.390625 54.6875 
z
" id="DejaVuSans-103"/>
     </defs>
     <g transform="translate(39.105708 256.795852)rotate(-90)scale(0.09 -0.09)">
      <use xlink:href="#DejaVuSans-110"/>
      <use x="63.378906" xlink:href="#DejaVuSans-111"/>
      <use x="124.560547" xlink:href="#DejaVuSans-114"/>
      <use x="165.658203" xlink:href="#DejaVuSans-109"/>
      <use x="263.070312" xlink:href="#DejaVuSans-97"/>
      <use x="324.349609" xlink:href="#DejaVuSans-108"/>
      <use x="352.132812" xlink:href="#DejaVuSans-105"/>
      <use x="379.916016" xlink:href="#DejaVuSans-122"/>
      <use x="432.40625" xlink:href="#DejaVuSans-101"/>
      <use x="493.929688" xlink:href="#DejaVuSans-100"/>
      <use x="557.40625" xlink:href="#DejaVuSans-32"/>
      <use x="589.193359" xlink:href="#DejaVuSans-108"/>
      <use x="616.976562" xlink:href="#DejaVuSans-111"/>
      <use x="678.158203" xlink:href="#DejaVuSans-115"/>
      <use x="730.257812" xlink:href="#DejaVuSans-115"/>
      <use x="782.357422" xlink:href="#DejaVuSans-32"/>
      <use x="814.144531" xlink:href="#DejaVuSans-116"/>
      <use x="853.353516" xlink:href="#DejaVuSans-97"/>
      <use x="914.632812" xlink:href="#DejaVuSans-110"/>
      <use x="978.011719" xlink:href="#DejaVuSans-103"/>
      <use x="1041.488281" xlink:href="#DejaVuSans-101"/>
      <use x="1103.011719" xlink:href="#DejaVuSans-110"/>
      <use x="1166.390625" xlink:href="#DejaVuSans-116"/>
     </g>
    </g>
   </g>
   <g id="line2d_50">
    <path clip-path="url(#pbb494db310)" d="M 63.9 155.564044 
L 81.743774 155.576759 
L 99.587547 155.61516 
L 117.431321 155.679595 
L 135.275094 155.769607 
L 153.118868 155.883301 
L 170.962642 156.017416 
L 188.806415 156.167938 
L 206.650189 156.330806 
L 224.493962 156.502396 
L 242.337736 156.679726 
" style="fill:none;stroke:#1f77b4;stroke-linecap:square;stroke-width:1.5;"/>
   </g>
   <g id="line2d_51">
    <path clip-path="url(#pbb494db310)" d="M 63.9 163.542646 
L 81.743774 163.571969 
L 99.587547 163.660259 
L 117.431321 163.807536 
L 135.275094 164.011568 
L 153.118868 164.266682 
L 170.962642 164.564262 
L 188.806415 164.894398 
L 206.650189 165.24755 
L 224.493962 165.61556 
L 242.337736 165.991986 
" style="fill:none;stroke:#ff7f0e;stroke-linecap:square;stroke-width:1.5;"/>
   </g>
   <g id="line2d_52">
    <path clip-path="url(#pbb494db310)" d="M 63.9 173.583018 
L 81.743774 173.630654 
L 99.587547 173.773859 
L 117.431321 174.012005 
L 135.275094 174.340479 
L 153.118868 174.748984 
L 170.962642 175.222658 
L 188.806415 175.74494 
L 206.650189 176.300295 
L 224.493962 176.875748 
L 242.337736 177.46128 
" style="fill:none;stroke:#2ca02c;stroke-linecap:square;stroke-width:1.5;"/>
   </g>
   <g id="line2d_53">
    <path clip-path="url(#pbb494db310)" d="M 63.9 191.112387 
L 81.743774 191.154383 
L 99.587547 191.280911 
L 117.431321 191.49228 
L 135.275094 191.785877 
L 153.118868 192.154523 
L 170.962642 192.587119 
L 188.806415 193.070779 
L 206.650189 193.592952 
L 224.493962 194.1427 
L 242.337736 194.711116 
" style="fill:none;stroke:#d62728;stroke-linecap:square;stroke-width:1.5;"/>
   </g>
   <g id="line2d_54">
    <path clip-path="url(#pbb494db310)" d="M 63.9 222.657117 
L 81.743774 222.664491 
L 99.587547 222.687978 
L 117.431321 222.731445 
L 135.275094 222.800487 
L 153.118868 222.90109 
L 170.962642 223.038122 
L 188.806415 223.214251 
L 206.650189 223.429653 
L 224.493962 223.682389 
L 242.337736 223.969086 
" style="fill:none;stroke:#9467bd;stroke-linecap:square;stroke-width:1.5;"/>
   </g>
   <g id="patch_13">
    <path d="M 63.9 255.6792 
L 63.9 149.410473 
" style="fill:none;stroke:#000000;stroke-linecap:square;stroke-linejoin:miter;stroke-width:0.8;"/>
   </g>
   <g id="patch_14">
    <path d="M 242.337736 255.6792 
L 242.337736 149.410473 
" style="fill:none;stroke:#000000;stroke-linecap:square;stroke-linejoin:miter;stroke-width:0.8;"/>
   </g>
   <g id="patch_15">
    <path d="M 63.9 255.6792 
L 242.337736 255.6792 
" style="fill:none;stroke:#000000;stroke-linecap:square;stroke-linejoin:miter;stroke-width:0.8;"/>
   </g>
   <g id="patch_16">
    <path d="M 63.9 149.410473 
L 242.337736 149.410473 
" style="fill:none;stroke:#000000;stroke-linecap:square;stroke-linejoin:miter;stroke-width:0.8;"/>
   </g>
   <g id="text_31">
    <!-- b -->
    <defs>
     <path d="M 37.5 11.28125 
Q 43.109375 11.28125 46.0625 15.375 
Q 49.03125 19.484375 49.03125 27.296875 
Q 49.03125 35.109375 46.0625 39.203125 
Q 43.109375 43.3125 37.5 43.3125 
Q 31.890625 43.3125 28.875 39.1875 
Q 25.875 35.0625 25.875 27.296875 
Q 25.875 19.53125 28.875 15.40625 
Q 31.890625 11.28125 37.5 11.28125 
z
M 25.875 46.6875 
Q 29.5 51.46875 33.890625 53.734375 
Q 38.28125 56 44 56 
Q 54.109375 56 60.59375 47.96875 
Q 67.09375 39.9375 67.09375 27.296875 
Q 67.09375 14.65625 60.59375 6.609375 
Q 54.109375 -1.421875 44 -1.421875 
Q 38.28125 -1.421875 33.890625 0.84375 
Q 29.5 3.125 25.875 7.90625 
L 25.875 0 
L 8.40625 0 
L 8.40625 75.984375 
L 25.875 75.984375 
z
" id="DejaVuSans-Bold-98"/>
    </defs>
    <g transform="translate(19.290566 144.097036)scale(0.108 -0.108)">
     <use xlink:href="#DejaVuSans-Bold-98"/>
    </g>
   </g>
  </g>
  <g id="axes_4">
   <g id="patch_17">
    <path d="M 313.287978 255.6792 
L 491.725714 255.6792 
L 491.725714 149.410473 
L 313.287978 149.410473 
z
" style="fill:#ffffff;"/>
   </g>
   <g id="PolyCollection_16">
    <defs>
     <path d="M 313.287978 -121.548594 
L 313.287978 -109.125864 
L 331.131752 -107.645977 
L 348.975526 -103.320839 
L 366.819299 -96.51834 
L 384.663073 -87.869241 
L 402.506846 -78.168718 
L 420.35062 -68.191892 
L 438.194394 -58.5378 
L 456.038167 -49.574799 
L 473.881941 -41.471117 
L 491.725714 -34.258401 
L 491.725714 -40.185624 
L 491.725714 -40.185624 
L 473.881941 -47.953323 
L 456.038167 -56.698969 
L 438.194394 -66.394592 
L 420.35062 -76.864078 
L 402.506846 -87.711811 
L 384.663073 -98.286201 
L 366.819299 -107.736561 
L 348.975526 -115.18364 
L 331.131752 -119.925107 
L 313.287978 -121.548594 
z
" id="m50ef168402" style="stroke:#1f77b4;stroke-opacity:0.2;"/>
    </defs>
    <g clip-path="url(#p86fb74107f)">
     <use style="fill:#1f77b4;fill-opacity:0.2;stroke:#1f77b4;stroke-opacity:0.2;" x="0" xlink:href="#m50ef168402" y="287.28"/>
    </g>
   </g>
   <g id="PolyCollection_17">
    <defs>
     <path d="M 313.287978 -121.971471 
L 313.287978 -102.874779 
L 331.131752 -101.648639 
L 348.975526 -98.053733 
L 366.819299 -92.364854 
L 384.663073 -85.068347 
L 402.506846 -76.797241 
L 420.35062 -68.189384 
L 438.194394 -59.757082 
L 456.038167 -51.832535 
L 473.881941 -44.583424 
L 491.725714 -38.059763 
L 491.725714 -51.084449 
L 491.725714 -51.084449 
L 473.881941 -58.212071 
L 456.038167 -66.124994 
L 438.194394 -74.771919 
L 420.35062 -83.975185 
L 402.506846 -93.378521 
L 384.663073 -102.427176 
L 366.819299 -110.423885 
L 348.975526 -116.669797 
L 331.131752 -120.622306 
L 313.287978 -121.971471 
z
" id="mcc3cbdee52" style="stroke:#ff7f0e;stroke-opacity:0.2;"/>
    </defs>
    <g clip-path="url(#p86fb74107f)">
     <use style="fill:#ff7f0e;fill-opacity:0.2;stroke:#ff7f0e;stroke-opacity:0.2;" x="0" xlink:href="#mcc3cbdee52" y="287.28"/>
    </g>
   </g>
   <g id="PolyCollection_18">
    <defs>
     <path d="M 313.287978 -128.563882 
L 313.287978 -97.360683 
L 331.131752 -96.38495 
L 348.975526 -93.516077 
L 366.819299 -88.950612 
L 384.663073 -83.047005 
L 402.506846 -76.285447 
L 420.35062 -69.164272 
L 438.194394 -62.097875 
L 456.038167 -55.368191 
L 473.881941 -49.130125 
L 491.725714 -43.443645 
L 491.725714 -61.558743 
L 491.725714 -61.558743 
L 473.881941 -68.49756 
L 456.038167 -76.143295 
L 438.194394 -84.431887 
L 420.35062 -93.180793 
L 402.506846 -102.045274 
L 384.663073 -110.506816 
L 366.819299 -117.930506 
L 348.975526 -123.694462 
L 331.131752 -127.326711 
L 313.287978 -128.563882 
z
" id="mbaaf857128" style="stroke:#2ca02c;stroke-opacity:0.2;"/>
    </defs>
    <g clip-path="url(#p86fb74107f)">
     <use style="fill:#2ca02c;fill-opacity:0.2;stroke:#2ca02c;stroke-opacity:0.2;" x="0" xlink:href="#mbaaf857128" y="287.28"/>
    </g>
   </g>
   <g id="PolyCollection_19">
    <defs>
     <path d="M 313.287978 -129.646425 
L 313.287978 -94.211385 
L 331.131752 -93.462025 
L 348.975526 -91.250874 
L 366.819299 -87.707484 
L 384.663073 -83.07948 
L 402.506846 -77.712759 
L 420.35062 -71.980859 
L 438.194394 -66.208174 
L 456.038167 -60.627845 
L 473.881941 -55.379289 
L 491.725714 -50.527906 
L 491.725714 -72.145469 
L 491.725714 -72.145469 
L 473.881941 -78.374997 
L 456.038167 -85.156503 
L 438.194394 -92.415779 
L 420.35062 -99.979811 
L 402.506846 -107.54643 
L 384.663073 -114.682501 
L 366.819299 -120.876892 
L 348.975526 -125.645247 
L 331.131752 -128.632167 
L 313.287978 -129.646425 
z
" id="meca03128f8" style="stroke:#d62728;stroke-opacity:0.2;"/>
    </defs>
    <g clip-path="url(#p86fb74107f)">
     <use style="fill:#d62728;fill-opacity:0.2;stroke:#d62728;stroke-opacity:0.2;" x="0" xlink:href="#meca03128f8" y="287.28"/>
    </g>
   </g>
   <g id="PolyCollection_20">
    <defs>
     <path d="M 313.287978 -121.853611 
L 313.287978 -95.1483 
L 331.131752 -94.592112 
L 348.975526 -92.944183 
L 366.819299 -90.282009 
L 384.663073 -86.764567 
L 402.506846 -82.626847 
L 420.35062 -78.135539 
L 438.194394 -73.534344 
L 456.038167 -69.009292 
L 473.881941 -64.68138 
L 491.725714 -60.616684 
L 491.725714 -78.453653 
L 491.725714 -78.453653 
L 473.881941 -83.453366 
L 456.038167 -88.806495 
L 438.194394 -94.437465 
L 420.35062 -100.200186 
L 402.506846 -105.862546 
L 384.663073 -111.112777 
L 366.819299 -115.60207 
L 348.975526 -119.016126 
L 331.131752 -121.136661 
L 313.287978 -121.853611 
z
" id="mb73e4f4c3d" style="stroke:#9467bd;stroke-opacity:0.2;"/>
    </defs>
    <g clip-path="url(#p86fb74107f)">
     <use style="fill:#9467bd;fill-opacity:0.2;stroke:#9467bd;stroke-opacity:0.2;" x="0" xlink:href="#mb73e4f4c3d" y="287.28"/>
    </g>
   </g>
   <g id="matplotlib.axis_7">
    <g id="xtick_16">
     <g id="line2d_55">
      <g>
       <use style="stroke:#000000;stroke-width:0.8;" x="313.287978" xlink:href="#mba9f85dce5" y="255.6792"/>
      </g>
     </g>
     <g id="text_32">
      <!-- 0.0 -->
      <g transform="translate(307.326692 268.375749)scale(0.07497 -0.07497)">
       <use xlink:href="#DejaVuSans-48"/>
       <use x="63.623047" xlink:href="#DejaVuSans-46"/>
       <use x="95.410156" xlink:href="#DejaVuSans-48"/>
      </g>
     </g>
    </g>
    <g id="xtick_17">
     <g id="line2d_56">
      <g>
       <use style="stroke:#000000;stroke-width:0.8;" x="357.897412" xlink:href="#mba9f85dce5" y="255.6792"/>
      </g>
     </g>
     <g id="text_33">
      <!-- 0.5 -->
      <g transform="translate(351.936126 268.375749)scale(0.07497 -0.07497)">
       <use xlink:href="#DejaVuSans-48"/>
       <use x="63.623047" xlink:href="#DejaVuSans-46"/>
       <use x="95.410156" xlink:href="#DejaVuSans-53"/>
      </g>
     </g>
    </g>
    <g id="xtick_18">
     <g id="line2d_57">
      <g>
       <use style="stroke:#000000;stroke-width:0.8;" x="402.506846" xlink:href="#mba9f85dce5" y="255.6792"/>
      </g>
     </g>
     <g id="text_34">
      <!-- 1.0 -->
      <g transform="translate(396.54556 268.375749)scale(0.07497 -0.07497)">
       <use xlink:href="#DejaVuSans-49"/>
       <use x="63.623047" xlink:href="#DejaVuSans-46"/>
       <use x="95.410156" xlink:href="#DejaVuSans-48"/>
      </g>
     </g>
    </g>
    <g id="xtick_19">
     <g id="line2d_58">
      <g>
       <use style="stroke:#000000;stroke-width:0.8;" x="447.11628" xlink:href="#mba9f85dce5" y="255.6792"/>
      </g>
     </g>
     <g id="text_35">
      <!-- 1.5 -->
      <g transform="translate(441.154994 268.375749)scale(0.07497 -0.07497)">
       <use xlink:href="#DejaVuSans-49"/>
       <use x="63.623047" xlink:href="#DejaVuSans-46"/>
       <use x="95.410156" xlink:href="#DejaVuSans-53"/>
      </g>
     </g>
    </g>
    <g id="xtick_20">
     <g id="line2d_59">
      <g>
       <use style="stroke:#000000;stroke-width:0.8;" x="491.725714" xlink:href="#mba9f85dce5" y="255.6792"/>
      </g>
     </g>
     <g id="text_36">
      <!-- 2.0 -->
      <g transform="translate(485.764428 268.375749)scale(0.07497 -0.07497)">
       <use xlink:href="#DejaVuSans-50"/>
       <use x="63.623047" xlink:href="#DejaVuSans-46"/>
       <use x="95.410156" xlink:href="#DejaVuSans-48"/>
      </g>
     </g>
    </g>
    <g id="text_37">
     <!-- bias electric field (MV/m) -->
     <g transform="translate(346.325049 280.773484)scale(0.09 -0.09)">
      <use xlink:href="#DejaVuSans-98"/>
      <use x="63.476562" xlink:href="#DejaVuSans-105"/>
      <use x="91.259766" xlink:href="#DejaVuSans-97"/>
      <use x="152.539062" xlink:href="#DejaVuSans-115"/>
      <use x="204.638672" xlink:href="#DejaVuSans-32"/>
      <use x="236.425781" xlink:href="#DejaVuSans-101"/>
      <use x="297.949219" xlink:href="#DejaVuSans-108"/>
      <use x="325.732422" xlink:href="#DejaVuSans-101"/>
      <use x="387.255859" xlink:href="#DejaVuSans-99"/>
      <use x="442.236328" xlink:href="#DejaVuSans-116"/>
      <use x="481.445312" xlink:href="#DejaVuSans-114"/>
      <use x="522.558594" xlink:href="#DejaVuSans-105"/>
      <use x="550.341797" xlink:href="#DejaVuSans-99"/>
      <use x="605.322266" xlink:href="#DejaVuSans-32"/>
      <use x="637.109375" xlink:href="#DejaVuSans-102"/>
      <use x="672.314453" xlink:href="#DejaVuSans-105"/>
      <use x="700.097656" xlink:href="#DejaVuSans-101"/>
      <use x="761.621094" xlink:href="#DejaVuSans-108"/>
      <use x="789.404297" xlink:href="#DejaVuSans-100"/>
      <use x="852.880859" xlink:href="#DejaVuSans-32"/>
      <use x="884.667969" xlink:href="#DejaVuSans-40"/>
      <use x="923.681641" xlink:href="#DejaVuSans-77"/>
      <use x="1009.960938" xlink:href="#DejaVuSans-86"/>
      <use x="1078.369141" xlink:href="#DejaVuSans-47"/>
      <use x="1112.060547" xlink:href="#DejaVuSans-109"/>
      <use x="1209.472656" xlink:href="#DejaVuSans-41"/>
     </g>
    </g>
   </g>
   <g id="matplotlib.axis_8">
    <g id="ytick_15">
     <g id="line2d_60">
      <g>
       <use style="stroke:#000000;stroke-width:0.8;" x="313.287978" xlink:href="#m2749198469" y="255.6792"/>
      </g>
     </g>
     <g id="text_38">
      <!-- 0.5 -->
      <g transform="translate(294.365406 258.527474)scale(0.07497 -0.07497)">
       <use xlink:href="#DejaVuSans-48"/>
       <use x="63.623047" xlink:href="#DejaVuSans-46"/>
       <use x="95.410156" xlink:href="#DejaVuSans-53"/>
      </g>
     </g>
    </g>
    <g id="ytick_16">
     <g id="line2d_61">
      <g>
       <use style="stroke:#000000;stroke-width:0.8;" x="313.287978" xlink:href="#m2749198469" y="239.074711"/>
      </g>
     </g>
     <g id="text_39">
      <!-- 0.6 -->
      <g transform="translate(294.365406 241.922986)scale(0.07497 -0.07497)">
       <use xlink:href="#DejaVuSans-48"/>
       <use x="63.623047" xlink:href="#DejaVuSans-46"/>
       <use x="95.410156" xlink:href="#DejaVuSans-54"/>
      </g>
     </g>
    </g>
    <g id="ytick_17">
     <g id="line2d_62">
      <g>
       <use style="stroke:#000000;stroke-width:0.8;" x="313.287978" xlink:href="#m2749198469" y="222.470223"/>
      </g>
     </g>
     <g id="text_40">
      <!-- 0.7 -->
      <g transform="translate(294.365406 225.318497)scale(0.07497 -0.07497)">
       <use xlink:href="#DejaVuSans-48"/>
       <use x="63.623047" xlink:href="#DejaVuSans-46"/>
       <use x="95.410156" xlink:href="#DejaVuSans-55"/>
      </g>
     </g>
    </g>
    <g id="ytick_18">
     <g id="line2d_63">
      <g>
       <use style="stroke:#000000;stroke-width:0.8;" x="313.287978" xlink:href="#m2749198469" y="205.865734"/>
      </g>
     </g>
     <g id="text_41">
      <!-- 0.8 -->
      <g transform="translate(294.365406 208.714008)scale(0.07497 -0.07497)">
       <use xlink:href="#DejaVuSans-48"/>
       <use x="63.623047" xlink:href="#DejaVuSans-46"/>
       <use x="95.410156" xlink:href="#DejaVuSans-56"/>
      </g>
     </g>
    </g>
    <g id="ytick_19">
     <g id="line2d_64">
      <g>
       <use style="stroke:#000000;stroke-width:0.8;" x="313.287978" xlink:href="#m2749198469" y="189.261245"/>
      </g>
     </g>
     <g id="text_42">
      <!-- 0.9 -->
      <g transform="translate(294.365406 192.10952)scale(0.07497 -0.07497)">
       <use xlink:href="#DejaVuSans-48"/>
       <use x="63.623047" xlink:href="#DejaVuSans-46"/>
       <use x="95.410156" xlink:href="#DejaVuSans-57"/>
      </g>
     </g>
    </g>
    <g id="ytick_20">
     <g id="line2d_65">
      <g>
       <use style="stroke:#000000;stroke-width:0.8;" x="313.287978" xlink:href="#m2749198469" y="172.656757"/>
      </g>
     </g>
     <g id="text_43">
      <!-- 1.0 -->
      <g transform="translate(294.365406 175.505031)scale(0.07497 -0.07497)">
       <use xlink:href="#DejaVuSans-49"/>
       <use x="63.623047" xlink:href="#DejaVuSans-46"/>
       <use x="95.410156" xlink:href="#DejaVuSans-48"/>
      </g>
     </g>
    </g>
    <g id="ytick_21">
     <g id="line2d_66">
      <g>
       <use style="stroke:#000000;stroke-width:0.8;" x="313.287978" xlink:href="#m2749198469" y="156.052268"/>
      </g>
     </g>
     <g id="text_44">
      <!-- 1.1 -->
      <g transform="translate(294.365406 158.900542)scale(0.07497 -0.07497)">
       <use xlink:href="#DejaVuSans-49"/>
       <use x="63.623047" xlink:href="#DejaVuSans-46"/>
       <use x="95.410156" xlink:href="#DejaVuSans-49"/>
      </g>
     </g>
    </g>
    <g id="text_45">
     <!-- anisotropy factor -->
     <g transform="translate(288.493687 241.002258)rotate(-90)scale(0.09 -0.09)">
      <use xlink:href="#DejaVuSans-97"/>
      <use x="61.279297" xlink:href="#DejaVuSans-110"/>
      <use x="124.658203" xlink:href="#DejaVuSans-105"/>
      <use x="152.441406" xlink:href="#DejaVuSans-115"/>
      <use x="204.541016" xlink:href="#DejaVuSans-111"/>
      <use x="265.722656" xlink:href="#DejaVuSans-116"/>
      <use x="304.931641" xlink:href="#DejaVuSans-114"/>
      <use x="346.013672" xlink:href="#DejaVuSans-111"/>
      <use x="407.195312" xlink:href="#DejaVuSans-112"/>
      <use x="470.671875" xlink:href="#DejaVuSans-121"/>
      <use x="529.851562" xlink:href="#DejaVuSans-32"/>
      <use x="561.638672" xlink:href="#DejaVuSans-102"/>
      <use x="596.84375" xlink:href="#DejaVuSans-97"/>
      <use x="658.123047" xlink:href="#DejaVuSans-99"/>
      <use x="713.103516" xlink:href="#DejaVuSans-116"/>
      <use x="752.3125" xlink:href="#DejaVuSans-111"/>
      <use x="813.494141" xlink:href="#DejaVuSans-114"/>
     </g>
    </g>
   </g>
   <g id="line2d_67">
    <path clip-path="url(#p86fb74107f)" d="M 313.287978 171.942771 
L 331.131752 173.494458 
L 348.975526 178.02776 
L 366.819299 185.15255 
L 384.663073 194.202279 
L 402.506846 204.339736 
L 420.35062 214.752015 
L 438.194394 224.813804 
L 456.038167 234.143116 
L 473.881941 242.56778 
L 491.725714 250.057987 
" style="fill:none;stroke:#1f77b4;stroke-linecap:square;stroke-width:1.5;"/>
   </g>
   <g id="line2d_68">
    <path clip-path="url(#p86fb74107f)" d="M 313.287978 174.856875 
L 331.131752 176.144528 
L 348.975526 179.918235 
L 366.819299 185.88563 
L 384.663073 193.532238 
L 402.506846 202.192119 
L 420.35062 211.197716 
L 438.194394 220.015499 
L 456.038167 228.301236 
L 473.881941 235.882253 
L 491.725714 242.707894 
" style="fill:none;stroke:#ff7f0e;stroke-linecap:square;stroke-width:1.5;"/>
   </g>
   <g id="line2d_69">
    <path clip-path="url(#p86fb74107f)" d="M 313.287978 174.317717 
L 331.131752 175.424169 
L 348.975526 178.674731 
L 366.819299 183.839441 
L 384.663073 190.503089 
L 402.506846 198.11464 
L 420.35062 206.107467 
L 438.194394 214.015119 
L 456.038167 221.524257 
L 473.881941 228.466157 
L 491.725714 234.778806 
" style="fill:none;stroke:#2ca02c;stroke-linecap:square;stroke-width:1.5;"/>
   </g>
   <g id="line2d_70">
    <path clip-path="url(#p86fb74107f)" d="M 313.287978 175.351095 
L 331.131752 176.232904 
L 348.975526 178.831939 
L 366.819299 182.987812 
L 384.663073 188.39901 
L 402.506846 194.650405 
L 420.35062 201.299665 
L 438.194394 207.968024 
L 456.038167 214.387826 
L 473.881941 220.402857 
L 491.725714 225.943312 
" style="fill:none;stroke:#d62728;stroke-linecap:square;stroke-width:1.5;"/>
   </g>
   <g id="line2d_71">
    <path clip-path="url(#p86fb74107f)" d="M 313.287978 178.779045 
L 331.131752 179.415614 
L 348.975526 181.299846 
L 366.819299 184.337961 
L 384.663073 188.341328 
L 402.506846 193.035304 
L 420.35062 198.112137 
L 438.194394 203.294095 
L 456.038167 208.372106 
L 473.881941 213.212627 
L 491.725714 217.744831 
" style="fill:none;stroke:#9467bd;stroke-linecap:square;stroke-width:1.5;"/>
   </g>
   <g id="patch_18">
    <path d="M 313.287978 255.6792 
L 313.287978 149.410473 
" style="fill:none;stroke:#000000;stroke-linecap:square;stroke-linejoin:miter;stroke-width:0.8;"/>
   </g>
   <g id="patch_19">
    <path d="M 491.725714 255.6792 
L 491.725714 149.410473 
" style="fill:none;stroke:#000000;stroke-linecap:square;stroke-linejoin:miter;stroke-width:0.8;"/>
   </g>
   <g id="patch_20">
    <path d="M 313.287978 255.6792 
L 491.725714 255.6792 
" style="fill:none;stroke:#000000;stroke-linecap:square;stroke-linejoin:miter;stroke-width:0.8;"/>
   </g>
   <g id="patch_21">
    <path d="M 313.287978 149.410473 
L 491.725714 149.410473 
" style="fill:none;stroke:#000000;stroke-linecap:square;stroke-linejoin:miter;stroke-width:0.8;"/>
   </g>
   <g id="text_46">
    <!-- d -->
    <defs>
     <path d="M 45.609375 46.6875 
L 45.609375 75.984375 
L 63.1875 75.984375 
L 63.1875 0 
L 45.609375 0 
L 45.609375 7.90625 
Q 42 3.078125 37.640625 0.828125 
Q 33.296875 -1.421875 27.59375 -1.421875 
Q 17.484375 -1.421875 10.984375 6.609375 
Q 4.5 14.65625 4.5 27.296875 
Q 4.5 39.9375 10.984375 47.96875 
Q 17.484375 56 27.59375 56 
Q 33.25 56 37.625 53.734375 
Q 42 51.46875 45.609375 46.6875 
z
M 34.078125 11.28125 
Q 39.703125 11.28125 42.65625 15.375 
Q 45.609375 19.484375 45.609375 27.296875 
Q 45.609375 35.109375 42.65625 39.203125 
Q 39.703125 43.3125 34.078125 43.3125 
Q 28.515625 43.3125 25.5625 39.203125 
Q 22.609375 35.109375 22.609375 27.296875 
Q 22.609375 19.484375 25.5625 15.375 
Q 28.515625 11.28125 34.078125 11.28125 
z
" id="DejaVuSans-Bold-100"/>
    </defs>
    <g transform="translate(268.678544 144.097036)scale(0.108 -0.108)">
     <use xlink:href="#DejaVuSans-Bold-100"/>
    </g>
   </g>
  </g>
 </g>
 <defs>
  <clipPath id="pe7e962d856">
   <rect height="106.268727" width="178.437736" x="63.9" y="21.888"/>
  </clipPath>
  <clipPath id="p098e00a142">
   <rect height="106.268727" width="178.437736" x="313.287978" y="21.888"/>
  </clipPath>
  <clipPath id="pbb494db310">
   <rect height="106.268727" width="178.437736" x="63.9" y="149.410473"/>
  </clipPath>
  <clipPath id="p86fb74107f">
   <rect height="106.268727" width="178.437736" x="313.287978" y="149.410473"/>
  </clipPath>
 </defs>
</svg>
